<svg width="13" height="16" viewBox="0 0 13 16" fill="none" xmlns="http://www.w3.org/2000/svg">
<path fill-rule="evenodd" clip-rule="evenodd" d="M4.58134 1H8.41787C8.88873 1 9.08775 1.2409 9.08775 1.71429V3H3.91146V1.71429C3.91146 1.2409 4.11048 1 4.58134 1ZM2.87621 3.00271V1.71429C2.87621 0.767512 3.63962 0 4.58134 0H8.41787C9.35959 0 10.123 0.767512 10.123 1.71429V3.00271C11.097 3.0532 11.8997 3.80355 12.0064 4.78333L12.9872 13.7833C13.1162 14.9667 12.1893 16 10.999 16H2.00023C0.809892 16 -0.116953 14.9667 0.0119994 13.7833L0.992768 4.78333C1.09954 3.80355 1.90218 3.0532 2.87621 3.00271Z" fill="#8D191D"/>
</svg>
