<svg width="16" height="16" viewBox="0 0 16 16" fill="none" xmlns="http://www.w3.org/2000/svg">
<path d="M13.7143 1.14281H13.1429V0.58745C13.1429 0.279949 12.9064 0.0160193 12.5989 0.000662138C12.5217 -0.00306045 12.4445 0.0089422 12.372 0.0359429C12.2995 0.0629436 12.2332 0.10438 12.1772 0.157742C12.1212 0.211103 12.0766 0.275279 12.0462 0.346379C12.0157 0.41748 12 0.494026 12 0.571378V1.14281H4V0.58745C4 0.279949 3.76357 0.0160193 3.45607 0.000662138C3.37881 -0.00306045 3.30159 0.0089422 3.22911 0.0359429C3.15662 0.0629436 3.09037 0.10438 3.03437 0.157742C2.97837 0.211103 2.93379 0.275279 2.90333 0.346379C2.87286 0.41748 2.85715 0.494026 2.85714 0.571378V1.14281H2.28571C1.67951 1.14281 1.09812 1.38363 0.66947 1.81228C0.240816 2.24094 0 2.82232 0 3.42853V13.7143C0 14.3205 0.240816 14.9019 0.66947 15.3305C1.09812 15.7592 1.67951 16 2.28571 16H13.7143C14.3205 16 14.9019 15.7592 15.3305 15.3305C15.7592 14.9019 16 14.3205 16 13.7143V3.42853C16 2.82232 15.7592 2.24094 15.3305 1.81228C14.9019 1.38363 14.3205 1.14281 13.7143 1.14281ZM3.71429 13.7143C3.54476 13.7143 3.37904 13.664 3.23808 13.5698C3.09713 13.4756 2.98726 13.3418 2.92239 13.1851C2.85751 13.0285 2.84054 12.8562 2.87361 12.6899C2.90669 12.5236 2.98832 12.3709 3.10819 12.251C3.22807 12.1312 3.3808 12.0495 3.54707 12.0165C3.71333 11.9834 3.88568 12.0004 4.0423 12.0652C4.19892 12.1301 4.33279 12.24 4.42697 12.3809C4.52116 12.5219 4.57143 12.6876 4.57143 12.8571C4.57143 13.0845 4.48112 13.3025 4.32038 13.4632C4.15963 13.624 3.94161 13.7143 3.71429 13.7143ZM3.71429 10.8571C3.54476 10.8571 3.37904 10.8069 3.23808 10.7127C3.09713 10.6185 2.98726 10.4846 2.92239 10.328C2.85751 10.1714 2.84054 9.99903 2.87361 9.83276C2.90669 9.66649 2.98832 9.51376 3.10819 9.39389C3.22807 9.27401 3.3808 9.19238 3.54707 9.1593C3.71333 9.12623 3.88568 9.14321 4.0423 9.20808C4.19892 9.27296 4.33279 9.38282 4.42697 9.52378C4.52116 9.66473 4.57143 9.83045 4.57143 9.99998C4.57143 10.2273 4.48112 10.4453 4.32038 10.6061C4.15963 10.7668 3.94161 10.8571 3.71429 10.8571ZM6.57143 13.7143C6.4019 13.7143 6.23618 13.664 6.09523 13.5698C5.95427 13.4756 5.84441 13.3418 5.77953 13.1851C5.71466 13.0285 5.69768 12.8562 5.73076 12.6899C5.76383 12.5236 5.84546 12.3709 5.96534 12.251C6.08521 12.1312 6.23794 12.0495 6.40421 12.0165C6.57048 11.9834 6.74282 12.0004 6.89944 12.0652C7.05607 12.1301 7.18993 12.24 7.28412 12.3809C7.3783 12.5219 7.42857 12.6876 7.42857 12.8571C7.42857 13.0845 7.33827 13.3025 7.17752 13.4632C7.01677 13.624 6.79876 13.7143 6.57143 13.7143ZM6.57143 10.8571C6.4019 10.8571 6.23618 10.8069 6.09523 10.7127C5.95427 10.6185 5.84441 10.4846 5.77953 10.328C5.71466 10.1714 5.69768 9.99903 5.73076 9.83276C5.76383 9.66649 5.84546 9.51376 5.96534 9.39389C6.08521 9.27401 6.23794 9.19238 6.40421 9.1593C6.57048 9.12623 6.74282 9.14321 6.89944 9.20808C7.05607 9.27296 7.18993 9.38282 7.28412 9.52378C7.3783 9.66473 7.42857 9.83045 7.42857 9.99998C7.42857 10.2273 7.33827 10.4453 7.17752 10.6061C7.01677 10.7668 6.79876 10.8571 6.57143 10.8571ZM9.42857 13.7143C9.25904 13.7143 9.09332 13.664 8.95237 13.5698C8.81141 13.4756 8.70155 13.3418 8.63668 13.1851C8.5718 13.0285 8.55483 12.8562 8.5879 12.6899C8.62097 12.5236 8.70261 12.3709 8.82248 12.251C8.94235 12.1312 9.09508 12.0495 9.26135 12.0165C9.42762 11.9834 9.59996 12.0004 9.75659 12.0652C9.91321 12.1301 10.0471 12.24 10.1413 12.3809C10.2354 12.5219 10.2857 12.6876 10.2857 12.8571C10.2857 13.0845 10.1954 13.3025 10.0347 13.4632C9.87392 13.624 9.6559 13.7143 9.42857 13.7143ZM9.42857 10.8571C9.25904 10.8571 9.09332 10.8069 8.95237 10.7127C8.81141 10.6185 8.70155 10.4846 8.63668 10.328C8.5718 10.1714 8.55483 9.99903 8.5879 9.83276C8.62097 9.66649 8.70261 9.51376 8.82248 9.39389C8.94235 9.27401 9.09508 9.19238 9.26135 9.1593C9.42762 9.12623 9.59996 9.14321 9.75659 9.20808C9.91321 9.27296 10.0471 9.38282 10.1413 9.52378C10.2354 9.66473 10.2857 9.83045 10.2857 9.99998C10.2857 10.2273 10.1954 10.4453 10.0347 10.6061C9.87392 10.7668 9.6559 10.8571 9.42857 10.8571ZM9.42857 7.99997C9.25904 7.99997 9.09332 7.9497 8.95237 7.85552C8.81141 7.76133 8.70155 7.62747 8.63668 7.47084C8.5718 7.31422 8.55483 7.14188 8.5879 6.97561C8.62097 6.80934 8.70261 6.65661 8.82248 6.53673C8.94235 6.41686 9.09508 6.33523 9.26135 6.30215C9.42762 6.26908 9.59996 6.28605 9.75659 6.35093C9.91321 6.4158 10.0471 6.52567 10.1413 6.66662C10.2354 6.80758 10.2857 6.9733 10.2857 7.14283C10.2857 7.37016 10.1954 7.58818 10.0347 7.74892C9.87392 7.90967 9.6559 7.99997 9.42857 7.99997ZM12.2857 10.8571C12.1162 10.8571 11.9505 10.8069 11.8095 10.7127C11.6686 10.6185 11.5587 10.4846 11.4938 10.328C11.4289 10.1714 11.412 9.99903 11.445 9.83276C11.4781 9.66649 11.5598 9.51376 11.6796 9.39389C11.7995 9.27401 11.9522 9.19238 12.1185 9.1593C12.2848 9.12623 12.4571 9.14321 12.6137 9.20808C12.7704 9.27296 12.9042 9.38282 12.9984 9.52378C13.0926 9.66473 13.1429 9.83045 13.1429 9.99998C13.1429 10.2273 13.0526 10.4453 12.8918 10.6061C12.7311 10.7668 12.513 10.8571 12.2857 10.8571ZM12.2857 7.99997C12.1162 7.99997 11.9505 7.9497 11.8095 7.85552C11.6686 7.76133 11.5587 7.62747 11.4938 7.47084C11.4289 7.31422 11.412 7.14188 11.445 6.97561C11.4781 6.80934 11.5598 6.65661 11.6796 6.53673C11.7995 6.41686 11.9522 6.33523 12.1185 6.30215C12.2848 6.26908 12.4571 6.28605 12.6137 6.35093C12.7704 6.4158 12.9042 6.52567 12.9984 6.66662C13.0926 6.80758 13.1429 6.9733 13.1429 7.14283C13.1429 7.37016 13.0526 7.58818 12.8918 7.74892C12.7311 7.90967 12.513 7.99997 12.2857 7.99997ZM14.8571 3.71425V4.28568C14.8571 4.36145 14.827 4.43413 14.7735 4.48771C14.7199 4.54129 14.6472 4.57139 14.5714 4.57139H1.42857C1.3528 4.57139 1.28012 4.54129 1.22654 4.48771C1.17296 4.43413 1.14286 4.36145 1.14286 4.28568V3.42853C1.14371 3.12569 1.26439 2.83549 1.47853 2.62134C1.69267 2.4072 1.98287 2.28652 2.28571 2.28567H13.7143C14.0171 2.28652 14.3073 2.4072 14.5215 2.62134C14.7356 2.83549 14.8563 3.12569 14.8571 3.42853V3.71425Z" fill="#ABABAB"/>
</svg>
