<svg width="14" height="15" viewBox="0 0 14 15" fill="none" xmlns="http://www.w3.org/2000/svg">
<path d="M8.98043 1.51817C8.36647 0.861579 7.50895 0.5 6.56247 0.5C5.61093 0.5 4.75057 0.859392 4.13945 1.51192C3.52171 2.17164 3.22073 3.06824 3.2914 4.03641C3.43148 5.9465 4.89885 7.50032 6.56247 7.50032C8.22608 7.50032 9.69093 5.94681 9.83321 4.03704C9.90483 3.07762 9.60196 2.18289 8.98043 1.51817Z" fill="#333333"/>
<path d="M12.1152 14.4999H1.00977C0.864408 14.5018 0.720454 14.4715 0.58838 14.4114C0.456306 14.3512 0.339434 14.2626 0.246267 14.1521C0.0411949 13.9093 -0.041465 13.5777 0.0197412 13.2424C0.28602 11.7792 1.11704 10.55 2.42319 9.6872C3.58359 8.92122 5.05348 8.49964 6.5625 8.49964C8.07152 8.49964 9.54141 8.92154 10.7018 9.6872C12.008 10.5497 12.839 11.7789 13.1053 13.242C13.1665 13.5774 13.0838 13.909 12.8787 14.1518C12.7856 14.2624 12.6687 14.351 12.5367 14.4112C12.4046 14.4715 12.2606 14.5018 12.1152 14.4999Z" fill="#333333"/>
</svg>
