<svg width="14" height="15" viewBox="0 0 14 15" fill="none" xmlns="http://www.w3.org/2000/svg">
<path d="M13.9671 11.0669C13.804 10.8931 13.228 10.3794 12.1693 9.69966C11.1027 9.01402 10.3161 8.58651 10.0905 8.48682C10.0706 8.478 10.0487 8.47477 10.0271 8.47747C10.0055 8.48017 9.98508 8.48869 9.96798 8.50214C9.60453 8.78558 8.99265 9.30622 8.95983 9.33434C8.74795 9.51591 8.74795 9.51591 8.57451 9.45934C8.26951 9.35934 7.32199 8.85621 6.49635 8.02869C5.67071 7.20118 5.14164 6.23022 5.04163 5.92553C4.98445 5.75177 4.98445 5.75177 5.16664 5.53989C5.19476 5.50708 5.71571 4.89519 5.99915 4.53206C6.0126 4.51496 6.02112 4.49452 6.02382 4.47294C6.02652 4.45135 6.02328 4.42944 6.01447 4.40956C5.91478 4.18362 5.48727 3.39735 4.80163 2.33077C4.12099 1.27231 3.60786 0.696365 3.4341 0.533236C3.41816 0.51819 3.39845 0.507723 3.37706 0.502938C3.35566 0.498153 3.33337 0.499228 3.31254 0.506048C2.70518 0.714766 2.11916 0.981088 1.56251 1.30138C1.02513 1.61376 0.516373 1.97298 0.0421648 2.37483C0.0256113 2.38891 0.0132007 2.40722 0.00626397 2.42781C-0.000672779 2.4484 -0.00187399 2.47049 0.00278907 2.49171C0.0681028 2.79609 0.380296 4.06674 1.34906 5.82677C2.33752 7.62306 3.02253 8.54339 4.47412 9.98998C5.92571 11.4366 6.87511 12.1628 8.67326 13.1513C10.4333 14.1201 11.7046 14.4326 12.0083 14.4973C12.0296 14.5019 12.0517 14.5006 12.0723 14.4937C12.093 14.4868 12.1114 14.4744 12.1255 14.4579C12.5273 13.9837 12.8864 13.4749 13.1987 12.9375C13.5189 12.3808 13.7852 11.7948 13.994 11.1875C14.0007 11.1668 14.0017 11.1447 13.997 11.1235C13.9923 11.1023 13.9819 11.0828 13.9671 11.0669Z" fill="#333333"/>
</svg>
