<svg width="16" height="16" viewBox="0 0 16 16" fill="none" xmlns="http://www.w3.org/2000/svg">
<g id="add">
<path id="Vector" d="M11.9997 8.66659H8.66634V11.9999C8.66634 12.3666 8.36634 12.6666 7.99967 12.6666C7.63301 12.6666 7.33301 12.3666 7.33301 11.9999V8.66659H3.99967C3.63301 8.66659 3.33301 8.36659 3.33301 7.99992C3.33301 7.63325 3.63301 7.33325 3.99967 7.33325H7.33301V3.99992C7.33301 3.63325 7.63301 3.33325 7.99967 3.33325C8.36634 3.33325 8.66634 3.63325 8.66634 3.99992V7.33325H11.9997C12.3663 7.33325 12.6663 7.63325 12.6663 7.99992C12.6663 8.36659 12.3663 8.66659 11.9997 8.66659Z" fill="#111111"/>
</g>
</svg>
