<svg width="16" height="16" viewBox="0 0 16 16" fill="none" xmlns="http://www.w3.org/2000/svg">
<path d="M3.308 14.5668C3.15244 14.4668 3.05522 14.3252 3.01633 14.1418C2.97744 13.9585 3.008 13.7891 3.108 13.6335L5.74133 9.60016C5.04133 9.27794 4.45244 8.8085 3.97467 8.19183C3.49689 7.57516 3.19689 6.86683 3.07467 6.06683C3.04133 5.87794 3.09411 5.7085 3.233 5.5585C3.37189 5.4085 3.54689 5.3335 3.758 5.3335H11.5913C11.8024 5.3335 11.9774 5.4085 12.1163 5.5585C12.2552 5.7085 12.308 5.87794 12.2747 6.06683C12.1524 6.86683 11.8524 7.57516 11.3747 8.19183C10.8969 8.8085 10.308 9.27794 9.608 9.60016L9.99133 10.2002C9.758 10.3113 9.56633 10.4224 9.41633 10.5335C9.26633 10.6446 9.10245 10.8002 8.92467 11.0002L8.258 9.96683C8.14689 9.98905 7.95245 10.0002 7.67467 10.0002H7.37467C7.27467 10.0002 7.18022 9.98905 7.09133 9.96683L5.77467 12.0002H9.14133C9.28578 11.6002 9.52744 11.2779 9.86633 11.0335C10.2052 10.7891 10.5858 10.6668 11.008 10.6668C11.5636 10.6668 12.0358 10.8613 12.4247 11.2502C12.8136 11.6391 13.008 12.1113 13.008 12.6668C13.008 13.2224 12.8136 13.6946 12.4247 14.0835C12.0358 14.4724 11.5636 14.6668 11.008 14.6668C10.5858 14.6668 10.2052 14.5446 9.86633 14.3002C9.52744 14.0557 9.28578 13.7335 9.14133 13.3335H4.908L4.24133 14.3668C4.14133 14.5224 3.99967 14.6196 3.81633 14.6585C3.633 14.6974 3.46356 14.6668 3.308 14.5668ZM11.008 13.3335C11.1969 13.3335 11.3552 13.2696 11.483 13.1418C11.6108 13.0141 11.6747 12.8557 11.6747 12.6668C11.6747 12.4779 11.6108 12.3196 11.483 12.1918C11.3552 12.0641 11.1969 12.0002 11.008 12.0002C10.8191 12.0002 10.6608 12.0641 10.533 12.1918C10.4052 12.3196 10.3413 12.4779 10.3413 12.6668C10.3413 12.8557 10.4052 13.0141 10.533 13.1418C10.6608 13.2696 10.8191 13.3335 11.008 13.3335ZM6.308 4.66683C6.208 4.66683 6.12744 4.6335 6.06633 4.56683C6.00522 4.50016 5.97467 4.41127 5.97467 4.30016C5.97467 4.07794 5.93578 3.87516 5.858 3.69183C5.78022 3.5085 5.64689 3.30572 5.458 3.0835C5.26911 2.83905 5.133 2.60572 5.04967 2.3835C4.96633 2.16127 4.93578 1.90572 4.958 1.61683C4.96911 1.53905 5.00522 1.47238 5.06633 1.41683C5.12744 1.36127 5.20244 1.3335 5.29133 1.3335C5.39133 1.3335 5.47189 1.36683 5.533 1.4335C5.59411 1.50016 5.62467 1.58905 5.62467 1.70016C5.62467 1.92239 5.66356 2.12239 5.74133 2.30016C5.81911 2.47794 5.95244 2.67794 6.14133 2.90016C6.34133 3.15572 6.48022 3.39461 6.558 3.61683C6.63578 3.83905 6.66356 4.09461 6.64133 4.3835C6.63022 4.46127 6.59411 4.52794 6.533 4.5835C6.47189 4.63905 6.39689 4.66683 6.308 4.66683ZM7.97467 4.66683C7.87467 4.66683 7.79411 4.6335 7.733 4.56683C7.67189 4.50016 7.64133 4.41127 7.64133 4.30016C7.65244 4.07794 7.61911 3.87516 7.54133 3.69183C7.46356 3.5085 7.33022 3.30572 7.14133 3.0835C6.94133 2.85016 6.79967 2.61961 6.71633 2.39183C6.633 2.16405 6.60244 1.90572 6.62467 1.61683C6.63578 1.53905 6.67189 1.47238 6.733 1.41683C6.79411 1.36127 6.86911 1.3335 6.958 1.3335C7.058 1.3335 7.13856 1.36683 7.19967 1.4335C7.26078 1.50016 7.29133 1.58905 7.29133 1.70016C7.29133 1.92239 7.33022 2.12239 7.408 2.30016C7.48578 2.47794 7.61911 2.67794 7.808 2.90016C7.99689 3.14461 8.133 3.38072 8.21633 3.6085C8.29967 3.83627 8.33022 4.09461 8.308 4.3835C8.29689 4.46127 8.26078 4.52794 8.19967 4.5835C8.13856 4.63905 8.06356 4.66683 7.97467 4.66683ZM9.64133 4.66683C9.54133 4.66683 9.46078 4.6335 9.39967 4.56683C9.33856 4.50016 9.308 4.41127 9.308 4.30016C9.31911 4.07794 9.28578 3.87516 9.208 3.69183C9.13022 3.5085 8.99689 3.30572 8.808 3.0835C8.608 2.85016 8.46633 2.61961 8.383 2.39183C8.29967 2.16405 8.26911 1.90572 8.29133 1.61683C8.30244 1.53905 8.33856 1.47238 8.39967 1.41683C8.46078 1.36127 8.53578 1.3335 8.62467 1.3335C8.72467 1.3335 8.80522 1.36683 8.86633 1.4335C8.92744 1.50016 8.958 1.58905 8.958 1.70016C8.958 1.92239 8.99689 2.12239 9.07467 2.30016C9.15244 2.47794 9.28578 2.67794 9.47467 2.90016C9.66356 3.14461 9.79967 3.38072 9.883 3.6085C9.96633 3.83627 9.99689 4.09461 9.97467 4.3835C9.96356 4.46127 9.92744 4.52794 9.86633 4.5835C9.80522 4.63905 9.73022 4.66683 9.64133 4.66683Z" fill="#8D191D"/>
</svg>
