<svg width="133" height="48" viewBox="0 0 133 48" fill="none" xmlns="http://www.w3.org/2000/svg">
<g clip-path="url(#clip0_9210_97539)">
<path d="M90.025 -31.6737L7.69178 11.9329C2.76195 14.544 0.364015 20.0249 2.09308 24.7149L17.3081 66.013L21.2462 76.6981L21.4948 77.3397C21.644 77.7632 21.7939 78.1607 21.9333 78.5379C21.9536 78.6044 21.9906 78.6752 22.0109 78.7417L22.1397 79.0987C22.191 79.2519 22.2482 79.3892 22.2942 79.5323L22.4283 79.8994L22.6347 80.4602C23.1403 81.8419 23.9627 83.0326 24.9981 83.9707C27.7897 86.5122 32.155 87.3067 36.2841 85.6663L123.431 51.0922C129.169 48.818 132.213 42.7302 130.197 37.5728L104.83 -27.1991C102.7 -32.657 95.8077 -34.7427 90.025 -31.6737Z" fill="#8D191D"/>
<path d="M29.2864 49.6373H105.072C105.072 49.6373 100.503 48.0526 102.069 38.4159C103.469 29.9031 92.6532 29.9952 94.5511 25.0387C96.6885 19.5109 94.68 17.005 92.211 13.3013C89.7419 9.59774 91.8425 -2.15801 81.9477 -8.33069C72.053 -14.5034 52.3925 -13.6558 46.7174 -5.23513C41.0238 3.16709 41.2817 7.99468 40.5447 11.3298C39.8076 14.6649 36.6199 14.2411 35.9935 17.7051C35.367 21.1692 37.4491 24.6886 36.2146 27.0471C34.98 29.3872 29.9129 32.3722 29.9129 36.5733C29.9129 40.7744 31.4054 46.21 29.2864 49.0661" fill="#C45A20"/>
<path d="M84.03 46.9662C83.3482 45.1236 82.6112 42.8756 83.6431 41.1067C84.767 39.301 84.4354 36.8872 83.4035 35.1367C83.7536 36.6292 83.9379 38.1217 83.5141 39.5774C83.4035 39.9643 83.2008 40.3513 82.9981 40.7198C81.8189 42.7282 82.7218 45.271 84.03 46.9662Z" fill="#E79D6C"/>
<path d="M49.9228 37.1094C49.5359 38.9335 48.7067 40.6287 47.3616 41.9001C47.1774 42.0659 46.7536 42.4713 46.5693 42.6372C46.1455 43.0978 45.7586 43.5953 45.519 44.1849C45.1137 45.1062 45.0584 46.1934 45.4822 47.0778C45.3716 46.1197 45.5927 45.2168 46.0534 44.4429C46.3298 43.9638 46.6983 43.54 47.0852 43.1531C47.2511 43.0057 47.7117 42.6003 47.8775 42.4529C49.2963 41.0894 50.1255 39.0625 49.9228 37.1094Z" fill="#E79D6C"/>
<path d="M42.4423 39.8329L43.2899 44.9185L45.6669 59.346H74.1165L88.6914 41.0674C88.6914 41.0674 73.3058 34.9316 59.4679 34.5262C58.9888 34.5078 58.5097 34.5078 58.0491 34.5078C56.704 34.5078 55.4695 34.5815 54.3271 34.7105C45.63 35.6318 42.5529 39.7039 42.4423 39.8329Z" fill="#B39888"/>
<path d="M42.4412 39.8329L43.2888 44.9185L58.4533 50.0409L60.0195 34.7658C59.8353 34.6737 59.651 34.5999 59.4668 34.5262C58.9877 34.5078 58.5086 34.5078 58.048 34.5078C56.7029 34.5078 55.4683 34.5815 54.3259 34.7105C45.6289 35.6318 42.5517 39.7039 42.4412 39.8329Z" fill="#977864"/>
<path d="M72.9004 37.2749L71.7211 64.0478C71.7211 64.0478 70.1734 67.1986 62.1949 66.8301C54.2165 66.4616 54.1059 64.6743 54.1059 64.6743L56.0775 35.6719L72.9004 37.2749Z" fill="#E6C2AC"/>
<path d="M49.1484 26.6957C49.1484 26.6957 41.4464 26.4193 41.5385 19.9334C41.6307 13.4474 48.9089 16.543 48.9089 16.543L49.1484 26.6957Z" fill="#E6C2AC"/>
<path d="M72.7891 42.5446C72.7891 42.5446 71.9046 47.8697 65.5477 48.1461C59.1907 48.4225 55.7082 40.6836 55.7082 40.6836L72.7891 42.5446Z" fill="#DAA47E"/>
<path d="M82.4811 26.9183C82.4811 26.9183 90.1831 26.642 90.091 20.156C89.9988 13.6701 82.7206 16.7657 82.7206 16.7657L82.4811 26.9183Z" fill="#E6C2AC"/>
<path d="M82.021 30.6604C79.6994 37.3122 72.1632 45.3828 66.3959 45.1801C60.4074 44.959 49.9231 39.0258 47.8778 28.3388C45.8325 17.6517 44.9481 -3.02215 64.2585 -3.31696C85.7062 -3.64863 85.5035 20.7289 82.021 30.6604Z" fill="#E6C2AC"/>
<path d="M83.7716 18.753C83.7716 18.753 70.376 13.7412 66.2301 2.13285C66.2301 2.13285 58.178 15.4364 46.8461 17.9791C46.8461 17.9791 39.6047 -7.89086 66.8013 -7.24595C89.8153 -6.69317 83.7716 18.753 83.7716 18.753Z" fill="#C45A20"/>
<path d="M65.5473 35.4312C67.482 35.4312 69.0298 34.1598 69.085 34.1046C69.1588 34.0309 69.1772 33.9203 69.1035 33.8466C69.0298 33.7729 68.9192 33.7545 68.8455 33.8282C68.8271 33.8466 67.3346 35.0627 65.5473 35.0627C63.5204 35.0627 62.249 34.0493 62.249 34.0309C62.1753 33.9572 62.0463 33.9756 61.9911 34.0493C61.9174 34.123 61.9358 34.252 62.0095 34.3072C62.0648 34.3625 63.373 35.4312 65.5473 35.4312Z" fill="#6E4626"/>
<path d="M64.756 30.067C64.7744 30.067 64.7744 30.067 64.756 30.067C67.4462 29.8275 68.1464 28.8325 68.1648 28.7956C68.2016 28.7403 68.2016 28.6851 68.1832 28.6298L66.3406 22.7888C66.3038 22.6966 66.2116 22.6414 66.1011 22.6598C66.009 22.6966 65.9537 22.7888 65.9721 22.8993L67.8147 28.6482C67.612 28.8509 66.8197 29.4958 64.7376 29.6985C64.627 29.7169 64.5533 29.7906 64.5717 29.9012C64.5902 29.9933 64.6639 30.067 64.756 30.067Z" fill="#6E4626"/>
<path d="M57.9381 22.6988C57.1952 22.6988 56.593 21.8078 56.593 20.7087C56.593 19.6097 57.1952 18.7188 57.9381 18.7188C58.681 18.7188 59.2832 19.6097 59.2832 20.7087C59.2832 21.8078 58.681 22.6988 57.9381 22.6988Z" fill="#6E4626"/>
<path d="M77.1201 17.4282C77.1754 17.4282 77.2307 17.4097 77.2675 17.3729C77.3412 17.2992 77.3228 17.1702 77.2491 17.1149C74.5221 14.7564 70.8 16.4516 70.7632 16.47C70.6711 16.5069 70.6342 16.6174 70.6711 16.7096C70.7079 16.8017 70.8185 16.8385 70.9106 16.8017C70.9474 16.7833 74.4668 15.1986 77.0096 17.3913C77.028 17.4097 77.0648 17.4282 77.1201 17.4282Z" fill="#6E4626"/>
<path d="M58.3428 17.3911C59.8721 17.3911 61.0882 16.8751 61.1066 16.8751C61.1988 16.8383 61.2356 16.7277 61.1988 16.6356C61.1619 16.5435 61.0514 16.5066 60.9592 16.5435C60.9224 16.5619 57.3662 18.036 54.8787 15.7696C54.805 15.6959 54.6944 15.7143 54.6207 15.788C54.547 15.8617 54.5654 15.9723 54.6391 16.046C55.8 17.0962 57.1635 17.3911 58.3428 17.3911Z" fill="#6E4626"/>
<path d="M84.0476 20.91C84.1028 20.91 84.1765 20.8732 84.195 20.8179C85.7059 18.4962 87.5853 19.2885 87.6038 19.2885C87.6959 19.3254 87.8064 19.2885 87.8433 19.1964C87.8802 19.1043 87.8433 18.9937 87.7512 18.9569C87.7327 18.9384 85.5585 18.0356 83.8817 20.6152C83.8264 20.7073 83.8449 20.8179 83.937 20.8731C83.9739 20.91 84.0107 20.91 84.0476 20.91Z" fill="#6E4626"/>
<path d="M46.4965 21.15C46.4965 21.15 46.5149 21.15 46.5333 21.15C46.6255 21.1315 46.6992 21.0394 46.6808 20.9473C46.6808 20.9289 46.3491 18.902 43.8063 18.5888C43.7142 18.5703 43.6036 18.644 43.6036 18.7546C43.5852 18.8651 43.6589 18.9573 43.7695 18.9573C46.0358 19.2521 46.3122 20.9289 46.3307 21.0026C46.3307 21.0763 46.4228 21.15 46.4965 21.15Z" fill="#6E4626"/>
<path d="M95.582 47.5012C93.979 46.1745 93.2604 44.1477 93.4999 42.1393C93.5736 41.4575 93.7763 40.8126 93.8684 40.1308C94.0711 38.712 93.9421 37.238 93.3893 35.9113C92.855 34.6031 91.7679 33.4606 90.4228 33C91.5652 33.7555 92.4128 34.8426 92.8181 36.114C93.2419 37.3669 93.2972 38.712 93.1498 40.0203C93.0761 40.702 92.8734 41.3838 92.8366 42.084C92.6523 44.203 93.7026 46.5246 95.582 47.5012Z" fill="#E79D6C"/>
<path d="M43.1606 30.6562C43.1606 32.6094 42.1841 34.3414 40.7468 35.576C37.9092 37.8424 35.9377 40.2562 37.0432 44.0887C36.9879 42.8174 37.0617 41.5275 37.5776 40.3667C38.3146 38.6163 39.844 37.3449 41.2259 36.0919C42.6816 34.7284 43.6397 32.6278 43.1606 30.6562Z" fill="#E79D6C"/>
<path d="M82.666 10.2621C77.7831 8.56696 72.1264 6.09789 69.731 1.21502C69.3994 0.514832 69.1598 -0.222205 68.9755 -0.996094C69.0124 -0.203779 69.1414 0.570109 69.3993 1.344C71.2235 6.55853 77.5068 9.52511 82.666 10.2621Z" fill="#E79D6C"/>
<path d="M62.1387 -0.1875C60.683 3.73722 58.1402 7.18287 54.9341 9.8362C52.9994 11.4393 50.8436 12.6922 48.5588 13.7793C50.1987 13.3371 51.7649 12.6738 53.2574 11.8078C57.6243 9.22815 61.1805 4.8612 62.1387 -0.1875Z" fill="#E79D6C"/>
<path d="M81.1172 4.30996C80.9882 1.93302 79.6984 -0.27809 78.1138 -2.01013C76.8792 -3.29994 75.3867 -4.3318 73.7652 -5.06883C73.2309 -5.30837 72.6781 -5.51105 72.1069 -5.69531C72.8071 -5.21624 73.6178 -4.75559 74.2996 -4.25809C77.3583 -2.15754 79.9748 0.735334 81.1172 4.30996Z" fill="#E79D6C"/>
<path d="M59.873 -4.46094C59.4861 -4.33196 59.0623 -4.27668 58.6754 -4.1477C55.0455 -3.13427 51.8946 -0.757326 49.6835 2.26453C48.2279 4.27295 47.1223 6.55777 46.4958 8.95314C47.5645 6.7236 48.7254 4.60462 50.2363 2.68832C52.2079 0.127119 54.7322 -1.99186 57.6251 -3.42909C58.3621 -3.81603 59.1729 -4.11084 59.873 -4.46094Z" fill="#E79D6C"/>
<path d="M56.2054 31.284C53.5595 31.284 51.4146 29.8073 51.4146 27.9857C51.4146 26.1642 53.5595 24.6875 56.2054 24.6875C58.8512 24.6875 60.9961 26.1642 60.9961 27.9857C60.9961 29.8073 58.8512 31.284 56.2054 31.284Z" fill="#DE9B92"/>
<path d="M75.4241 30.823C72.7782 30.823 70.6334 29.3464 70.6334 27.5248C70.6334 25.7032 72.7782 24.2266 75.4241 24.2266C78.07 24.2266 80.2148 25.7032 80.2148 27.5248C80.2148 29.3464 78.07 30.823 75.4241 30.823Z" fill="#DE9B92"/>
<path d="M65.5473 37.2943C66.616 37.2943 67.3899 37.0363 67.4267 37.0179C67.5189 36.981 67.5741 36.8705 67.5373 36.7783C67.5004 36.6862 67.3899 36.6309 67.2977 36.6678C67.2793 36.6678 65.621 37.2206 63.7968 36.6678C63.7047 36.6309 63.5941 36.6862 63.5573 36.7968C63.5204 36.8889 63.5757 36.9995 63.6863 37.0363C64.3496 37.239 64.9945 37.2943 65.5473 37.2943Z" fill="#6E4626"/>
<path d="M56.8887 19.5674L54.7697 18.8672L56.686 21.2073L56.8887 19.5674Z" fill="#6E4626"/>
<path d="M73.6744 22.6988C72.9316 22.6988 72.3294 21.8078 72.3294 20.7087C72.3294 19.6097 72.9316 18.7188 73.6744 18.7188C74.4173 18.7188 75.0195 19.6097 75.0195 20.7087C75.0195 21.8078 74.4173 22.6988 73.6744 22.6988Z" fill="#6E4626"/>
<path d="M74.7239 19.5674L76.8613 18.8672L74.9266 21.2073L74.7239 19.5674Z" fill="#6E4626"/>
<path d="M45.6666 59.3494L42.4789 40.0391C42.4789 40.0391 52.8527 42.287 65.1797 50.0443L62.9317 57.4516L45.6666 59.3494Z" fill="#B39888"/>
<path d="M73.8398 26.4758C76.1062 26.4758 79.0728 26.052 80.1047 25.7572C82.9975 24.9464 84.4716 23.9883 84.8585 22.6616C85.8904 20.0267 84.7848 17.226 82.7948 15.9914L82.629 15.8809C82.2605 15.6598 81.7814 15.3834 81.2102 15.107C80.897 14.9596 80.4732 14.7385 80.1231 14.6095C79.3492 14.3331 78.7964 14.0752 78.7411 13.6698C78.7043 13.4671 78.649 13.3197 78.7411 13.0802C78.778 12.9696 78.8333 12.859 78.8701 12.7116C78.907 12.6011 79.2386 12.1404 78.8333 11.7719C78.2436 11.2376 77.2855 10.9427 75.8851 10.9427H75.793C74.7243 10.9427 73.4529 10.8138 73.0844 11.3665C72.7711 11.864 73.0291 12.5458 73.1212 12.7301L73.1397 12.7485C73.4897 13.3934 73.3976 13.6698 72.8448 14.0383C72.4947 14.2594 71.942 14.4252 71.2049 14.6279C71.0575 14.6648 70.8917 14.7201 70.7259 14.7569C69.7309 15.0149 68.6069 15.3097 67.8146 15.9914C66.5432 17.097 65.6034 19.5108 66.3405 21.7772C66.4142 21.9983 66.5432 22.3484 66.8011 22.7906L66.8196 22.8275L66.838 22.8459C67.1881 23.4724 67.833 24.3568 68.8648 25.0386C69.0491 25.1676 69.1965 25.2781 69.3439 25.3702C70.0994 25.9046 70.431 26.1441 72.4948 26.3837C72.8448 26.4574 73.3055 26.4758 73.8398 26.4758Z" fill="#17100A"/>
<path d="M53.1836 26.3117C55.45 26.3117 58.4165 25.8879 59.4484 25.5931C62.3413 24.7824 63.8153 23.8242 64.2023 22.4976C65.2341 19.8627 64.1286 17.0619 62.1386 15.8274L61.9727 15.7168C61.6042 15.4957 61.1252 15.2193 60.5539 14.9429C60.2407 14.7955 59.8169 14.5744 59.4668 14.4454C58.6929 14.1691 58.1402 13.9111 58.0849 13.5057C58.048 13.303 57.9928 13.1556 58.0849 12.9161C58.1217 12.8055 58.177 12.695 58.2139 12.5476C58.2507 12.437 58.5824 11.9764 58.177 11.6079C57.5874 11.0735 56.6292 10.7787 55.2289 10.7787H55.1367C54.068 10.7787 52.7966 10.6497 52.4281 11.2025C52.1149 11.7 52.3728 12.3817 52.465 12.566L52.4834 12.5844C52.8335 13.2293 52.7414 13.5057 52.1886 13.8742C51.8385 14.0953 51.2857 14.2612 50.5487 14.4639C50.4013 14.5007 50.2354 14.556 50.0696 14.5929C49.0746 14.8508 47.9506 15.1456 47.1583 15.8274C45.8869 16.9329 44.9472 19.3467 45.6842 21.6131C45.7579 21.8342 45.8869 22.1843 46.1449 22.6266L46.1633 22.6634L46.1817 22.6818C46.5318 23.3083 47.1767 24.1928 48.2086 24.8745C48.3928 25.0035 48.5403 25.1141 48.6877 25.2062C49.4431 25.7405 49.7748 25.9801 51.8385 26.2196C52.1886 26.2749 52.6677 26.3117 53.1836 26.3117Z" fill="#17100A"/>
<path d="M67.152 18.9595L67.668 18.1487C67.5574 18.075 64.9041 16.3983 62.3797 18.1672L62.9325 18.9595C64.9225 17.5591 67.0599 18.8858 67.152 18.9595Z" fill="#17100A"/>
<mask id="mask0_9210_97539" style="mask-type:luminance" maskUnits="userSpaceOnUse" x="45" y="10" width="20" height="17">
<path d="M53.1836 26.3117C55.45 26.3117 58.4165 25.8879 59.4484 25.5931C62.3413 24.7824 63.8153 23.8242 64.2023 22.4976C65.2341 19.8627 64.1286 17.0619 62.1386 15.8274L61.9727 15.7168C61.6042 15.4957 61.1252 15.2193 60.5539 14.9429C60.2407 14.7955 59.8169 14.5744 59.4668 14.4454C58.6929 14.1691 58.1402 13.9111 58.0849 13.5057C58.048 13.303 57.9928 13.1556 58.0849 12.9161C58.1217 12.8055 58.177 12.695 58.2139 12.5476C58.2507 12.437 58.5824 11.9764 58.177 11.6079C57.5874 11.0735 56.6292 10.7787 55.2289 10.7787H55.1367C54.068 10.7787 52.7966 10.6497 52.4281 11.2025C52.1149 11.7 52.3728 12.3817 52.465 12.566L52.4834 12.5844C52.8335 13.2293 52.7414 13.5057 52.1886 13.8742C51.8385 14.0953 51.2857 14.2612 50.5487 14.4639C50.4013 14.5007 50.2354 14.556 50.0696 14.5929C49.0746 14.8508 47.9506 15.1456 47.1583 15.8274C45.8869 16.9329 44.9472 19.3467 45.6842 21.6131C45.7579 21.8342 45.8869 22.1843 46.1449 22.6266L46.1633 22.6634L46.1817 22.6818C46.5318 23.3083 47.1767 24.1928 48.2086 24.8745C48.3928 25.0035 48.5403 25.1141 48.6877 25.2062C49.4431 25.7405 49.7748 25.9801 51.8385 26.2196C52.1886 26.2749 52.6677 26.3117 53.1836 26.3117Z" fill="white"/>
</mask>
<g mask="url(#mask0_9210_97539)">
<path d="M59.1512 10.7251L60.2246 11.0586L54.8232 28.4442L53.7498 28.1107L59.1512 10.7251Z" fill="white"/>
</g>
<mask id="mask1_9210_97539" style="mask-type:luminance" maskUnits="userSpaceOnUse" x="45" y="10" width="20" height="17">
<path d="M53.1836 26.3117C55.45 26.3117 58.4165 25.8879 59.4484 25.5931C62.3413 24.7824 63.8153 23.8242 64.2023 22.4976C65.2341 19.8627 64.1286 17.0619 62.1386 15.8274L61.9727 15.7168C61.6042 15.4957 61.1252 15.2193 60.5539 14.9429C60.2407 14.7955 59.8169 14.5744 59.4668 14.4454C58.6929 14.1691 58.1402 13.9111 58.0849 13.5057C58.048 13.303 57.9928 13.1556 58.0849 12.9161C58.1217 12.8055 58.177 12.695 58.2139 12.5476C58.2507 12.437 58.5824 11.9764 58.177 11.6079C57.5874 11.0735 56.6292 10.7787 55.2289 10.7787H55.1367C54.068 10.7787 52.7966 10.6497 52.4281 11.2025C52.1149 11.7 52.3728 12.3817 52.465 12.566L52.4834 12.5844C52.8335 13.2293 52.7414 13.5057 52.1886 13.8742C51.8385 14.0953 51.2857 14.2612 50.5487 14.4639C50.4013 14.5007 50.2354 14.556 50.0696 14.5929C49.0746 14.8508 47.9506 15.1456 47.1583 15.8274C45.8869 16.9329 44.9472 19.3467 45.6842 21.6131C45.7579 21.8342 45.8869 22.1843 46.1449 22.6266L46.1633 22.6634L46.1817 22.6818C46.5318 23.3083 47.1767 24.1928 48.2086 24.8745C48.3928 25.0035 48.5403 25.1141 48.6877 25.2062C49.4431 25.7405 49.7748 25.9801 51.8385 26.2196C52.1886 26.2749 52.6677 26.3117 53.1836 26.3117Z" fill="white"/>
</mask>
<g mask="url(#mask1_9210_97539)">
<path d="M56.4403 10.2798L57.5137 10.6133L52.1123 27.9989L51.0389 27.6654L56.4403 10.2798Z" fill="white"/>
</g>
<mask id="mask2_9210_97539" style="mask-type:luminance" maskUnits="userSpaceOnUse" x="66" y="10" width="20" height="17">
<path d="M73.8398 26.4758C76.1062 26.4758 79.0728 26.052 80.1047 25.7572C82.9975 24.9464 84.4716 23.9883 84.8585 22.6616C85.8904 20.0267 84.7848 17.226 82.7948 15.9914L82.629 15.8809C82.2605 15.6598 81.7814 15.3834 81.2102 15.107C80.897 14.9596 80.4732 14.7385 80.1231 14.6095C79.3492 14.3331 78.7964 14.0752 78.7411 13.6698C78.7043 13.4671 78.649 13.3197 78.7411 13.0802C78.778 12.9696 78.8333 12.859 78.8701 12.7116C78.907 12.6011 79.2386 12.1404 78.8333 11.7719C78.2436 11.2376 77.2855 10.9427 75.8851 10.9427H75.793C74.7243 10.9427 73.4529 10.8138 73.0844 11.3665C72.7711 11.864 73.0291 12.5458 73.1212 12.7301L73.1397 12.7485C73.4897 13.3934 73.3976 13.6698 72.8448 14.0383C72.4947 14.2594 71.942 14.4252 71.2049 14.6279C71.0575 14.6648 70.8917 14.7201 70.7259 14.7569C69.7309 15.0149 68.6069 15.3097 67.8146 15.9914C66.5432 17.097 65.6034 19.5108 66.3405 21.7772C66.4142 21.9983 66.5432 22.3484 66.8011 22.7906L66.8196 22.8275L66.838 22.8459C67.1881 23.4724 67.833 24.3568 68.8648 25.0386C69.0491 25.1676 69.1965 25.2781 69.3439 25.3702C70.0994 25.9046 70.431 26.1441 72.4948 26.3837C72.8448 26.4574 73.3055 26.4758 73.8398 26.4758Z" fill="white"/>
</mask>
<g mask="url(#mask2_9210_97539)">
<path d="M79.786 10.9048L80.8594 11.2383L75.458 28.6239L74.3846 28.2904L79.786 10.9048Z" fill="white"/>
</g>
<mask id="mask3_9210_97539" style="mask-type:luminance" maskUnits="userSpaceOnUse" x="66" y="10" width="20" height="17">
<path d="M73.8398 26.4758C76.1062 26.4758 79.0728 26.052 80.1047 25.7572C82.9975 24.9464 84.4716 23.9883 84.8585 22.6616C85.8904 20.0267 84.7848 17.226 82.7948 15.9914L82.629 15.8809C82.2605 15.6598 81.7814 15.3834 81.2102 15.107C80.897 14.9596 80.4732 14.7385 80.1231 14.6095C79.3492 14.3331 78.7964 14.0752 78.7411 13.6698C78.7043 13.4671 78.649 13.3197 78.7411 13.0802C78.778 12.9696 78.8333 12.859 78.8701 12.7116C78.907 12.6011 79.2386 12.1404 78.8333 11.7719C78.2436 11.2376 77.2855 10.9427 75.8851 10.9427H75.793C74.7243 10.9427 73.4529 10.8138 73.0844 11.3665C72.7711 11.864 73.0291 12.5458 73.1212 12.7301L73.1397 12.7485C73.4897 13.3934 73.3976 13.6698 72.8448 14.0383C72.4947 14.2594 71.942 14.4252 71.2049 14.6279C71.0575 14.6648 70.8917 14.7201 70.7259 14.7569C69.7309 15.0149 68.6069 15.3097 67.8146 15.9914C66.5432 17.097 65.6034 19.5108 66.3405 21.7772C66.4142 21.9983 66.5432 22.3484 66.8011 22.7906L66.8196 22.8275L66.838 22.8459C67.1881 23.4724 67.833 24.3568 68.8648 25.0386C69.0491 25.1676 69.1965 25.2781 69.3439 25.3702C70.0994 25.9046 70.431 26.1441 72.4948 26.3837C72.8448 26.4574 73.3055 26.4758 73.8398 26.4758Z" fill="white"/>
</mask>
<g mask="url(#mask3_9210_97539)">
<path d="M77.0829 10.4439L78.1562 10.7773L72.7549 28.1629L71.6815 27.8295L77.0829 10.4439Z" fill="white"/>
</g>
</g>
<defs>
<clipPath id="clip0_9210_97539">
<rect width="132" height="48" fill="white" transform="matrix(-1 0 0 1 132.5 0)"/>
</clipPath>
</defs>
</svg>
