<svg width="16" height="16" viewBox="0 0 16 16" fill="none" xmlns="http://www.w3.org/2000/svg">
<path d="M8.00005 12.1831L5.23338 13.8498C5.11116 13.9276 4.98338 13.9609 4.85005 13.9498C4.71672 13.9387 4.60005 13.8942 4.50005 13.8165C4.40005 13.7387 4.32227 13.6415 4.26672 13.5248C4.21116 13.4081 4.20005 13.2776 4.23338 13.1331L4.96672 9.98314L2.51672 7.86647C2.40561 7.76647 2.33616 7.65258 2.30838 7.5248C2.28061 7.39703 2.28894 7.27203 2.33338 7.1498C2.37783 7.02758 2.4445 6.92758 2.53338 6.8498C2.62227 6.77203 2.7445 6.72203 2.90005 6.6998L6.13338 6.41647L7.38338 3.4498C7.43894 3.31647 7.52505 3.21647 7.64172 3.1498C7.75838 3.08314 7.87783 3.0498 8.00005 3.0498C8.12227 3.0498 8.24172 3.08314 8.35838 3.1498C8.47505 3.21647 8.56116 3.31647 8.61672 3.4498L9.86672 6.41647L13.1 6.6998C13.2556 6.72203 13.3778 6.77203 13.4667 6.8498C13.5556 6.92758 13.6223 7.02758 13.6667 7.1498C13.7112 7.27203 13.7195 7.39703 13.6917 7.5248C13.6639 7.65258 13.5945 7.76647 13.4834 7.86647L11.0334 9.98314L11.7667 13.1331C11.8001 13.2776 11.7889 13.4081 11.7334 13.5248C11.6778 13.6415 11.6 13.7387 11.5001 13.8165C11.4001 13.8942 11.2834 13.9387 11.1501 13.9498C11.0167 13.9609 10.8889 13.9276 10.7667 13.8498L8.00005 12.1831Z" fill="#FDCB3D"/>
</svg>
