<svg width="16" height="16" viewBox="0 0 16 16" fill="none" xmlns="http://www.w3.org/2000/svg">
<g clip-path="url(#clip0_1839_25517)">
<path d="M7.99994 15.9835C12.4092 15.9835 15.9836 12.4091 15.9836 7.99982C15.9836 3.59054 12.4092 0.0161133 7.99994 0.0161133C3.59066 0.0161133 0.0162354 3.59054 0.0162354 7.99982C0.0162354 12.4091 3.59066 15.9835 7.99994 15.9835Z" fill="#FC3F1D"/>
<path d="M10.8889 13.012H9.13633V4.34385H8.35559C6.92448 4.34385 6.17485 5.05941 6.17485 6.12756C6.17485 7.33941 6.69189 7.90089 7.76152 8.61645L8.643 9.21052L6.10966 13.0105H4.22522L6.50522 9.61793C5.19411 8.68163 4.45633 7.76756 4.45633 6.22534C4.45633 4.29793 5.80003 2.98682 8.34374 2.98682H10.8771V13.009H10.8889V13.012Z" fill="white"/>
</g>
<defs>
<clipPath id="clip0_1839_25517">
<rect width="16" height="16" fill="white"/>
</clipPath>
</defs>
</svg>
