<svg width="37" height="45" viewBox="0 0 37 45" fill="none" xmlns="http://www.w3.org/2000/svg">
<path fill-rule="evenodd" clip-rule="evenodd" d="M13.4467 2H22.4467C23.5512 2 24.4467 2.89543 24.4467 4V7H11.4467V4C11.4467 2.89543 12.3421 2 13.4467 2ZM9.44668 7V4C9.44668 1.79086 11.2375 0 13.4467 0H22.4467C24.6558 0 26.4467 1.79086 26.4467 4V7H28.9452C31.504 7 33.6498 8.93184 33.9177 11.4766L36.8651 39.4766C37.1758 42.4288 34.8611 45 31.8926 45H5.00043C2.03193 45 -0.282851 42.4288 0.0279063 39.4766L2.97527 11.4766C3.24314 8.93184 5.38901 7 7.9478 7H9.44668ZM20.8296 18.0535C21.2979 18.4615 21.2433 19.1273 20.9972 19.6808C19.763 22.4557 21.82 23.6771 23.9041 24.9146C24.8955 25.5033 25.8931 26.0956 26.5455 26.8606C28.1703 28.7658 27.4345 31.8505 25.6357 33.4562C23.6013 35.2721 20.6854 36 17.971 36C15.2619 36 12.3344 35.2665 10.3062 33.4562C8.48215 31.828 7.67538 28.8787 9.3965 26.8606C10.0409 26.105 11.0361 25.5236 12.0283 24.9439L12.0283 24.9439C14.1215 23.7211 16.2013 22.5061 14.9448 19.6808C14.6986 19.1273 14.6441 18.4615 15.1123 18.0535C16.7246 16.6488 19.2173 16.6488 20.8296 18.0535ZM17.971 23.8386C17.1139 26.1427 17.1139 29.9144 17.971 32.1965C18.8282 29.9144 18.8282 26.1427 17.971 23.8386ZM15.8281 23.8288C16.8235 25.1667 15.6502 26.4896 14.4803 27.8087C13.6354 28.7614 12.7923 29.7121 12.7694 30.6649C11.8205 29.3629 12.9637 28.0648 14.1128 26.7601C14.9688 25.7881 15.8281 24.8125 15.8281 23.8288ZM20.114 23.8288C19.1186 25.1666 20.2919 26.4896 21.4617 27.8087C22.3067 28.7614 23.1498 29.7121 23.1726 30.6649C24.1216 29.3629 22.9783 28.0648 21.8292 26.7601C20.9732 25.7881 20.114 24.8125 20.114 23.8288Z" fill="#CCCCCC"/>
</svg>
