<svg width="38" height="45" viewBox="0 0 38 45" fill="none" xmlns="http://www.w3.org/2000/svg">
<path fill-rule="evenodd" clip-rule="evenodd" d="M14 2H23C24.1046 2 25 2.89543 25 4V7H12V4C12 2.89543 12.8954 2 14 2ZM10 7V4C10 1.79086 11.7909 0 14 0H23C25.2091 0 27 1.79086 27 4V7H29.4985C32.0573 7 34.2032 8.93184 34.471 11.4766L37.4184 39.4766C37.7292 42.4288 35.4144 45 32.4459 45H5.55376C2.58525 45 0.270474 42.4288 0.581231 39.4766L3.5286 11.4766C3.79647 8.93184 5.94233 7 8.50113 7H10Z" fill="white"/>
</svg>
