<svg width="38" height="45" viewBox="0 0 38 45" fill="none" xmlns="http://www.w3.org/2000/svg">
<path fill-rule="evenodd" clip-rule="evenodd" d="M14 2H23C24.1046 2 25 2.89543 25 4V7H12V4C12 2.89543 12.8954 2 14 2ZM10 7V4C10 1.79086 11.7909 0 14 0H23C25.2091 0 27 1.79086 27 4V7H29.4985C32.0573 7 34.2032 8.93184 34.471 11.4766L37.4184 39.4766C37.7292 42.4288 35.4144 45 32.4459 45H5.55376C2.58525 45 0.270474 42.4288 0.581231 39.4766L3.5286 11.4766C3.79647 8.93184 5.94233 7 8.50113 7H10ZM21.383 18.0535C21.8512 18.4615 21.7966 19.1273 21.5505 19.6808C20.3164 22.4557 22.3733 23.6771 24.4574 24.9146C25.4488 25.5033 26.4464 26.0956 27.0988 26.8606C28.7236 28.7658 27.9878 31.8505 26.1891 33.4562C24.1547 35.2721 21.2388 36 18.5243 36C15.8152 36 12.8877 35.2665 10.8596 33.4562C9.03547 31.828 8.22871 28.8787 9.94983 26.8606C10.5942 26.105 11.5894 25.5236 12.5817 24.9439L12.5817 24.9439C14.6749 23.7211 16.7546 22.5061 15.4981 19.6808C15.252 19.1273 15.1974 18.4615 15.6656 18.0535C17.278 16.6488 19.7706 16.6488 21.383 18.0535ZM18.5244 23.8386C17.6672 26.1427 17.6672 29.9144 18.5244 32.1965C19.3815 29.9144 19.3815 26.1427 18.5244 23.8386ZM16.3814 23.8288C17.3768 25.1667 16.2035 26.4896 15.0337 27.8087C14.1887 28.7614 13.3456 29.7121 13.3227 30.6649C12.3738 29.3629 13.5171 28.0648 14.6661 26.7601C15.5222 25.7881 16.3814 24.8125 16.3814 23.8288ZM20.6673 23.8288C19.6719 25.1666 20.8452 26.4896 22.0151 27.8087C22.86 28.7614 23.7031 29.7121 23.726 30.6649C24.6749 29.3629 23.5317 28.0648 22.3826 26.7601C21.5266 25.7881 20.6673 24.8125 20.6673 23.8288Z" fill="white"/>
</svg>
