<svg width="38" height="45" viewBox="0 0 38 45" fill="none" xmlns="http://www.w3.org/2000/svg">
<path fill-rule="evenodd" clip-rule="evenodd" d="M13.9999 2H22.9999C24.1044 2 24.9999 2.89543 24.9999 4V7H11.9999V4C11.9999 2.89543 12.8953 2 13.9999 2ZM9.99988 7V4C9.99988 1.79086 11.7907 0 13.9999 0H22.9999C25.209 0 26.9999 1.79086 26.9999 4V7H29.4984C32.0572 7 34.203 8.93184 34.4709 11.4766L37.4183 39.4766C37.729 42.4288 35.4143 45 32.4458 45H5.55364C2.58513 45 0.270352 42.4288 0.581109 39.4766L3.52848 11.4766C3.79634 8.93184 5.94221 7 8.50101 7H9.99988ZM21.3828 18.0535C21.8511 18.4615 21.7965 19.1273 21.5504 19.6808C20.3162 22.4557 22.3732 23.6771 24.4573 24.9146C25.4487 25.5033 26.4463 26.0956 27.0987 26.8606C28.7235 28.7658 27.9877 31.8505 26.1889 33.4562C24.1545 35.2721 21.2386 36 18.5242 36C15.8151 36 12.8876 35.2665 10.8594 33.4562C9.03535 31.828 8.22859 28.8787 9.94971 26.8606C10.5941 26.105 11.5893 25.5236 12.5815 24.9439L12.5815 24.9439C14.6748 23.7211 16.7545 22.5061 15.498 19.6808C15.2519 19.1273 15.1973 18.4615 15.6655 18.0535C17.2778 16.6488 19.7705 16.6488 21.3828 18.0535ZM18.5242 23.8386C17.6671 26.1427 17.6671 29.9144 18.5242 32.1965C19.3814 29.9144 19.3814 26.1427 18.5242 23.8386ZM16.3813 23.8288C17.3767 25.1667 16.2034 26.4896 15.0335 27.8087C14.1886 28.7614 13.3455 29.7121 13.3226 30.6649C12.3737 29.3629 13.5169 28.0648 14.666 26.7601C15.522 25.7881 16.3813 24.8125 16.3813 23.8288ZM20.6672 23.8288C19.6718 25.1666 20.8451 26.4896 22.0149 27.8087C22.8599 28.7614 23.703 29.7121 23.7259 30.6649C24.6748 29.3629 23.5315 28.0648 22.3825 26.7601C21.5264 25.7881 20.6672 24.8125 20.6672 23.8288Z" fill="#8D191D"/>
</svg>
