<svg width="635" height="275" viewBox="0 0 635 275" fill="none" xmlns="http://www.w3.org/2000/svg">
<path d="M187.841 182.129V228.748H164.269V269.861H113.441V228.748H0V182.129L83.6078 5.5649H135.54L51.9326 182.129H113.441V116.055H164.269V182.129H187.841Z" fill="#EFEFEF"/>
<path d="M315.647 275C330.871 275 344.989 272.308 358.003 266.924C371.263 261.54 382.435 253.587 391.52 243.064C400.36 232.541 406.253 221.774 409.199 210.761C412.391 199.504 413.987 185.922 413.987 170.016V105.043C413.987 88.6468 412.514 75.065 409.568 64.2973C406.621 53.285 400.605 42.5174 391.52 31.9945C382.189 21.2269 370.772 13.1512 357.267 7.76737C344.007 2.13885 330.134 -0.430699 315.647 0.0587307C300.669 -0.185984 286.427 2.50592 272.922 8.13444C259.417 13.763 248.368 21.7163 239.774 31.9945C230.689 43.2516 224.673 54.2639 221.726 65.0315C218.78 75.5544 217.307 88.8916 217.307 105.043V170.016C217.307 186.167 218.78 199.627 221.726 210.394C224.918 220.917 230.934 231.807 239.774 243.064C248.859 253.587 260.031 261.54 273.291 266.924C286.796 272.308 300.914 275 315.647 275ZM315.647 47.0447C323.995 46.8 331.976 49.0024 339.587 53.6521C347.199 58.057 353.092 63.9303 357.267 71.2718C359.968 76.9004 361.564 81.6724 362.055 85.5879C362.546 89.5034 362.791 95.9884 362.791 105.043V170.016C362.791 179.805 362.423 187.024 361.686 191.673C360.95 196.323 358.985 201.095 355.793 205.989C351.619 212.842 345.849 218.348 338.483 222.508C331.362 226.423 323.75 228.259 315.647 228.014C307.789 228.259 300.3 226.423 293.18 222.508C286.059 218.348 280.289 212.964 275.869 206.356C272.431 201.217 270.344 196.078 269.607 190.939C268.871 185.8 268.502 178.826 268.502 170.016V105.043C268.502 96.7226 268.871 90.1152 269.607 85.2208C270.344 80.0817 272.063 75.3097 274.764 70.9048C278.938 63.5632 284.708 57.6899 292.075 53.285C299.687 48.8801 307.544 46.8 315.647 47.0447Z" fill="#EFEFEF"/>
<path d="M635 182.129V228.748H611.428V269.861H560.6V228.748H447.159V182.129L530.767 5.5649H582.699L499.091 182.129H560.6V116.055H611.428V182.129H635Z" fill="#EFEFEF"/>
</svg>
