<svg width="280" height="121" viewBox="0 0 280 121" fill="none" xmlns="http://www.w3.org/2000/svg">
<path d="M69.0752 2.44855V22.9609H27.2409L25.7816 48.3186C30.8623 45.6267 36.2672 44.2807 41.9965 44.2807C46.5366 44.2807 51.0227 45.0883 55.4548 46.7035C59.8868 48.3186 63.8865 50.5798 67.4538 53.4871C71.6696 57.2557 74.7505 61.6166 76.6962 66.5697C78.642 71.4151 79.5068 76.5836 79.2906 82.0751C79.1825 87.2435 78.0475 92.3581 75.8855 97.4189C73.7235 102.372 70.7508 106.625 66.9673 110.179C63.1839 113.732 58.8058 116.478 53.8333 118.416C48.8607 120.246 43.8341 121.054 38.7535 120.838C33.6728 121.054 28.6462 120.192 23.6737 118.254C18.7011 116.316 14.3772 113.57 10.7018 110.017C5.51305 105.172 1.94578 99.3032 0 92.412L21.2415 86.759C22.1062 90.0969 23.6737 92.7888 25.9438 94.8347C27.6733 96.5575 29.6191 97.9035 31.7811 98.8725C34.0512 99.734 36.3753 100.165 38.7535 100.165C41.1317 100.165 43.4558 99.734 45.7259 98.8725C47.9959 97.9035 49.9958 96.6113 51.7254 94.9962C53.4549 93.2734 54.7521 91.2814 55.6169 89.0202C56.5898 86.759 57.0763 84.4439 57.0763 82.0751C57.0763 79.7062 56.5898 77.445 55.6169 75.2915C54.7521 73.0303 53.4549 71.0383 51.7254 69.3154C49.9958 67.5926 47.9959 66.3005 45.7259 65.4391C43.4558 64.47 41.1317 63.9855 38.7535 63.9855C36.3753 63.9855 34.0512 64.47 31.7811 65.4391C29.6191 66.3005 27.6733 67.5926 25.9438 69.3154C24.7547 70.4999 23.8358 71.7382 23.1872 73.0303L4.21586 62.2088L7.78313 2.44855H69.0752Z" fill="#EFEFEF"/>
<path d="M137.137 121C143.839 121 150.055 119.816 155.784 117.447C161.621 115.078 166.54 111.578 170.54 106.948C174.431 102.318 177.026 97.5804 178.323 92.735C179.728 87.7819 180.431 81.8059 180.431 74.8069V46.2189C180.431 39.0046 179.782 33.0286 178.485 28.2908C177.188 23.4454 174.539 18.7077 170.54 14.0776C166.432 9.33983 161.405 5.78652 155.46 3.41764C149.622 0.941093 143.515 -0.189507 137.137 0.0258415C130.543 -0.081833 124.273 1.10261 118.328 3.57916C112.382 6.05571 107.518 9.55518 103.734 14.0776C99.7348 19.0307 97.0864 23.8761 95.7892 28.6139C94.492 33.2439 93.8434 39.1123 93.8434 46.2189V74.8069C93.8434 81.9136 94.492 87.8357 95.7892 92.5735C97.1945 97.2036 99.8429 101.995 103.734 106.948C107.734 111.578 112.653 115.078 118.49 117.447C124.435 119.816 130.651 121 137.137 121ZM137.137 20.6997C140.812 20.592 144.326 21.5611 147.677 23.6069C151.028 25.5451 153.622 28.1293 155.46 31.3596C156.649 33.8362 157.352 35.9358 157.568 37.6587C157.784 39.3815 157.892 42.2349 157.892 46.2189V74.8069C157.892 79.114 157.73 82.2904 157.406 84.3363C157.081 86.3821 156.217 88.4818 154.811 90.6353C152.974 93.6503 150.433 96.073 147.19 97.9035C144.055 99.6263 140.704 100.434 137.137 100.326C133.678 100.434 130.381 99.6263 127.246 97.9035C124.111 96.073 121.571 93.7041 119.625 90.7968C118.112 88.5356 117.193 86.2744 116.869 84.0132C116.544 81.752 116.382 78.6833 116.382 74.8069V46.2189C116.382 42.5579 116.544 39.6507 116.869 37.4971C117.193 35.2359 117.949 33.1363 119.139 31.1981C120.976 27.9678 123.517 25.3836 126.76 23.4454C130.111 21.5072 133.57 20.592 137.137 20.6997Z" fill="#EFEFEF"/>
<path d="M236.706 121C243.408 121 249.624 119.816 255.353 117.447C261.191 115.078 266.109 111.578 270.109 106.948C274.001 102.318 276.595 97.5804 277.892 92.735C279.297 87.7819 280 81.8059 280 74.8069V46.2189C280 39.0046 279.351 33.0286 278.054 28.2908C276.757 23.4454 274.109 18.7077 270.109 14.0776C266.001 9.33983 260.975 5.78652 255.029 3.41764C249.192 0.941093 243.084 -0.189507 236.706 0.0258415C230.112 -0.081833 223.843 1.10261 217.897 3.57916C211.952 6.05571 207.087 9.55518 203.304 14.0776C199.304 19.0307 196.656 23.8761 195.358 28.6139C194.061 33.2439 193.413 39.1123 193.413 46.2189V74.8069C193.413 81.9136 194.061 87.8357 195.358 92.5735C196.764 97.2036 199.412 101.995 203.304 106.948C207.303 111.578 212.222 115.078 218.059 117.447C224.005 119.816 230.22 121 236.706 121ZM236.706 20.6997C240.382 20.592 243.895 21.5611 247.246 23.6069C250.597 25.5451 253.191 28.1293 255.029 31.3596C256.218 33.8362 256.921 35.9358 257.137 37.6587C257.353 39.3815 257.461 42.2349 257.461 46.2189V74.8069C257.461 79.114 257.299 82.2904 256.975 84.3363C256.651 86.3821 255.786 88.4818 254.381 90.6353C252.543 93.6503 250.003 96.073 246.76 97.9035C243.625 99.6263 240.274 100.434 236.706 100.326C233.247 100.434 229.95 99.6263 226.815 97.9035C223.68 96.073 221.14 93.7041 219.194 90.7968C217.681 88.5356 216.762 86.2744 216.438 84.0132C216.113 81.752 215.951 78.6833 215.951 74.8069V46.2189C215.951 42.5579 216.113 39.6507 216.438 37.4971C216.762 35.2359 217.519 33.1363 218.708 31.1981C220.546 27.9678 223.086 25.3836 226.329 23.4454C229.68 21.5072 233.139 20.592 236.706 20.6997Z" fill="#EFEFEF"/>
</svg>
