<svg width="503" height="391" viewBox="0 0 503 391" fill="none" xmlns="http://www.w3.org/2000/svg">
<path d="M251.5 391C112.6 391 0 371.116 0 346.588C0 322.061 112.6 302.177 251.5 302.177C390.4 302.177 503 322.061 503 346.588C503 371.116 390.4 391 251.5 391Z" fill="#ECECEC"/>
<path fill-rule="evenodd" clip-rule="evenodd" d="M93.6978 324.808C93.6978 324.808 72.6843 334.167 80.8354 347.073C90.3881 362.191 136.374 357.609 185.189 350.934" fill="white"/>
<path d="M116.944 360.149C134.505 360.149 157.517 357.701 185.604 353.853C187.201 353.63 188.317 352.151 188.096 350.541C187.876 348.931 186.422 347.806 184.812 348.028C152.676 352.426 92.8541 360.607 83.3013 345.502C81.9125 343.303 81.5491 341.209 82.1851 339.075C83.8464 333.512 91.9196 328.826 94.8918 327.504C96.3585 326.85 97.0334 325.109 96.3715 323.63C95.7225 322.151 93.9962 321.47 92.5296 322.125C91.9974 322.36 79.3945 328.067 76.604 337.374C75.4618 341.196 76.0589 344.991 78.3822 348.67C83.5609 356.863 96.6051 360.149 116.944 360.149Z" fill="#01283F"/>
<path fill-rule="evenodd" clip-rule="evenodd" d="M308.999 356.916C284.494 360.11 258.548 356.17 201.66 354.35C201.66 354.35 172.197 350.502 160.36 347.23C143.993 342.701 108.819 339.311 88.0128 318.839C71.9185 303.001 45.7393 294.088 45.5446 224.126C46.4272 221.194 48.0236 196.508 65.4159 176.665C75.384 165.539 117.632 129.858 174.494 96.0092C174.494 96.0092 207.332 72.9068 208.72 14.0185C208.863 8.18077 213.484 3.40322 219.286 3.0629C231.59 2.26446 251.059 5.07863 268.789 14.4898C292.619 27.1208 288.31 10.6677 318.538 19.8432C322.744 21.1129 325.43 25.236 325.093 29.6339C323.73 45.93 323.068 85.708 346.197 105.041C383.811 136.494 451.031 166.324 466.191 214.479C482.428 266.038 474.186 309.075 417.739 336.052C394.078 347.361 370.507 351.117 351.402 353.146L308.999 356.916Z" fill="white"/>
<path fill-rule="evenodd" clip-rule="evenodd" d="M371.403 350.096C371.403 350.096 122.239 360.816 45.2199 238.302C45.2199 238.289 17.8855 395.895 371.403 350.096Z" fill="#F7F1E8"/>
<path d="M286.882 44.1628C308.103 44.1628 322.743 30.6679 323.509 29.9611C324.69 28.8485 324.755 26.9898 323.652 25.7987C322.549 24.6076 320.706 24.5422 319.537 25.6547C319.33 25.8511 298.498 44.9089 271.903 35.7203C255.861 30.1705 248.45 26.0212 243.037 22.9976C238.845 20.6547 235.535 18.796 230.435 17.5918C226.722 16.7148 223.958 16.3352 221.738 16.0211C217.494 15.4321 215.547 15.1572 211.692 12.0813C210.433 11.0734 208.59 11.2959 207.591 12.5656C206.592 13.8352 206.812 15.6939 208.071 16.7017C213.172 20.7725 216.261 21.2044 220.934 21.8458C223.14 22.1468 225.645 22.5002 229.098 23.3118C233.407 24.3327 236.107 25.838 240.208 28.1286C245.802 31.2569 253.473 35.5502 270.008 41.2701C275.953 43.3382 281.625 44.1628 286.882 44.1628Z" fill="#01283F"/>
<path d="M283.533 368.081C313.723 368.081 341.603 358.277 345.211 356.955C371.805 354.115 393.299 349.311 410.899 342.295C466.775 320.004 489.619 271.286 470.513 215.16C457.663 177.411 419.31 151.939 385.46 129.465C371.715 120.329 358.722 111.716 348.053 102.789C325.975 84.3336 326.663 45.6681 327.987 29.8957C328.429 24.0841 324.807 18.6783 319.369 17.0421C303.911 12.3562 296.772 14.1101 291.035 15.5107C285.441 16.885 281.405 17.8798 270.138 11.8981C251.5 2.00264 231.538 -0.667555 219.091 0.130885C211.822 0.549738 205.982 6.62312 205.8 13.94C204.476 70.446 175.545 91.6243 175.247 91.8206C166.901 98.1558 156.128 105.119 144.719 112.488C101.966 140.107 43.416 177.934 42.4166 229.218C41.3134 285.475 65.0914 320.921 117.216 340.764C151.767 353.918 201.465 360.371 253.681 358.473C253.836 358.63 254.018 358.814 254.187 358.984C256.9 361.746 262.533 367.505 279.535 368.002C280.885 368.068 282.209 368.081 283.533 368.081ZM301.86 19.8694C305.767 19.8694 310.751 20.5631 317.708 22.6705C320.537 23.5212 322.419 26.3616 322.185 29.4114C320.784 46.0739 320.148 87.0823 344.341 107.305C355.257 116.441 368.379 125.146 382.267 134.374C415.325 156.324 452.809 181.22 465.01 217.071C483.272 270.724 462.245 315.488 408.757 336.824C391.573 343.683 370.468 348.369 344.237 351.143C343.991 351.17 343.757 351.222 343.523 351.314C343.212 351.431 311.711 363.081 279.717 362.138C265.051 361.706 260.69 357.256 258.353 354.861C257.224 353.709 256.043 352.492 254.174 352.583C202.451 354.52 153.286 348.211 119.28 335.266C69.7769 316.418 47.2059 282.752 48.2443 229.336C49.1918 181.194 106.223 144.347 147.86 117.436C159.36 110.001 170.224 102.986 178.673 96.572C179.88 95.7343 210.226 73.7706 211.641 14.0709C211.745 9.7907 215.184 6.24353 219.454 5.98175C230.604 5.27493 249.839 7.7357 267.426 17.0814C280.639 24.0841 286.363 22.6835 292.411 21.2045C295.085 20.5631 297.927 19.8694 301.86 19.8694ZM118.255 338.028H118.242H118.255Z" fill="#01283F"/>
<path d="M331.05 125.342C331.894 125.342 332.724 124.897 333.166 124.099C333.828 122.92 333.412 121.428 332.244 120.761C298.991 101.808 300.549 56.9117 300.575 56.4536C300.64 55.1054 299.601 53.9536 298.251 53.9012C296.915 53.8358 295.772 54.8829 295.72 56.2442C295.63 58.2076 293.981 104.583 329.856 125.041C330.232 125.237 330.635 125.342 331.05 125.342Z" fill="#ABAABF"/>
<path d="M246.906 140.211C247.762 140.211 248.593 139.753 249.034 138.955C278.251 86.0221 268.542 53.6133 268.114 52.2651C267.711 50.9693 266.336 50.2625 265.064 50.6682C263.792 51.074 263.078 52.4614 263.48 53.7442C263.623 54.1892 272.812 85.7865 244.79 136.559C244.141 137.737 244.556 139.23 245.737 139.897C246.101 140.107 246.516 140.211 246.906 140.211Z" fill="#ABAABF"/>
<path d="M196.624 109.975C196.858 109.975 197.104 109.936 197.338 109.871C232.654 98.8757 233.161 47.6708 233.161 45.498C233.161 44.1498 232.083 43.0503 230.734 43.0372C229.397 43.0372 228.306 44.1367 228.306 45.4849C228.306 45.9823 227.8 95.25 195.91 105.185C194.625 105.59 193.911 106.952 194.301 108.248C194.625 109.295 195.586 109.975 196.624 109.975Z" fill="#ABAABF"/>
<path d="M423.502 302.177C424.826 302.177 426.201 301.967 427.616 301.535C447.578 295.541 446.579 263.407 442.841 245.357C442.568 244.035 441.283 243.184 439.959 243.459C438.649 243.734 437.805 245.029 438.077 246.365C441.751 264.113 441.621 292.203 426.214 296.836C423.735 297.582 421.607 297.36 419.699 296.143C415.286 293.342 411.82 285.108 409.938 272.962C408.861 265.972 408.705 260.187 408.692 260.121C408.653 258.773 407.55 257.713 406.2 257.739C404.863 257.778 403.799 258.904 403.838 260.252C403.838 260.501 404.007 266.404 405.136 273.721C407.291 287.674 411.314 296.614 417.103 300.292C419.089 301.548 421.217 302.177 423.502 302.177Z" fill="#ABAABF"/>
<path fill-rule="evenodd" clip-rule="evenodd" d="M359.864 236.692C366.393 266.038 353.232 290.082 322.147 275.37C283.092 256.888 257.99 213.131 227.722 209.348C194.612 205.212 165.811 232.961 154.116 243.524C134.816 260.946 85.0536 253.263 101.55 207.045C110.675 181.495 156.933 144.976 228.514 153.51C300.692 162.11 353.349 207.346 359.864 236.692Z" fill="#FFC0C9"/>
<path d="M328.026 257.425C344.432 257.425 357.411 247.7 358.138 247.137C359.203 246.325 359.423 244.781 358.606 243.707C357.801 242.634 356.269 242.412 355.205 243.236C354.984 243.406 333.218 259.65 311.984 248.603C300.783 242.778 296.98 234.035 295.76 227.726C293.865 217.961 296.98 208.943 300.9 204.322C305.118 199.361 313.983 195.723 323.484 195.055C331.777 194.479 338.981 196.312 343.238 200.107C352.778 208.602 354.011 218.432 346.885 229.322C341.447 237.634 329.571 243.707 316.345 237.398C310.868 234.781 307.584 229.781 307.571 224.008C307.558 218.21 310.777 213.04 315.981 210.539C321.965 207.647 327.364 208.903 330.427 211.024C333.127 212.909 334.542 215.644 334.308 218.55C333.984 222.49 332.725 225.265 330.843 226.194C328.909 227.15 326.469 226.011 324.756 224.885C323.626 224.152 322.121 224.466 321.394 225.605C320.667 226.744 320.979 228.262 322.108 228.995C327.118 232.281 330.791 231.679 332.984 230.592C336.489 228.864 338.669 224.728 339.15 218.956C339.539 214.322 337.306 209.846 333.192 206.979C327.871 203.275 320.472 202.935 313.892 206.102C306.987 209.427 302.704 216.286 302.717 224.008C302.73 231.718 307.052 238.367 314.268 241.823C330.116 249.388 344.393 242.045 350.948 232.019C359.371 219.139 357.775 206.508 346.47 196.429C341.239 191.783 332.751 189.492 323.159 190.16C312.425 190.919 302.249 195.225 297.213 201.128C291.593 207.752 289.088 218.812 290.996 228.655C292.424 236.024 296.837 246.221 309.764 252.948C316.02 256.208 322.238 257.425 328.026 257.425Z" fill="#01283F"/>
<path d="M123.602 242.372C132.597 242.372 143.279 240.042 152.403 231.534C163.085 221.587 164.656 210.579 164.085 203.092C163.332 193.092 157.997 183.091 150.833 178.222C144.434 173.864 133.479 172.45 122.94 174.597C113.517 176.521 105.937 180.997 102.121 186.887C93.8665 199.636 95.6706 212.241 107.183 222.398C116.152 230.304 131.857 233.55 145.122 222.019C151.17 216.757 153.584 209.178 151.56 201.757C149.535 194.322 143.603 188.851 136.062 187.489C128.885 186.194 121.85 188.497 117.697 193.51C114.478 197.372 113.517 202.293 115.101 206.652C117.086 212.097 120.292 215.5 124.121 216.22C126.522 216.678 130.222 216.272 134.18 211.757C135.076 210.749 134.972 209.191 133.973 208.301C132.973 207.398 131.429 207.503 130.546 208.511C129.196 210.055 127.132 211.796 125.03 211.403C122.979 211.011 121.032 208.668 119.669 204.963C118.67 202.228 119.319 199.204 121.422 196.665C123.81 193.798 128.69 191.154 135.219 192.332C140.891 193.353 145.355 197.463 146.874 203.066C148.38 208.628 146.549 214.322 141.955 218.327C130.883 227.961 117.826 225.291 110.389 218.733C100.655 210.147 99.2399 200.343 106.197 189.597C109.299 184.806 115.75 181.102 123.914 179.426C133.246 177.515 142.747 178.654 148.133 182.306C153.13 185.696 158.503 193.563 159.256 203.484C159.736 209.885 158.374 219.335 149.119 227.948C131.519 244.336 106.301 234.466 106.054 234.375C104.808 233.864 103.393 234.493 102.9 235.749C102.407 237.006 103.004 238.432 104.263 238.93C104.847 239.165 113.05 242.372 123.602 242.372Z" fill="#01283F"/>
<path d="M269.983 261.862C270.619 261.862 271.267 261.613 271.748 261.103C272.669 260.121 272.643 258.577 271.67 257.634L254.148 240.789C253.239 239.912 251.824 239.885 250.877 240.71L237.911 252.071L223.945 237.83C223.049 236.914 221.596 236.849 220.622 237.7L208.513 248.249L198.272 236.22C197.415 235.213 195.923 235.082 194.897 235.919C191.587 238.629 182.58 245.933 180.672 247.15C179.543 247.87 179.192 249.388 179.906 250.527C180.62 251.666 182.126 252.019 183.255 251.299C185.241 250.03 192.574 244.126 196.117 241.234L206.41 253.328C206.825 253.825 207.435 254.126 208.071 254.179C208.72 254.218 209.356 254.009 209.836 253.59L222.076 242.935L236.042 257.189C236.937 258.106 238.391 258.158 239.364 257.32L252.37 245.92L268.295 261.234C268.788 261.64 269.385 261.862 269.983 261.862Z" fill="#01283F"/>
<path fill-rule="evenodd" clip-rule="evenodd" d="M279.12 332.426C279.12 332.426 252.539 338.565 254.525 352.426C256.51 366.301 282.949 372.243 344.783 354.036" fill="white"/>
<path d="M282.534 368.421C298.252 368.421 319.512 364.56 345.613 356.876C347.158 356.418 348.053 354.782 347.599 353.225C347.145 351.667 345.522 350.777 343.978 351.222C286.22 368.225 267.257 361.824 261.793 358.277C259.21 356.602 257.782 354.56 257.419 352.02C255.861 341.169 279.536 335.358 279.769 335.306C281.34 334.939 282.313 333.368 281.963 331.785C281.599 330.201 280.042 329.219 278.471 329.572C277.277 329.847 249.294 336.497 251.643 352.871C252.24 357.073 254.667 360.659 258.626 363.238C263.986 366.693 272.021 368.421 282.534 368.421Z" fill="#01283F"/>
</svg>
