<svg width="45" height="60" viewBox="0 0 45 60" fill="none" xmlns="http://www.w3.org/2000/svg">
<path d="M22.5 0C10.0934 0 0 9.7479 0 21.7296C0 36.5993 20.1353 58.4289 20.9926 59.351C21.7978 60.2171 23.2037 60.2156 24.0074 59.351C24.8647 58.4289 45 36.5993 45 21.7296C44.9998 9.7479 34.9064 0 22.5 0Z" fill="#8D191D"/>
<path d="M33.0918 18.8432C31.9387 17.7466 30.3129 17.2915 28.879 16.8885C28.6395 16.8213 28.4079 16.7558 28.1858 16.6903C27.1088 16.3696 26.3094 16.116 25.8082 15.7566C25.4 15.2 24.9067 15.0227 25.4 14L25.4143 13.9681C25.5412 13.6826 26.2682 12.6302 25.8082 11.8628C25.2895 10.9979 23.1498 11.0915 21.6112 11.0915H21.4113C19.3763 11.0915 18.5753 11.6298 17.714 12.4711C17.1081 13.0639 17.5506 13.5711 17.6141 13.7407C17.687 13.9758 17.6569 14.1025 17.714 14.2654C17.852 14.6516 17.6616 15.2209 17.6141 15.535C17.5173 16.1613 16.6259 16.5812 15.5156 17.0161C14.9953 17.221 14.3608 17.5149 13.9167 17.7567C13.0951 18.2034 12.3788 18.871 11.8522 19.2287L11.6 19.4C8.71797 21.3397 7.78635 23.1838 8.58895 25.9648L8.60005 26C8.60005 26 8.57626 26.1008 8.56516 26.1411C8.46681 26.5189 8.08612 27.0755 8.60004 29C9.15678 31.0874 11.3233 32.298 15.5156 33.5793C17.0097 34.0361 20.9151 34.7884 24.2 34.7884C24.963 34.7884 25.7416 34.8607 26.3094 34.7884C29.2819 34.4156 29.8021 34.424 30.8887 33.5793C31.0901 33.4215 31.3122 33.2502 31.5739 33.0587C33.0649 31.9689 33.9975 30.5784 34.5162 29.6044L34.5432 29.5624L34.5606 29.5187C34.9143 28.8403 36.0953 28.1477 36.2 27.8C37.2786 24.2315 35.6 20 33.0918 18.8432Z" fill="white"/>
<path d="M25.039 35C21.6111 35 17.1608 34.3482 15.6023 33.9009C11.2293 32.6418 9.01861 31.1665 8.43736 29.1152C7.90282 27.2257 8.14433 26.3544 8.24738 25.9814C8.25865 25.9435 8.2828 25.8428 8.2828 25.8428L8.27153 25.8081C7.43428 23.0753 8.53558 20.7237 11.5432 18.8177L11.8073 18.6494C12.3563 18.2979 13.0841 17.8919 13.9423 17.4529C14.406 17.217 15.0436 16.8869 15.5862 16.6872C16.7438 16.2598 17.5794 15.8588 17.6793 15.2416C17.7292 14.933 17.8258 14.7086 17.6825 14.329C17.6229 14.169 17.5521 13.9825 17.4764 13.7514C17.4104 13.5848 16.9113 12.8785 17.544 12.2959C18.4408 11.4691 19.8674 11.0186 21.9911 11.0186L22.1408 11.017C23.7445 11.017 25.683 10.8322 26.224 11.682C26.7038 12.4378 26.2997 13.5023 26.1676 13.7828L26.1515 13.8141C25.6347 14.8175 25.7522 15.2466 26.583 15.8076C27.1047 16.1608 27.9404 16.41 29.0642 16.7252C29.296 16.7895 29.5376 16.8539 29.7871 16.9199C31.2829 17.316 32.9783 17.7632 34.1827 18.8408C36.1003 20.5554 37.5284 24.2701 36.4014 27.7752C36.2919 28.1168 36.0826 28.6647 35.7139 29.3298L35.6945 29.3727L35.6656 29.4139C35.1246 30.3711 34.1521 31.7375 32.5951 32.8085C32.323 32.9966 32.0912 33.1649 31.8802 33.32C30.7467 34.1501 30.2299 34.5297 27.1289 34.896C26.538 34.9637 25.8344 35 25.039 35ZM18.7017 15.4281C18.4666 17.2648 15.8599 19.1692 14.3271 20.1412C14.2369 20.1989 14.0872 20.3145 13.9294 20.4366C13.7458 20.5785 13.5365 20.7402 13.4206 20.8095L13.105 20.996C11.5658 21.8954 9.64815 23.0159 9.08945 25.9946C9.07979 26.0276 8.8254 27.0458 9.36639 28.9601C9.99432 31.1764 12.622 31.9916 15.95 33.023L16.111 33.0725C17.0401 33.3597 20.7706 34.0511 24.498 34.0511C25.6862 34.0511 26.7746 33.9801 27.7343 33.8399C31.6146 33.2722 34.2084 29.9172 34.6898 29.0492C35.9956 25.9055 33.3341 21.7733 30.9126 19.9943C30.1429 19.4283 29.3975 18.9646 28.6762 18.5157C27.2287 17.6147 25.8633 16.7631 25.2805 15.5271C25.1372 15.2697 25.0744 14.4577 25.0599 14.3406C25.0341 14.1145 25.7635 13.1937 25.7635 13.1937C25.7635 13.1937 24.5753 13.4742 24.1309 13.4742C23.5062 13.4725 22.9926 13.4197 22.4693 13.2052C21.9444 12.989 21.4485 12.9989 20.8866 12.9989C20.6386 12.9989 19.5099 13.4824 19.2266 13.4824C18.8675 13.4824 18.1124 13.3125 18.1124 13.3125C18.1124 13.3125 18.7516 14.9594 18.7017 15.4281ZM28.6214 17.651C28.8034 17.7665 28.9933 17.8853 29.1898 18.0058C29.8902 18.4431 30.6823 18.9349 31.4681 19.5141C33.1023 20.7155 35.6849 23.714 35.9634 26.4649L35.9876 25.5325C36.0938 22.8195 34.7558 20.6247 33.5773 19.5702C32.2811 18.4117 30.4698 17.9035 28.871 17.4562L28.1239 17.3143L28.6214 17.651ZM16.9145 16.8126C16.0032 17.3226 15.1176 17.7698 14.3673 18.1526C13.3707 18.6626 12.4352 19.1395 11.92 19.4662C9.82687 20.793 8.76583 22.242 8.67727 23.8955V24.7421L8.91878 23.9615C9.94441 21.8492 11.7461 20.7815 13.0615 20.0009C13.2805 19.8722 13.4866 19.7501 13.6669 19.6346C15.1047 18.7236 16.2205 17.9117 17.0674 17.0189L17.6809 16.4446L16.9145 16.8126ZM20.8286 12.3933C21.5338 12.3933 22.1183 12.4032 22.6834 12.6342C23.313 12.8933 23.8217 12.7398 24.3016 12.7398C24.3499 12.7398 24.3998 12.7382 24.4481 12.7365C24.9826 12.7118 26.4027 12.4626 25.5172 11.8982C24.6703 11.3586 23.0763 11.5913 21.9025 11.5187C21.7367 11.5088 19.2604 11.4312 18.3491 12.2926C18.0673 12.56 18.8385 12.6639 19.1686 12.6639C19.3811 12.6639 19.6178 12.6243 19.8706 12.5451C20.1942 12.4428 20.5082 12.3933 20.8286 12.3933Z" fill="#132A3E"/>
<path d="M11.9313 27.8775C11.6366 27.8775 11.2856 27.7736 11.2856 27.2818C11.2856 26.2388 11.6447 24.6134 14.7425 22.5637C16.8211 21.1891 18.2042 19.4728 18.7596 18.42C18.7596 18.4216 18.7596 18.4216 18.7629 18.4216C18.7677 18.4216 18.7757 18.42 18.7886 18.42C18.8562 18.42 18.9239 18.4579 18.9335 18.4777C18.5246 19.4266 17.1093 21.5703 15.372 23.0951C13.0068 25.1695 12.4626 26.0656 12.593 27.6614C12.5705 27.7208 12.2903 27.8775 11.9313 27.8775Z" fill="#132A3E"/>
<path d="M27.3285 28.2323C27.0339 28.2323 26.7553 28.1317 26.6185 27.9749C26.5396 27.8858 26.5074 27.7851 26.5186 27.6647C26.6056 26.7702 26.5492 25.2503 26.1097 23.9137C25.9744 23.5027 25.7458 23.0126 25.4801 22.4433C25.0068 21.4267 24.4175 20.1626 24.0134 18.6296C24.0101 18.6147 24.0069 18.5933 24.015 18.5834C24.0262 18.5669 24.0649 18.552 24.1148 18.552C24.1872 18.552 24.2452 18.5834 24.25 18.6131C24.3466 19.1048 25.3771 21.3673 26.6056 23.4862C27.7133 25.3972 27.8808 27.0046 27.8276 28.0162C27.8196 28.1399 27.6055 28.2323 27.3285 28.2323Z" fill="#132A3E"/>
<path d="M31.7498 27.6795C31.5067 27.6795 31.3682 27.4782 31.3682 27.1283C31.3682 25.6761 30.3571 23.8823 28.5924 22.2056C27.43 21.1016 26.3995 19.3755 26.2707 19.0042C26.2659 19.0042 26.29 18.9943 26.3287 18.9943C26.3914 18.9943 26.4349 19.0174 26.443 19.0273C26.9083 19.8491 28.4572 21.4201 29.2091 22.1363C30.7644 23.615 32.2828 25.219 32.2828 27.1283C32.2844 27.4534 32.0026 27.6795 31.7498 27.6795Z" fill="#132A3E"/>
<path d="M21.7447 27.1679C21.6127 27.1679 21.5322 27.125 21.5064 27.0392C20.8946 24.9814 21.9057 21.2848 22.2873 19.8937C22.3405 19.6973 22.3823 19.5488 22.4017 19.4629C22.4178 19.3969 22.5031 19.392 22.5288 19.392C22.59 19.392 22.6319 19.4151 22.6383 19.425C22.1891 21.935 21.9283 23.9219 22.6351 26.4715C22.6593 26.5573 22.6335 26.6531 22.5594 26.7537C22.3936 26.9765 22.0201 27.1679 21.7447 27.1679Z" fill="#132A3E"/>
<path d="M16.8243 29.2109C16.6891 29.2109 16.2366 29.1763 16.1094 28.7324C15.6151 27.0128 15.9162 25.8065 17.2542 24.1232C18.2492 22.874 20.0831 20.265 20.6531 18.4084C20.6579 18.4084 20.6933 18.3903 20.7529 18.3903C20.8077 18.3903 20.8479 18.4068 20.8608 18.4249C20.8705 18.4365 20.8656 18.4596 20.8624 18.4777C20.4196 20.1643 19.2233 22.8014 18.0802 24.6117C17.3572 25.757 16.8018 26.8758 17.3106 28.975C17.3154 28.9948 17.317 29.0195 17.2912 29.0525C17.2349 29.1284 17.0626 29.2109 16.8243 29.2109Z" fill="#132A3E"/>
</svg>
