<svg width="30" height="40" viewBox="0 0 30 40" fill="none" xmlns="http://www.w3.org/2000/svg">
<path d="M15 0C6.72896 0 0 6.4986 0 14.4864C0 24.3996 13.4235 38.9526 13.9951 39.5673C14.5319 40.1447 15.4691 40.1437 16.005 39.5673C16.5765 38.9526 30 24.3996 30 14.4864C29.9998 6.4986 23.271 0 15 0Z" fill="#8D191D"/>
<path d="M22.0612 12.5622C21.2925 11.8311 20.2086 11.5277 19.2527 11.259C19.093 11.2142 18.9386 11.1706 18.7906 11.1269C18.0725 10.9131 17.5396 10.744 17.2055 10.5044C16.9334 10.1334 16.6045 10.0152 16.9334 9.33335L16.9429 9.31208C17.0275 9.12175 17.5121 8.42016 17.2055 7.90853C16.8597 7.33196 15.4332 7.39431 14.4075 7.39431H14.2742C12.9175 7.39431 12.3835 7.75319 11.8093 8.31409C11.4054 8.70929 11.7004 9.0474 11.7427 9.16047C11.7913 9.31721 11.7713 9.40166 11.8093 9.51026C11.9013 9.76775 11.7744 10.1473 11.7427 10.3566C11.6782 10.7742 11.0839 11.0541 10.3437 11.3441C9.99687 11.4807 9.57389 11.6766 9.27781 11.8378C8.73005 12.1356 8.25256 12.5807 7.90149 12.8192L7.73335 12.9334C5.81198 14.2264 5.1909 15.4559 5.72597 17.3098L5.73337 17.3334C5.73337 17.3334 5.71751 17.4005 5.7101 17.4274C5.64454 17.6793 5.39075 18.0504 5.73336 19.3334C6.10452 20.725 7.54889 21.532 10.3437 22.3862C11.3398 22.6907 13.9434 23.1923 16.1334 23.1923C16.642 23.1923 17.161 23.2404 17.5396 23.1923C19.5213 22.9438 19.8681 22.9494 20.5924 22.3862C20.7267 22.281 20.8748 22.1668 21.0493 22.0392C22.0433 21.3126 22.665 20.3856 23.0108 19.7362L23.0288 19.7083L23.0404 19.6791C23.2762 19.2268 24.0636 18.7651 24.1334 18.5334C24.8524 16.1543 23.7334 13.3334 22.0612 12.5622Z" fill="white"/>
<path d="M16.6926 23.3333C14.4074 23.3333 11.4405 22.8987 10.4015 22.6005C7.48615 21.7611 6.01238 20.7776 5.62489 19.4101C5.26852 18.1504 5.42953 17.5695 5.49823 17.3209C5.50574 17.2956 5.52184 17.2284 5.52184 17.2284L5.51433 17.2053C4.95617 15.3835 5.69037 13.8157 7.69546 12.545L7.8715 12.4328C8.23753 12.1985 8.7227 11.9279 9.29482 11.6352C9.60395 11.4779 10.029 11.2579 10.3907 11.1247C11.1625 10.8398 11.7196 10.5725 11.7862 10.161C11.8194 9.95526 11.8838 9.80564 11.7883 9.5526C11.7486 9.44589 11.7014 9.32157 11.6509 9.16754C11.6069 9.05643 11.2741 8.58556 11.696 8.1972C12.2939 7.64602 13.2449 7.34567 14.6607 7.34567L14.7605 7.34457C15.8296 7.34457 17.122 7.22135 17.4826 7.78794C17.8025 8.29181 17.5331 9.00142 17.4451 9.18845L17.4343 9.20935C17.0898 9.87825 17.1681 10.1643 17.722 10.5383C18.0698 10.7738 18.6269 10.9399 19.3761 11.15C19.5307 11.1929 19.6917 11.2359 19.8581 11.2799C20.8552 11.5439 21.9855 11.842 22.7884 12.5604C24.0668 13.7035 25.0189 16.18 24.2676 18.5167C24.1946 18.7445 24.055 19.1097 23.8092 19.5531L23.7963 19.5817L23.777 19.6092C23.4164 20.2473 22.768 21.1582 21.7301 21.8722C21.5487 21.9977 21.3941 22.1099 21.2535 22.2133C20.4978 22.7667 20.1532 23.0197 18.0859 23.2639C17.692 23.3091 17.2229 23.3333 16.6926 23.3333ZM12.4678 10.2853C12.311 11.5098 10.5732 12.7794 9.55136 13.4274C9.49125 13.4659 9.39142 13.5429 9.28623 13.6243C9.16386 13.7189 9.02432 13.8267 8.94704 13.8729L8.73665 13.9973C7.71049 14.5969 6.43208 15.3439 6.05961 17.3297C6.05317 17.3517 5.88358 18.0305 6.24424 19.3067C6.66286 20.7842 8.41463 21.3277 10.6333 22.0153L10.7407 22.0483C11.36 22.2397 13.8471 22.7007 16.332 22.7007C17.1241 22.7007 17.8497 22.6534 18.4895 22.5598C21.0764 22.1814 22.8056 19.9447 23.1265 19.3661C23.9971 17.2703 22.2227 14.5154 20.6084 13.3295C20.0953 12.9521 19.5983 12.643 19.1174 12.3437C18.1524 11.743 17.2422 11.1753 16.8536 10.3513C16.7581 10.1797 16.7162 9.63841 16.7066 9.5603C16.6894 9.40958 17.1757 8.79569 17.1757 8.79569C17.1757 8.79569 16.3835 8.98272 16.0872 8.98272C15.6708 8.98162 15.3283 8.94641 14.9795 8.80339C14.6296 8.65927 14.299 8.66587 13.9244 8.66587C13.7591 8.66587 13.0066 8.98822 12.8177 8.98822C12.5783 8.98822 12.0749 8.8749 12.0749 8.8749C12.0749 8.8749 12.501 9.97286 12.4678 10.2853ZM19.0809 11.7672C19.2022 11.8442 19.3289 11.9235 19.4598 12.0038C19.9268 12.2953 20.4549 12.6232 20.9787 13.0093C22.0682 13.8102 23.7899 15.8092 23.9756 17.6432L23.9917 17.0216C24.0625 15.2129 23.1705 13.7497 22.3848 13.0467C21.5207 12.2744 20.3132 11.9356 19.2473 11.6374L18.7493 11.5428L19.0809 11.7672ZM11.2763 11.2083C10.6688 11.5483 10.0784 11.8464 9.57819 12.1017C8.91376 12.4416 8.29012 12.7596 7.94664 12.9774C6.55123 13.8619 5.84386 14.8279 5.78483 15.9303V16.4946L5.94584 15.9743C6.62959 14.566 7.83071 13.8542 8.70767 13.3339C8.85365 13.2481 8.99105 13.1666 9.11127 13.0896C10.0698 12.4823 10.8137 11.9411 11.3783 11.3459L11.7872 10.963L11.2763 11.2083ZM13.8857 8.26211C14.3559 8.26211 14.7455 8.26871 15.1223 8.42273C15.542 8.59546 15.8811 8.49314 16.201 8.49314C16.2332 8.49314 16.2665 8.49204 16.2987 8.49094C16.6551 8.47444 17.6018 8.30832 17.0114 7.93206C16.4468 7.57231 15.3842 7.72743 14.6017 7.67902C14.4911 7.67242 12.8402 7.62071 12.2327 8.195C12.0448 8.37323 12.559 8.44254 12.779 8.44254C12.9207 8.44254 13.0785 8.41613 13.247 8.36332C13.4628 8.29511 13.6721 8.26211 13.8857 8.26211Z" fill="#132A3E"/>
<path d="M7.95415 18.5849C7.75772 18.5849 7.52372 18.5156 7.52372 18.1878C7.52372 17.4925 7.76309 16.4088 9.82829 15.0424C11.214 14.126 12.1361 12.9818 12.5064 12.2799C12.5064 12.281 12.5064 12.281 12.5086 12.281C12.5118 12.281 12.5171 12.2799 12.5257 12.2799C12.5708 12.2799 12.6159 12.3052 12.6223 12.3184C12.3497 12.951 11.4062 14.3801 10.248 15.3967C8.67118 16.7796 8.30837 17.377 8.39531 18.4408C8.38029 18.4804 8.19352 18.5849 7.95415 18.5849Z" fill="#132A3E"/>
<path d="M18.219 18.8215C18.0226 18.8215 17.8369 18.7544 17.7456 18.6499C17.693 18.5904 17.6716 18.5233 17.6791 18.443C17.737 17.8467 17.6995 16.8335 17.4064 15.9424C17.3163 15.6684 17.1639 15.3417 16.9867 14.9621C16.6712 14.2844 16.2783 13.4417 16.0089 12.4196C16.0067 12.4097 16.0046 12.3954 16.01 12.3888C16.0175 12.3778 16.0432 12.3679 16.0765 12.3679C16.1248 12.3679 16.1635 12.3888 16.1667 12.4086C16.2311 12.7365 16.918 14.2448 17.737 15.6574C18.4755 16.9314 18.5872 18.003 18.5517 18.6774C18.5464 18.7599 18.4036 18.8215 18.219 18.8215Z" fill="#132A3E"/>
<path d="M21.1665 18.4529C21.0044 18.4529 20.9121 18.3187 20.9121 18.0855C20.9121 17.1173 20.238 15.9215 19.0616 14.8037C18.2866 14.0677 17.5996 12.9169 17.5138 12.6694C17.5106 12.6694 17.5267 12.6628 17.5524 12.6628C17.5943 12.6628 17.6233 12.6782 17.6286 12.6848C17.9388 13.2326 18.9714 14.28 19.4727 14.7575C20.5096 15.7432 21.5218 16.8126 21.5218 18.0855C21.5229 18.3022 21.335 18.4529 21.1665 18.4529Z" fill="#132A3E"/>
<path d="M14.4965 18.1119C14.4085 18.1119 14.3548 18.0833 14.3376 18.0261C13.9297 16.6542 14.6038 14.1898 14.8582 13.2624C14.8936 13.1314 14.9215 13.0324 14.9344 12.9752C14.9451 12.9312 15.002 12.9279 15.0192 12.9279C15.06 12.9279 15.0879 12.9433 15.0922 12.9499C14.7927 14.6233 14.6188 15.9479 15.0901 17.6476C15.1062 17.7048 15.089 17.7686 15.0396 17.8357C14.929 17.9843 14.68 18.1119 14.4965 18.1119Z" fill="#132A3E"/>
<path d="M11.2162 19.4739C11.126 19.4739 10.8244 19.4508 10.7396 19.1548C10.4101 18.0085 10.6108 17.2042 11.5028 16.0821C12.1661 15.2493 13.3887 13.5099 13.7687 12.2722C13.7719 12.2722 13.7955 12.2601 13.8353 12.2601C13.8718 12.2601 13.8986 12.2711 13.9072 12.2832C13.9136 12.2909 13.9104 12.3063 13.9083 12.3184C13.6131 13.4428 12.8155 15.2008 12.0534 16.4077C11.5715 17.1712 11.2012 17.9171 11.5404 19.3166C11.5436 19.3298 11.5446 19.3463 11.5275 19.3683C11.4899 19.4189 11.375 19.4739 11.2162 19.4739Z" fill="#132A3E"/>
</svg>
