<svg width="98" height="40" viewBox="0 0 98 40" fill="none" xmlns="http://www.w3.org/2000/svg">
<path d="M97.1695 39.1667V5L0.830505 5V39.1667L97.1695 39.1667Z" fill="#8D191D"/>
<path d="M96.9845 5.17614V38.9907H1.01554V5.17614H96.9845ZM97.9984 4.16675H97.047H0.951425H0V5.11293V39.0539V40.0001H0.951425H97.0486H98V39.0539V5.11131V4.16675H97.9984Z" fill="#132A3E"/>
<path d="M16.8621 35.3861C16.6986 35.4137 16.535 35.4413 16.3699 35.4673C15.7812 34.2307 15.145 33.0054 14.4746 31.8256C13.7894 30.6198 13.0224 29.4336 12.1933 28.3009C12.1475 28.2359 12.1001 28.179 12.0527 28.1319C12.033 28.1124 12.0232 28.0929 12.0232 28.0669C12.0232 28.0572 12.0249 28.0409 12.0412 28.0165C12.2865 27.6282 12.5269 27.2381 12.7624 26.8498C12.9946 26.4646 13.2383 26.0746 13.4852 25.6927C13.5702 25.5627 13.6569 25.4327 13.7436 25.3011C13.8302 25.1711 13.9218 25.0427 14.0183 24.9192C14.1132 24.7973 14.2162 24.6787 14.3241 24.5682C14.4304 24.4593 14.5449 24.357 14.6675 24.2643C14.8327 24.1392 15.0109 24.0482 15.1957 23.9978C15.5293 23.9052 15.8956 23.8987 16.2668 23.9572L16.4369 23.9848L16.4026 23.8174C16.3944 23.7752 16.3879 23.7362 16.3846 23.6956C16.3797 23.6436 16.3682 23.5948 16.3535 23.5509C16.3355 23.4989 16.3061 23.4534 16.2652 23.4161C16.2211 23.3738 16.1606 23.3494 16.0886 23.3397C15.3772 23.2438 14.6577 23.1707 13.9496 23.1236C13.2399 23.0764 12.5187 23.0472 11.8041 23.0358L11.6684 23.0342L11.6831 23.1691C11.6864 23.1918 11.6864 23.2162 11.6847 23.2454C11.6831 23.2893 11.6847 23.3299 11.6896 23.3689C11.6962 23.4177 11.7125 23.4599 11.7354 23.4957C11.7567 23.5282 11.8057 23.5818 11.9055 23.5818C12.0821 23.5818 12.2522 23.6029 12.4141 23.6452C12.5711 23.6874 12.7117 23.7476 12.8294 23.8272C12.9455 23.9052 13.0388 23.9995 13.1058 24.11C13.1712 24.2172 13.2039 24.3342 13.2039 24.4707C13.2039 24.5991 13.1778 24.7307 13.1238 24.8591C13.0682 24.9972 12.9979 25.1337 12.9161 25.267C12.8343 25.4002 12.7444 25.5319 12.6479 25.6619C12.5498 25.7919 12.4599 25.9202 12.383 26.0405C12.2195 26.2907 12.0576 26.5394 11.899 26.7864C11.7698 26.9863 11.6422 27.1878 11.5114 27.3909C11.2972 27.1065 11.0829 26.8221 10.8703 26.5378C10.6218 26.2079 10.3781 25.8764 10.1361 25.5416C9.89244 25.2052 9.65368 24.864 9.42474 24.5276C9.23178 24.2448 9.04208 23.9523 8.8622 23.6566C8.97667 23.6501 9.09114 23.6436 9.20398 23.6371C9.40348 23.6257 9.60299 23.6143 9.80904 23.6241C9.9186 23.6306 10.0347 23.6224 10.105 23.5721C10.1541 23.5363 10.1884 23.4892 10.2064 23.4307C10.2211 23.3852 10.2277 23.3364 10.2277 23.2828C10.2277 23.2438 10.2293 23.2016 10.2326 23.1593L10.2408 23.0309L10.1116 23.0326C9.19089 23.0472 8.26204 23.0927 7.35445 23.1658C6.44522 23.2389 5.52291 23.3576 4.60551 23.5184C4.54663 23.5331 4.50085 23.5412 4.46978 23.5461C4.40436 23.5542 4.34876 23.5834 4.31115 23.6322C4.27845 23.6712 4.25555 23.7248 4.23756 23.8012C4.22284 23.8597 4.20486 23.9507 4.1836 24.0742L4.15253 24.2465L4.5172 24.1701C4.58588 24.1555 4.65456 24.1408 4.72325 24.1278C4.79193 24.1148 4.85571 24.1035 4.91458 24.0953C4.96854 24.0872 5.01433 24.084 5.04377 24.0742C5.06176 24.1018 5.08956 24.1522 5.1239 24.2237C5.61776 25.2605 6.14596 26.2972 6.69706 27.3048C7.24815 28.3155 7.86139 29.3068 8.51715 30.2477C8.55803 30.3095 8.60545 30.3793 8.66106 30.4541C8.71502 30.5272 8.76571 30.5971 8.81477 30.6653C8.86056 30.7303 8.89981 30.7888 8.93252 30.8425C8.94887 30.8701 8.95705 30.888 8.96195 30.8977C8.96032 30.9042 8.95541 30.914 8.94887 30.9253C8.93252 30.9562 8.90962 30.9968 8.87855 31.0456C8.60055 31.4811 8.31928 31.915 8.03637 32.344C7.75346 32.7746 7.46565 33.2053 7.17129 33.6392L6.92109 34.0162C6.83769 34.1429 6.75102 34.2664 6.66108 34.3883C6.57277 34.5069 6.47793 34.6239 6.37981 34.736C6.28333 34.8449 6.17867 34.9457 6.0691 35.0351C5.91375 35.1618 5.75022 35.2496 5.58178 35.2951C5.32504 35.3649 5.0454 35.3779 4.76086 35.3552C4.66765 35.3487 4.57443 35.3373 4.48122 35.3227L4.31442 35.2967L4.34549 35.4608C4.35367 35.5047 4.35858 35.5469 4.36185 35.5892C4.36512 35.6444 4.37329 35.6948 4.38638 35.7403C4.40109 35.7972 4.42889 35.8476 4.46487 35.8882C4.50739 35.9353 4.56789 35.9662 4.64639 35.9808C5.39863 36.1222 6.16231 36.2295 6.91782 36.2993C7.6717 36.3676 8.44356 36.418 9.21215 36.444L9.35442 36.4488L9.3348 36.3091C9.32989 36.2717 9.32662 36.2376 9.32499 36.2051C9.32335 36.1628 9.31681 36.1222 9.307 36.0865C9.29228 36.0345 9.26448 35.9922 9.22196 35.9597C9.18108 35.9272 9.12548 35.9109 9.05189 35.9061C8.95541 35.8996 8.85075 35.8931 8.73628 35.8833C8.62508 35.8752 8.51224 35.8589 8.39941 35.8362C8.28657 35.8134 8.17373 35.7826 8.06744 35.7419C7.96605 35.7046 7.87611 35.6542 7.79762 35.5892C7.68805 35.5014 7.60301 35.3909 7.54251 35.2593C7.482 35.1261 7.45093 34.9863 7.45093 34.8417C7.45093 34.7084 7.48037 34.5833 7.5376 34.4728C7.60301 34.3493 7.67497 34.2274 7.75346 34.1104C7.83359 33.9902 7.91863 33.8699 8.0053 33.7513C8.09197 33.631 8.18028 33.5124 8.27022 33.3938C8.36179 33.2735 8.44683 33.1516 8.52696 33.0298C8.70521 32.7584 8.88182 32.4903 9.0568 32.2237C9.20071 32.0044 9.34298 31.7817 9.48688 31.5575C9.74035 31.8906 9.9971 32.2237 10.2555 32.5569C10.5482 32.9339 10.8393 33.3125 11.1271 33.6928C11.4149 34.073 11.6978 34.4614 11.9709 34.8433C12.2048 35.1716 12.4337 35.5112 12.6545 35.8557C12.5727 35.8606 12.4909 35.8638 12.4092 35.8671L11.9644 35.8849C11.9398 35.8849 11.9169 35.8833 11.894 35.8817C11.7387 35.8654 11.6618 35.9223 11.634 35.9629C11.6111 35.9987 11.5932 36.041 11.5833 36.0881C11.5735 36.1287 11.5686 36.1742 11.567 36.2246C11.5654 36.2652 11.5637 36.3026 11.5604 36.3367L11.549 36.4667L11.6815 36.4651C12.5989 36.4505 13.5261 36.405 14.4337 36.3318C15.3429 36.2587 16.2603 36.1401 17.1597 35.9808C17.2202 35.9694 17.2676 35.9613 17.3004 35.9564C17.3658 35.9483 17.4197 35.9191 17.459 35.8703C17.4917 35.8313 17.5146 35.7744 17.5309 35.6981C17.5424 35.6412 17.562 35.5502 17.5865 35.4251L17.6209 35.2512L17.4459 35.2869C17.248 35.3178 17.0551 35.3536 16.8621 35.3861Z" fill="white"/>
<path d="M28.2749 28.2993L28.4564 28.3399L28.4188 28.1595C28.4106 28.1222 28.4057 28.0864 28.4024 28.0458C28.3975 27.9922 28.3893 27.945 28.3779 27.9012C28.3615 27.8459 28.3337 27.7988 28.2929 27.7582C28.2503 27.7159 28.1915 27.6867 28.1162 27.6737C27.4163 27.5599 26.7115 27.477 26.0198 27.4283C25.3297 27.3811 24.6249 27.3503 23.9233 27.3373L23.786 27.3356L23.8023 27.4721C23.8072 27.516 23.8121 27.5599 23.8121 27.6038C23.8138 27.6542 23.8187 27.7045 23.8252 27.7565L23.8383 27.8605H24.3436C24.4434 27.8605 24.5447 27.8622 24.6478 27.8638C24.6478 27.9223 24.6396 27.9824 24.6232 28.0393C24.6052 28.1043 24.5824 28.1693 24.5546 28.2343C24.5268 28.3009 24.4973 28.3659 24.4646 28.4293C24.4303 28.4975 24.3992 28.5674 24.3714 28.634C23.938 29.6481 23.5047 30.6653 23.0746 31.6826C22.7116 32.5406 22.3485 33.4116 21.9953 34.2827C21.9675 33.9187 21.9446 33.553 21.9266 33.1906C21.9005 32.6658 21.889 32.1311 21.889 31.603C21.889 31.0212 21.907 30.4232 21.943 29.8284C21.979 29.2337 22.0444 28.6422 22.1376 28.0669L22.1719 27.9174C22.1997 27.9125 22.2422 27.9077 22.2978 27.906L22.7672 27.8882C22.9045 27.8817 22.9634 27.8199 22.9879 27.7679C23.0108 27.7208 23.0223 27.6655 23.0223 27.6022C23.0223 27.5859 23.0206 27.568 23.019 27.5518C23.0174 27.542 23.0174 27.5323 23.0174 27.5209C23.0174 27.503 23.0174 27.49 23.019 27.4803L23.0484 27.3356L22.8996 27.3389C22.1801 27.3503 21.4508 27.3811 20.7312 27.4299C20.0084 27.4786 19.284 27.568 18.5775 27.698L18.4974 27.7127L18.3747 28.3302L18.5448 28.3025C18.6936 28.2782 18.8392 28.2554 18.9847 28.2327C19.073 28.218 19.1613 28.205 19.2496 28.192C18.9994 29.3946 18.8735 30.628 18.8735 31.8614C18.8735 33.1013 19.0027 34.346 19.2562 35.5632C19.1679 35.5453 19.0796 35.5274 18.9929 35.5096C18.8457 35.4787 18.6985 35.4462 18.5514 35.4121L18.3715 35.3714L18.4075 35.5502C18.4156 35.5924 18.4222 35.6314 18.4254 35.6721C18.4304 35.7241 18.4402 35.7696 18.4516 35.8118C18.468 35.8654 18.4941 35.9142 18.5317 35.9532C18.5743 35.9971 18.6315 36.0263 18.7084 36.041C19.4034 36.1547 20.1065 36.2376 20.7983 36.2863C21.49 36.3335 22.1964 36.3643 22.898 36.3773L23.0354 36.379L23.019 36.2425C23.0141 36.1986 23.0092 36.1547 23.0092 36.1108C23.0076 36.0604 23.0043 36.0085 22.9977 35.9532L22.9847 35.8411L22.8718 35.8492C22.8293 35.8524 22.7868 35.8541 22.7459 35.8541H22.3387C22.2831 35.8541 22.2259 35.8541 22.1703 35.8524L22.1687 35.8378C22.1654 35.8086 22.1621 35.7809 22.1621 35.7566C22.1621 35.7143 22.167 35.6737 22.1768 35.6331C22.1883 35.5876 22.2063 35.5339 22.2292 35.4722C22.6919 34.3623 23.1596 33.254 23.629 32.1522C24.0329 31.2032 24.4319 30.2412 24.8211 29.2808C24.8522 29.6594 24.8767 30.0365 24.8947 30.4118C24.9209 30.9481 24.9356 31.4974 24.9356 32.045C24.9356 32.6349 24.9176 33.241 24.8833 33.8488C24.8489 34.4549 24.7819 35.0594 24.687 35.6493C24.6788 35.7078 24.6707 35.7533 24.6592 35.7988C24.6298 35.8021 24.5856 35.8069 24.5235 35.8102C24.4466 35.8167 24.3714 35.8199 24.2962 35.8216C24.2177 35.8232 24.1392 35.8248 24.064 35.8281C23.9855 35.8281 23.925 35.8492 23.8824 35.8914C23.8481 35.9256 23.8236 35.9694 23.8105 36.0215C23.799 36.0637 23.7958 36.1108 23.8007 36.1596C23.804 36.1921 23.8056 36.2246 23.8056 36.2587V36.379L23.9266 36.3773C24.6576 36.366 25.3869 36.3335 26.0934 36.2831C26.8047 36.2311 27.5324 36.1433 28.252 36.0198L28.3305 36.0068L28.3485 35.9305C28.3648 35.8654 28.3779 35.8004 28.3893 35.7354C28.3992 35.6753 28.4106 35.6119 28.4237 35.5502L28.4564 35.3828L28.288 35.4104C28.1424 35.4348 27.9969 35.4576 27.8513 35.4803C27.7614 35.4949 27.6731 35.5079 27.5831 35.5209C27.7025 34.9457 27.7941 34.3607 27.8562 33.7822C27.9249 33.1484 27.9593 32.5 27.9593 31.8516C27.9593 30.6117 27.8301 29.3686 27.5766 28.153C27.6649 28.1693 27.7532 28.1872 27.8415 28.205C27.9789 28.2343 28.1261 28.2652 28.2749 28.2993Z" fill="white"/>
<path d="M39.3508 28.3399L39.5307 28.3805L39.4947 28.2018C39.4865 28.1612 39.4816 28.1238 39.4783 28.0848C39.4751 28.0344 39.4669 27.9873 39.4538 27.9434C39.4374 27.8882 39.4096 27.841 39.3688 27.8004C39.3262 27.7582 39.2674 27.7305 39.1938 27.7159C38.4906 27.5989 37.7842 27.5144 37.0941 27.4689C36.404 27.4218 35.7008 27.3925 35.0041 27.3811L34.8733 27.3795L34.8831 27.5095C34.8864 27.5469 34.8864 27.5827 34.8848 27.6135C34.8831 27.6607 34.8864 27.7013 34.8946 27.7387C34.9077 27.7923 34.9404 27.8362 34.9862 27.8654C35.0287 27.893 35.0826 27.9044 35.1595 27.9044H35.7008C35.7286 27.9044 35.7384 27.9077 35.7384 27.9077C35.7466 27.9158 35.7515 27.9288 35.7531 27.9369C35.7596 27.9662 35.7629 28.0003 35.7629 28.036C35.7629 28.088 35.7662 28.1384 35.7727 28.1904L35.8005 28.3822C35.8087 28.4455 35.8169 28.5073 35.8234 28.5723C35.8708 28.9786 35.9068 29.3881 35.9297 29.7911C35.9526 30.199 35.969 30.6052 35.982 31.0147L35.9837 31.0375L35.9706 31.0342L35.9428 31.0423C35.9101 31.0521 35.8758 31.057 35.8414 31.0586C35.794 31.0602 35.7466 31.0651 35.7008 31.0716C35.2216 31.135 34.7458 31.2 34.2748 31.2682C33.8496 31.33 33.4228 31.3901 32.9927 31.4502C33.0025 30.9627 33.0172 30.4671 33.0401 29.978C33.0647 29.4482 33.1121 28.9087 33.1808 28.374C33.1873 28.3253 33.1922 28.2684 33.1939 28.205C33.1955 28.153 33.2004 28.1043 33.2102 28.0588C33.2184 28.0198 33.2298 27.9889 33.2658 27.9564C33.3623 27.9499 33.4571 27.9467 33.5536 27.9434L33.8463 27.9337C33.9559 27.9288 34.0295 27.8898 34.0655 27.8183C34.0884 27.7712 34.1015 27.7159 34.1015 27.6525C34.1015 27.633 34.0998 27.6152 34.0982 27.5956C34.0965 27.5859 34.0965 27.5762 34.0965 27.5664C34.0965 27.5388 34.0982 27.529 34.0982 27.5274L34.1293 27.3811L33.9788 27.3844C33.2593 27.3958 32.5299 27.4266 31.8104 27.4754C31.0892 27.5241 30.3631 27.6135 29.6567 27.7435L29.5766 27.7582L29.4539 28.3757L29.624 28.348C29.7728 28.3237 29.9183 28.3009 30.0639 28.2782C30.1522 28.2652 30.2405 28.2505 30.3288 28.2375C30.0802 29.4384 29.9527 30.6718 29.9527 31.9069C29.9527 33.1484 30.0819 34.3932 30.3354 35.6087C30.247 35.5908 30.1587 35.5729 30.0721 35.5551C29.9249 35.5226 29.7777 35.4917 29.6305 35.4576L29.4507 35.4169L29.4866 35.5957C29.4948 35.6379 29.5013 35.6786 29.5063 35.7176C29.5112 35.7696 29.521 35.8167 29.5324 35.8589C29.5488 35.9126 29.5749 35.9597 29.6125 35.9987C29.6534 36.0426 29.7123 36.0718 29.7892 36.0865C30.4842 36.2018 31.1873 36.2831 31.8791 36.3318C32.5708 36.3806 33.2756 36.4098 33.9788 36.4228L34.1178 36.4245L34.0998 36.288C34.0933 36.2441 34.09 36.2002 34.09 36.1563C34.0884 36.1076 34.0835 36.0539 34.0786 36.0003L34.0655 35.8882L33.951 35.8963C33.9085 35.8996 33.866 35.9012 33.8251 35.9012H33.4866C33.4212 35.9012 33.3558 35.8996 33.2871 35.8963L33.2576 35.8947L33.2462 35.8996L33.2478 35.8947L33.2446 35.8703C33.1432 35.2382 33.0745 34.5947 33.0434 33.9593C33.014 33.3548 32.996 32.7421 32.9927 32.1311C33.5013 32.0661 34.0115 31.9946 34.5103 31.9182C34.9976 31.8435 35.4964 31.7736 35.9935 31.7102C35.9919 32.3765 35.9771 33.0476 35.951 33.709C35.9232 34.411 35.8545 35.1212 35.7498 35.8167C35.7466 35.8362 35.7449 35.8492 35.7417 35.8589C35.7269 35.8589 35.7106 35.8573 35.691 35.8573C35.5978 35.8508 35.5144 35.8557 35.4277 35.8622C35.3492 35.8687 35.2527 35.8703 35.1889 35.8671C35.1611 35.8654 35.1382 35.8638 35.117 35.8638C35.0074 35.8638 34.9273 35.9321 34.9077 36.0426C34.8978 36.0978 34.8897 36.1823 34.8831 36.2977L34.8766 36.4245L35.0041 36.4228C35.7302 36.4115 36.4596 36.379 37.1693 36.3286C37.879 36.2766 38.6051 36.1888 39.3262 36.0653L39.4031 36.0523L39.4211 35.976C39.4374 35.9109 39.4505 35.8459 39.462 35.7809C39.4718 35.7208 39.4832 35.6591 39.4963 35.5957L39.529 35.4283L39.3606 35.4559C39.215 35.4803 39.0695 35.5031 38.924 35.5258C38.834 35.5388 38.7457 35.5534 38.6558 35.5664C38.7751 34.9896 38.8667 34.4062 38.9289 33.826C38.9975 33.1906 39.0319 32.5423 39.0319 31.8971C39.0319 30.6572 38.9027 29.4141 38.6492 28.1985C38.7375 28.2148 38.8258 28.2327 38.9141 28.2505C39.0564 28.2749 39.2036 28.3074 39.3508 28.3399Z" fill="white"/>
<path d="M49.9966 34.9181C49.9688 34.8986 49.9394 34.8726 49.9099 34.8401L49.7987 34.7214L49.7186 34.8628C49.699 34.8986 49.6646 34.9441 49.6172 34.9977C49.5681 35.0546 49.5142 35.1098 49.452 35.1634C49.3932 35.2154 49.3294 35.2609 49.2656 35.2983C49.156 35.3601 49.0612 35.3406 49.0334 35.3113C49.0007 35.2772 48.9745 35.2317 48.9516 35.1748C48.9287 35.1131 48.9107 35.0399 48.9026 34.9587C48.8928 34.8726 48.8879 34.788 48.8879 34.7052C48.8879 34.5882 48.8928 34.4728 48.9009 34.3607C48.9107 34.2404 48.9157 34.1348 48.9157 34.0422C48.9157 33.8293 48.9042 33.6115 48.8829 33.3954C48.8601 33.1744 48.8175 32.9599 48.7538 32.7568C48.6883 32.5488 48.5935 32.3537 48.4709 32.1734C48.3449 31.9914 48.1798 31.8305 47.977 31.6956C47.8429 31.6062 47.699 31.5331 47.5502 31.4795C47.4046 31.4259 47.2542 31.3852 47.1005 31.3544C46.9484 31.3251 46.793 31.3056 46.6393 31.2959C46.3989 31.2812 46.1602 31.2747 45.9214 31.291C45.9002 31.2926 45.8773 31.2942 45.856 31.2959C45.8642 31.2894 45.874 31.2829 45.8822 31.278C45.9247 31.2487 45.9558 31.2227 45.977 31.2032C46.1504 31.0375 46.2877 30.8441 46.3826 30.6312C46.4741 30.4248 46.5461 30.2071 46.5968 29.9844C46.6459 29.7651 46.6818 29.5359 46.7031 29.3068C46.7243 29.0826 46.7489 28.8681 46.775 28.66C46.7816 28.6113 46.7914 28.5544 46.8061 28.4878C46.8192 28.4244 46.8388 28.3627 46.865 28.3042C46.8879 28.2522 46.9157 28.2083 46.9517 28.1742C46.9746 28.1514 47.0007 28.1417 47.04 28.1417C47.1185 28.1417 47.1495 28.1693 47.1675 28.1904C47.2084 28.2408 47.2395 28.3042 47.2607 28.3757C47.2853 28.4585 47.3049 28.5447 47.3196 28.6324C47.336 28.7364 47.3605 28.8225 47.3916 28.8924C47.4439 29.0078 47.5256 29.1281 47.6303 29.2483C47.7333 29.3669 47.8543 29.4774 47.9901 29.5766C48.1258 29.6757 48.273 29.7569 48.4267 29.8187C48.7063 29.9324 48.9974 29.952 49.2394 29.8463C49.3441 29.8008 49.4357 29.7358 49.5125 29.6546C49.5894 29.5733 49.6499 29.4726 49.6924 29.3588C49.7333 29.2467 49.7546 29.1216 49.7546 28.9883C49.7546 28.7088 49.6941 28.4504 49.573 28.2197C49.4537 27.9922 49.2918 27.7955 49.0923 27.633C48.8944 27.4721 48.6638 27.347 48.4054 27.2609C48.0391 27.1374 47.6368 27.0935 47.2526 27.1618C47.1348 27.1829 47.022 27.2186 46.9189 27.269C46.8143 27.3194 46.7162 27.3844 46.6295 27.4624C46.5396 27.5437 46.466 27.6428 46.4071 27.7565C46.3531 27.8638 46.309 27.9775 46.2746 28.0929C46.2419 28.2067 46.2141 28.322 46.1945 28.4358C46.1749 28.5495 46.1569 28.6633 46.1438 28.7787C46.1307 28.8892 46.1144 28.9981 46.0964 29.1069C46.0604 29.3393 46.0146 29.5733 45.9574 29.8024C45.9018 30.0267 45.8217 30.2461 45.7203 30.4541C45.6173 30.667 45.4815 30.8343 45.3196 30.9513C45.1512 31.0732 44.9631 31.1658 44.7587 31.2309C44.5494 31.2959 44.327 31.343 44.0981 31.3706C43.9067 31.3934 43.7203 31.4177 43.5355 31.4405C43.542 30.8701 43.56 30.2965 43.5878 29.7342C43.6173 29.1297 43.6745 28.5154 43.7595 27.906L43.7628 27.8865L43.7595 27.867L43.7759 27.8703L43.7906 27.8687C43.8969 27.8622 44.0032 27.8557 44.1111 27.8475C44.2142 27.841 44.3172 27.8362 44.4202 27.8362C44.4415 27.8362 44.4611 27.8362 44.4758 27.8378C44.4987 27.8394 44.52 27.841 44.5379 27.841C44.6492 27.841 44.7276 27.7744 44.744 27.6655C44.7522 27.6135 44.7604 27.5241 44.7702 27.3974L44.78 27.2658L44.6475 27.269C43.8969 27.2901 43.1365 27.3291 42.3892 27.3844C41.6386 27.4396 40.8847 27.5371 40.1488 27.6737L40.0687 27.6883L40.0523 27.7663C40.0392 27.828 40.0278 27.8914 40.018 27.9548C40.0065 28.0182 39.9967 28.0815 39.9885 28.1417L39.964 28.3025L40.1259 28.2749C40.2698 28.2505 40.4137 28.2294 40.5576 28.2099C40.6476 28.1985 40.7391 28.1855 40.8291 28.1725C40.6034 29.3767 40.4889 30.6101 40.4889 31.8386C40.4889 32.4935 40.5216 33.1516 40.5854 33.7935C40.6443 34.3785 40.7293 34.9717 40.8405 35.5551C40.7522 35.5356 40.6623 35.5177 40.574 35.4966C40.4301 35.4641 40.2845 35.4267 40.1374 35.3844L39.9624 35.3341L39.9869 35.5128C39.9934 35.5551 39.9967 35.5973 40 35.6379C40.0033 35.6883 40.0114 35.7354 40.0212 35.7793C40.036 35.8378 40.0621 35.8866 40.0997 35.9272C40.1406 35.9711 40.1995 36.0003 40.2731 36.0149C40.9942 36.1563 41.7285 36.2571 42.4546 36.3123C43.179 36.3676 43.9165 36.3985 44.6492 36.4001H44.7767L44.7587 36.1222C44.7554 36.0751 44.7538 36.0263 44.7538 35.9776V35.8589H44.6344C44.5167 35.8589 44.4006 35.8622 44.2877 35.8703C44.1193 35.8817 43.9819 35.8898 43.8855 35.8703C43.8609 35.8654 43.8397 35.8557 43.8233 35.8394C43.8037 35.8232 43.7873 35.7972 43.7743 35.7647C43.7579 35.7241 43.7448 35.6672 43.7367 35.5908C43.6614 35.0237 43.6075 34.4419 43.5764 33.8634C43.5453 33.2849 43.529 32.6999 43.529 32.1246C43.529 32.1214 43.529 32.1197 43.529 32.1181C43.5453 32.1149 43.5715 32.1084 43.6107 32.1035C43.7285 32.0889 43.8462 32.0742 43.964 32.0612C44.0768 32.0482 44.1929 32.0417 44.3057 32.0417C44.6639 32.0417 44.9468 32.1246 45.1463 32.2855C45.3507 32.4513 45.5044 32.6901 45.6058 32.9973C45.663 33.1728 45.7121 33.3499 45.7546 33.5254C45.7988 33.7042 45.838 33.8845 45.874 34.0665C45.91 34.2502 45.9443 34.4322 45.9786 34.6158C46.013 34.7994 46.0473 34.9847 46.0833 35.1699C46.1242 35.3633 46.1716 35.5421 46.2289 35.6997C46.2894 35.8687 46.376 36.015 46.4872 36.1336C46.6017 36.2555 46.7505 36.3497 46.932 36.4147C47.107 36.4781 47.3327 36.5106 47.5992 36.5106C48.0113 36.5106 48.4087 36.4293 48.7832 36.2717C49.156 36.1125 49.4929 35.8784 49.7791 35.5778C49.8085 35.5486 49.8396 35.5144 49.8756 35.4754C49.9116 35.4348 49.9443 35.3958 49.9737 35.3552C50.0048 35.3146 50.0326 35.2739 50.0555 35.2366C50.0898 35.1813 50.1045 35.1358 50.1045 35.0919C50.0996 35.0318 50.062 34.9652 49.9966 34.9181Z" fill="white"/>
<path d="M69.9277 35.5242C70.1501 34.3428 70.2629 33.1386 70.2629 31.941C70.2629 31.2715 70.2285 30.5987 70.1599 29.9422C70.0977 29.3442 70.0045 28.7397 69.8802 28.1433L70.1451 28.1969C70.2907 28.2278 70.4362 28.2587 70.5818 28.2912L70.7617 28.3318L70.7257 28.1514C70.7175 28.1108 70.7126 28.0734 70.7093 28.036C70.7061 27.9857 70.6979 27.9369 70.6848 27.8947C70.6684 27.841 70.6423 27.7939 70.6047 27.7533C70.5621 27.7094 70.5049 27.6802 70.4313 27.6672C69.7069 27.5323 68.9628 27.4364 68.2204 27.3828C66.9547 27.2934 65.6693 27.2853 64.433 27.3356C63.9212 27.3568 63.3979 27.3893 62.8779 27.4315L62.7928 27.438L62.6326 28.0539L62.8075 28.0328C62.9057 28.0198 63.0169 28.0052 63.1412 27.9857C63.3717 27.9483 63.6317 27.9418 63.7806 28.0052C63.8525 28.036 63.9081 28.075 63.9506 28.1287C63.9948 28.1823 64.0258 28.2489 64.0455 28.3269C64.0667 28.4114 64.0782 28.5073 64.0782 28.6113C64.0782 28.7462 64.0684 28.8811 64.0504 29.0127C64.0308 29.1541 64.0177 29.2743 64.0111 29.3751C63.9784 29.8089 63.9523 30.2477 63.9359 30.68C63.9195 31.1122 63.9114 31.5526 63.9114 31.9897C63.9114 32.4009 63.9195 32.8169 63.9359 33.228C63.9523 33.6343 63.9604 34.047 63.9604 34.4565V34.6759C63.9604 34.7474 63.9588 34.8189 63.9555 34.8904C63.9523 34.9587 63.9474 35.0367 63.9408 35.1277C63.9343 35.2089 63.9179 35.2869 63.895 35.3601C63.8721 35.4251 63.8411 35.4787 63.7985 35.5242C63.7789 35.5453 63.7429 35.5729 63.6628 35.5729C63.5614 35.5729 63.4715 35.5534 63.3963 35.5161C63.3178 35.4771 63.2491 35.4234 63.1902 35.3601C63.1297 35.2934 63.0774 35.2171 63.0365 35.1326C62.9923 35.0432 62.9547 34.9522 62.9269 34.8612C62.8762 34.7117 62.8108 34.5638 62.7307 34.424C62.6489 34.281 62.5459 34.1543 62.4249 34.047C62.3022 33.9382 62.1583 33.852 61.9932 33.7887C61.828 33.7253 61.6383 33.6928 61.4273 33.6928C61.3047 33.6928 61.1919 33.7172 61.0938 33.7627C60.9956 33.8098 60.9139 33.8748 60.8485 33.956C60.7847 34.0357 60.7356 34.1315 60.7029 34.242C60.6702 34.3477 60.6588 34.4939 60.6588 34.6158C60.6588 34.6158 60.0668 35.0822 59.985 35.1374C59.9065 35.1927 59.8231 35.2398 59.7397 35.2788C59.6661 35.3129 59.6007 35.3308 59.55 35.3308C59.5026 35.3308 59.4911 35.3146 59.4846 35.3048C59.4748 35.2886 59.4503 35.2382 59.4503 35.0968C59.4503 35.0318 59.4568 34.9636 59.4683 34.8937C59.4813 34.8189 59.4961 34.7442 59.5124 34.6678C59.5288 34.5898 59.5451 34.515 59.5598 34.437C59.5746 34.359 59.5876 34.2843 59.5974 34.2112C59.64 33.8374 59.6727 33.462 59.6939 33.0964C59.7152 32.7259 59.7266 32.3489 59.7266 31.9767C59.7266 31.5282 59.7119 31.0748 59.6825 30.628C59.653 30.1843 59.6105 29.7326 59.5517 29.2824L59.5157 29.0208C59.5026 28.9298 59.4862 28.8388 59.4634 28.751C59.4405 28.6633 59.4127 28.5755 59.38 28.4878C59.3456 28.4 59.3015 28.3123 59.2475 28.2262C59.1379 28.0604 59.0071 27.9142 58.8567 27.7955C58.7095 27.6769 58.5443 27.5761 58.3677 27.4949C58.1944 27.4153 58.0079 27.3519 57.815 27.3031C57.6253 27.256 57.429 27.2186 57.2312 27.1926C57.0333 27.1666 56.8354 27.1504 56.6408 27.1423C56.1486 27.1228 55.7022 27.1293 55.241 27.1585C54.9581 27.1764 54.6752 27.2121 54.3988 27.2641C54.1225 27.3161 53.8461 27.3893 53.5779 27.4803C53.3064 27.5729 53.0448 27.698 52.7995 27.8475C52.6196 27.958 52.4397 28.088 52.2648 28.2343C52.0881 28.3822 51.9262 28.5495 51.7856 28.7283C51.6433 28.9103 51.5272 29.1069 51.4406 29.3149C51.3522 29.5262 51.3065 29.7521 51.3065 29.9844C51.3065 30.1843 51.3408 30.3761 51.4079 30.5516C51.4749 30.7287 51.5665 30.8847 51.6826 31.0147C51.7987 31.1464 51.9377 31.252 52.098 31.3284C52.4414 31.4909 52.8698 31.4811 53.2329 31.2959C53.4226 31.1984 53.5893 31.0683 53.7316 30.9091C53.8723 30.7498 53.9851 30.5662 54.0685 30.3631C54.1535 30.1567 54.196 29.9422 54.196 29.7261C54.196 29.5896 54.1764 29.4547 54.1388 29.3279C54.0996 29.1996 54.0407 29.0777 53.9606 28.9607C53.918 28.9038 53.8706 28.8453 53.815 28.7852C53.766 28.7315 53.7185 28.6779 53.6744 28.6243C53.6335 28.5739 53.5992 28.5235 53.5697 28.4732C53.5468 28.4325 53.537 28.3935 53.537 28.3497C53.537 28.283 53.5714 28.2115 53.64 28.1335C53.7251 28.036 53.833 27.9564 53.9589 27.8995C54.093 27.8394 54.2337 27.7923 54.3776 27.7614C54.5231 27.7305 54.6687 27.7094 54.8077 27.698C54.9499 27.6883 55.0709 27.6818 55.1723 27.6818C55.326 27.6818 55.4814 27.698 55.6335 27.7305C55.779 27.7614 55.9148 27.8199 56.0341 27.8979C56.1077 27.9499 56.1715 28.0117 56.2222 28.0767C56.2729 28.1449 56.3154 28.2213 56.3481 28.3009C56.3808 28.3822 56.4037 28.4683 56.4184 28.556C56.4331 28.6503 56.443 28.7445 56.4495 28.8356L56.4773 29.4027C56.4855 29.5961 56.4936 29.7878 56.5002 29.9796C56.5067 30.1713 56.5116 30.3598 56.5165 30.5451C56.5214 30.7255 56.5231 30.8961 56.5231 31.0618C56.5149 31.0651 56.5018 31.0683 56.4838 31.0716C55.8281 31.1983 55.1674 31.343 54.5166 31.5039C53.869 31.6647 53.2132 31.837 52.5656 32.0174C52.3334 32.0807 52.1061 32.1539 51.887 32.2351C51.6613 32.3196 51.4585 32.4285 51.2819 32.5618C51.1004 32.6983 50.9532 32.8705 50.8437 33.0753C50.7341 33.2816 50.6769 33.54 50.6769 33.8439C50.6769 34.0487 50.6998 34.2518 50.7456 34.4484C50.7913 34.645 50.8584 34.8384 50.9451 35.0188C51.0317 35.2008 51.1397 35.3731 51.2656 35.5339C51.3931 35.6948 51.5387 35.8394 51.6989 35.9646C52.0113 36.2067 52.3514 36.3871 52.7079 36.4992C53.0628 36.6113 53.4324 36.6666 53.8068 36.6666C54.0685 36.6666 54.3318 36.639 54.5885 36.5853C54.8436 36.5317 55.0971 36.4521 55.3408 36.3481C55.5844 36.2441 55.8183 36.1141 56.0358 35.9613C56.2026 35.8443 56.3612 35.7127 56.5067 35.5697C56.5656 35.6997 56.6376 35.8183 56.7193 35.9239C56.8371 36.0783 56.9744 36.21 57.1281 36.314C57.2802 36.418 57.4487 36.4976 57.6285 36.5528C58.0357 36.6763 58.4985 36.6568 58.927 36.5155C59.1641 36.4375 59.393 36.3318 59.6056 36.2018C59.8182 36.0718 60.021 35.9207 60.2074 35.7501C60.3922 35.5811 60.5606 35.4023 60.7062 35.2171L60.7487 35.1634C60.783 35.2609 60.8239 35.3552 60.8779 35.4413C61.0267 35.6802 61.2197 35.8817 61.4519 36.041C61.6808 36.1986 61.9392 36.3172 62.2188 36.3968C62.4968 36.4748 62.7699 36.5138 63.0349 36.5138C63.2932 36.5138 63.5156 36.4732 63.6955 36.3952C63.8787 36.3156 64.0324 36.2051 64.1501 36.0653C64.2662 35.9272 64.3578 35.7647 64.42 35.5794C64.4788 35.4023 64.5246 35.2089 64.5524 35.0074C64.5802 34.8092 64.5966 34.5979 64.6015 34.3802C64.6064 34.1657 64.608 33.9512 64.608 33.7367C64.608 33.4019 64.6047 33.0688 64.5966 32.7356C64.5884 32.4058 64.5851 32.0742 64.5851 31.7444C64.5851 31.4259 64.5884 31.109 64.5966 30.7921C64.6047 30.4752 64.6162 30.1583 64.6309 29.8382C64.6391 29.6026 64.6489 29.3637 64.6554 29.1199C64.662 28.8859 64.6947 28.6552 64.7503 28.4358C64.7928 28.2668 64.8615 28.14 64.9547 28.062C65.0528 27.9808 65.1738 27.9239 65.3145 27.893C65.4666 27.8605 65.6366 27.8443 65.8263 27.8475C66.0258 27.8508 66.2351 27.8524 66.4575 27.8524H66.9645C67.0642 28.5008 67.1395 29.1557 67.1885 29.7992C67.2392 30.4785 67.2654 31.1723 67.2654 31.8614C67.2654 32.5325 67.2409 33.2183 67.1951 33.8959C67.1509 34.541 67.0839 35.1878 66.9939 35.8216C66.8827 35.8281 66.7715 35.8346 66.662 35.8411C66.5213 35.8492 66.3823 35.8557 66.2417 35.8606C66.2024 35.8622 66.0847 35.8687 66.0275 35.9564C65.998 36.0019 65.9833 36.0572 65.9833 36.1222C65.9833 36.1482 65.9849 36.1758 65.9866 36.2067C65.9882 36.2311 65.9882 36.2571 65.9882 36.2847V36.4066L66.1109 36.4033C66.8664 36.3822 67.6284 36.3465 68.3741 36.2945C69.1215 36.2441 69.8737 36.1482 70.6096 36.0133L70.6897 35.9987L70.7061 35.9207C70.7191 35.8589 70.729 35.7988 70.7388 35.7387L70.7895 35.4023L70.6292 35.4283C70.4019 35.4592 70.168 35.4933 69.9277 35.5242ZM56.5116 31.6989V31.8857C56.5116 32.4074 56.5067 32.9274 56.4953 33.4295C56.4855 33.9203 56.4691 34.4208 56.4462 34.9197C56.335 35.0204 56.2205 35.1163 56.1061 35.2057C55.9802 35.3032 55.8461 35.3909 55.7071 35.4657C55.5697 35.5404 55.4242 35.6006 55.277 35.6444C55.0546 35.7111 54.7962 35.7257 54.5607 35.6899C54.4822 35.6786 54.407 35.6558 54.3383 35.6266C54.2713 35.5973 54.2108 35.5583 54.1568 35.5096C54.1061 35.4641 54.0636 35.4039 54.0292 35.3292C53.9377 35.1407 53.8739 34.9408 53.8379 34.7344C53.8019 34.5248 53.7823 34.3103 53.7823 34.0974C53.7823 33.9317 53.7938 33.761 53.815 33.5904C53.8363 33.4295 53.8837 33.28 53.9589 33.1451C54.0309 33.0086 54.1257 32.8868 54.2386 32.7795C54.3579 32.6674 54.4822 32.5618 54.6098 32.4643C54.7553 32.3521 54.909 32.253 55.0709 32.1717C55.2328 32.0889 55.4029 32.0157 55.5746 31.954C55.7479 31.8922 55.9262 31.8386 56.1061 31.7931C56.2418 31.7622 56.3759 31.7297 56.5116 31.6989Z" fill="white"/>
<path d="M80.3691 34.1738C80.4459 33.9138 80.4852 33.6505 80.4852 33.3905C80.4852 33.1695 80.4557 32.9534 80.3985 32.7438C80.3413 32.5325 80.2546 32.3326 80.1401 32.1506C80.0256 31.967 79.8785 31.798 79.7035 31.6485C79.5285 31.5006 79.3225 31.3755 79.0903 31.2764C78.6978 31.1138 78.2939 31.0017 77.8883 30.9448C77.1263 30.8376 76.3135 30.8441 75.5335 30.9042C75.2113 30.9286 74.8892 30.9513 74.567 30.9708C74.5932 30.5207 74.6373 30.0755 74.6995 29.6464C74.7682 29.1752 74.863 28.6893 74.984 28.2034C74.9971 28.1465 75.0102 28.1027 75.0216 28.0718C75.0298 28.0523 75.0363 28.0458 75.0363 28.0458C75.038 28.0458 75.0445 28.0409 75.0658 28.0377C75.1017 28.0328 75.1508 28.0295 75.2146 28.0263C75.3258 28.0198 75.437 28.0149 75.5482 28.01C75.661 28.0052 75.7739 28.0003 75.8867 27.9938L75.9734 27.9889L76.0388 27.737C76.0519 27.6867 76.0666 27.6347 76.0846 27.5843L76.1385 27.4234L75.9685 27.4283C75.2277 27.4494 74.4771 27.4835 73.7379 27.5306C72.9955 27.5778 72.2481 27.6542 71.5204 27.7598L71.4452 27.7712L71.424 27.8443C71.406 27.906 71.388 27.9694 71.37 28.0344L71.28 28.3887L71.4534 28.3675C71.5989 28.3497 71.7445 28.3318 71.89 28.3155C71.9783 28.3058 72.0666 28.296 72.1549 28.2847C72.0078 28.8502 71.8933 29.4271 71.8164 30.0007C71.7314 30.6345 71.6872 31.2829 71.6872 31.9296C71.6872 32.5796 71.7314 33.2329 71.8181 33.8699C71.8966 34.4468 72.011 35.0237 72.1615 35.5908C72.0748 35.5762 71.9865 35.5632 71.8998 35.5502C71.7543 35.5274 71.6071 35.5031 71.4599 35.4754L71.2751 35.4413L71.3242 35.6217C71.3357 35.6623 71.3438 35.7029 71.3487 35.7419C71.3553 35.7939 71.3684 35.8443 71.3847 35.8898C71.406 35.9435 71.4354 35.9889 71.473 36.0247C71.5172 36.0669 71.5793 36.093 71.6562 36.1027C72.4182 36.1986 73.2113 36.2766 74.0143 36.3367C74.8156 36.3952 75.6283 36.4245 76.4296 36.4245C76.7681 36.4245 77.1099 36.4066 77.4451 36.3692C77.7853 36.3318 78.114 36.2587 78.4263 36.1515C78.7403 36.0426 79.0379 35.8898 79.3094 35.6948C79.5841 35.4998 79.8278 35.2382 80.0306 34.9197C80.1761 34.6824 80.2922 34.4322 80.3691 34.1738ZM76.7485 35.4933C76.724 35.5567 76.6913 35.6136 76.6488 35.6623C76.6079 35.7094 76.5539 35.7484 76.4836 35.7809C76.3724 35.8329 76.2563 35.8687 76.1369 35.8882C75.8851 35.9272 75.6136 35.9239 75.3552 35.9012C75.2506 35.8914 75.1475 35.8833 75.0462 35.8752C74.8875 35.3081 74.7698 34.7279 74.6946 34.1494C74.6161 33.5433 74.5686 32.9225 74.5539 32.2985C74.5507 32.2562 74.5457 32.1945 74.5376 32.1132C74.531 32.0369 74.5261 31.9589 74.5261 31.8776C74.5261 31.798 74.5343 31.7265 74.549 31.668C74.5523 31.6566 74.5556 31.6501 74.5556 31.6485C74.67 31.642 74.7845 31.6355 74.899 31.6274C75.1263 31.6127 75.3569 31.6095 75.5989 31.6404C75.7183 31.6566 75.836 31.6842 75.9472 31.7232C76.0551 31.7622 76.1565 31.8142 76.2481 31.8809C76.3364 31.9459 76.4149 32.0287 76.4787 32.1262C76.531 32.2091 76.5735 32.2969 76.6062 32.3879C76.6389 32.4821 76.6635 32.5796 76.6814 32.6788C76.6994 32.7811 76.7125 32.8835 76.7191 32.9859C76.7272 33.0931 76.7338 33.1971 76.7403 33.2979C76.755 33.5904 76.7714 33.8829 76.7894 34.177C76.8074 34.4695 76.8172 34.7621 76.8172 35.0481C76.8172 35.1277 76.8123 35.2057 76.8025 35.2837C76.791 35.3552 76.773 35.4267 76.7485 35.4933Z" fill="white"/>
<path d="M83.9618 35.5193C83.8964 35.5274 83.831 35.5372 83.7656 35.5453C83.9079 34.9831 84.0174 34.4094 84.0926 33.8374C84.1744 33.2069 84.2169 32.5634 84.2169 31.9231C84.2169 31.2764 84.1744 30.6263 84.091 29.991C84.0158 29.4157 83.9029 28.8372 83.759 28.27C83.8244 28.2798 83.8899 28.2912 83.9553 28.3025L84.4982 28.3952L84.4639 28.2262C84.4557 28.1823 84.4475 28.1417 84.4426 28.101C84.4361 28.0507 84.423 28.0035 84.4066 27.958C84.387 27.906 84.3576 27.8605 84.32 27.8232C84.2742 27.7777 84.2137 27.7517 84.1384 27.7419C83.4434 27.6542 82.7402 27.5859 82.0485 27.5388C81.3551 27.49 80.652 27.4559 79.9553 27.4348L79.7853 27.4299L79.8376 27.5908C79.8507 27.633 79.8638 27.6737 79.8736 27.7143C79.885 27.7614 79.8981 27.8085 79.9144 27.8573L79.9406 27.932L80.0207 27.9369C80.1581 27.9467 80.2922 27.9532 80.4247 27.9597L80.8237 27.9775C80.8646 27.9808 80.8825 27.9857 80.8825 27.9808C80.8842 27.9857 80.8875 27.9938 80.8891 28.0068C80.894 28.0393 80.9038 28.0783 80.9169 28.1254C81.087 28.7462 81.2145 29.3799 81.2946 30.0088C81.3748 30.6361 81.4173 31.2829 81.4173 31.9296C81.4173 32.5943 81.3731 33.2621 81.2848 33.9138C81.1998 34.5378 81.0706 35.1716 80.8989 35.7988C80.791 35.8053 80.6847 35.8118 80.58 35.8183C80.4476 35.8264 80.3135 35.8329 80.1745 35.8378C80.096 35.8427 80.0371 35.8622 79.9929 35.8979C79.9537 35.9288 79.9226 35.9711 79.9014 36.0198C79.885 36.0588 79.8719 36.1027 79.8621 36.1515C79.8556 36.1872 79.8458 36.2246 79.8343 36.2636L79.7902 36.418L79.952 36.4131C80.6765 36.392 81.4042 36.3546 82.1139 36.2993C82.8253 36.2457 83.5497 36.1726 84.2676 36.0816L84.3494 36.0718L84.4998 35.4511L84.3298 35.4722C84.2071 35.4868 84.0828 35.5031 83.9618 35.5193Z" fill="white"/>
<path d="M93.8145 35.6363C93.9306 35.0594 94.0206 34.4744 94.0794 33.8959C94.1449 33.2605 94.1776 32.6121 94.1776 31.967C94.1776 31.3121 94.1432 30.654 94.0745 30.0121C94.0124 29.4287 93.9208 28.8404 93.8031 28.2587C93.8914 28.2749 93.9813 28.2928 94.0696 28.3107C94.2152 28.3399 94.3607 28.374 94.5079 28.4098L94.6779 28.452L94.6551 28.2798C94.6485 28.2375 94.6452 28.1953 94.642 28.1547C94.6387 28.1027 94.6305 28.0539 94.6174 28.01C94.6011 27.9548 94.5733 27.906 94.5324 27.867C94.4899 27.8248 94.431 27.7955 94.3574 27.7825C93.6624 27.6655 92.9576 27.581 92.2642 27.5323C91.5725 27.4851 90.8677 27.4559 90.1678 27.4461L90.1024 27.4445L90.0664 27.4998C90.019 27.5713 89.9977 27.6347 89.9977 27.6948C89.9977 27.7647 90.0271 27.8297 90.0811 27.8735C90.122 27.9077 90.1743 27.932 90.2365 27.9483C90.2888 27.9613 90.346 27.971 90.4098 27.9759C90.5439 27.9857 90.6944 27.984 90.8285 27.9759C90.8513 27.9743 90.8726 27.9727 90.8906 27.9727C90.9773 28.5479 91.0361 29.1378 91.0672 29.7261C91.0983 30.329 91.113 30.94 91.1146 31.5412C91.0034 31.6095 90.8824 31.681 90.75 31.7557C90.5979 31.8419 90.4376 31.9231 90.2708 31.9995C90.1073 32.0726 89.9389 32.136 89.7672 32.1847C89.5088 32.2595 89.252 32.2839 89.0084 32.2237C88.925 32.2026 88.8514 32.1701 88.786 32.1262C88.7206 32.0824 88.6682 32.0271 88.6224 31.9605C88.5816 31.8987 88.557 31.8207 88.5488 31.7297C88.5423 31.6599 88.539 31.5884 88.5358 31.5185C88.5325 31.4486 88.5308 31.3755 88.5308 31.3024C88.5308 31.1041 88.5374 30.901 88.5505 30.7011C88.5636 30.498 88.575 30.2981 88.5848 30.1031C88.5995 29.8008 88.6192 29.4986 88.6421 29.1979C88.6649 28.8973 88.6944 28.595 88.7304 28.2944C88.7336 28.2489 88.7353 28.2034 88.7353 28.1547C88.7353 28.1173 88.7385 28.0848 88.7451 28.0539C88.7484 28.036 88.7549 28.0214 88.7549 28.0182L88.786 28.0149C88.9021 28.0052 89.0165 28.0003 89.1294 27.997C89.2455 27.9938 89.3648 27.9889 89.4875 27.9824L89.5938 27.9775L89.6003 27.8719C89.6036 27.8199 89.6052 27.7679 89.6069 27.7175C89.6085 27.6688 89.6101 27.62 89.6134 27.5696L89.6216 27.4413L89.4924 27.4429C88.7745 27.4543 88.0484 27.4851 87.3354 27.5306C86.6208 27.5778 85.8931 27.6704 85.1736 27.8053L85.0984 27.8199L85.0804 27.8947C85.064 27.958 85.0509 28.023 85.0395 28.088C85.0297 28.1498 85.0182 28.2099 85.0051 28.27L84.9708 28.439L85.1425 28.4114C85.288 28.387 85.4336 28.3643 85.5791 28.3415C85.6707 28.3269 85.7606 28.3139 85.8506 28.2993C85.7672 28.7543 85.6903 29.2174 85.6233 29.6773C85.5481 30.1973 85.5104 30.7238 85.5104 31.2422C85.5104 31.4275 85.5235 31.6095 85.5513 31.7866C85.5791 31.9654 85.6266 32.1376 85.6952 32.3001C85.7656 32.4643 85.8604 32.6186 85.9798 32.76C86.0992 32.9014 86.2529 33.0298 86.4344 33.1403C86.6453 33.2735 86.8628 33.3694 87.082 33.423C87.5824 33.5498 88.158 33.5287 88.7206 33.3759C89.0329 33.2898 89.3436 33.1809 89.6461 33.0493C89.9454 32.9193 90.2397 32.773 90.5194 32.617C90.7303 32.5 90.9282 32.3862 91.1163 32.2774C91.1081 32.8754 91.0917 33.4685 91.0656 34.0487C91.0394 34.6645 90.9822 35.2951 90.8971 35.9207C90.8105 35.9239 90.7254 35.9272 90.6404 35.9288C90.521 35.9321 90.4 35.9369 90.279 35.9418C90.1972 35.9451 90.14 35.9483 90.1056 35.9516C90.0141 35.9597 89.9683 36.0052 89.947 36.0426C89.9241 36.0832 89.9143 36.1336 89.9192 36.1986C89.9225 36.236 89.9209 36.2896 89.9143 36.3595L89.9045 36.4878L90.0337 36.4862C90.781 36.4797 91.5349 36.4537 92.2741 36.4066C93.0181 36.3595 93.7638 36.2652 94.4915 36.1271L94.5717 36.1125L94.6223 35.8459C94.6354 35.7826 94.6453 35.7176 94.6551 35.6526L94.6779 35.4933L94.0811 35.5924C93.9928 35.6087 93.9045 35.6233 93.8145 35.6363Z" fill="white"/>
<path d="M4.86552 16.9094C5.05358 17.3856 5.30051 17.8227 5.6014 18.2078C5.9023 18.5946 6.25553 18.931 6.65127 19.204C7.04701 19.4786 7.49345 19.6931 7.97913 19.8442C8.46318 19.9937 8.99302 20.0701 9.55393 20.0701C9.80413 20.0701 10.056 20.0506 10.3013 20.01C10.5466 19.9694 10.7935 19.9076 11.0322 19.8215C11.2579 19.7386 11.4787 19.6427 11.6896 19.5322C11.899 19.425 12.1099 19.321 12.3209 19.2219C12.365 19.2024 12.4141 19.1845 12.4664 19.1715C12.558 19.1487 12.6496 19.1455 12.7313 19.1682C12.764 19.1763 12.7902 19.1894 12.8131 19.2072C12.8343 19.2235 12.8523 19.2462 12.8671 19.2755C12.8801 19.3015 12.8883 19.3372 12.8883 19.3811V19.5241L13.1892 19.4672C13.2432 19.4559 13.2988 19.4445 13.3495 19.4331C13.4034 19.4234 13.4443 19.4087 13.4754 19.3876C13.513 19.3632 13.5424 19.3275 13.5588 19.2869C13.5719 19.2544 13.5784 19.2202 13.58 19.1812C13.5817 19.1568 13.585 19.1292 13.5882 19.1016C13.6765 18.6482 13.7485 18.1835 13.8024 17.7203C13.8548 17.2621 13.9006 16.7941 13.9365 16.3293C13.9414 16.2367 13.9496 16.144 13.9594 16.0514C13.9692 15.9523 13.9758 15.8548 13.9758 15.754C13.9758 15.6565 13.9235 15.5769 13.8286 15.5265C13.7714 15.4956 13.6831 15.4583 13.5637 15.4111L13.4443 15.364L13.4051 15.4859C13.2873 15.8515 13.1598 16.2123 13.024 16.5568C12.9668 16.703 12.9047 16.8558 12.8376 17.0118C12.7706 17.1662 12.7019 17.3173 12.6299 17.4636C12.5596 17.6066 12.4844 17.7463 12.4059 17.8779C12.3307 18.0063 12.2538 18.1185 12.177 18.2143C12.0314 18.3947 11.8679 18.5686 11.6896 18.7311C11.513 18.892 11.3184 19.035 11.1107 19.1568C10.9063 19.2787 10.6872 19.3762 10.4599 19.4494C9.97747 19.6037 9.43946 19.5859 9.04045 19.438C8.82622 19.3584 8.62998 19.2495 8.45991 19.1113C8.28984 18.9716 8.13939 18.8075 8.01348 18.6222C7.88592 18.4321 7.77636 18.2273 7.68969 18.0128C7.60138 17.7951 7.53106 17.5676 7.47873 17.3336C7.4264 17.0996 7.39206 16.8656 7.37571 16.6397C7.35281 16.3488 7.3381 16.0498 7.32992 15.754C7.32174 15.4566 7.31847 15.1593 7.31847 14.8586C7.31847 14.5726 7.31847 14.2817 7.31684 13.9892C7.3152 13.7 7.32011 13.4042 7.32992 13.1133C7.33973 12.8225 7.35935 12.5283 7.38552 12.2423C7.41332 11.9563 7.4542 11.6687 7.5098 11.3859C7.54741 11.1942 7.5932 10.9959 7.65044 10.7961C7.70604 10.5994 7.77636 10.4044 7.85812 10.2192C7.93989 10.0339 8.03964 9.85678 8.15411 9.69103C8.26531 9.53015 8.40104 9.38552 8.55476 9.26202C8.74609 9.10927 8.96032 8.99876 9.19253 8.93051C9.72073 8.77776 10.3078 8.80538 10.7771 8.94514C11.0355 9.02314 11.2792 9.13202 11.4967 9.27014C11.7158 9.4099 11.9153 9.57403 12.0903 9.76253C12.2669 9.95103 12.4288 10.1607 12.5694 10.3849C12.7101 10.6092 12.836 10.8497 12.9423 11.0999C13.0486 11.3502 13.1401 11.6069 13.2137 11.8588L13.2317 11.9352C13.2383 11.9645 13.2464 11.9921 13.2563 12.0165C13.2677 12.0457 13.2857 12.075 13.3069 12.1026C13.3298 12.1318 13.3609 12.1578 13.3953 12.1806C13.428 12.205 13.4607 12.2293 13.4917 12.2537C13.5244 12.2797 13.5555 12.3057 13.5882 12.3333L13.8024 12.5153L13.7845 12.2358C13.7468 11.6573 13.6962 11.0821 13.6356 10.5214C13.5751 9.95753 13.4885 9.38552 13.3756 8.82001L13.3609 8.74526L13.0698 8.67701C12.9962 8.66076 12.9227 8.64451 12.8474 8.63151L12.6774 8.60388L12.7101 8.77288C12.7117 8.77938 12.7117 8.78913 12.7117 8.80213C12.7117 8.86389 12.6888 8.87689 12.6774 8.88339C12.5874 8.93376 12.4092 8.93051 12.1966 8.89151C12.0854 8.87039 11.9709 8.84439 11.8564 8.81026C11.7387 8.77776 11.621 8.74038 11.5032 8.70138C11.3855 8.66238 11.2775 8.62338 11.1778 8.58763L10.9161 8.49175C10.8344 8.4625 10.7771 8.443 10.7412 8.43488C10.0919 8.28212 9.38549 8.30812 8.75917 8.469C8.41085 8.55838 8.07235 8.68676 7.75837 8.84764C7.44439 9.00851 7.14349 9.20352 6.86386 9.42615C6.58586 9.64715 6.32421 9.89416 6.08545 10.1574C5.84834 10.4207 5.62593 10.7034 5.42643 10.9992C5.22692 11.2933 5.04867 11.6004 4.89495 11.9108C4.70689 12.2878 4.56789 12.6827 4.48122 13.0841C4.39455 13.4855 4.35203 13.8982 4.35203 14.3142C4.35203 14.7595 4.39782 15.2064 4.48776 15.6419C4.57771 16.0823 4.70526 16.5064 4.86552 16.9094Z" fill="white"/>
<path d="M19.7026 19.7224C20.0117 19.7142 20.3208 19.7012 20.6233 19.6801C20.6903 19.6752 20.7459 19.6557 20.7868 19.6184C20.8244 19.5859 20.8506 19.5469 20.867 19.4997C20.88 19.464 20.8898 19.4234 20.8948 19.3779C20.898 19.347 20.9029 19.3161 20.9095 19.2852L20.9438 19.126L20.7819 19.1406C20.6511 19.1536 20.5219 19.165 20.3911 19.1747C20.3109 19.1812 20.2292 19.1861 20.1491 19.1926C20.2275 18.6726 20.2799 18.1461 20.306 17.6244C20.3338 17.0573 20.3486 16.4788 20.3486 15.9052C20.3486 15.338 20.3338 14.7644 20.3044 14.1972C20.2782 13.6805 20.2226 13.1572 20.1425 12.6388C20.396 12.6616 20.6298 12.7282 20.8408 12.8355C21.0943 12.9671 21.3216 13.1442 21.5145 13.3652C21.7108 13.5895 21.8776 13.8544 22.0117 14.1517C22.1474 14.4524 22.2488 14.7758 22.3142 15.1121C22.3273 15.1723 22.3518 15.2226 22.3911 15.26C22.4221 15.2909 22.4581 15.3153 22.5006 15.3364C22.5366 15.3543 22.5726 15.3689 22.6135 15.3819C22.6429 15.3916 22.6723 15.403 22.7018 15.4176L22.8865 15.5021L22.8702 15.3006C22.8342 14.8424 22.7819 14.3858 22.7165 13.9437C22.6494 13.4985 22.5579 13.0451 22.4434 12.5966C22.4287 12.543 22.4107 12.504 22.3894 12.4747C22.3633 12.4406 22.3305 12.4162 22.288 12.4016C22.2602 12.3918 22.2275 12.3853 22.1899 12.3837C22.1687 12.3821 22.1441 12.3805 22.1163 12.3756C21.5685 12.2878 21.019 12.2212 20.4859 12.1806C19.3788 12.0945 18.2357 12.0977 17.1352 12.1903C16.5628 12.2391 15.9872 12.3122 15.4214 12.4097L15.3478 12.4227L15.3282 12.4942C15.2137 12.9037 15.1221 13.3197 15.0551 13.7325C14.9897 14.1436 14.9357 14.5661 14.8965 14.9805C14.8916 15.0114 14.885 15.0455 14.8785 15.0813C14.8687 15.1268 14.8654 15.1706 14.8654 15.2129C14.8654 15.3023 14.903 15.3559 14.9324 15.3835C14.9651 15.4144 15.006 15.4371 15.0518 15.4534C15.0894 15.4664 15.1287 15.4745 15.1712 15.481L15.3854 15.5152L15.405 15.3965C15.459 15.0536 15.5457 14.7189 15.6585 14.402C15.7713 14.09 15.9365 13.7942 16.1507 13.5245C16.257 13.3912 16.3682 13.271 16.4843 13.1686C16.5988 13.0678 16.7215 12.9817 16.849 12.9118C16.9766 12.842 17.1156 12.7883 17.2611 12.7493C17.3641 12.7217 17.4753 12.7022 17.5914 12.6892C17.5113 13.2109 17.4573 13.7374 17.4328 14.2541C17.405 14.8213 17.3903 15.3998 17.3903 15.9734C17.3903 16.5438 17.405 17.1191 17.4345 17.6813C17.4606 18.1997 17.5162 18.7246 17.5996 19.2414C17.5179 19.2365 17.4361 19.2332 17.3543 19.2267C17.2235 19.2186 17.0959 19.2072 16.9668 19.1942L16.8081 19.1796L16.8376 19.334C16.8539 19.4185 16.8735 19.5014 16.8964 19.5826L16.9193 19.6622L17.0027 19.6671C17.302 19.6866 17.5996 19.7029 17.8923 19.7126C18.1851 19.7224 18.4827 19.7272 18.7819 19.7272C19.0894 19.7321 19.3968 19.7289 19.7026 19.7224Z" fill="white"/>
<path d="M30.4858 19.7987C30.6853 19.7337 30.8783 19.6444 31.0565 19.5355C31.2348 19.4266 31.4048 19.2982 31.5618 19.1568C31.7172 19.0155 31.8578 18.8643 31.9805 18.71L32.0426 18.6303L31.8922 18.4662C31.8644 18.4337 31.8349 18.4028 31.8071 18.372L31.709 18.2663L31.624 18.3833C31.6174 18.3931 31.5945 18.4207 31.5291 18.476C31.4768 18.5215 31.4163 18.567 31.3492 18.6141C31.2838 18.6596 31.2168 18.6986 31.1465 18.7295C31.0451 18.7766 30.9666 18.7701 30.9584 18.7587C30.9519 18.749 30.9339 18.7116 30.9339 18.5962C30.9339 18.5426 30.9388 18.4873 30.9486 18.4305C30.96 18.3687 30.9715 18.3053 30.9862 18.242L31.0271 18.0502C31.0402 17.9852 31.05 17.9218 31.0598 17.8601C31.0958 17.5497 31.1219 17.2361 31.1399 16.9289C31.1579 16.6169 31.1661 16.3017 31.1661 15.9929C31.1661 15.6192 31.153 15.2405 31.1301 14.8668C31.1056 14.4946 31.0696 14.1176 31.0205 13.7422L30.9895 13.5229C30.978 13.4465 30.9633 13.3701 30.9453 13.2954C30.9257 13.2206 30.9028 13.1458 30.875 13.0743C30.8456 13.0012 30.8096 12.9265 30.7638 12.8533C30.6722 12.7136 30.561 12.5901 30.4335 12.4893C30.3092 12.3886 30.1702 12.3041 30.0214 12.2358C29.8758 12.1692 29.7188 12.1156 29.5569 12.0733C29.3967 12.0327 29.2332 12.0018 29.068 11.9807C28.9028 11.9596 28.736 11.9449 28.5741 11.9384C28.1604 11.9222 27.7843 11.9271 27.4033 11.9515C27.1678 11.9661 26.9307 11.997 26.6984 12.0392C26.4662 12.0831 26.234 12.1432 26.01 12.2212C25.7827 12.2992 25.5635 12.4032 25.3559 12.53C25.2054 12.6226 25.055 12.7315 24.9078 12.855C24.759 12.9801 24.6232 13.1198 24.5055 13.271C24.3861 13.4237 24.288 13.5911 24.2144 13.765C24.1392 13.9454 24.1016 14.1355 24.1016 14.3305C24.1016 14.4995 24.131 14.662 24.1866 14.8115C24.2438 14.961 24.3223 15.0926 24.4188 15.2031C24.5169 15.3153 24.6363 15.4046 24.7721 15.4696C25.0631 15.6078 25.4278 15.5997 25.7369 15.442C25.8971 15.3608 26.0394 15.2503 26.1588 15.1154C26.2765 14.9821 26.373 14.8261 26.4433 14.6539C26.5153 14.48 26.5513 14.298 26.5513 14.116C26.5513 14.0006 26.5349 13.8869 26.5022 13.778C26.4695 13.6707 26.4188 13.5651 26.3501 13.466C26.3141 13.4172 26.2733 13.3685 26.2275 13.3181C26.1866 13.2742 26.1473 13.2287 26.1114 13.1849C26.0787 13.1442 26.0492 13.102 26.0263 13.0613C26.01 13.0305 26.0018 13.0012 26.0018 12.9687C26.0018 12.9183 26.0296 12.8615 26.0819 12.8013C26.1506 12.7217 26.2389 12.6583 26.3403 12.6112C26.4515 12.5608 26.5676 12.5218 26.6854 12.4958C26.808 12.4698 26.9274 12.452 27.0419 12.4438C27.1596 12.4357 27.261 12.4308 27.3444 12.4308C27.4719 12.4308 27.5995 12.4438 27.7254 12.4715C27.8448 12.4975 27.956 12.5446 28.0541 12.6096C28.1146 12.6518 28.1653 12.7022 28.2062 12.7558C28.2471 12.8111 28.283 12.8728 28.3092 12.9378C28.3354 13.0045 28.355 13.076 28.3664 13.1475C28.3779 13.2255 28.3877 13.3035 28.3926 13.3782L28.4155 13.8511C28.422 14.012 28.4286 14.1729 28.4335 14.3321C28.4384 14.4914 28.4433 14.649 28.4466 14.8034C28.4498 14.9496 28.4515 15.0878 28.4531 15.2194C28.4482 15.221 28.4433 15.2226 28.4351 15.2226C27.8873 15.3283 27.3346 15.4501 26.7917 15.5834C26.2487 15.7183 25.7009 15.8629 25.1645 16.0124C24.9699 16.066 24.7786 16.1278 24.5971 16.1944C24.4074 16.2643 24.2357 16.3569 24.0869 16.469C23.9331 16.5844 23.8089 16.7307 23.7156 16.9029C23.6224 17.0784 23.575 17.2962 23.575 17.5546C23.575 17.7268 23.5946 17.8974 23.6322 18.0632C23.6699 18.229 23.7271 18.3898 23.799 18.5426C23.871 18.6953 23.9626 18.84 24.0689 18.9765C24.1752 19.1113 24.2978 19.2332 24.4352 19.3389C24.6968 19.542 24.983 19.6931 25.2839 19.789C25.5815 19.8832 25.8922 19.9304 26.2078 19.9304C26.427 19.9304 26.6477 19.9076 26.8636 19.8621C27.0795 19.8166 27.2904 19.75 27.4948 19.6622C27.6992 19.5761 27.8955 19.4656 28.0786 19.3372C28.2111 19.243 28.337 19.1406 28.4548 19.0285C28.5022 19.1276 28.5578 19.2202 28.6216 19.3031C28.7213 19.4331 28.8374 19.5436 28.9682 19.633C29.0974 19.7207 29.2397 19.789 29.3918 19.8361C29.7336 19.9336 30.1244 19.9174 30.4858 19.7987ZM27.7843 18.892C27.6698 18.9537 27.5504 19.0025 27.4294 19.0398C27.2463 19.0951 27.032 19.1065 26.8407 19.0772C26.7769 19.0675 26.7164 19.0496 26.6608 19.0252C26.6069 19.0025 26.5578 18.97 26.5153 18.931C26.4744 18.8936 26.4417 18.8481 26.4139 18.7863C26.3387 18.632 26.2847 18.4662 26.2553 18.2956C26.2242 18.1217 26.2095 17.943 26.2095 17.7674C26.2095 17.6309 26.2193 17.4896 26.2373 17.3482C26.2536 17.2166 26.2929 17.0947 26.355 16.9826C26.4139 16.8721 26.4924 16.7713 26.584 16.6835C26.6837 16.5893 26.7867 16.5015 26.8914 16.4219C27.0108 16.3293 27.14 16.2464 27.2724 16.1798C27.4082 16.1099 27.5488 16.0498 27.6911 15.9994C27.835 15.9474 27.9838 15.9035 28.1342 15.8645C28.2389 15.8385 28.3436 15.8125 28.4482 15.7898V15.9214C28.4482 16.352 28.4433 16.7827 28.4351 17.2101C28.427 17.6212 28.4122 18.0372 28.3942 18.4451C28.3027 18.528 28.2111 18.6043 28.1179 18.6775C28.01 18.7587 27.8988 18.8302 27.7843 18.892Z" fill="white"/>
<path d="M40.3663 17.7366C40.5216 17.4749 40.6312 17.1922 40.6934 16.8981C40.7539 16.6072 40.7849 16.3114 40.7849 16.014C40.7849 15.6907 40.7522 15.3575 40.6884 15.0244C40.6247 14.6913 40.5266 14.3614 40.3974 14.0461C40.2682 13.7292 40.103 13.4286 39.9068 13.1524C39.7089 12.8728 39.4734 12.6258 39.2069 12.4146C38.9387 12.205 38.6329 12.036 38.296 11.9141C37.9575 11.7922 37.5797 11.7304 37.1709 11.7304C36.664 11.7304 36.2323 11.8474 35.8872 12.0766C35.6844 12.2115 35.5078 12.3772 35.3574 12.5738C35.3606 12.543 35.3639 12.5121 35.3672 12.4828C35.3868 12.283 35.4113 12.0831 35.4391 11.8799L35.4653 11.6931L35.2854 11.7516C35.0009 11.8426 34.7098 11.9157 34.422 11.9709C34.1276 12.0262 33.8316 12.0782 33.534 12.1286C33.328 12.1643 33.1219 12.2033 32.9175 12.2488C32.7147 12.2927 32.5103 12.3398 32.3075 12.3918L32.2258 12.413L32.2176 12.4958C32.2127 12.5462 32.2061 12.5966 32.1996 12.6453C32.1914 12.699 32.1849 12.7526 32.18 12.8078L32.1636 12.9768L32.3288 12.933C32.4514 12.9005 32.5724 12.8712 32.6935 12.8452C32.7605 12.8306 32.8276 12.816 32.8962 12.8013C32.6853 14.3207 32.5773 15.8678 32.5773 17.4051C32.5773 18.242 32.6101 19.087 32.6722 19.9141C32.7311 20.6828 32.8194 21.4595 32.9338 22.2298C32.8684 22.2119 32.8047 22.194 32.7392 22.1762C32.6166 22.1437 32.4972 22.1063 32.3778 22.0673L32.1963 22.0072L32.2225 22.1957C32.2274 22.2282 32.229 22.259 32.229 22.2899C32.229 22.3354 32.2339 22.3777 32.2437 22.4167C32.2552 22.4638 32.2748 22.5044 32.3026 22.5402C32.337 22.584 32.3877 22.6149 32.4547 22.6312C33.045 22.7855 33.6517 22.8944 34.2584 22.9529C34.8619 23.0114 35.4751 23.0472 36.0834 23.0569L36.211 23.0586L36.1881 22.5824H35.7384C35.6305 22.5824 35.5193 22.5792 35.4032 22.5743C35.3966 22.5743 35.3868 22.5775 35.3884 22.5727C35.3901 22.5418 35.3884 22.5044 35.3852 22.4573C35.3181 21.8544 35.2691 21.2434 35.2396 20.6405C35.2184 20.1904 35.2004 19.7337 35.1889 19.2755C35.3165 19.4445 35.4686 19.5842 35.6435 19.6947C35.9444 19.8849 36.2993 19.9807 36.6967 19.9807C36.888 19.9807 37.0826 19.9564 37.2756 19.9092C37.4653 19.8621 37.6533 19.802 37.8365 19.7272C38.018 19.6525 38.1963 19.568 38.368 19.4754C38.538 19.3827 38.7016 19.2869 38.8536 19.191C38.9992 19.1 39.1447 19.0008 39.287 18.8952C39.4309 18.7896 39.5683 18.6758 39.6975 18.5572C39.8266 18.4386 39.9493 18.3086 40.0621 18.1737C40.1701 18.0372 40.2747 17.8909 40.3663 17.7366ZM36.7555 12.2521C36.9158 12.2521 37.0581 12.2765 37.1758 12.322C37.2936 12.3691 37.3982 12.4325 37.4849 12.5121C37.5716 12.5917 37.6468 12.6876 37.7057 12.7948C37.7678 12.9086 37.8218 13.0288 37.8643 13.154C37.9084 13.2807 37.9444 13.4124 37.9722 13.5472C38.0016 13.6854 38.0262 13.8186 38.0491 13.947C38.1129 14.3435 38.1505 14.7481 38.1586 15.1463C38.1668 15.5281 38.1734 15.9117 38.1783 16.2952L38.1766 16.3179C38.1717 16.3715 38.1684 16.4154 38.1668 16.4528L38.1635 16.5503C38.1619 16.5844 38.1619 16.6088 38.1619 16.6332L38.1488 16.9387C38.1374 17.1402 38.1161 17.3449 38.085 17.5432C38.054 17.7398 38.0098 17.9348 37.9526 18.1217C37.897 18.3021 37.8185 18.4662 37.7187 18.6125C37.655 18.7083 37.5781 18.7945 37.4882 18.8676C37.3966 18.944 37.2985 19.009 37.1954 19.0626C37.0924 19.1162 36.9812 19.1568 36.8651 19.1845C36.5953 19.2495 36.3042 19.2349 36.1096 19.1666C35.9984 19.1276 35.9003 19.074 35.8185 19.0073C35.7384 18.9423 35.6697 18.8627 35.6141 18.7701C35.5569 18.6742 35.5062 18.5702 35.4669 18.4613C35.426 18.3525 35.3933 18.2355 35.3672 18.1168C35.341 17.9917 35.3165 17.8682 35.2936 17.7463C35.2543 17.5334 35.2265 17.3173 35.2102 17.1028C35.1938 16.8883 35.1857 16.6689 35.1857 16.4479C35.1857 16.2594 35.1906 16.0709 35.2004 15.8808C35.2102 15.6907 35.2233 15.5021 35.238 15.3136C35.2511 15.1463 35.2674 14.9513 35.2903 14.7303C35.3132 14.5125 35.3459 14.285 35.3917 14.0542C35.4359 13.8251 35.4947 13.5976 35.5683 13.375C35.6386 13.1588 35.7318 12.9622 35.8414 12.7932C35.9477 12.6291 36.0785 12.4942 36.2306 12.3935C36.3794 12.2992 36.5495 12.2521 36.7555 12.2521Z" fill="white"/>
<path d="M41.2592 18.8432L41.0793 18.8026L41.1153 18.9813C41.1218 19.0155 41.1267 19.048 41.1316 19.0805C41.1365 19.1243 41.1431 19.165 41.1545 19.2023C41.1692 19.2511 41.1921 19.2934 41.2265 19.3275C41.2641 19.3665 41.3164 19.3941 41.3851 19.4055C41.9656 19.5014 42.5527 19.5696 43.1316 19.6102C43.7121 19.6509 44.3008 19.6752 44.8846 19.685L45.022 19.6866L45.0056 19.5517C45.0007 19.516 44.9975 19.4802 44.9975 19.4429C44.9958 19.4006 44.9926 19.3567 44.9877 19.3096L44.9746 19.1975L44.8617 19.2056C44.8258 19.2072 44.7914 19.2089 44.7571 19.2089H44.4169C44.3761 19.2089 44.3352 19.2089 44.2943 19.2072C44.291 19.1861 44.291 19.165 44.291 19.1455C44.291 19.1113 44.2943 19.0788 44.3025 19.0463C44.3106 19.009 44.327 18.9651 44.3466 18.9147C44.7326 17.9885 45.1234 17.0638 45.5142 16.144C45.8396 15.3786 46.1634 14.6003 46.4774 13.8251C46.5003 14.1127 46.5183 14.4004 46.533 14.6848C46.5559 15.13 46.5674 15.5883 46.5674 16.0465C46.5674 16.5405 46.5526 17.0476 46.5232 17.5513C46.4938 18.0551 46.4398 18.5588 46.3597 19.0528C46.3531 19.1016 46.3466 19.139 46.3515 19.1617C46.327 19.165 46.2926 19.1682 46.2403 19.1698C46.1765 19.1747 46.1144 19.178 46.0522 19.1796C45.9868 19.1812 45.9214 19.1828 45.8593 19.1845C45.789 19.1845 45.7334 19.204 45.6941 19.243C45.6614 19.2755 45.6401 19.3145 45.6287 19.36C45.6189 19.3974 45.6156 19.438 45.6205 19.4819C45.6222 19.5095 45.6238 19.5355 45.6238 19.5615V19.6817L45.7448 19.6801C46.3531 19.6704 46.9631 19.6427 47.5551 19.6005C48.1471 19.5582 48.7538 19.4835 49.3588 19.3811L49.4357 19.3681L49.4537 19.2917C49.4668 19.2365 49.4782 19.1812 49.488 19.1276C49.4962 19.0772 49.506 19.0252 49.5158 18.9732L49.5469 18.8058L49.3784 18.8335C49.2574 18.853 49.1364 18.8725 49.0138 18.892C48.9484 18.9017 48.8829 18.9115 48.8175 18.9212C48.914 18.45 48.9892 17.9706 49.0399 17.4944C49.0972 16.9647 49.1266 16.4219 49.1266 15.8824C49.1266 14.8554 49.0203 13.8267 48.8126 12.8208C48.8764 12.8338 48.9402 12.8452 49.004 12.8582C49.1266 12.8842 49.2493 12.9102 49.3719 12.9378L49.5534 12.9785L49.5158 12.7981C49.5093 12.7672 49.5044 12.738 49.5027 12.7071C49.4995 12.6616 49.4929 12.6193 49.4815 12.582C49.4668 12.5332 49.4422 12.4893 49.4062 12.4536C49.367 12.4146 49.3163 12.3902 49.2476 12.3772C48.6622 12.2813 48.0718 12.2131 47.4962 12.1725C46.9239 12.1318 46.3351 12.1075 45.7448 12.0961L45.6074 12.0945L45.6254 12.231C45.6303 12.2683 45.6336 12.3041 45.6336 12.3382C45.6352 12.3805 45.6385 12.4243 45.6434 12.4682L45.6565 12.5722H46.0964C46.1733 12.5722 46.2501 12.5722 46.3286 12.5738C46.327 12.6161 46.3204 12.6567 46.309 12.6973C46.2943 12.751 46.2746 12.8046 46.2534 12.8582C46.2305 12.9135 46.206 12.9671 46.1798 13.0207C46.1504 13.0792 46.1242 13.1361 46.1013 13.193C45.7399 14.0396 45.3785 14.8879 45.0187 15.7378C44.726 16.43 44.4333 17.1321 44.1504 17.8292C44.1291 17.5529 44.1128 17.2767 44.0997 17.0021C44.0784 16.5633 44.067 16.118 44.067 15.6777C44.067 15.1918 44.0817 14.6945 44.1128 14.1989C44.1438 13.7032 44.1978 13.2092 44.2747 12.7315L44.2877 12.6226C44.3106 12.6177 44.345 12.6161 44.412 12.6128L44.7816 12.5982C44.9059 12.5917 44.9599 12.5348 44.9827 12.4877C45.0024 12.4455 45.0138 12.3967 45.0138 12.3415C45.0138 12.3268 45.0138 12.3106 45.0106 12.2976C45.0106 12.2895 45.0089 12.2813 45.0089 12.2732C45.0089 12.2602 45.0089 12.2505 45.0106 12.244L45.04 12.0993L44.8912 12.1026C44.2878 12.1123 43.6778 12.1383 43.0809 12.179C42.4775 12.2196 41.8724 12.2943 41.2804 12.4032L41.2019 12.4178L41.0907 12.9736L41.6287 12.8875C41.6925 12.8777 41.7579 12.868 41.8217 12.8582C41.6173 13.8544 41.5126 14.8749 41.5126 15.897C41.5126 16.9241 41.6189 17.9543 41.8266 18.9618C41.7628 18.9488 41.6991 18.9358 41.6353 18.9228C41.5045 18.8968 41.3818 18.8708 41.2592 18.8432Z" fill="white"/>
<path d="M53.9949 19.7175H54.1225L54.1077 19.4656C54.1061 19.4266 54.1045 19.3876 54.1045 19.347V19.2284H53.9851C53.8853 19.2284 53.7889 19.2316 53.694 19.2381C53.555 19.2479 53.4438 19.2544 53.362 19.2381C53.3457 19.2349 53.331 19.2284 53.3195 19.217C53.3064 19.2056 53.2934 19.1861 53.2835 19.1617C53.2705 19.1292 53.2607 19.0837 53.2541 19.022C53.192 18.5507 53.1462 18.0665 53.12 17.5822C53.0939 17.1061 53.0808 16.6283 53.0808 16.1408C53.0938 16.1375 53.1102 16.1359 53.1315 16.1327C53.2296 16.1197 53.3277 16.1083 53.4258 16.0969C53.519 16.0855 53.6139 16.0807 53.7087 16.0807C54.0031 16.0807 54.2337 16.1473 54.3972 16.2805C54.564 16.4154 54.6915 16.6137 54.7749 16.8656C54.8224 17.0102 54.8633 17.1597 54.8992 17.3059C54.9352 17.4554 54.9679 17.6049 54.999 17.7577C55.0284 17.9104 55.0578 18.0632 55.0856 18.216C55.1134 18.3703 55.1429 18.5231 55.174 18.6791C55.2083 18.8432 55.2492 18.9927 55.2966 19.1243C55.3473 19.2674 55.4209 19.3909 55.5174 19.4932C55.6139 19.5972 55.7414 19.6769 55.8968 19.7337C56.0456 19.7874 56.2353 19.8134 56.4609 19.8134C56.8076 19.8134 57.1412 19.7451 57.4568 19.6119C57.7708 19.4786 58.0537 19.2804 58.2941 19.0285C58.3186 19.0041 58.3448 18.9748 58.3742 18.9423C58.4037 18.9082 58.4315 18.8757 58.4576 18.8416C58.4838 18.8075 58.5067 18.7733 58.528 18.7408C58.5574 18.6921 58.5721 18.6498 58.5721 18.6108C58.5721 18.541 58.5378 18.4808 58.4773 18.4386C58.456 18.424 58.4315 18.4028 58.4086 18.3768L58.299 18.2582L58.2189 18.3996C58.2009 18.4305 58.1731 18.4662 58.1371 18.5101C58.0979 18.5556 58.0521 18.6011 57.9998 18.6466C57.9507 18.6905 57.9 18.7262 57.8477 18.7571C57.7692 18.8026 57.6989 18.7928 57.6792 18.7717C57.6547 18.7457 57.6318 18.71 57.6155 18.6645C57.5958 18.6141 57.5828 18.554 57.5746 18.489C57.5664 18.4175 57.5615 18.3476 57.5615 18.2793C57.5615 18.1818 57.5648 18.086 57.5729 17.9933C57.5811 17.8926 57.5844 17.8032 57.5844 17.7252C57.5844 17.5464 57.5746 17.3644 57.5566 17.1841C57.5386 16.9988 57.501 16.8184 57.447 16.6478C57.3914 16.4723 57.3113 16.3065 57.2083 16.1554C57.102 16.001 56.963 15.8662 56.7913 15.7524C56.6784 15.6777 56.5574 15.6159 56.4299 15.5704C56.3072 15.5249 56.1797 15.4908 56.0521 15.4648C55.9246 15.4404 55.7937 15.4225 55.6645 15.416C55.4667 15.403 55.2737 15.3981 55.0775 15.4111C55.0971 15.3965 55.1134 15.3819 55.1249 15.3705C55.2721 15.2291 55.3865 15.0666 55.4683 14.8879C55.5452 14.7156 55.6057 14.532 55.6482 14.3435C55.6891 14.1599 55.7201 13.9697 55.7381 13.7764C55.7561 13.5895 55.7757 13.4107 55.7986 13.2369C55.8035 13.1979 55.8117 13.1507 55.8232 13.0955C55.8346 13.0435 55.851 12.9947 55.8706 12.9476C55.8886 12.907 55.9115 12.8712 55.9376 12.8452C55.9491 12.8338 55.9638 12.8241 55.9981 12.8241C56.0537 12.8241 56.075 12.842 56.0881 12.8582C56.1208 12.8988 56.1453 12.9492 56.1617 13.0061C56.1813 13.0743 56.1977 13.1459 56.2091 13.2174C56.2238 13.3067 56.2434 13.3799 56.2712 13.44C56.317 13.5375 56.3841 13.6399 56.474 13.7406C56.5623 13.8414 56.6637 13.934 56.7782 14.0169C56.8927 14.0997 57.0169 14.168 57.1461 14.2216C57.3849 14.3175 57.6351 14.3354 57.8411 14.2444C57.9294 14.2054 58.0096 14.1501 58.075 14.0786C58.142 14.0087 58.1927 13.9226 58.2287 13.8251C58.263 13.7292 58.281 13.6236 58.281 13.5099C58.281 13.2726 58.2287 13.0548 58.1273 12.8598C58.0276 12.6681 57.8902 12.5007 57.7218 12.3642C57.555 12.2293 57.3604 12.1237 57.1429 12.049C56.8322 11.945 56.4871 11.9076 56.1715 11.9661C56.0717 11.984 55.9769 12.0148 55.8869 12.0571C55.797 12.0993 55.7136 12.1546 55.64 12.2212C55.5632 12.2895 55.4994 12.3756 55.4503 12.4731C55.4045 12.5641 55.3669 12.66 55.3375 12.7575C55.3097 12.8533 55.2868 12.9508 55.2704 13.0451C55.2541 13.1393 55.2394 13.2352 55.2279 13.3327C55.2165 13.4254 55.2034 13.5164 55.1887 13.6057C55.1592 13.7991 55.12 13.9925 55.0726 14.1842C55.0268 14.3695 54.9614 14.5515 54.8763 14.7238C54.7913 14.8993 54.6817 15.0358 54.5476 15.1316C54.4086 15.2324 54.2533 15.3088 54.0848 15.3624C53.9115 15.416 53.7267 15.455 53.537 15.4778C53.3849 15.4956 53.2361 15.5151 53.0906 15.533C53.0971 15.065 53.1118 14.5938 53.1347 14.1322C53.1593 13.6269 53.2083 13.115 53.2786 12.6096L53.2803 12.595H53.2835C53.3735 12.5901 53.4618 12.5836 53.5501 12.5787C53.6351 12.5722 53.7218 12.569 53.8068 12.569C53.8232 12.569 53.8396 12.569 53.851 12.5706C53.8706 12.5722 53.8886 12.5738 53.905 12.5738C54.0064 12.5738 54.0816 12.5105 54.0963 12.4113C54.1028 12.3675 54.111 12.2927 54.1192 12.1855L54.129 12.0538L53.9965 12.0571C53.3718 12.075 52.7374 12.1075 52.1094 12.153C51.4831 12.2001 50.8535 12.2813 50.2386 12.3935L50.1585 12.4081L50.1421 12.4861C50.1323 12.5381 50.1225 12.5901 50.1127 12.6437C50.1029 12.6973 50.0947 12.7493 50.0882 12.7997L50.0636 12.9606L50.2255 12.933C50.3449 12.9135 50.4659 12.8956 50.5853 12.8793C50.6523 12.8712 50.7194 12.8615 50.7848 12.8517C50.6 13.8495 50.5068 14.8716 50.5068 15.8873C50.5068 16.4333 50.5346 16.9826 50.5869 17.5221C50.6344 18.0015 50.7047 18.4873 50.7946 18.9651C50.7308 18.9505 50.6654 18.9375 50.6017 18.9228C50.4806 18.8952 50.3596 18.8643 50.2386 18.8302L50.0636 18.7815L50.0865 18.9602C50.0914 18.996 50.0947 19.0301 50.098 19.0642C50.1012 19.1081 50.1078 19.1487 50.116 19.1861C50.1274 19.2381 50.1519 19.2836 50.1863 19.3194C50.2239 19.36 50.2762 19.386 50.3416 19.3974C50.9451 19.516 51.5583 19.5989 52.165 19.646C52.7668 19.6899 53.3849 19.7159 53.9949 19.7175Z" fill="white"/>
<path d="M88.467 7.62522C87.2936 6.55908 85.5847 6.22507 84.1256 5.83323C83.8819 5.76792 83.5856 5.64328 83.3596 5.57961C82.2636 5.26776 81.5652 4.97375 81.0551 4.62436C80.2449 4.06925 80.4726 3.91086 80.9745 2.91656V2.4999C81.1037 2.22234 81.4427 1.57934 80.9746 0.833206C80.4468 -0.00762331 78.3877 0.416569 76.8221 0.416569L76.4068 0.416539C74.3359 0.416539 73.5932 0.703663 72.7168 1.52163C72.1002 2.09797 73.0202 2.335 73.0847 2.4999C73.159 2.72847 73.0266 3.17486 73.0847 3.33323C73.2251 3.70875 73.1331 4.27792 73.0847 4.58323C72.9863 5.19222 71.7112 5.42601 70.5813 5.84887C70.0519 6.04806 69.4063 6.33377 68.9543 6.56888C68.1182 7.00317 67.5546 7.51445 67.0187 7.86221L66.7634 8.11583C63.8306 10.0016 63.1324 11.8795 63.9491 14.5832C63.9491 14.5832 64.1348 14.9999 63.9492 14.9999C63.8491 15.3672 63.4262 15.6288 63.9492 17.4999C64.5157 19.5293 66.2168 21.0589 70.4829 22.3046C72.0033 22.7487 76.087 23.3332 79.4298 23.3332C80.2061 23.3332 81.2273 23.4035 81.8051 23.3333C84.8299 22.9708 85.1194 22.7732 86.2251 21.952C86.4301 21.7985 86.656 21.632 86.9224 21.4458C88.4396 20.3862 89.5823 19.2802 90.1101 18.3332H90.2455V18.0466C90.6054 17.387 91.2494 17.0045 91.356 16.6666C92.4536 13.1971 90.3362 9.32321 88.467 7.62522Z" fill="white"/>
<path d="M80.3161 24.1667C76.8563 24.1667 72.3646 23.5103 70.7916 23.06C66.3779 21.7921 64.1467 20.3065 63.5601 18.241C63.0206 16.3384 63.2643 15.461 63.3683 15.0854C63.3797 15.0472 63.4041 14.9459 63.4041 14.9459L63.3927 14.911C62.5477 12.1592 63.6592 9.79125 66.6948 7.87198L66.9613 7.70249C67.5155 7.34854 68.25 6.93976 69.1162 6.49775C69.5842 6.26013 70.2277 5.92779 70.7753 5.72672C71.9438 5.29634 72.7872 4.89254 72.8879 4.27107C72.9383 3.96033 73.0358 3.73433 72.8912 3.35214C72.831 3.19096 72.7595 3.00318 72.6832 2.77055C72.6165 2.60271 72.1128 1.8915 72.7514 1.30492C73.6566 0.472407 75.0964 0.0187611 77.2398 0.0187611L77.391 0.0170993C79.0095 0.0170993 80.9661 -0.169012 81.5121 0.686767C81.9964 1.44783 81.5885 2.51963 81.4552 2.80212L81.439 2.83369C80.9173 3.84401 81.036 4.27605 81.8745 4.84103C82.401 5.19664 83.2444 5.44755 84.3787 5.76494C84.6127 5.82975 84.8565 5.89455 85.1084 5.96102C86.618 6.35983 88.3292 6.81015 89.5448 7.89525C91.4802 9.62176 92.9216 13.3623 91.7841 16.8917C91.6736 17.2357 91.4623 17.7874 91.0902 18.457L91.0707 18.5002L91.0414 18.5418C90.4954 19.5056 89.5139 20.8815 87.9425 21.9599C87.6678 22.1494 87.4338 22.3188 87.2209 22.475C86.0769 23.3109 85.5552 23.6931 82.4254 24.062C81.829 24.1301 81.1188 24.1667 80.3161 24.1667ZM73.9198 4.45884C73.6826 6.30832 71.0516 8.22592 69.5045 9.20467C69.4135 9.26283 69.2624 9.37915 69.1032 9.50211C68.9179 9.64502 68.7066 9.80787 68.5896 9.87766L68.2711 10.0654C66.7176 10.9711 64.7821 12.0994 64.2182 15.0987C64.2085 15.132 63.9517 16.1572 64.4977 18.0848C65.1315 20.3165 67.7836 21.1374 71.1426 22.1759L71.3051 22.2258C72.2428 22.5149 76.008 23.2112 79.77 23.2112C80.9693 23.2112 82.0679 23.1397 83.0364 22.9985C86.9528 22.4269 89.5708 19.0486 90.0567 18.1746C91.3746 15.009 88.6884 10.8481 86.2443 9.05678C85.4675 8.48681 84.7151 8.01987 83.9871 7.56789C82.5261 6.6606 81.1481 5.80316 80.5598 4.55854C80.4152 4.29931 80.3518 3.48176 80.3372 3.36377C80.3112 3.13612 81.0473 2.20889 81.0473 2.20889C81.0473 2.20889 79.848 2.49138 79.3995 2.49138C78.769 2.48972 78.2506 2.43654 77.7225 2.22052C77.1927 2.00284 76.6922 2.01281 76.125 2.01281C75.8748 2.01281 74.7356 2.49969 74.4496 2.49969C74.0872 2.49969 73.3251 2.32853 73.3251 2.32853C73.3251 2.32853 73.9702 3.98691 73.9198 4.45884ZM83.9318 6.69716C84.1154 6.81348 84.3072 6.93312 84.5055 7.05442C85.2124 7.49477 86.0119 7.98996 86.8049 8.57322C88.4544 9.78294 91.0609 12.8023 91.3421 15.5723L91.3665 14.6335C91.4737 11.9016 90.1233 9.69155 88.9337 8.62972C87.6256 7.4632 85.7974 6.9514 84.1837 6.50107L83.4297 6.35817L83.9318 6.69716ZM72.116 5.85301C71.1962 6.36648 70.3025 6.8168 69.5452 7.20231C68.5393 7.71578 67.5951 8.19601 67.0751 8.52503C64.9625 9.86104 63.8916 11.32 63.8022 12.9851V13.8375L64.046 13.0515C65.0811 10.9245 66.8996 9.84941 68.2273 9.06342C68.4483 8.93381 68.6563 8.81085 68.8383 8.69453C70.2895 7.77726 71.4156 6.9597 72.2704 6.06072L72.8895 5.48245L72.116 5.85301ZM76.0665 1.40296C76.7783 1.40296 77.3682 1.41293 77.9386 1.64557C78.574 1.90646 79.0875 1.75192 79.5718 1.75192C79.6205 1.75192 79.6709 1.75026 79.7197 1.7486C80.2592 1.72367 81.6925 1.47275 80.7987 0.90445C79.9439 0.361072 78.3351 0.595373 77.1504 0.522258C76.9831 0.512288 74.4837 0.434187 73.5639 1.3016C73.2796 1.57079 74.058 1.67548 74.3911 1.67548C74.6056 1.67548 74.8445 1.6356 75.0996 1.55584C75.4263 1.45281 75.7431 1.40296 76.0665 1.40296Z" fill="#132A3E"/>
<path d="M67.0865 16.9947C66.7891 16.9947 66.4348 16.8901 66.4348 16.3949C66.4348 15.3447 66.7972 13.7079 69.9238 11.6441C72.0218 10.2599 73.4177 8.53168 73.9783 7.47151C73.9783 7.47317 73.9783 7.47317 73.9816 7.47317C73.9865 7.47317 73.9946 7.47151 74.0076 7.47151C74.0758 7.47151 74.1441 7.50973 74.1538 7.52967C73.7411 8.48515 72.3126 10.6437 70.5592 12.1791C68.172 14.2679 67.6227 15.1702 67.7544 16.7771C67.7316 16.8369 67.4488 16.9947 67.0865 16.9947Z" fill="#132A3E"/>
<path d="M82.6269 17.352C82.3295 17.352 82.0484 17.2506 81.9102 17.0928C81.8306 17.0031 81.7981 16.9017 81.8095 16.7804C81.8972 15.8797 81.8404 14.3493 81.3967 13.0033C81.2602 12.5896 81.0295 12.096 80.7613 11.5227C80.2836 10.4991 79.6888 9.22627 79.2809 7.68255C79.2777 7.66759 79.2744 7.64599 79.2825 7.63602C79.2939 7.6194 79.3329 7.60445 79.3833 7.60445C79.4564 7.60445 79.5149 7.63602 79.5198 7.66593C79.6173 8.16112 80.6573 10.4393 81.8972 12.5729C83.0153 14.4972 83.1843 16.1157 83.1307 17.1343C83.1225 17.259 82.9064 17.352 82.6269 17.352Z" fill="#132A3E"/>
<path d="M87.0893 16.7953C86.8439 16.7953 86.7042 16.5926 86.7042 16.2403C86.7042 14.778 85.6836 12.9718 83.9026 11.2835C82.7293 10.1718 81.6892 8.43364 81.5592 8.05975C81.5544 8.05975 81.5787 8.04978 81.6177 8.04978C81.6811 8.04978 81.725 8.07305 81.7331 8.08302C82.2028 8.91055 83.7661 10.4925 84.525 11.2137C86.0948 12.7026 87.6272 14.3177 87.6272 16.2403C87.6288 16.5677 87.3444 16.7953 87.0893 16.7953Z" fill="#132A3E"/>
<path d="M76.9912 16.2802C76.8579 16.2802 76.7767 16.237 76.7507 16.1506C76.1332 14.0785 77.1537 10.3562 77.5388 8.95541C77.5925 8.75767 77.6347 8.60812 77.6542 8.52171C77.6705 8.45524 77.7566 8.45025 77.7826 8.45025C77.8443 8.45025 77.8866 8.47352 77.8931 8.48349C77.4397 11.0109 77.1764 13.0116 77.8899 15.579C77.9142 15.6654 77.8882 15.7618 77.8135 15.8631C77.6461 16.0875 77.2691 16.2802 76.9912 16.2802Z" fill="#132A3E"/>
<path d="M72.025 18.3374C71.8885 18.3374 71.4319 18.3025 71.3035 17.8555C70.8046 16.124 71.1085 14.9093 72.4589 13.2144C73.4632 11.9565 75.3141 9.3293 75.8894 7.45988C75.8943 7.45988 75.93 7.4416 75.9902 7.4416C76.0454 7.4416 76.086 7.45822 76.099 7.4765C76.1088 7.48813 76.1039 7.51139 76.1007 7.52967C75.6538 9.22793 74.4464 11.8833 73.2926 13.7062C72.5629 14.8595 72.0023 15.9861 72.5158 18.0998C72.5207 18.1197 72.5223 18.1446 72.4963 18.1779C72.4394 18.2543 72.2655 18.3374 72.025 18.3374Z" fill="#132A3E"/>
</svg>
