<svg width="174" height="207" viewBox="0 0 174 207" fill="none" xmlns="http://www.w3.org/2000/svg">
<g clip-path="url(#clip0_636_14508)">
<path d="M129.936 4.02098C130.057 4.02098 130.178 4.06119 130.258 4.1014C130.54 4.22203 130.742 4.46329 130.823 4.74476C133.725 5.10664 162.873 8.60489 168.235 9.56993C168.235 9.56993 168.235 9.56993 168.235 9.52972C168.396 9.20804 168.719 9.0472 169.041 9.0472C169.162 9.0472 169.324 9.08741 169.444 9.16783C169.888 9.40909 170.049 9.93182 169.848 10.3741C168.517 12.9476 136.749 73.785 118.849 92.1608C118.285 94.6941 115.059 108.325 113.205 111.059C111.552 113.552 104.537 118.86 102.239 120.549C131.468 138.201 138.482 151.752 139.128 160.115C140.176 173.304 135.66 183.075 125.38 189.75C126.589 190.554 128.001 191.801 128.525 193.409C128.887 194.575 128.686 195.741 127.96 196.867C126.348 199.4 122.276 200.406 115.987 200.406C111.108 200.406 104.86 199.802 97.361 198.837C91.596 199.601 85.4278 200.003 79.0177 200.003C77.2035 200.003 75.349 199.963 73.4945 199.923C73.4542 199.963 73.4542 199.963 73.4139 200.003C73.051 200.526 72.5673 200.969 71.9625 201.371C70.3096 202.456 67.8101 202.979 64.5445 202.979C63.0529 202.979 61.4 202.858 59.5858 202.657C52.3694 201.974 46.3624 199.923 45.153 199.521C45.1127 199.521 45.0723 199.481 45.032 199.481C36.7674 198.596 30.1154 197.149 24.6729 194.977C7.2971 188.142 0.201638 173.143 6.12796 155.893C7.37773 152.315 9.35317 149.058 11.8527 146.122C11.0867 145.399 10.1595 144.755 8.99033 144.434C8.70813 144.353 8.50655 144.072 8.46624 143.79C8.42592 143.267 8.86939 143.107 9.07096 142.986C12.2155 141.579 14.1507 138.483 14.6344 133.979C14.6748 133.617 14.957 133.336 15.3601 133.336H15.4004C15.7633 133.376 16.0858 133.657 16.0858 134.059C16.0858 134.26 16.0858 137.477 18.0612 139.97C22.5765 136.11 27.7369 132.733 32.615 129.556C36.4852 127.023 40.1136 124.61 43.2582 122.157C42.5728 114.397 44.3064 105.953 48.3782 97.3077C45.7577 95.0559 44.3467 92.1608 44.1854 88.7832C44.1854 88.6224 44.1854 88.4615 44.1854 88.3007C41.323 83.7168 40.7586 78.2885 42.4922 72.6189C45.4755 62.9685 55.0705 53.7203 67.4472 48.4528C78.0501 43.9493 85.4681 41.2955 91.4347 39.1643C98.0464 36.792 102.804 35.1031 108.125 32.2483C120.824 25.4528 129.129 4.86539 129.21 4.66434C129.21 4.22203 129.573 4.02098 129.936 4.02098ZM91.9588 110.135C92.4829 109.411 93.2892 108.365 94.4584 106.918C95.7081 105.35 97.1191 103.621 97.5223 102.857C98.2883 101.449 99.2962 93.6888 99.2962 91.1556C95.1034 93.1259 91.5557 95.1364 88.532 97.1469C89.0158 102.696 90.3865 106.958 91.9588 110.135ZM100.546 119.584C100.546 119.544 100.546 119.544 100.546 119.584C100.546 119.544 100.546 119.544 100.546 119.584C100.546 119.544 100.546 119.544 100.546 119.584ZM129.936 0C127.88 0 126.106 1.20629 125.34 3.09615C125.259 3.2972 117.398 22.5577 106.109 28.6294C101.03 31.3636 96.3935 33.0122 89.9431 35.3042C83.9361 37.4755 76.4778 40.1294 65.754 44.6731C52.3291 50.3829 41.8875 60.5962 38.5413 71.3322C36.5255 77.7657 37.09 83.9983 40.0733 89.3864C40.3152 92.6434 41.4843 95.5787 43.5001 98.0717C40.2749 105.712 38.7832 113.15 39.0251 120.227C36.4046 122.157 33.4213 124.128 30.317 126.178C27.0112 128.35 23.4635 130.682 19.9964 133.255C19.6335 131.124 17.8597 129.435 15.602 129.315C15.4811 129.315 15.4004 129.315 15.3198 129.315C12.9009 129.315 10.8851 131.124 10.6029 133.537C10.2804 136.552 9.19191 138.483 7.37773 139.287C5.03945 140.332 4.31378 142.423 4.39441 144.031C4.47504 145.278 5.03945 146.404 5.92638 147.208C4.35409 149.58 3.14464 152.033 2.25771 154.566C-1.00782 164.056 -0.765925 173.184 2.94307 181.024C6.65205 188.825 13.6266 194.937 23.1006 198.677C28.8254 200.928 35.6789 202.456 44.1048 203.381C45.919 204.024 51.9662 205.914 59.0617 206.638C60.9968 206.879 62.8513 207 64.4639 207C68.5761 207 71.7206 206.276 74.0589 204.748C74.4217 204.507 74.7846 204.266 75.1071 203.984C76.3972 204.024 77.6873 204.024 78.937 204.024C85.2665 204.024 91.4347 203.663 97.2804 202.899C105.585 203.984 111.35 204.427 115.906 204.427C121.469 204.427 128.242 203.823 131.306 199.038C132.677 196.907 133.04 194.535 132.314 192.243C132.113 191.559 131.79 190.876 131.427 190.233C140.176 182.874 144.127 172.661 143.119 159.794C142.635 153.883 139.732 147.61 134.491 141.257C128.807 134.421 120.341 127.344 109.254 120.187C112.399 117.654 115.301 115.08 116.511 113.271C118.365 110.497 120.703 101.53 122.477 94.0909C140.901 74.3881 172.065 14.757 173.395 12.1836C174.645 9.77098 173.718 6.79545 171.299 5.54895C170.614 5.18706 169.807 4.98601 169.041 4.98601C168.437 4.98601 167.872 5.10664 167.308 5.30769C160.011 4.18182 139.047 1.6486 132.798 0.884615C132.475 0.643357 132.113 0.482518 131.75 0.321678C131.185 0.120629 130.54 0 129.936 0ZM92.8458 99.1573C93.4102 98.8357 93.9746 98.4738 94.539 98.1521C94.3374 99.4388 94.1358 100.484 93.9343 101.007C93.8133 101.208 93.6117 101.49 93.3295 101.851C93.128 100.967 92.9667 100.082 92.8458 99.1573Z" fill="white"/>
<path d="M136.346 86.7324C136.386 86.7324 136.386 86.7324 136.346 86.7324C136.749 86.7726 137.071 87.0541 137.071 87.4562C137.071 87.7377 137.112 94.1712 142.756 95.9002C143.078 95.9807 143.28 96.2621 143.28 96.5838C143.28 96.9055 143.038 97.1869 142.715 97.2674C142.554 97.3076 138.281 98.4737 137.434 105.993C137.394 106.355 137.112 106.636 136.749 106.636C136.386 106.636 136.104 106.355 136.023 106.033C136.023 105.953 135.096 99.3181 130.016 97.8303C129.734 97.7499 129.532 97.4684 129.492 97.187C129.452 96.6642 129.895 96.5034 130.097 96.3828C133.241 94.9754 135.177 91.8793 135.66 87.3758C135.701 86.9737 135.983 86.7324 136.346 86.7324ZM136.346 82.7114C133.927 82.7114 131.871 84.5209 131.629 86.9335C131.306 89.9492 130.218 91.8793 128.404 92.6835C126.065 93.7289 125.34 95.8198 125.42 97.388C125.541 99.3583 126.912 101.047 128.807 101.61C130.903 102.213 131.83 105.43 131.992 106.516C132.314 108.848 134.33 110.617 136.708 110.617H136.749C139.127 110.577 141.143 108.808 141.425 106.395C141.909 102.173 143.602 101.208 143.844 101.087C145.82 100.524 147.231 98.7551 147.271 96.7044C147.352 94.5733 145.941 92.6432 143.925 92.0401C141.183 91.1957 141.103 87.8583 141.063 87.4562C141.063 84.923 139.127 82.8723 136.588 82.7114H136.547H136.507C136.507 82.7114 136.426 82.7114 136.346 82.7114Z" fill="white"/>
<path d="M150.617 163.453C151.02 163.493 151.343 163.774 151.343 164.177C151.343 164.378 151.343 168.841 155.092 170.047C155.415 170.128 155.616 170.449 155.576 170.731C155.576 171.052 155.334 171.334 155.052 171.414C154.931 171.455 152.149 172.259 151.585 177.486C151.545 177.848 151.262 178.129 150.9 178.129C150.537 178.129 150.254 177.848 150.174 177.486C150.174 177.446 149.529 172.822 146.183 171.776C145.9 171.696 145.699 171.455 145.659 171.133C145.618 170.65 146.062 170.449 146.183 170.369C148.279 169.404 149.569 167.233 149.892 164.096C149.932 163.734 150.214 163.453 150.617 163.453ZM150.617 159.432C148.198 159.432 146.142 161.241 145.9 163.654C145.82 164.619 145.497 166.267 144.489 166.71C142.595 167.594 141.506 169.364 141.627 171.374C141.748 173.304 143.119 174.993 144.973 175.556C145.376 175.677 145.981 176.923 146.142 177.969C146.465 180.301 148.481 182.07 150.859 182.07C153.278 182.07 155.294 180.22 155.536 177.848C155.737 176.119 156.221 175.315 156.463 175.114C158.277 174.47 159.527 172.781 159.567 170.811C159.648 168.72 158.277 166.79 156.261 166.147C155.415 165.865 155.294 164.217 155.294 164.136C155.294 161.643 153.359 159.552 150.819 159.392C150.779 159.432 150.698 159.432 150.617 159.432Z" fill="white"/>
<path fill-rule="evenodd" clip-rule="evenodd" d="M123.203 189.549C123.203 189.549 129.734 192.444 127.194 196.385C124.211 201.049 109.939 199.642 94.7808 197.551" fill="white"/>
<path d="M115.987 200.446C110.544 200.446 103.368 199.682 94.6598 198.516C94.176 198.435 93.8132 197.993 93.8938 197.511C93.9744 197.028 94.4179 196.666 94.9017 196.747C104.9 198.114 123.485 200.607 126.428 195.983C126.872 195.299 126.993 194.656 126.791 194.012C126.267 192.283 123.767 190.876 122.84 190.474C122.397 190.273 122.195 189.75 122.397 189.267C122.598 188.825 123.122 188.624 123.606 188.825C123.767 188.906 127.678 190.635 128.565 193.53C128.928 194.696 128.726 195.862 128 196.988C126.347 199.4 122.316 200.446 115.987 200.446Z" fill="#01283F"/>
<path fill-rule="evenodd" clip-rule="evenodd" d="M56.2798 199.441C63.8994 200.406 71.9624 199.199 89.6204 198.636C89.6204 198.636 98.7719 197.47 102.441 196.465C107.52 195.058 120.018 193.851 126.509 187.539C131.508 182.673 138.079 180.14 138.119 158.628C137.837 157.743 136.184 150.425 130.742 144.313C127.638 140.895 115.704 129.636 98.0462 119.222C98.0462 119.222 87.8465 112.105 87.4031 94.0106C87.3627 92.2012 85.9114 90.7536 84.1375 90.633C80.3076 90.3917 74.2603 91.2361 68.7372 94.1312C61.3192 98.0316 62.6496 92.9651 53.2562 95.7798C51.9661 96.1819 51.1195 97.4284 51.2001 98.7956C51.6436 103.822 51.8451 116.046 44.6287 121.956C32.9374 131.607 12.0541 140.775 7.33726 155.612C2.29788 171.455 4.83773 184.684 22.4151 192.967C29.7525 196.425 37.0898 197.591 43.0161 198.234L56.2798 199.441Z" fill="white"/>
<path fill-rule="evenodd" clip-rule="evenodd" d="M36.8884 197.35C36.8884 197.35 116.309 200.285 138.241 162.97C138.281 162.97 149.529 210.217 36.8884 197.35Z" fill="#F7F1E8"/>
<path d="M63.1737 103.299C56.562 103.299 52.0467 99.1573 51.8048 98.916C51.442 98.5944 51.4017 97.9912 51.7645 97.6293C52.087 97.2674 52.6918 97.2272 53.0546 97.5891C53.1352 97.6695 59.5857 103.5 67.8503 100.685C72.8493 98.9965 75.1473 97.7098 76.8002 96.7849C78.0903 96.0611 79.1385 95.4982 80.7108 95.1363C81.8799 94.8549 82.7265 94.7342 83.4119 94.6538C84.7423 94.4528 85.347 94.3723 86.5162 93.4475C86.9193 93.1258 87.4837 93.2063 87.8062 93.6084C88.1288 94.0105 88.0481 94.5734 87.645 94.8951C86.0727 96.1416 85.1051 96.2622 83.6538 96.4632C82.9684 96.5437 82.2024 96.6643 81.1139 96.9056C79.7835 97.2272 78.9369 97.6695 77.6468 98.3933C75.9133 99.3584 73.5347 100.685 68.3744 102.414C66.5602 103.058 64.7863 103.299 63.1737 103.299Z" fill="#01283F"/>
<path d="M64.222 202.858C54.8286 202.858 46.1608 199.843 45.032 199.441C36.7674 198.556 30.0751 197.108 24.6326 194.937C7.25675 188.101 0.16129 173.103 6.08761 155.853C10.0788 144.233 22.0121 136.432 32.5343 129.516C36.8077 126.701 40.8392 124.047 44.1451 121.313C50.9986 115.643 50.7971 103.741 50.3939 98.9162C50.273 97.1469 51.4018 95.4581 53.0547 94.9756C57.8522 93.528 60.0695 94.091 61.8434 94.4931C63.5769 94.8952 64.8267 95.2169 68.3341 93.3672C74.1395 90.3113 80.3077 89.5071 84.2183 89.7483C86.4759 89.8689 88.2901 91.7588 88.3304 94.0106C88.7336 111.462 97.7238 117.895 97.8448 117.935C98.006 118.056 98.6511 118.418 99.3364 118.82C131.024 137.317 138.442 151.47 139.127 160.115C140.418 176.843 132.838 188.061 115.866 194.455C105.142 198.516 89.7011 200.486 73.4541 199.883C73.4138 199.923 73.3332 200.004 73.2929 200.044C72.4463 200.888 70.7127 202.657 65.4314 202.818C65.0283 202.858 64.6251 202.858 64.222 202.858ZM58.4972 95.82C57.2878 95.82 55.7155 96.021 53.5788 96.6644C52.6919 96.9459 52.1275 97.7903 52.1678 98.7553C52.6112 103.862 52.8128 116.488 45.2739 122.68C41.8874 125.495 37.8156 128.149 33.5019 131.004C23.2215 137.759 11.5705 145.399 7.78084 156.416C2.09641 172.902 8.62746 186.654 25.2776 193.208C30.5992 195.299 37.1706 196.747 45.3142 197.631C45.3948 197.631 45.4755 197.671 45.5158 197.671C45.5964 197.712 55.393 201.29 65.3508 201.009C69.9064 200.888 71.2771 199.521 72.0028 198.757C72.3656 198.395 72.7285 198.033 73.2929 198.074C89.3786 198.677 104.658 196.747 115.221 192.766C131.306 186.694 138.523 176.079 137.313 160.276C136.668 152.073 129.412 138.483 98.4092 120.388C97.4013 119.785 96.9579 119.544 96.7563 119.383C96.3934 119.142 86.9597 112.386 86.5162 94.0106C86.4759 92.6836 85.4277 91.598 84.0973 91.5176C80.6302 91.3165 74.6636 92.0403 69.1807 94.9354C65.0686 97.1067 63.2947 96.6644 61.3999 96.1819C60.6339 96.0613 59.747 95.82 58.4972 95.82Z" fill="#01283F"/>
<path d="M49.4262 128.269C49.144 128.269 48.9021 128.149 48.7812 127.867C48.5796 127.505 48.7006 127.063 49.0634 126.822C59.3841 120.991 58.9003 107.199 58.9003 107.038C58.9003 106.636 59.2228 106.274 59.6259 106.234C60.0291 106.194 60.3919 106.556 60.4323 106.958C60.4726 107.561 60.9563 121.795 49.8294 128.108C49.7084 128.229 49.5472 128.269 49.4262 128.269Z" fill="#ABAABF"/>
<path d="M75.5908 132.813C75.3086 132.813 75.0668 132.692 74.9458 132.411C65.8749 116.126 68.8985 106.194 69.0195 105.752C69.1404 105.35 69.5839 105.149 69.9871 105.269C70.3902 105.39 70.5918 105.832 70.4708 106.194C70.4305 106.315 67.5681 116.005 76.2762 131.647C76.4778 132.009 76.3568 132.451 75.994 132.652C75.8327 132.813 75.7118 132.813 75.5908 132.813Z" fill="#ABAABF"/>
<path d="M91.2331 123.524C91.1525 123.524 91.0719 123.524 90.9912 123.484C80.0255 120.107 79.8643 104.385 79.8643 103.701C79.8643 103.299 80.1868 102.937 80.6302 102.937C81.0334 102.937 81.3962 103.259 81.3962 103.701C81.3962 103.862 81.5575 118.981 91.475 122.037C91.8782 122.157 92.0797 122.6 91.9588 122.961C91.8378 123.323 91.5556 123.524 91.2331 123.524Z" fill="#ABAABF"/>
<path d="M20.7219 182.593C20.3187 182.593 19.8753 182.512 19.4318 182.392C13.2233 180.542 13.5458 170.691 14.7149 165.142C14.7956 164.74 15.1987 164.458 15.6019 164.539C16.005 164.619 16.2872 165.021 16.2066 165.423C15.0778 170.892 15.1181 179.497 19.8753 180.944C20.6412 181.186 21.2863 181.105 21.891 180.743C23.2617 179.899 24.3502 177.366 24.9146 173.626C25.2372 171.495 25.3178 169.686 25.3178 169.686C25.3178 169.283 25.6806 168.962 26.0838 168.962C26.4869 168.962 26.8498 169.324 26.8095 169.726C26.8095 169.806 26.7691 171.616 26.4063 173.867C25.721 178.17 24.4712 180.904 22.6973 182.03C22.0926 182.432 21.4072 182.593 20.7219 182.593Z" fill="#ABAABF"/>
<path fill-rule="evenodd" clip-rule="evenodd" d="M71.5997 147.57C70.5919 148.414 71.3982 150.063 72.6883 149.701H72.7286C74.3009 149.219 76.3972 147.61 79.2596 147.449C82.122 147.329 82.8477 148.012 83.6943 147.65C84.5409 147.289 84.3393 144.635 79.8643 144.836C76.236 144.997 73.2124 146.243 71.5997 147.57Z" fill="#ABAABF"/>
<path fill-rule="evenodd" clip-rule="evenodd" d="M111.713 143.388C110.705 143.911 111.31 145.439 112.52 145.359H112.56C114.051 145.238 116.108 144.233 118.728 144.595C121.389 144.956 121.953 145.68 122.76 145.519C123.566 145.359 123.606 143.107 119.494 142.544C116.188 142.021 113.285 142.544 111.713 143.388Z" fill="#ABAABF"/>
<path fill-rule="evenodd" clip-rule="evenodd" d="M65.5926 191.921C65.5926 191.921 73.8572 193.811 73.2524 198.073C72.6477 202.336 64.4234 204.145 45.1931 198.556" fill="white"/>
<path d="M64.5042 202.979C59.626 202.979 53.0144 201.773 44.911 199.441C44.4272 199.32 44.145 198.797 44.3063 198.315C44.4272 197.832 44.9513 197.551 45.4351 197.711C63.3753 202.939 69.2613 200.968 70.9949 199.883C71.8012 199.36 72.2447 198.757 72.3656 197.953C72.8494 194.615 65.512 192.846 65.4314 192.806C64.9476 192.685 64.6251 192.203 64.7461 191.72C64.867 191.238 65.3508 190.916 65.8346 191.037C66.1974 191.117 74.9055 193.168 74.1798 198.194C73.9782 199.481 73.2525 200.607 72.0028 201.371C70.2692 202.456 67.7697 202.979 64.5042 202.979Z" fill="#01283F"/>
<path fill-rule="evenodd" clip-rule="evenodd" d="M127.799 170.047C142.312 167.192 137.192 141.78 118.164 151.149C108.649 155.813 112.842 172.983 127.799 170.047Z" fill="#FFC0C9"/>
<path fill-rule="evenodd" clip-rule="evenodd" d="M77.2437 173.988C91.7572 171.133 86.6372 145.72 67.6084 155.089C58.0941 159.794 62.2868 176.923 77.2437 173.988Z" fill="#FFC0C9"/>
<path fill-rule="evenodd" clip-rule="evenodd" d="M84.7425 158.748C85.7101 158.105 83.654 154.124 81.1141 153.762C76.9214 153.159 74.4621 156.859 73.9381 158.346C73.414 159.834 74.5025 161.402 75.8329 159.392C77.5261 156.778 79.0178 155.652 80.7513 155.974C81.8398 156.175 83.009 157.703 83.009 157.703C83.009 157.703 83.654 159.472 84.7425 158.748Z" fill="#01283F"/>
<path fill-rule="evenodd" clip-rule="evenodd" d="M113.245 156.778C112.439 155.411 113.608 152.033 116.027 151.309C120.099 150.063 122.558 153.239 123.324 154.647C124.09 156.014 123.767 157.823 122.155 156.054C120.058 153.762 118.405 152.837 116.793 153.441C115.745 153.802 115.019 155.773 115.019 155.773C115.019 155.773 114.051 158.145 113.245 156.778Z" fill="#01283F"/>
<path fill-rule="evenodd" clip-rule="evenodd" d="M44.9514 86.8934C44.9514 86.8934 35.558 72.1766 55.3527 56.334C64.0607 49.3777 71.1159 47.0857 84.5811 42.8235C98.0464 38.5612 107.077 34.4598 113.971 29.5542C121.752 24.0053 128.807 6.47382 130.54 4.70459C130.54 4.70459 166.421 9.00704 168.92 9.6906C169.686 9.89165 131.75 79.8567 118.043 91.3969C118.043 91.3969 115.342 110.376 109.899 113.311C108.125 114.276 101.917 119.865 101.917 119.865C101.917 119.865 96.7563 119.664 92.241 110.778C92.241 110.778 100.465 103.178 100.264 90.7938C100.183 86.1696 77.8082 104.505 73.1316 110.778C68.4551 117.051 61.6015 132.813 56.3202 132.009C49.4264 130.923 51.3212 128.229 51.3212 128.229C51.3212 128.229 45.6771 132.009 44.3063 124.449C41.9681 111.582 49.386 96.3025 49.386 96.3025C49.386 96.3025 45.798 95.4581 44.9514 86.8934Z" fill="white"/>
<path d="M56.3605 132.451C56.1993 132.451 56.038 132.451 55.917 132.451C53.6191 132.25 52.0468 130.642 51.2405 129.556C49.7892 130.039 48.4184 130.039 47.1687 129.516C44.7901 128.551 43.7822 126.138 43.7419 126.058C43.7016 126.018 43.7016 125.937 43.7016 125.897C41.968 117.131 43.5806 107.4 48.2975 97.3078C45.677 95.056 44.266 92.1609 44.1047 88.7833C44.1047 88.6225 44.1047 88.4616 44.1047 88.3008C41.2424 83.7169 40.6779 78.2885 42.4115 72.619C45.3948 62.9686 54.9898 53.7204 67.3665 48.4529C77.9694 43.9494 85.3874 41.2955 91.354 39.1644C97.9657 36.792 102.723 35.1032 108.044 32.2483C120.744 25.4529 129.049 4.86546 129.129 4.66442C129.331 4.1819 129.855 3.98085 130.298 4.14169C130.782 4.34274 130.984 4.86546 130.823 5.30777C130.419 6.11197 122.155 26.6592 108.851 33.7763C103.408 36.7116 98.5704 38.4406 91.9184 40.813C85.9921 42.9441 78.6145 45.598 68.0519 50.0613C56.1589 55.0875 46.9671 63.9337 44.145 73.1015C42.8146 77.3235 42.9356 81.3445 44.4272 84.9232C46.3221 75.1924 56.038 65.3812 56.5218 64.8987C56.8846 64.5368 57.449 64.5368 57.8119 64.8987C58.1747 65.2606 58.1747 65.8235 57.8119 66.1854C57.6909 66.306 45.4754 78.6504 45.9592 88.6627C46.0802 91.3969 47.1687 93.6889 49.1844 95.5788C50.5551 92.8445 52.1677 90.07 53.9819 87.3357C60.7145 77.1225 68.2132 70.2868 68.2938 70.2064C68.6566 69.8847 69.221 69.8847 69.5839 70.2868C69.9064 70.6487 69.9064 71.2116 69.5436 71.5735C69.2614 71.855 40.3554 98.4336 45.5561 125.455C45.7173 125.776 46.4833 127.304 47.975 127.867C48.741 128.189 49.6279 128.189 50.5955 127.907C50.3939 113.231 59.0616 100.283 66.3587 92.0001C74.3007 83.0333 82.4041 77.4039 82.4847 77.3637C82.8879 77.0822 83.4523 77.2029 83.7345 77.605C84.0167 78.0071 83.8957 78.57 83.4926 78.8515C83.1701 79.0525 52.1677 100.645 52.3693 127.666C52.4903 127.747 52.6112 127.867 52.6515 128.028C52.7322 128.189 52.7322 128.31 52.7322 128.47C53.3369 129.315 54.506 130.561 56.1186 130.682C58.2553 130.843 60.7952 129.033 63.4157 125.455C65.2702 122.921 66.8021 120.308 68.3744 117.533C73.6154 108.486 79.5417 98.2326 99.6993 89.0648C100.143 88.8637 100.707 89.0648 100.909 89.5071C100.949 89.6277 100.989 89.7483 100.989 89.8288C101.675 91.8794 100.062 102.213 99.2155 103.782C98.7317 104.666 97.4013 106.355 95.95 108.124C94.8614 109.491 93.4101 111.301 93.0473 111.944C93.3698 112.708 95.0227 115.402 97.24 117.413C97.6029 117.734 97.6432 118.337 97.2804 118.699C96.9578 119.061 96.3531 119.101 95.9903 118.74C93.8939 116.81 90.9106 112.869 91.2331 111.622C91.3943 110.939 92.3216 109.773 94.5389 106.998C95.7887 105.43 97.1997 103.701 97.6029 102.937C98.3689 101.53 99.3767 93.7693 99.3767 91.2361C80.6302 100.042 75.228 109.411 69.987 118.458C68.3744 121.273 66.8424 123.927 64.9073 126.54C61.924 130.441 59.0616 132.451 56.3605 132.451ZM100.989 121.273C100.707 121.273 100.425 121.152 100.264 120.911C99.9815 120.509 100.062 119.946 100.465 119.664C103.086 117.734 110.222 112.306 111.713 110.094C113.205 107.883 116.148 95.9406 117.156 91.5176C117.196 91.3567 117.277 91.1959 117.398 91.0753C135.056 73.1015 167.912 10.1732 168.235 9.5298C168.477 9.08749 169.001 8.92665 169.444 9.1277C169.888 9.36896 170.049 9.89169 169.848 10.334C168.517 12.9074 136.749 73.7448 118.849 92.1207C118.285 94.6539 115.059 108.285 113.205 111.06C111.27 113.995 101.917 120.79 101.513 121.112C101.352 121.233 101.191 121.273 100.989 121.273Z" fill="#01283F"/>
<path fill-rule="evenodd" clip-rule="evenodd" d="M102.683 162.206C104.618 161.563 105.948 161.804 105.989 162.206C106.029 163.131 104.819 164.337 101.352 164.538C97.603 164.739 95.9904 164.056 95.5066 163.815C93.2892 162.729 94.7406 161.885 97.4417 162.367C99.1349 162.649 100.748 162.85 102.683 162.206Z" fill="#01283F"/>
<path d="M100.022 165.302C97.9658 165.302 96.2726 165.021 95.1437 164.458C93.6521 163.734 93.5311 162.97 93.6924 162.448C94.1359 161.04 96.7564 161.402 97.5627 161.563C99.1753 161.844 100.627 162.045 102.4 161.442C104.013 160.92 105.505 160.879 106.23 161.322C106.513 161.523 106.674 161.804 106.714 162.086C106.755 162.448 106.674 163.01 106.15 163.573C105.545 164.217 104.255 165.061 101.393 165.182C100.909 165.302 100.465 165.302 100.022 165.302ZM95.5469 162.97C95.6275 163.01 95.7082 163.051 95.8291 163.131C96.4741 163.453 98.0464 163.935 101.312 163.774C103.892 163.654 104.779 162.93 105.021 162.649C105.061 162.608 105.061 162.608 105.102 162.568C104.698 162.528 103.973 162.568 102.925 162.93C100.828 163.614 99.0543 163.413 97.3208 163.091C96.5145 162.93 95.9501 162.93 95.5469 162.97Z" fill="#01283F"/>
<path fill-rule="evenodd" clip-rule="evenodd" d="M9.15156 143.71C8.90967 143.629 14.3925 142.343 15.3198 134.019C15.3198 134.019 15.2391 141.257 21.5283 143.147C21.5283 143.147 16.6099 144.313 15.6826 152.476C15.6423 152.516 14.7554 145.358 9.15156 143.71Z" fill="#FFD444"/>
<path d="M15.6423 153.199C15.2795 153.199 14.9973 152.918 14.9167 152.596C14.9167 152.516 13.9894 145.881 8.90973 144.393C8.62752 144.313 8.42595 144.031 8.38563 143.75C8.34532 143.227 8.78878 143.066 8.99036 142.946C12.1349 141.538 14.0701 138.442 14.5538 133.939C14.5942 133.577 14.9167 133.295 15.3198 133.295C15.6827 133.336 16.0052 133.617 16.0052 134.019C16.0052 134.301 16.0455 140.734 21.6896 142.463C22.0121 142.544 22.2137 142.825 22.2137 143.147C22.2137 143.468 21.9718 143.75 21.6493 143.83C21.488 143.871 17.2146 145.037 16.368 152.556C16.3277 152.918 16.0455 153.199 15.6423 153.199C15.6827 153.199 15.6827 153.199 15.6423 153.199ZM10.8045 143.589C13.3847 144.916 14.7957 147.369 15.5617 149.339C16.5696 145.801 18.4241 144.031 19.7545 143.187C17.2146 141.86 15.9246 139.608 15.2795 137.678C14.3523 140.292 12.8606 142.302 10.8045 143.589Z" fill="#01283F"/>
<path fill-rule="evenodd" clip-rule="evenodd" d="M130.177 97.1068C129.936 97.0264 135.418 95.7397 136.346 87.4163C136.346 87.4163 136.265 94.654 142.554 96.5439C142.554 96.5439 137.636 97.71 136.708 105.873C136.708 105.913 135.822 98.7554 130.177 97.1068Z" fill="#FFD444"/>
<path d="M136.709 106.637C136.346 106.637 136.063 106.355 135.983 106.033C135.983 105.953 135.056 99.3183 129.976 97.8306C129.694 97.7502 129.492 97.4687 129.452 97.1872C129.411 96.6645 129.855 96.5036 130.057 96.383C133.201 94.9757 135.136 91.8795 135.62 87.376C135.66 87.0141 135.983 86.7327 136.386 86.7327C136.749 86.7729 137.071 87.0543 137.071 87.4564C137.071 87.7379 137.112 94.1715 142.756 95.9005C143.078 95.9809 143.28 96.2624 143.28 96.5841C143.28 96.9057 143.038 97.1872 142.715 97.2676C142.554 97.3078 138.281 98.4739 137.434 105.993C137.394 106.355 137.071 106.596 136.709 106.637ZM131.871 97.0264C134.451 98.3533 135.862 100.806 136.628 102.776C137.636 99.2379 139.49 97.4687 140.821 96.6243C138.281 95.2974 136.991 93.0456 136.346 91.1155C135.418 93.689 133.886 95.7397 131.871 97.0264Z" fill="#01283F"/>
<path fill-rule="evenodd" clip-rule="evenodd" d="M146.384 171.093C146.223 171.053 149.972 170.128 150.617 164.177C150.617 164.177 150.577 169.364 154.891 170.731C154.891 170.731 151.504 171.575 150.899 177.406C150.859 177.406 150.214 172.299 146.384 171.093Z" fill="#FFD444"/>
<path d="M150.859 178.129C150.496 178.129 150.214 177.848 150.134 177.486C150.134 177.446 149.489 172.822 146.142 171.776C145.86 171.696 145.659 171.455 145.618 171.133C145.578 170.65 146.021 170.449 146.142 170.369C148.239 169.404 149.529 167.233 149.851 164.096C149.892 163.734 150.214 163.453 150.617 163.453C150.98 163.493 151.303 163.775 151.303 164.177C151.303 164.378 151.303 168.841 155.052 170.047C155.375 170.128 155.576 170.449 155.536 170.731C155.536 171.053 155.294 171.334 155.012 171.414C154.891 171.455 152.109 172.259 151.545 177.486C151.504 177.848 151.222 178.089 150.859 178.129ZM147.916 171.012C149.327 171.897 150.214 173.224 150.738 174.47C151.424 172.5 152.432 171.374 153.278 170.731C151.948 169.927 151.061 168.68 150.577 167.434C149.972 168.962 149.085 170.168 147.916 171.012Z" fill="#01283F"/>
</g>
<defs>
<clipPath id="clip0_636_14508">
<rect width="174" height="207" fill="white"/>
</clipPath>
</defs>
</svg>
