<svg width="11" height="14" viewBox="0 0 11 14" fill="none" xmlns="http://www.w3.org/2000/svg">
<path d="M5.25 0C2.35528 0 0 2.14539 0 4.78143C0 6.03679 0.600797 7.70622 1.78566 9.74349C2.73722 11.3792 3.83808 12.8583 4.41066 13.5943C4.50741 13.72 4.63391 13.8223 4.77991 13.8928C4.92591 13.9633 5.0873 14 5.25098 14C5.41467 14 5.57606 13.9633 5.72206 13.8928C5.86806 13.8223 5.99456 13.72 6.09131 13.5943C6.66291 12.8583 7.76475 11.3792 8.71631 9.74349C9.8992 7.70685 10.5 6.03741 10.5 4.78143C10.5 2.14539 8.14472 0 5.25 0ZM5.25 7.00026C4.83466 7.00026 4.42865 6.88296 4.0833 6.66319C3.73796 6.44342 3.4688 6.13105 3.30985 5.76558C3.15091 5.40012 3.10932 4.99797 3.19035 4.60999C3.27138 4.22201 3.47139 3.86564 3.76508 3.58592C4.05877 3.3062 4.43295 3.11572 4.84031 3.03854C5.24767 2.96137 5.66991 3.00098 6.05363 3.15236C6.43736 3.30374 6.76534 3.56009 6.99609 3.889C7.22684 4.21792 7.35 4.60461 7.35 5.00019C7.34939 5.53046 7.12795 6.03885 6.73425 6.41381C6.34056 6.78877 5.80677 6.99968 5.25 7.00026Z" fill="white"/>
</svg>
