<svg width="11" height="17" viewBox="0 0 11 17" fill="none" xmlns="http://www.w3.org/2000/svg">
<path d="M5.42763 0.5C2.43497 0.5 0 2.95188 0 5.96449C0 7.39919 0.621125 9.30711 1.84607 11.6354C2.82983 13.5048 3.96794 15.1952 4.55989 16.0363C4.65992 16.18 4.7907 16.2969 4.94164 16.3774C5.09258 16.458 5.25942 16.5 5.42865 16.5C5.59788 16.5 5.76472 16.458 5.91566 16.3774C6.0666 16.2969 6.19738 16.18 6.29741 16.0363C6.88834 15.1952 8.02747 13.5048 9.01123 11.6354C10.2341 9.30783 10.8553 7.3999 10.8553 5.96449C10.8553 2.95188 8.42029 0.5 5.42763 0.5ZM5.42763 8.5003C4.99824 8.5003 4.57849 8.36624 4.22146 8.11507C3.86443 7.8639 3.58616 7.50691 3.42184 7.08924C3.25752 6.67156 3.21452 6.21196 3.2983 5.76856C3.38207 5.32516 3.58884 4.91787 3.89247 4.59819C4.19609 4.27852 4.58294 4.06082 5.00408 3.97262C5.42522 3.88442 5.86175 3.92969 6.25846 4.1027C6.65517 4.2757 6.99424 4.56868 7.2328 4.94458C7.47135 5.32047 7.59869 5.76241 7.59869 6.2145C7.59806 6.82053 7.36912 7.40155 6.9621 7.83007C6.55509 8.2586 6.00324 8.49964 5.42763 8.5003Z" fill="#333333"/>
</svg>
