<?xml version="1.0" encoding="UTF-8"?>
<svg xmlns="http://www.w3.org/2000/svg" xmlns:xlink="http://www.w3.org/1999/xlink" width="48px" height="48px" viewBox="0 0 48 48" version="1.1">
<g id="surface1">
<path style=" stroke:none;fill-rule:nonzero;fill:rgb(33.333333%,53.72549%,31.372549%);fill-opacity:1;" d="M 48 23.792969 C 48 36.710938 37.253906 47.179688 24 47.179688 C 10.746094 47.179688 0 36.710938 0 23.792969 C 0 10.878906 10.746094 0.410156 24 0.410156 C 37.253906 0.410156 48 10.878906 48 23.792969 Z M 48 23.792969 "/>
<path style=" stroke:none;fill-rule:evenodd;fill:rgb(100%,100%,100%);fill-opacity:1;" d="M 25.113281 14.816406 C 25.113281 14.242188 24.632812 13.773438 24.042969 13.773438 C 23.449219 13.773438 22.972656 14.242188 22.972656 14.816406 L 22.972656 22.792969 L 14.785156 22.792969 C 14.195312 22.792969 13.714844 23.261719 13.714844 23.835938 C 13.714844 24.414062 14.195312 24.878906 14.785156 24.878906 L 22.972656 24.878906 L 22.972656 32.773438 C 22.972656 33.347656 23.449219 33.816406 24.042969 33.816406 C 24.632812 33.816406 25.113281 33.347656 25.113281 32.773438 L 25.113281 24.878906 L 33.214844 24.878906 C 33.804688 24.878906 34.285156 24.414062 34.285156 23.835938 C 34.285156 23.261719 33.804688 22.792969 33.214844 22.792969 L 25.113281 22.792969 Z M 25.113281 14.816406 "/>
</g>
</svg>
