<?xml version="1.0" encoding="UTF-8"?>
<svg xmlns="http://www.w3.org/2000/svg" xmlns:xlink="http://www.w3.org/1999/xlink" width="56px" height="56px" viewBox="0 0 56 56" version="1.1">
<g id="surface1">
<path style="fill:none;stroke-width:1.66667;stroke-linecap:butt;stroke-linejoin:miter;stroke:rgb(33.333333%,53.72549%,31.372549%);stroke-opacity:1;stroke-miterlimit:4;" d="M 40.833984 21.333984 C 40.833984 32.288086 31.954102 41.167969 21 41.167969 C 10.045898 41.167969 1.166016 32.288086 1.166016 21.333984 C 1.166016 10.379883 10.045898 1.5 21 1.5 C 31.954102 1.5 40.833984 10.379883 40.833984 21.333984 Z M 40.833984 21.333984 " transform="matrix(1.333333,0,0,1.333333,0,0)"/>
<path style=" stroke:none;fill-rule:evenodd;fill:rgb(33.333333%,53.72549%,31.372549%);fill-opacity:1;" d="M 29.175781 18.71875 C 29.175781 18.09375 28.667969 17.585938 28.046875 17.585938 C 27.421875 17.585938 26.914062 18.09375 26.914062 18.71875 L 26.914062 27.359375 L 18.273438 27.359375 C 17.648438 27.359375 17.144531 27.863281 17.144531 28.488281 C 17.144531 29.113281 17.648438 29.621094 18.273438 29.621094 L 26.914062 29.621094 L 26.914062 38.171875 C 26.914062 38.796875 27.421875 39.300781 28.046875 39.300781 C 28.667969 39.300781 29.175781 38.796875 29.175781 38.171875 L 29.175781 29.621094 L 37.726562 29.621094 C 38.351562 29.621094 38.855469 29.113281 38.855469 28.488281 C 38.855469 27.863281 38.351562 27.359375 37.726562 27.359375 L 29.175781 27.359375 Z M 29.175781 18.71875 "/>
</g>
</svg>
