<?xml version="1.0" encoding="UTF-8"?>
<svg xmlns="http://www.w3.org/2000/svg" xmlns:xlink="http://www.w3.org/1999/xlink" width="48px" height="48px" viewBox="0 0 48 48" version="1.1">
<g id="surface1">
<path style="fill:none;stroke-width:1.66667;stroke-linecap:butt;stroke-linejoin:miter;stroke:rgb(33.333333%,53.72549%,31.372549%);stroke-opacity:1;stroke-miterlimit:4;" d="M 40.834476 21.334963 C 40.834476 32.286136 31.954593 41.166019 21.000002 41.166019 C 10.045411 41.166019 1.165527 32.286136 1.165527 21.334963 C 1.165527 10.380372 10.045411 1.500488 21.000002 1.500488 C 31.954593 1.500488 40.834476 10.380372 40.834476 21.334963 Z M 40.834476 21.334963 " transform="matrix(1.142857,0,0,1.142857,0,0)"/>
<path style=" stroke:none;fill-rule:evenodd;fill:rgb(33.333333%,53.72549%,31.372549%);fill-opacity:1;" d="M 25.007812 16.042969 C 25.007812 15.507812 24.574219 15.074219 24.039062 15.074219 C 23.503906 15.074219 23.070312 15.507812 23.070312 16.042969 L 23.070312 23.449219 L 15.664062 23.449219 C 15.128906 23.449219 14.695312 23.882812 14.695312 24.417969 C 14.695312 24.957031 15.128906 25.390625 15.664062 25.390625 L 23.070312 25.390625 L 23.070312 32.71875 C 23.070312 33.253906 23.503906 33.6875 24.039062 33.6875 C 24.574219 33.6875 25.007812 33.253906 25.007812 32.71875 L 25.007812 25.390625 L 32.335938 25.390625 C 32.871094 25.390625 33.304688 24.957031 33.304688 24.417969 C 33.304688 23.882812 32.871094 23.449219 32.335938 23.449219 L 25.007812 23.449219 Z M 25.007812 16.042969 "/>
</g>
</svg>
