<svg width="9" height="12" viewBox="0 0 9 12" fill="none" xmlns="http://www.w3.org/2000/svg">
<path d="M4.125 0C1.85058 0 0 1.83891 0 4.09837C0 5.17439 0.472055 6.60534 1.40302 8.35156C2.15067 9.75358 3.01563 11.0214 3.46552 11.6522C3.54154 11.76 3.64093 11.8477 3.75564 11.9081C3.87036 11.9685 3.99716 12 4.12577 12C4.25439 12 4.38119 11.9685 4.4959 11.9081C4.61062 11.8477 4.71001 11.76 4.78603 11.6522C5.23514 11.0214 6.10088 9.75358 6.84853 8.35156C7.77795 6.60587 8.25 5.17493 8.25 4.09837C8.25 1.83891 6.39942 0 4.125 0ZM4.125 6.00022C3.79866 6.00022 3.47965 5.89968 3.20831 5.7113C2.93697 5.52293 2.72548 5.25518 2.6006 4.94193C2.47571 4.62867 2.44304 4.28397 2.5067 3.95142C2.57037 3.61887 2.72752 3.3134 2.95827 3.07365C3.18903 2.83389 3.48303 2.67061 3.8031 2.60447C4.12317 2.53832 4.45493 2.57227 4.75643 2.70202C5.05793 2.83178 5.31562 3.05151 5.49692 3.33343C5.67823 3.61536 5.775 3.94681 5.775 4.28587C5.77452 4.7404 5.60053 5.17616 5.2912 5.49755C4.98187 5.81895 4.56246 5.99973 4.125 6.00022Z" fill="#8D191D"/>
</svg>
