<svg width="16" height="16" viewBox="0 0 16 16" fill="none" xmlns="http://www.w3.org/2000/svg">
<path d="M15.4565 15.7058C15.8425 15.3135 15.8426 14.6774 15.4565 14.2851L11.3368 10.0982C12.1134 9.01389 12.5311 7.70703 12.5298 6.36596C12.5298 2.85584 9.71932 0 6.26491 0C2.81051 0 0 2.85584 0 6.36596C0 9.87608 2.81051 12.7319 6.26491 12.7319C7.5847 12.7332 8.87082 12.3087 9.93796 11.5197L14.0583 15.7058C14.4444 16.0981 15.0704 16.0981 15.4565 15.7058ZM6.26491 10.7213C5.41706 10.7214 4.58823 10.466 3.88324 9.98743C3.17824 9.50884 2.62875 8.82857 2.30426 8.03263C1.97976 7.2367 1.89484 6.36087 2.06023 5.51589C2.22562 4.67092 2.63389 3.89475 3.23341 3.28556C3.83293 2.67637 4.59678 2.26152 5.42834 2.09346C6.2599 1.9254 7.12184 2.0117 7.90513 2.34142C8.68843 2.67115 9.35791 3.2295 9.8289 3.94587C10.2999 4.66224 10.5512 5.50444 10.5512 6.36596C10.5498 7.52067 10.0978 8.62769 9.29428 9.44419C8.49074 10.2607 7.40129 10.72 6.26491 10.7213Z" fill="#666666"/>
</svg>
