<svg width="16" height="16" viewBox="0 0 16 16" fill="none" xmlns="http://www.w3.org/2000/svg">
<path d="M13.3571 1.57138H12.8214V1.05073C12.8214 0.762452 12.5998 0.515018 12.3115 0.500621C12.2391 0.497131 12.1667 0.508383 12.0987 0.533696C12.0308 0.55901 11.9687 0.597856 11.9162 0.647883C11.8637 0.697909 11.8219 0.758074 11.7933 0.824731C11.7647 0.891388 11.75 0.963149 11.75 1.03567V1.57138H4.25V1.05073C4.25 0.762452 4.02835 0.515018 3.74007 0.500621C3.66763 0.497131 3.59525 0.508383 3.52729 0.533696C3.45933 0.55901 3.39722 0.597856 3.34472 0.647883C3.29222 0.697909 3.25043 0.758074 3.22187 0.824731C3.19331 0.891388 3.17858 0.963149 3.17857 1.03567V1.57138H2.64286C2.07454 1.57138 1.52949 1.79715 1.12763 2.19901C0.725765 2.60088 0.5 3.14592 0.5 3.71425V13.3571C0.5 13.9255 0.725765 14.4705 1.12763 14.8724C1.52949 15.2742 2.07454 15.5 2.64286 15.5H13.3571C13.9255 15.5 14.4705 15.2742 14.8724 14.8724C15.2742 14.4705 15.5 13.9255 15.5 13.3571V3.71425C15.5 3.14592 15.2742 2.60088 14.8724 2.19901C14.4705 1.79715 13.9255 1.57138 13.3571 1.57138ZM3.98214 13.3571C3.82321 13.3571 3.66785 13.31 3.5357 13.2217C3.40356 13.1334 3.30056 13.0079 3.23974 12.8611C3.17892 12.7142 3.16301 12.5527 3.19401 12.3968C3.22502 12.2409 3.30155 12.0977 3.41393 11.9853C3.52631 11.873 3.6695 11.7964 3.82537 11.7654C3.98125 11.7344 4.14282 11.7503 4.28966 11.8112C4.43649 11.872 4.56199 11.975 4.65029 12.1071C4.73859 12.2393 4.78571 12.3946 4.78571 12.5536C4.78571 12.7667 4.70105 12.9711 4.55035 13.1218C4.39965 13.2725 4.19526 13.3571 3.98214 13.3571ZM3.98214 10.6786C3.82321 10.6786 3.66785 10.6314 3.5357 10.5431C3.40356 10.4548 3.30056 10.3293 3.23974 10.1825C3.17892 10.0357 3.16301 9.87409 3.19401 9.71821C3.22502 9.56233 3.30155 9.41915 3.41393 9.30677C3.52631 9.19439 3.6695 9.11785 3.82537 9.08685C3.98125 9.05584 4.14282 9.07176 4.28966 9.13258C4.43649 9.1934 4.56199 9.29639 4.65029 9.42854C4.73859 9.56069 4.78571 9.71605 4.78571 9.87498C4.78571 10.0881 4.70105 10.2925 4.55035 10.4432C4.39965 10.5939 4.19526 10.6786 3.98214 10.6786ZM6.66071 13.3571C6.50178 13.3571 6.34642 13.31 6.21427 13.2217C6.08213 13.1334 5.97913 13.0079 5.91831 12.8611C5.85749 12.7142 5.84158 12.5527 5.87258 12.3968C5.90359 12.2409 5.98012 12.0977 6.0925 11.9853C6.20489 11.873 6.34807 11.7964 6.50394 11.7654C6.65982 11.7344 6.82139 11.7503 6.96823 11.8112C7.11506 11.872 7.24056 11.975 7.32886 12.1071C7.41716 12.2393 7.46429 12.3946 7.46429 12.5536C7.46429 12.7667 7.37962 12.9711 7.22893 13.1218C7.07823 13.2725 6.87384 13.3571 6.66071 13.3571ZM6.66071 10.6786C6.50178 10.6786 6.34642 10.6314 6.21427 10.5431C6.08213 10.4548 5.97913 10.3293 5.91831 10.1825C5.85749 10.0357 5.84158 9.87409 5.87258 9.71821C5.90359 9.56233 5.98012 9.41915 6.0925 9.30677C6.20489 9.19439 6.34807 9.11785 6.50394 9.08685C6.65982 9.05584 6.82139 9.07176 6.96823 9.13258C7.11506 9.1934 7.24056 9.29639 7.32886 9.42854C7.41716 9.56069 7.46429 9.71605 7.46429 9.87498C7.46429 10.0881 7.37962 10.2925 7.22893 10.4432C7.07823 10.5939 6.87384 10.6786 6.66071 10.6786ZM9.33929 13.3571C9.18035 13.3571 9.02499 13.31 8.89285 13.2217C8.7607 13.1334 8.6577 13.0079 8.59688 12.8611C8.53606 12.7142 8.52015 12.5527 8.55116 12.3968C8.58216 12.2409 8.65869 12.0977 8.77108 11.9853C8.88346 11.873 9.02664 11.7964 9.18252 11.7654C9.33839 11.7344 9.49997 11.7503 9.6468 11.8112C9.79363 11.872 9.91913 11.975 10.0074 12.1071C10.0957 12.2393 10.1429 12.3946 10.1429 12.5536C10.1429 12.7667 10.0582 12.9711 9.9075 13.1218C9.7568 13.2725 9.55241 13.3571 9.33929 13.3571ZM9.33929 10.6786C9.18035 10.6786 9.02499 10.6314 8.89285 10.5431C8.7607 10.4548 8.6577 10.3293 8.59688 10.1825C8.53606 10.0357 8.52015 9.87409 8.55116 9.71821C8.58216 9.56233 8.65869 9.41915 8.77108 9.30677C8.88346 9.19439 9.02664 9.11785 9.18252 9.08685C9.33839 9.05584 9.49997 9.07176 9.6468 9.13258C9.79363 9.1934 9.91913 9.29639 10.0074 9.42854C10.0957 9.56069 10.1429 9.71605 10.1429 9.87498C10.1429 10.0881 10.0582 10.2925 9.9075 10.4432C9.7568 10.5939 9.55241 10.6786 9.33929 10.6786ZM9.33929 7.99998C9.18035 7.99998 9.02499 7.95285 8.89285 7.86455C8.7607 7.77625 8.6577 7.65075 8.59688 7.50392C8.53606 7.35708 8.52015 7.19551 8.55116 7.03963C8.58216 6.88375 8.65869 6.74057 8.77108 6.62819C8.88346 6.51581 9.02664 6.43927 9.18252 6.40827C9.33839 6.37726 9.49997 6.39318 9.6468 6.454C9.79363 6.51482 9.91913 6.61781 10.0074 6.74996C10.0957 6.88211 10.1429 7.03747 10.1429 7.1964C10.1429 7.40952 10.0582 7.61391 9.9075 7.76461C9.7568 7.91531 9.55241 7.99998 9.33929 7.99998ZM12.0179 10.6786C11.8589 10.6786 11.7036 10.6314 11.5714 10.5431C11.4393 10.4548 11.3363 10.3293 11.2755 10.1825C11.2146 10.0357 11.1987 9.87409 11.2297 9.71821C11.2607 9.56233 11.3373 9.41915 11.4496 9.30677C11.562 9.19439 11.7052 9.11785 11.8611 9.08685C12.017 9.05584 12.1785 9.07176 12.3254 9.13258C12.4722 9.1934 12.5977 9.29639 12.686 9.42854C12.7743 9.56069 12.8214 9.71605 12.8214 9.87498C12.8214 10.0881 12.7368 10.2925 12.5861 10.4432C12.4354 10.5939 12.231 10.6786 12.0179 10.6786ZM12.0179 7.99998C11.8589 7.99998 11.7036 7.95285 11.5714 7.86455C11.4393 7.77625 11.3363 7.65075 11.2755 7.50392C11.2146 7.35708 11.1987 7.19551 11.2297 7.03963C11.2607 6.88375 11.3373 6.74057 11.4496 6.62819C11.562 6.51581 11.7052 6.43927 11.8611 6.40827C12.017 6.37726 12.1785 6.39318 12.3254 6.454C12.4722 6.51482 12.5977 6.61781 12.686 6.74996C12.7743 6.88211 12.8214 7.03747 12.8214 7.1964C12.8214 7.40952 12.7368 7.61391 12.5861 7.76461C12.4354 7.91531 12.231 7.99998 12.0179 7.99998ZM14.4286 3.98211V4.51782C14.4286 4.58886 14.4004 4.65699 14.3501 4.70723C14.2999 4.75746 14.2318 4.78568 14.1607 4.78568H1.83929C1.76825 4.78568 1.70012 4.75746 1.64988 4.70723C1.59965 4.65699 1.57143 4.58886 1.57143 4.51782V3.71425C1.57222 3.43033 1.68536 3.15827 1.88612 2.95751C2.08688 2.75675 2.35894 2.64361 2.64286 2.64282H13.3571C13.6411 2.64361 13.9131 2.75675 14.1139 2.95751C14.3146 3.15827 14.4278 3.43033 14.4286 3.71425V3.98211Z" fill="#666666"/>
</svg>
