<svg width="12" height="12" viewBox="0 0 12 12" fill="none" xmlns="http://www.w3.org/2000/svg">
<path fill-rule="evenodd" clip-rule="evenodd" d="M6.00004 0C6.35509 0 6.64292 0.28783 6.64292 0.642887V1.71436C6.64292 2.06942 6.35509 2.35725 6.00004 2.35725C5.64498 2.35725 5.35715 2.06942 5.35715 1.71436V0.642887C5.35715 0.28783 5.64498 0 6.00004 0Z" fill="#132A3E"/>
<path fill-rule="evenodd" clip-rule="evenodd" d="M6.00004 9.64275C6.35509 9.64275 6.64292 9.93058 6.64292 10.2856V11.3571C6.64292 11.7122 6.35509 12 6.00004 12C5.64498 12 5.35715 11.7122 5.35715 11.3571V10.2856C5.35715 9.93058 5.64498 9.64275 6.00004 9.64275Z" fill="#132A3E"/>
<path fill-rule="evenodd" clip-rule="evenodd" d="M3.61891 2.43653C4.32373 1.96559 5.15236 1.71423 6.00004 1.71423C7.13673 1.71423 8.22687 2.16578 9.03063 2.96954C9.8344 3.77331 10.2859 4.86344 10.2859 6.00014C10.2859 6.84781 10.0346 7.67645 9.56364 8.38126C9.0927 9.08608 8.42333 9.63542 7.64018 9.95981C6.85704 10.2842 5.99528 10.3691 5.1639 10.2037C4.33251 10.0383 3.56883 9.63013 2.96944 9.03074C2.37004 8.43134 1.96185 7.66766 1.79648 6.83628C1.6311 6.00489 1.71598 5.14314 2.04037 4.35999C2.36476 3.57684 2.9141 2.90747 3.61891 2.43653ZM6.00004 2.57141C5.3219 2.57141 4.65899 2.7725 4.09514 3.14925C3.53128 3.52601 3.09181 4.0615 2.8323 4.68802C2.57279 5.31454 2.50489 6.00394 2.63719 6.66905C2.76949 7.33416 3.09604 7.9451 3.57556 8.42462C4.05507 8.90413 4.66602 9.23069 5.33112 9.36299C5.99623 9.49529 6.68564 9.42738 7.31215 9.16787C7.93867 8.90836 8.47417 8.46889 8.85092 7.90504C9.22767 7.34119 9.42877 6.67828 9.42877 6.00014C9.42877 5.09078 9.06753 4.21867 8.42451 3.57566C7.7815 2.93265 6.90939 2.57141 6.00004 2.57141Z" fill="#132A3E"/>
<path fill-rule="evenodd" clip-rule="evenodd" d="M9.64306 5.9993C9.64306 5.64425 9.93089 5.35642 10.2859 5.35642H11.3574C11.7125 5.35642 12.0003 5.64425 12.0003 5.9993C12.0003 6.35436 11.7125 6.64219 11.3574 6.64219H10.2859C9.93089 6.64219 9.64306 6.35436 9.64306 5.9993Z" fill="#132A3E"/>
<path fill-rule="evenodd" clip-rule="evenodd" d="M-0.000244141 5.9993C-0.000244141 5.64425 0.287586 5.35642 0.642643 5.35642H1.71412C2.06918 5.35642 2.35701 5.64425 2.35701 5.9993C2.35701 6.35436 2.06918 6.64219 1.71412 6.64219H0.642643C0.287586 6.64219 -0.000244141 6.35436 -0.000244141 5.9993Z" fill="#132A3E"/>
<path d="M8.00024 6C8.00024 7.10457 7.10481 8 6.00024 8C4.89567 8 4.00024 7.10457 4.00024 6C4.00024 4.89543 4.89567 4 6.00024 4C7.10481 4 8.00024 4.89543 8.00024 6Z" fill="#132A3E"/>
</svg>
