<svg width="12" height="12" viewBox="0 0 12 12" fill="#666666" xmlns="http://www.w3.org/2000/svg">
<path fill-rule="evenodd" clip-rule="evenodd" d="M10.2801 3L9.85983 10.0601C9.79497 11.1496 8.89246 12 7.80097 12H4.19914C3.10765 12 2.20514 11.1496 2.14028 10.0601L1.72004 3H0.75C0.335786 3 0 2.74816 0 2.4375C0 2.12684 0.335786 1.875 0.75 1.875H3.27562L3.30322 1.71401C3.47296 0.723835 4.33144 0 5.33607 0H6.66373C7.66835 0 8.52683 0.723835 8.69658 1.71401L8.72418 1.875H11.25C11.6642 1.875 12 2.12684 12 2.4375C12 2.74816 11.6642 3 11.25 3H10.2801ZM3.26329 9.99321L2.84703 3H9.15308L8.73681 9.99321C8.70733 10.4885 8.2971 10.875 7.80097 10.875H4.19914C3.70301 10.875 3.29277 10.4885 3.26329 9.99321ZM7.5823 1.875C7.49365 1.43991 7.11048 1.125 6.66373 1.125H5.33607C4.88932 1.125 4.50615 1.43991 4.4175 1.875H7.5823Z" fill="#666666"/>
</svg>
