<svg width="364" height="256" viewBox="0 0 364 256" fill="none" xmlns="http://www.w3.org/2000/svg">
<path d="M19.0018 121.309C21.5371 119.513 25.0917 119.227 27.7837 118.784C29.6656 118.472 31.0508 118.237 31.9133 117.769C34.1088 116.623 33.0634 114.436 32.9849 114.202C32.7759 113.629 32.3315 111.469 33.2725 110.297C34.8407 108.371 40.4339 109.1 40.4862 109.1C44.4067 109.516 46.6544 110.792 47.6476 112.354C48.2749 113.343 48.1965 114.28 47.909 115.165H47.9351C47.909 115.217 47.5431 116.024 47.3863 116.337C46.8374 117.534 46.4715 117.951 46.4976 118.576C46.576 119.877 50.1306 120.945 52.3 122.325C53.8682 123.314 55.3057 124.485 56.1421 125.11C60.8467 128.729 62.2058 132.764 60.3762 136.981C60.4546 137.502 60.8728 138.934 59.566 142.188C58.0762 145.806 53.4761 147.551 46.9419 148.67C43.9362 149.191 33.952 149.503 28.2542 148.358C26.6599 148.176 24.2814 147.186 22.7132 146.666C21.4064 145.989 20.7268 145.208 19.2632 144.01C17.2507 142.344 16.4404 140.261 15.3688 137.892C14.8722 136.747 14.7677 135.003 14.637 134.43C13.3301 128.52 15.6302 123.678 19.0018 121.309Z" fill="#252322"/>
<path d="M20.099 122.896C17.7205 124.563 15.525 127.843 15.2637 131.774C16.7796 127.947 20.3081 124.537 23.3138 122.818C24.699 122.037 26.0843 121.387 27.2865 120.814C27.6263 120.658 27.9661 120.501 28.2797 120.345L28.0184 120.397C25.3786 120.84 22.3729 121.308 20.099 122.896Z" fill="white"/>
<path d="M41.0608 110.583C39.1267 110.374 36.1471 110.348 35.3891 110.869C33.9516 111.832 35.2062 112.821 36.5914 113.082C37.5062 113.264 38.3426 113.212 39.3619 113.03C40.721 112.769 42.2892 112.483 44.1188 113.316C45.1642 113.785 45.9222 113.759 46.2097 113.498C46.4188 113.29 46.4711 112.873 46.1574 112.483C45.5301 111.78 43.7267 110.869 41.0608 110.583Z" fill="white"/>
<path d="M55.1744 126.411C54.3903 125.812 52.9528 124.901 51.4107 123.938C50.1039 123.105 48.6925 122.22 47.4902 121.387C48.5357 122.714 50.2346 124.276 52.5608 126.073C52.8221 126.281 53.1358 126.515 53.4755 126.75C55.4881 128.207 58.2847 130.238 59.6438 133.805C59.7484 131.227 58.2847 128.832 55.1744 126.411Z" fill="white"/>
<path d="M24.3595 124.042C25.6925 123.287 26.9993 122.688 28.2278 122.09C30.8153 120.866 33.1676 119.773 34.3438 117.846C34.7358 117.3 34.7619 116.675 34.9188 115.946C35.0233 115.503 34.9972 115.113 34.9188 114.748C35.154 114.852 35.6767 115.087 36.3824 115.165C37.4279 115.269 38.3688 115.009 39.2836 114.748C40.5382 114.384 41.6359 114.071 42.995 114.67C44.3802 115.243 45.478 115.191 46.1837 114.826C46.053 115.087 45.5825 116.024 45.5041 116.206C45.0598 116.987 44.6939 117.976 44.6939 118.705C44.7723 121.543 48.1962 124.823 51.1235 127.062C51.411 127.296 52.1428 128.025 52.5088 128.286C54.9917 130.082 58.1804 132.034 58.6247 137.085C58.6247 137.085 58.8861 138.725 57.6838 141.641C56.3247 144.999 51.8292 145.806 46.1575 146.873C44.3541 147.212 35.7029 147.941 28.6721 146.535C23.2879 145.129 17.3549 144.713 16.7799 137.475C15.264 132.477 20.047 126.489 24.3595 124.042Z" fill="white"/>
<path d="M55.4617 137.319C55.6446 135.471 55.1742 132.789 50.5218 129.093C47.0195 126.281 45.2684 123.235 44.7456 121.933C44.6411 121.673 43.9615 121.829 44.0661 122.116C44.5888 123.782 46.5752 127.452 49.1366 130.16C52.5344 133.726 53.3185 135.21 52.848 137.683C52.7435 138.152 55.2526 139.089 55.4617 137.319Z" fill="#2B2C2A"/>
<path d="M27.9666 135.653C27.9143 136.512 30.5541 136.668 30.5803 135.34C30.5803 133.726 30.9984 131.435 31.861 129.561C32.6451 127.843 34.736 125.239 36.1474 121.543C36.3303 121.074 35.494 120.97 35.3633 121.334C35.1542 122.037 33.1417 125.37 30.7371 128.598C28.6984 131.305 28.045 133.804 27.9666 135.653Z" fill="#2B2C2A"/>
<path d="M20.8572 133.467C20.7265 134.638 22.5822 135.341 22.7651 133.675C23.0004 131.332 25.039 128.729 28.0186 126.49C30.1096 124.928 32.0959 122.351 32.3834 121.752C32.5664 121.413 31.8869 121.335 31.7562 121.544C30.8937 122.715 28.1754 124.902 26.7641 125.969C23.7322 128.208 21.1708 130.473 20.8572 133.467Z" fill="#2B2C2A"/>
<path d="M38.8127 135.263C40.3809 131.592 38.7866 124.121 38.6298 123.001C38.5775 122.585 37.8195 122.611 37.8457 122.923C38.1593 127.062 38.2377 130.16 36.6956 134.013C36.3297 134.924 38.4468 136.122 38.8127 135.263Z" fill="#2B2C2A"/>
<path d="M44.9551 138.881C46.079 135.809 45.4779 134.013 44.4324 132.008C42.9165 129.04 41.3744 124.667 40.9039 121.751C40.8255 121.257 41.6096 121.335 41.6619 121.595C42.2369 124.459 44.6415 128.754 46.2097 131.149C48.17 134.143 48.4313 136.174 47.3336 138.829C46.7847 140.157 44.6938 139.584 44.9551 138.881Z" fill="#2B2C2A"/>
<path d="M5.30592 138.569C5.33206 138.126 5.38433 137.658 5.4366 137.189C5.56729 135.966 5.75024 134.69 5.98547 133.492C5.35819 133.284 4.57409 133.076 3.78999 132.972C3.0843 132.868 2.50929 132.711 2.40475 132.711C2.37861 133.154 2.90134 134.56 3.65931 136.018C4.1559 136.981 4.73091 137.892 5.30592 138.569ZM16.7799 144.843C17.3027 144.218 17.8777 143.671 18.5311 143.151C17.5379 142.187 16.3879 140.912 15.3947 139.428C15.2117 139.168 15.0549 138.907 14.8719 138.647C15.0288 141.615 15.4731 144.166 16.7799 144.843ZM12.964 155.647C12.964 155.438 12.9901 155.256 13.0162 155.048C13.3037 151.95 14.0617 149.008 15.5515 146.561L15.5776 146.509C12.6503 144.635 12.7549 138.517 12.8333 133.284C12.8856 130.577 12.9117 128.13 12.5458 126.88C12.5196 126.828 12.5196 126.75 12.5196 126.698C12.2583 126.62 12.206 125.839 11.814 125.787C11.5526 125.761 11.1605 126.307 11.1083 126.359C10.5594 126.906 10.0367 127.791 9.61847 128.78C9.04347 130.082 8.54687 131.332 8.31164 132.008L8.44232 132.035C7.998 133.623 7.68436 135.575 7.47527 137.423C7.26617 139.454 7.2139 141.354 7.31845 142.5C7.78891 146.665 9.20029 149.06 10.8469 151.82C11.5265 152.991 12.2583 154.215 12.964 155.647ZM39.3359 153.772C40.1723 151.82 41.3746 150.518 42.7337 149.659C40.2507 149.529 37.4541 149.269 34.7358 148.826C32.1483 148.409 29.613 147.837 27.496 147.108C27.3914 147.42 27.2869 147.759 27.1823 148.045C26.6335 149.373 25.7971 150.622 24.7778 151.351C24.0721 151.846 23.6016 152.393 23.3141 152.913C23.0527 153.382 22.9482 153.798 23.0266 154.033C23.1834 154.527 25.3528 155.126 27.9142 155.855C32.5142 157.131 38.1859 158.719 38.8393 162.754C38.9177 163.3 38.5518 163.847 37.9768 163.925C37.4018 164.003 36.879 163.639 36.8006 163.066C36.3825 160.333 31.4165 158.927 27.3653 157.807C24.2027 156.922 21.5107 156.167 21.0402 154.605C20.8311 153.85 20.9618 152.887 21.5107 151.898C21.9289 151.143 22.6084 150.362 23.5755 149.685C24.2812 149.19 24.8823 148.279 25.2744 147.29C25.7187 146.171 26.2937 143.723 24.9346 142.968C24.8039 142.89 24.6471 142.292 24.5164 142.266C23.7584 142.526 21.955 142.682 20.23 144.504C19.0277 145.364 18.0868 146.431 17.3549 147.628C16.0481 149.789 15.3685 152.419 15.1072 155.23C14.9242 157.261 15.2901 159.057 15.6561 160.905C15.8129 161.634 15.9436 162.363 16.0481 163.066C16.5708 163.353 17.3549 163.717 18.2959 164.186C24.4641 167.153 36.9052 173.115 37.062 184.101C37.062 184.179 37.062 184.257 37.062 184.335C37.0097 184.674 37.062 184.96 37.1927 185.194C37.4541 185.689 38.0552 186.106 38.8654 186.47C39.7802 186.861 40.9564 187.147 42.2371 187.303C46.1576 187.824 50.9145 187.355 52.9531 186.314L53.0054 186.288C53.0577 186.262 52.9008 185.455 52.8224 185.038L52.7702 184.778V184.7C52.0383 172.516 56.6907 166.06 60.1407 161.322C61.9441 158.823 63.3817 156.844 63.3032 154.892C63.2771 153.928 63.068 152.705 62.8851 151.429C62.3885 148.175 61.8134 144.53 63.2771 142.24C64.0089 141.068 65.0544 140.547 65.9169 140.131C66.3874 139.897 66.7794 139.688 66.8056 139.61C66.8317 139.506 66.701 139.168 66.4919 138.777C66.2306 138.282 65.8908 137.814 65.6294 137.58L65.6033 137.606C65.368 137.475 65.1328 137.397 64.9237 137.293C64.5317 137.241 64.0612 137.293 63.5385 137.449C62.7021 137.684 61.8135 138.204 60.9771 139.063C59.9839 140.079 59.1998 141.719 58.3895 143.385C58.0498 144.088 57.71 144.791 57.3441 145.494C56.7691 146.847 56.1941 148.071 55.5406 148.904C54.7565 149.919 53.1622 149.945 51.1235 149.997C47.8565 150.076 43.2041 150.206 41.27 154.683L39.3359 153.772Z" fill="#FADABC"/>
<path d="M5.3055 138.569C5.33164 138.126 5.38391 137.657 5.43619 137.189C5.56687 135.965 5.74983 134.69 5.98506 133.492C5.35778 133.284 4.57368 133.076 3.78957 132.971C3.08388 132.867 2.50888 132.711 2.40433 132.711C2.37819 133.154 2.90093 134.56 3.65889 136.017C4.15549 136.981 4.7305 137.892 5.3055 138.569ZM16.7795 144.843C17.3022 144.218 17.8773 143.671 18.5307 143.15C17.5375 142.187 16.3875 140.912 15.3943 139.428C15.2113 139.167 15.0545 138.907 14.8715 138.647C15.0284 141.615 15.4727 144.166 16.7795 144.843ZM12.9636 155.646C12.9636 155.438 12.9897 155.256 13.0158 155.048C13.3033 151.95 14.0613 149.008 15.5511 146.561L15.5772 146.509C12.6499 144.634 12.7545 138.517 12.8329 133.284C12.8851 130.576 12.9113 128.129 12.5454 126.88C12.5192 126.828 12.5192 126.75 12.5192 126.697C12.3363 126.645 11.6306 125.89 11.134 126.385C10.5851 126.932 10.0624 127.817 9.64419 128.806C8.23281 131.956 7.89304 133.831 7.50099 137.449C7.29189 139.48 7.23962 141.38 7.34417 142.526C7.81463 146.691 9.22601 149.086 10.8726 151.846C11.526 152.991 12.2579 154.215 12.9636 155.646ZM39.3355 153.772C40.1719 151.82 41.3741 150.518 42.7333 149.659C40.2503 149.529 37.4536 149.268 34.7354 148.826C32.1479 148.409 29.6126 147.836 27.4956 147.108C27.391 147.42 27.2865 147.758 27.1819 148.045C26.633 149.372 25.7967 150.622 24.7773 151.351C24.0717 151.846 23.6012 152.392 23.3137 152.913C23.0523 153.382 22.9478 153.798 23.0262 154.032C23.183 154.527 25.3523 155.126 27.9137 155.855C32.5138 157.13 38.1855 158.718 38.8389 162.754C38.9173 163.3 38.5514 163.847 37.9764 163.925C37.4014 164.003 36.8786 163.639 36.8002 163.066C36.382 160.332 31.4161 158.927 27.3649 157.807C24.2023 156.922 21.5103 156.167 21.0398 154.605C20.8307 153.85 20.9614 152.887 21.5103 151.898C21.9284 151.143 22.608 150.362 23.5751 149.685C24.2807 149.19 24.8819 148.279 25.2739 147.29C25.483 146.795 25.6137 146.274 25.7183 145.754C25.7183 145.728 25.7183 145.702 25.7183 145.676L25.7444 145.389C25.7705 145.181 25.7705 144.895 25.7967 144.556C25.7967 144.452 25.7705 144.348 25.7705 144.244C25.6921 143.723 25.4569 143.229 24.9603 142.942C24.8296 142.864 24.6989 142.812 24.5421 142.786C23.7841 143.046 20.9614 143.567 20.2296 144.478C19.0273 145.337 18.0863 146.405 17.3545 147.602C16.0477 149.763 15.3681 152.392 15.1068 155.204C14.9238 157.234 15.2897 159.031 15.6556 160.879C15.8125 161.608 15.9431 162.337 16.0477 163.04C16.5704 163.326 17.3545 163.691 18.2954 164.159C24.4637 167.127 36.9048 173.089 37.0616 184.075C37.0616 184.153 37.0616 184.231 37.0616 184.309C37.0093 184.647 37.0616 184.934 37.1923 185.168C37.4536 185.663 38.0548 186.079 38.865 186.444C39.7798 186.834 40.956 187.121 42.2367 187.277C46.1572 187.797 50.914 187.329 52.9527 186.288L53.005 186.262C53.0572 186.235 52.9004 185.428 52.822 185.012L52.7697 184.752V184.673C52.0379 172.49 56.6902 166.034 60.1403 161.296C61.9437 158.796 63.3812 156.818 63.3028 154.865C63.2767 153.902 63.0676 152.679 62.8846 151.403C62.388 148.149 61.813 144.504 63.2767 142.213C64.0085 141.042 65.054 140.521 65.9165 140.105C66.387 139.87 66.779 139.662 66.8051 139.584C66.8313 139.48 66.7006 139.141 66.4915 138.751C66.2301 138.256 65.8904 137.788 65.629 137.553L65.6029 137.579C65.3676 137.449 65.1324 137.371 64.9233 137.267C64.5313 137.215 64.0608 137.267 63.5381 137.423C62.7017 137.657 61.813 138.178 60.9767 139.037C59.9835 140.053 59.1994 141.693 58.3891 143.359C58.0494 144.062 57.7096 144.765 57.3437 145.467C56.7687 146.821 56.1936 148.045 55.5402 148.878C54.7561 149.893 53.1618 149.919 51.1231 149.971C47.856 150.049 43.2037 150.179 41.2696 154.657C40.6685 155.62 38.9696 155.126 39.3355 153.772ZM6.56006 131.514C6.82143 130.472 7.21348 129.145 7.73622 127.947C8.25895 126.776 8.91237 125.63 9.67033 124.901C10.1408 124.459 10.9249 124.354 11.7351 124.459C12.6499 124.563 13.7215 124.927 14.0613 125.188C15.4988 126.229 15.3159 127.843 15.1068 129.847C14.9761 131.123 14.8193 132.581 15.1329 134.013C15.4727 135.523 16.2306 137.007 17.1193 138.308C18.1386 139.818 19.3409 141.094 20.308 142.005C21.0137 141.615 21.7978 141.276 22.6341 140.99C22.8955 140.886 23.1569 140.834 23.4182 140.781C23.8103 140.729 24.1762 140.703 24.5421 140.755C25.1694 140.599 25.7444 140.547 26.1626 140.677C26.2149 140.703 26.2671 140.703 26.3194 140.729C27.6262 141.302 27.8353 143.124 27.8092 144.452C27.8092 144.66 27.8353 144.843 27.8092 145.051C29.874 145.806 32.4093 146.379 35.0491 146.821C38.5514 147.394 42.2105 147.68 45.0594 147.706C46.2878 147.238 48.3265 147.081 50.2868 146.951C51.9856 146.821 53.6061 146.717 54.1811 146.457C54.6254 145.91 55.0175 145.259 55.3834 144.556C55.6186 144.01 55.8277 143.437 56.063 142.838C56.7164 141.172 57.3959 139.454 58.2062 138.074C59.0687 136.564 60.2971 135.497 61.813 135.054C62.9108 134.742 64.1392 134.768 65.446 135.236C65.8642 135.314 66.2563 135.471 66.5699 135.679C67.1188 136.017 67.7983 136.876 68.2688 137.736C68.687 138.543 68.9484 139.428 68.7393 140.105C68.4518 141.042 67.6938 141.432 66.8051 141.875C66.1517 142.213 65.3938 142.578 64.9756 143.255C63.9301 144.895 64.4267 148.149 64.871 151.039C65.0801 152.366 65.2631 153.616 65.3154 154.735C65.4199 157.391 63.7994 159.63 61.7608 162.441C58.5198 166.945 54.1027 173.037 54.7823 184.439L54.8084 184.621C54.9652 185.533 55.305 187.303 53.9459 188.032L53.8675 188.084C51.5152 189.281 46.2094 189.88 41.9491 189.307C40.4855 189.125 39.1525 188.787 38.0286 188.318C36.8002 187.797 35.8593 187.069 35.3627 186.131C35.0229 185.533 34.8922 184.856 34.9707 184.101C34.84 174.39 23.183 168.793 17.3807 166.008C15.7863 165.253 14.6102 164.68 14.0613 164.211C13.8522 164.029 13.7477 163.847 13.6954 163.639C12.4147 158.484 10.6374 155.516 9.06919 152.835C7.31803 149.867 5.77596 147.264 5.27937 142.708V142.604C5.22709 142.135 5.20096 141.667 5.17482 141.146C3.99867 140.391 2.77024 138.673 1.8816 136.955C0.862266 135.002 0.234985 132.867 0.496352 132.06L0.548625 131.904L0.600899 131.8C1.12363 130.837 2.58729 130.707 4.15549 130.967C4.93959 131.097 5.8021 131.305 6.50779 131.514V131.488L6.56006 131.514Z" fill="#252322"/>
<path d="M70.3337 198.107C74.2019 203.001 81.9645 210.368 95.5033 209.379C98.4567 220.912 100.26 237.677 100.914 255.354C100.94 263.138 100.914 269.021 100.809 269.958C82.3565 271.26 61.9176 269.776 48.4573 256.994C34.5525 243.769 25.7706 219.74 27.182 199.955C39.3878 203.131 55.7755 204.25 67.0666 199.096C69.053 198.523 70.2814 198.081 70.3337 198.107Z" fill="#E8F5FA"/>
<path d="M228.226 155.413C240.798 155.465 307.943 199.07 322.031 206.828C301.487 231.56 286.615 265.768 283.191 271.209C277.912 270.792 268.294 268.605 265.392 267.304C255.983 299.819 287.948 409.966 287.399 410.695C284.524 414.47 265.941 423.737 245.685 427.721C210.584 434.593 176.057 430.61 175.456 429.595C174.933 428.71 174.724 426.106 173.94 424.544C173.992 424.544 174.018 424.571 174.045 424.571C172.346 414.053 174.41 358.134 180.788 303.984C187.845 244.082 200.965 184.544 200.443 183.789C196.627 182.305 183.036 182.045 180.344 182.201C179.246 180.977 163.616 242.884 153.475 300.08C143.282 357.691 144.51 417.542 144.876 421.785C144.902 421.811 144.954 421.811 145.007 421.837C144.118 423.581 145.791 430.011 145.268 432.068C139.649 434.099 89.7537 431.001 85.8594 424.388C87.0355 414.808 81.4684 315.231 101.123 269.256C101.019 243.691 98.6141 217.736 93.8311 203.939C93.3345 202.533 156.272 158.094 163.616 153.721C167.275 150.102 200.181 155.309 228.226 155.413Z" fill="#8D191D"/>
<path d="M345.658 118.263L345.553 118.237H345.527L345.658 118.263Z" fill="#8F282B"/>
<path d="M27.4696 178.191C41.0084 182.226 58.1018 179.024 66.2042 177.306C69.602 182.044 73.0259 186.756 75.7964 192.431C68.661 207.765 25.4832 204.615 16.074 195.92C14.7149 195.347 26.0844 180.04 27.4696 178.191Z" fill="#8D191D"/>
<path d="M180.395 182.253C183.087 182.071 196.679 182.357 200.494 183.841C201.017 184.596 187.897 244.108 180.84 304.037C174.462 358.16 172.398 414.105 174.096 424.623C171.718 424.076 146.679 422.827 144.954 421.863C144.588 417.62 143.36 357.77 153.553 300.158C163.668 242.911 179.298 181.03 180.395 182.253Z" fill="#F1DED1"/>
<path d="M320.149 209.145C338.549 217.658 363.718 249.757 362.385 269.646C361.262 286.594 352.898 305.858 343.462 310.805C335.255 315.126 311.445 318.615 299.056 319.734C299.239 314.502 299.056 307.785 298.037 301.173C296.443 290.863 292.052 280.346 289.699 275.79C292.261 273.968 295.894 271.521 298.56 269.516C293.228 268.839 287.399 267.772 285.831 266.288C291.503 255.094 303.918 229.451 320.149 209.145Z" fill="#E8F5FA"/>
<path fill-rule="evenodd" clip-rule="evenodd" d="M212.543 213.571C210.635 213.128 208.701 214.352 208.257 216.252L202.873 239.968C202.428 241.869 203.657 243.795 205.565 244.238L207.107 244.576C208.701 244.941 210.374 244.16 211.106 242.676L211.785 241.348L211.811 242.832C211.838 244.472 212.988 245.878 214.608 246.242L216.15 246.581C217.745 246.945 219.417 246.164 220.149 244.68L220.829 243.353L220.855 244.837C220.881 246.477 222.031 247.882 223.651 248.247L225.194 248.585C226.657 248.924 228.147 248.299 228.983 247.075L229.532 246.268L229.663 247.232C229.872 248.689 230.97 249.887 232.407 250.225L233.949 250.564C235.857 251.006 237.791 249.783 238.236 247.882L243.62 224.166C244.064 222.266 242.836 220.339 240.928 219.897L239.386 219.558C237.922 219.22 236.432 219.845 235.596 221.068L235.047 221.875L234.916 220.912C234.707 219.454 233.61 218.257 232.172 217.918L230.63 217.58C229.036 217.215 227.363 217.996 226.631 219.48L225.951 220.808L225.925 219.324C225.899 217.684 224.749 216.278 223.129 215.914L221.587 215.575C219.992 215.211 218.32 215.992 217.588 217.476L216.908 218.803L216.882 217.319C216.856 215.679 215.706 214.274 214.085 213.909L212.543 213.571Z" fill="#252322"/>
<path fill-rule="evenodd" clip-rule="evenodd" d="M212.335 216.018L213.197 216.201C214.373 216.461 215.131 217.658 214.87 218.83L214.138 222.084L208.963 220.913L209.695 217.658C209.956 216.487 211.158 215.732 212.335 216.018Z" fill="#FDC83E"/>
<path fill-rule="evenodd" clip-rule="evenodd" d="M221.352 218.049L222.214 218.231C223.39 218.491 224.148 219.689 223.887 220.86L223.155 224.114L217.98 222.943L218.712 219.689C218.973 218.517 220.175 217.762 221.352 218.049Z" fill="#FDC83E"/>
<path fill-rule="evenodd" clip-rule="evenodd" d="M230.369 220.053L231.231 220.236C232.407 220.496 233.165 221.694 232.904 222.865L232.172 226.119L226.997 224.948L227.729 221.694C228.016 220.548 229.193 219.793 230.369 220.053Z" fill="#FDC83E"/>
<path fill-rule="evenodd" clip-rule="evenodd" d="M239.125 222.032L239.987 222.214C241.163 222.474 241.921 223.672 241.66 224.844L240.928 228.098L235.753 226.926L236.485 223.672C236.746 222.527 237.948 221.772 239.125 222.032Z" fill="#FDC83E"/>
<path fill-rule="evenodd" clip-rule="evenodd" d="M208.44 223.177L213.615 224.349L209.904 240.672C209.643 241.843 208.44 242.598 207.264 242.338L206.402 242.155C205.225 241.895 204.467 240.698 204.729 239.526L208.44 223.177Z" fill="#F2DCD0"/>
<path fill-rule="evenodd" clip-rule="evenodd" d="M217.457 225.208L222.632 226.379L218.921 242.702C218.66 243.873 217.457 244.628 216.281 244.368L215.419 244.186C214.243 243.925 213.485 242.728 213.746 241.556L217.457 225.208Z" fill="#F2DCD0"/>
<path fill-rule="evenodd" clip-rule="evenodd" d="M226.474 227.239L231.649 228.41L227.964 244.733C227.703 245.905 226.5 246.66 225.324 246.399L224.462 246.217C223.286 245.957 222.528 244.759 222.789 243.588L226.474 227.239Z" fill="#F2DCD0"/>
<path fill-rule="evenodd" clip-rule="evenodd" d="M235.23 229.217L240.405 230.388L236.694 246.711C236.433 247.883 235.23 248.638 234.054 248.377L233.192 248.195C232.015 247.935 231.258 246.737 231.519 245.566L235.23 229.217Z" fill="#F2DCD0"/>
<path fill-rule="evenodd" clip-rule="evenodd" d="M158.049 233.199L157.683 234.397C157.238 235.777 155.905 236.714 154.442 236.636L153.03 236.558C151.567 236.48 150.338 235.386 150.077 233.954L149.842 232.653L149.45 233.928C149.005 235.308 147.672 236.245 146.209 236.167L144.797 236.089C143.464 236.011 142.34 235.1 141.948 233.85L141.687 233.017L141.321 233.798C140.772 234.996 139.544 235.751 138.211 235.673L136.799 235.595C135.048 235.49 133.689 233.954 133.794 232.236L135.101 210.577C135.205 208.832 136.747 207.479 138.472 207.583L139.884 207.661C141.217 207.739 142.34 208.65 142.732 209.9L142.994 210.733L143.36 209.952C143.909 208.754 145.137 207.999 146.47 208.077L147.881 208.155C149.345 208.234 150.573 209.327 150.835 210.759L151.07 212.06L151.462 210.785C151.906 209.405 153.239 208.468 154.703 208.546L156.114 208.624C157.578 208.702 158.807 209.796 159.068 211.227L159.303 212.529L158.049 233.199Z" fill="#252322"/>
<path fill-rule="evenodd" clip-rule="evenodd" d="M155.67 210.759L154.886 210.706C153.815 210.654 152.874 211.461 152.795 212.555L152.612 215.523L157.343 215.809L157.526 212.841C157.604 211.748 156.768 210.837 155.67 210.759Z" fill="#FDC83E"/>
<path fill-rule="evenodd" clip-rule="evenodd" d="M147.437 210.264L146.653 210.212C145.581 210.16 144.64 210.967 144.562 212.061L144.379 215.028L149.11 215.315L149.293 212.347C149.345 211.254 148.535 210.343 147.437 210.264Z" fill="#FDC83E"/>
<path fill-rule="evenodd" clip-rule="evenodd" d="M139.465 209.796L138.681 209.744C137.61 209.692 136.669 210.499 136.59 211.592L136.407 214.56L141.138 214.847L141.321 211.879C141.373 210.785 140.537 209.848 139.465 209.796Z" fill="#FDC83E"/>
<path fill-rule="evenodd" clip-rule="evenodd" d="M157.212 217.866L152.481 217.58L151.593 232.497C151.54 233.564 152.351 234.501 153.448 234.579L154.233 234.631C155.304 234.683 156.245 233.876 156.323 232.783L157.212 217.866Z" fill="#F2DCD0"/>
<path fill-rule="evenodd" clip-rule="evenodd" d="M148.979 217.372L144.248 217.086L143.36 232.003C143.308 233.07 144.118 234.008 145.216 234.086L146 234.138C147.071 234.19 148.012 233.383 148.091 232.289L148.979 217.372Z" fill="#F2DCD0"/>
<path fill-rule="evenodd" clip-rule="evenodd" d="M141.008 216.904L136.277 216.617L135.388 231.534C135.336 232.602 136.146 233.539 137.244 233.617L138.028 233.669C139.1 233.721 140.04 232.914 140.119 231.821L141.008 216.904Z" fill="#F2DCD0"/>
<path d="M285.204 276.936C282.198 278.654 278.121 280.945 275.167 282.273C279.793 289.822 281.91 296.981 282.668 303.646C283.426 310.389 282.799 316.584 281.91 322.103C283.27 323.171 285.622 324.212 288.183 325.019C291.294 326.034 294.639 326.711 296.913 326.894C297.279 324.551 297.592 320.411 297.566 315.491C297.54 311.17 297.253 306.249 296.495 301.407C295.005 291.801 291.058 282.012 288.68 277.222C288.34 276.519 288.026 275.947 287.765 275.504C287.086 275.868 286.223 276.363 285.204 276.936ZM300.624 318.042C307.498 317.365 317.064 316.064 325.637 314.372C332.825 312.966 339.28 311.274 342.731 309.451C347.043 307.186 351.199 301.563 354.44 294.482C357.89 287.011 360.268 277.977 360.843 269.542C361.444 260.457 356.191 248.56 348.585 237.652C340.352 225.859 329.871 215.549 320.593 211.072C306.035 229.581 294.613 252.282 288.549 264.284L287.974 265.429C288.236 266.106 289.176 266.47 291.084 266.731C293.097 267.199 295.528 267.59 297.906 267.902C301.121 265.507 304.597 263.138 308.178 261.055C315.575 256.76 322.344 254.313 329.793 254.521C330.655 254.547 332.485 254.599 332.485 255.458C332.459 256.317 330.42 256.187 329.401 256.265C323.023 257.072 316.698 259.702 309.746 263.737C307.211 265.195 304.728 266.835 302.349 268.501L302.48 268.527L299.448 270.792C298.507 271.495 297.436 272.276 296.338 273.057C294.744 274.332 293.254 275.582 291.842 276.78C294.325 281.986 298.089 291.593 299.527 300.991C300.285 305.989 300.598 311.039 300.624 315.517C300.624 316.35 300.624 317.209 300.624 318.042ZM48.9802 181.42C42.2108 181.914 34.788 181.732 28.0709 179.936C25.1697 183.841 19.2628 191.625 18.1651 195.972C22.4776 200.086 38.5778 202.559 51.5939 201.804C60.6372 201.283 69.0532 198.758 73.9931 193.031C71.5101 188.162 68.5305 183.138 65.5248 178.999C61.4474 179.858 55.5144 180.951 48.9802 181.42ZM69.9157 200.034C58.7815 206.36 42.9427 205.787 31.0766 203.886C30.2402 203.756 29.4039 203.6 28.5936 203.444C28.4891 212.139 30.2402 221.485 33.4812 230.232C37.1665 240.229 42.7336 249.393 49.5552 255.875C56.0371 262.045 64.2441 265.481 73.0783 267.251C81.5727 268.944 90.6421 269.074 99.3456 268.527C99.3979 266.184 99.4241 261.342 99.3979 255.406C99.0843 246.893 98.4831 238.615 97.6468 231.013C96.8104 223.49 95.7126 216.643 94.3274 210.994C88.5773 211.202 83.8466 209.952 80.0306 208.078C75.4567 205.839 72.1635 202.715 69.9157 200.034ZM163.407 257.463C163.485 257.567 163.564 257.697 163.642 257.853C164.818 260.743 167.379 261.238 171.012 261.784C174.802 262.357 179.69 262.852 185.152 261.915C189.491 234.606 194.17 210.655 196.862 196.649C198.142 189.985 199.083 186.184 199.24 185.064C197.75 184.674 195.32 184.362 192.68 184.153C187.662 183.763 184.055 183.659 182.46 183.763C181.467 183.841 181.206 183.867 180.474 186.236C179.742 188.605 178.775 192.067 177.651 196.389C174.018 210.004 168.686 232.445 163.407 257.463ZM176.031 335.328C169.81 336.396 164.217 336.812 159.669 336.135C155.827 335.563 152.717 334.235 150.521 331.918C149.45 341.42 148.613 350.662 148.012 359.409C145.921 389.113 146.13 412.829 146.392 419.832C149.005 421.16 168.425 422.774 172.241 421.811C171.692 413.741 172.006 396.22 173.208 374.326C173.861 362.351 174.828 349.1 176.031 335.328ZM151.096 327.18C152.56 330.616 155.722 331.814 160.113 332.465C164.452 333.116 170.202 332.413 176.423 331.293C177.259 322.234 178.226 313.018 179.298 303.854C180.84 290.733 182.696 277.613 184.656 265.143C179.298 266.106 174.489 266.47 170.594 265.872C167.144 265.351 164.374 264.101 162.518 261.889C159.904 274.463 157.369 287.557 155.069 300.418C153.475 309.347 152.168 318.329 151.096 327.18ZM276.892 457.737C276.788 457.815 276.683 457.893 276.579 457.971C274.906 459.09 272.658 459.533 270.463 459.481C268.607 459.455 266.725 459.064 265.288 458.414C264.922 458.96 264.425 459.507 263.876 460.08C262.883 461.147 261.628 462.475 261.393 464.714L261.367 464.818C261.367 464.844 267.692 466.197 273.965 467.551C277.519 468.306 281.048 469.061 283.583 469.79C286.824 470.727 290.065 471.664 293.332 472.237C296.521 472.81 299.736 473.018 302.977 472.55C303.107 472.524 303.238 472.419 303.343 472.289C303.473 472.107 303.578 471.847 303.63 471.56C303.682 471.248 303.708 470.91 303.656 470.597C303.604 470.233 303.499 469.972 303.395 469.868C302.532 469.269 301.618 468.619 300.677 467.968C298.246 466.224 295.737 464.427 293.175 463.282C285.178 459.663 281.754 459.038 279.793 458.674C278.539 458.44 277.781 458.309 276.892 457.737ZM268.868 423.112C264.53 424.857 260.217 426.289 255.931 427.46C256.819 431.729 257.734 435.713 258.884 439.592C260.4 444.668 262.308 449.562 265.209 454.743C265.366 454.951 265.68 455.185 266.072 455.394C267.195 455.992 268.816 456.357 270.489 456.409C272.109 456.435 273.73 456.149 274.827 455.42C274.906 455.368 274.984 455.316 275.063 455.238C273.181 450.864 271.822 442.117 270.541 433.708C269.992 429.933 269.417 426.21 268.868 423.112ZM143.856 459.455C143.098 459.585 142.288 459.585 141.818 459.611C141.687 459.611 142.001 459.611 141.583 459.611C140.145 459.663 137.061 459.481 134.682 458.726C133.768 458.44 132.931 458.049 132.278 457.58C130.84 458.518 128.593 459.325 126.057 460.21C124.829 460.652 123.548 461.095 122.189 461.616C121.719 461.798 120.856 462.266 119.732 462.865C117.014 464.323 112.911 466.536 108.729 467.786C105.671 468.697 102.351 468.879 99.2411 469.061C97.1502 469.191 95.1376 469.295 93.491 469.634C91.949 469.946 90.616 470.441 89.5705 470.962C88.0807 471.691 87.3228 472.237 87.2705 472.367L87.2444 472.445C87.1659 472.706 87.2444 473.07 87.4535 473.383C87.6887 473.773 88.0546 474.138 88.5251 474.346C88.6035 474.372 88.708 474.424 88.7864 474.45C90.3808 474.893 92.0535 475.023 93.7001 474.971C95.4251 474.919 97.1502 474.684 98.8752 474.398C99.1366 474.346 99.9207 474.216 100.888 474.034C104.547 473.357 111.081 472.159 118.112 471.43C120.856 471.144 123.757 471.014 126.554 470.857C130.474 470.675 134.238 470.467 137.348 469.894C140.38 469.348 143.177 468.54 145.137 467.551C146.549 466.848 147.437 466.119 147.542 465.443C147.646 464.609 147.516 463.672 146.941 462.657C146.339 461.694 145.372 460.6 143.856 459.455ZM134.63 434.229C131.389 434.177 127.704 434.02 123.836 433.786C125.691 438.394 127.469 444.199 128.619 447.922C129.194 449.797 129.612 451.124 129.69 451.28C130.187 452.166 131.206 452.738 131.964 453.155C132.67 453.545 133.219 453.832 133.585 454.378L133.742 454.613L133.794 454.847V454.873C133.951 455.211 134.656 455.55 135.571 455.836C137.557 456.461 140.171 456.617 141.426 456.565C141.739 456.565 141.347 456.565 141.713 456.565C141.844 456.565 142.001 456.617 142.131 456.669C142.158 456.539 142.184 456.383 142.236 456.227C142.367 455.654 142.576 454.769 141.922 453.962L141.766 453.728C140.694 451.697 138.446 446.334 136.643 440.971C135.859 438.628 135.153 436.311 134.63 434.229ZM266.202 323.223L266.019 322.077C266.072 322.468 266.15 322.858 266.202 323.223ZM262.125 283.861C262.099 277.795 262.517 272.51 263.536 268.293C261.628 267.303 259.511 265.82 257.551 263.997C255.146 261.758 250.782 256.135 249.893 252.621C250.024 251.788 250.625 251.215 251.487 251.319C252.062 251.397 255.721 257.827 259.642 261.472C261.681 263.372 263.824 264.882 265.549 265.794C265.706 265.82 265.863 265.846 265.993 265.924C268.241 266.913 271.769 267.694 274.069 268.189C276.918 268.813 279.95 269.36 282.355 269.594C283.139 268.215 284.289 265.898 285.805 262.904C290.928 252.725 295.554 242.988 301.487 233.096C307.995 222.214 315.026 212.009 318.005 208.911C318.554 208.338 319.234 207.844 319.704 207.271C315.836 205.058 309.641 201.257 302.219 196.727C276.944 181.264 237.217 157.001 228.252 156.949C216.543 156.896 204.075 155.985 193.202 155.178C178.278 154.085 166.465 153.2 164.792 154.814C164.687 154.918 164.583 154.996 164.478 155.074C160.296 157.599 137.662 173.376 119.314 186.574C106.298 195.946 95.2945 203.288 95.3729 203.496C97.699 210.213 99.4763 219.741 100.705 230.675C101.75 240.125 102.404 250.642 102.665 261.316C106.22 252.517 110.663 242.39 115.237 233.226C115.838 232.028 123.94 215.237 131.468 209.536C132.984 208.39 133.742 209.041 132.435 210.655C130.03 213.597 124.463 222.084 118.216 234.58C109.408 252.204 100.94 273.421 98.5093 281.57C87.1137 319.969 87.4796 380.47 87.6625 409.081C87.7148 416.37 87.741 421.603 87.558 423.998C89.5444 426.106 98.1956 427.903 108.232 429.204C122.477 431.053 139.1 431.703 143.935 430.896C143.909 430.063 143.778 428.866 143.621 427.668C143.386 425.638 143.125 423.555 143.438 422.071V421.993C143.203 419.207 142.576 392.992 144.98 359.201C146.287 340.821 148.456 320.203 152.063 299.871C159.199 259.572 168.451 216.929 174.07 195.608C175.247 191.182 176.841 187.668 177.547 185.299C177.782 184.57 178.906 180.743 179.533 180.717C184.656 180.613 196.443 180.561 201.096 182.357L201.801 182.904C202.324 183.633 201.357 188.657 199.737 197.17C195.738 218.075 187.505 261.056 182.408 304.141C179.507 328.664 177.52 353.578 176.344 374.43C174.933 399.474 174.75 418.635 175.665 424.284L175.691 424.492C176.005 425.325 176.214 426.262 176.397 427.122C176.553 427.877 176.71 428.553 176.841 428.762C177.024 429.074 191.634 430.714 209.46 430.22C226.37 429.777 252.846 426.289 268.633 419.832C277.964 416.031 284.681 411.736 286.223 409.705C286.589 409.237 285.099 407.206 283.818 402.208C279.924 387.056 271.613 354.801 266.516 324.577C266.411 324.733 266.307 324.889 266.202 325.045C265.418 326.321 264.843 327.675 264.294 329.002C263.144 331.762 262.02 334.443 259.041 336.474L258.962 336.526C258.048 337.073 257.054 337.073 256.14 336.734C255.643 336.552 255.199 336.292 254.807 335.979C254.493 335.719 254.206 335.432 253.996 335.12C252.663 336.526 250.677 338.114 247.75 336.656C246.417 335.979 245.685 335.146 245.293 334.443C245.032 334.521 244.744 334.573 244.457 334.573C244.038 334.599 243.594 334.547 243.176 334.417C242.732 334.287 242.287 334.053 241.921 333.714C241.137 333.011 240.667 331.866 241.059 330.174C241.477 328.351 241.921 326.581 242.392 324.863C242.862 323.171 243.359 321.453 243.934 319.656C244.038 319.24 244.117 318.875 244.221 318.485C244.352 318.016 244.457 317.626 244.535 317.287L244.561 317.209L244.744 316.61C245.92 312.341 246.913 308.774 249.684 303.75C249.762 303.594 249.841 303.464 249.919 303.307C249.423 303.594 248.926 303.828 248.377 304.062C247.436 304.505 246.338 305 244.875 306.041C243.855 306.744 242.653 308.176 241.346 309.66C240.405 310.753 239.438 311.898 238.445 312.862C237.661 313.617 236.433 314.111 235.256 314.137C234.577 314.163 233.897 314.033 233.322 313.747C232.695 313.434 232.172 312.914 231.833 312.211C231.467 311.378 231.414 310.258 231.833 308.853C232.486 306.692 234.342 303.932 236.537 301.355C239.203 298.179 242.418 295.185 244.457 293.805C247.541 291.723 250.834 290.004 253.97 288.364C256.976 286.776 259.851 285.266 262.23 283.626L262.125 283.861ZM272.449 280.034C275.01 279.175 280.133 276.259 283.688 274.254C285.204 273.395 286.432 272.692 287.164 272.328L287.216 272.276C288.183 271.547 289.176 271.963 290.091 273.421L290.196 273.577C290.719 273.213 291.267 272.823 291.816 272.432C292.679 271.833 293.567 271.208 294.43 270.61L294.561 270.506C293.123 270.271 291.712 270.011 290.431 269.699C288.889 269.334 287.53 268.918 286.458 268.449C285.622 270.063 284.968 271.287 284.524 272.016C284.21 272.51 283.662 272.77 283.113 272.744C280.499 272.536 276.866 271.911 273.468 271.182C271.325 270.714 269.809 270.167 268.345 269.673C267.98 269.777 267.614 269.725 267.248 269.646C266.856 271.391 266.568 273.343 266.359 275.426C268.528 275.452 270.515 277.248 272.449 280.034ZM279.48 317.235C279.637 317.209 279.741 317.183 279.846 317.157C280.891 309.686 280.055 302.552 277.964 295.94C277.493 294.404 276.944 292.842 276.291 291.254L276.004 290.707C272.371 283.548 269.208 277.352 266.15 277.535C265.993 277.535 265.81 277.561 265.653 277.613C265.105 277.769 265.052 279.799 265 281.492C264.974 282.455 264.948 283.314 264.817 283.965C264.765 284.199 264.634 284.407 264.451 284.564C263.745 285.11 262.987 285.657 262.177 286.152C259.956 287.583 257.446 288.885 254.833 290.265C251.723 291.879 248.482 293.597 245.528 295.602C243.646 296.877 240.614 299.715 238.053 302.761C236.041 305.156 234.316 307.655 233.741 309.529C233.453 310.441 233.479 311.065 233.662 311.482C233.767 311.716 233.95 311.898 234.159 312.003C234.446 312.133 234.76 312.185 235.126 312.185C235.805 312.159 236.511 311.898 236.929 311.482C237.87 310.571 238.811 309.477 239.726 308.41C241.111 306.822 242.392 305.286 243.62 304.453C245.241 303.307 246.417 302.787 247.436 302.292C249.057 301.537 250.285 300.991 252.533 298.023C252.742 297.736 253.108 297.554 253.474 297.58C254.049 297.632 254.441 298.127 254.389 298.7C254.232 300.236 253.291 301.719 252.402 303.125C252.036 303.698 251.696 304.245 251.435 304.739L251.409 304.765C248.743 309.608 247.776 313.096 246.626 317.235L246.443 317.86L246.417 317.938C246.286 318.407 246.182 318.771 246.103 319.084C245.999 319.474 245.92 319.865 245.816 320.229L245.79 320.307C245.267 321.973 244.744 323.691 244.274 325.488C243.777 327.284 243.333 329.028 242.941 330.72C242.758 331.554 242.888 332.048 243.176 332.282C243.307 332.413 243.463 332.491 243.646 332.543C243.855 332.595 244.065 332.621 244.274 332.621C247.305 332.517 248.874 326.607 249.658 324.16C250.468 321.661 251.383 318.849 252.585 316.09L252.611 316.038C252.873 315.387 255.774 308.462 258.283 306.952C258.779 306.666 259.407 306.822 259.694 307.291C259.982 307.785 259.825 308.41 259.354 308.696C257.42 309.868 254.781 316.22 254.519 316.819L254.493 316.871C253.343 319.5 252.428 322.26 251.618 324.759C250.233 329.028 249.109 332.517 247.07 333.662C247.332 334.053 247.776 334.495 248.534 334.886C250.546 335.875 252.036 334.183 252.951 333.168C253.186 332.907 253.395 332.673 253.604 332.465L253.631 332.439C253.761 331.944 253.918 331.371 254.101 330.72C254.571 329.054 255.251 326.894 256.035 324.629C258.204 318.355 261.367 311.222 264.164 311.143C264.216 311.143 264.268 311.143 264.32 311.143C264.817 311.196 265.209 311.612 265.209 312.133C265.209 312.575 264.974 312.94 264.582 313.096C264.477 313.148 264.347 313.174 264.19 313.174C262.517 313.226 259.903 319.63 257.943 325.28C257.159 327.544 256.506 329.679 256.035 331.267C255.669 332.543 255.434 333.428 255.356 333.74L255.408 333.844C255.539 334.053 255.721 334.261 255.957 334.443C256.192 334.625 256.427 334.782 256.689 334.86C257.054 334.99 257.42 335.016 257.734 334.834C260.191 333.168 261.184 330.773 262.23 328.273C262.831 326.868 263.432 325.41 264.294 324.004C264.765 323.249 265.288 322.572 265.889 321.921C266.045 321.765 266.202 321.609 266.359 321.453C267.169 320.698 268.11 320.047 269.208 319.526L269.26 319.5C269.783 319.24 271.796 318.797 273.991 318.303C276.187 317.86 278.434 317.444 279.48 317.235ZM322.448 208.729C331.779 214.352 342.887 224.14 351.094 235.907C359.066 247.31 364.555 259.91 363.901 269.751C363.326 278.55 360.817 287.974 357.236 295.758C353.708 303.412 349.108 309.581 344.142 312.185C340.404 314.137 333.661 315.934 326.186 317.391C317.352 319.136 307.446 320.463 300.494 321.14C300.311 324.707 299.971 327.466 299.657 328.846L299.37 329.992L298.167 330.018C295.684 330.07 291.215 329.263 287.19 327.935C283.818 326.842 280.708 325.384 279.088 323.718L278.539 323.171L278.669 322.416C278.852 321.375 279.009 320.281 279.166 319.188C277.807 319.578 276.108 319.969 274.514 320.333C272.423 320.802 270.515 321.244 270.201 321.401C269.992 321.505 269.809 321.609 269.6 321.713C274.461 352.38 282.904 386.015 286.903 401.531C288.418 407.414 289.124 410.929 288.575 411.632C286.903 413.845 280.499 418.114 271.691 421.915C272.371 425.299 272.972 429.23 273.599 433.239C275.036 442.611 276.552 452.426 278.46 455.081C278.931 455.394 279.454 455.472 280.316 455.654C282.407 456.045 286.04 456.721 294.404 460.496C297.253 461.772 299.866 463.672 302.428 465.495C303.316 466.119 304.179 466.744 305.068 467.343C305.956 467.942 306.479 469.009 306.662 470.155C306.766 470.779 306.74 471.456 306.61 472.107C306.479 472.784 306.218 473.435 305.852 474.007C305.277 474.841 304.466 475.413 303.369 475.595C299.736 476.116 296.207 475.882 292.757 475.283C289.386 474.684 286.04 473.721 282.695 472.732C280.212 472.003 276.762 471.274 273.311 470.545C265.706 468.931 257.995 467.265 258.309 464.401C258.649 461.173 260.295 459.403 261.602 457.997C262.282 457.268 262.805 456.721 262.569 456.279C259.537 450.864 257.525 445.735 255.957 440.451C254.781 436.546 253.866 432.537 252.977 428.241C238.916 431.782 224.88 432.797 209.512 433.213C190.693 433.708 174.75 432.589 174.201 431.677C173.835 431.053 173.574 428.84 173.365 427.824C173.234 427.2 173.077 426.497 172.92 425.95C171.195 425.742 167.327 425.481 163.015 425.169C156.559 424.7 149.136 424.154 145.843 423.607C146.026 424.414 146.522 425.872 146.705 427.304C146.941 429.334 147.176 431.287 146.888 432.484C146.758 433.005 146.392 433.396 145.921 433.552C144.745 433.968 141.844 434.177 137.897 434.229C138.368 436.025 138.969 438.004 139.648 439.956C141.373 445.085 143.464 450.135 144.51 452.14C145.921 453.936 145.634 455.55 145.399 456.695C147.516 458.257 148.849 459.741 149.659 461.173C150.626 462.865 150.835 464.427 150.652 465.859C150.417 467.655 148.901 469.139 146.575 470.311C144.327 471.456 141.243 472.341 137.95 472.94C134.682 473.539 130.788 473.747 126.737 473.929C124.019 474.06 121.222 474.19 118.452 474.476C111.551 475.179 105.096 476.376 101.463 477.027C100.731 477.157 100.156 477.262 99.3979 477.392C97.5684 477.704 95.6865 477.939 93.8047 477.991C91.8444 478.043 89.9103 477.886 88.0023 477.366C87.7671 477.288 87.5319 477.21 87.2966 477.105C86.225 476.637 85.3625 475.804 84.7875 474.867C84.1864 473.851 83.9773 472.68 84.2648 471.586C84.317 471.404 84.3693 471.222 84.4477 471.092C84.6568 470.623 86.0159 469.243 88.2114 468.176C89.466 467.551 91.0342 466.979 92.8899 466.588C94.7456 466.224 96.8627 466.093 99.0843 465.963C102.012 465.781 105.122 465.625 107.892 464.792C111.787 463.646 115.707 461.538 118.295 460.132C119.523 459.455 120.49 458.934 121.118 458.7C122.398 458.205 123.783 457.711 125.064 457.268C127.469 456.409 129.612 455.992 130.448 455.732C129.351 455.133 127.913 454.326 127.024 452.686C126.815 452.296 126.371 450.838 125.718 448.781C124.463 444.694 122.398 438.03 120.464 433.526C116.256 433.213 111.917 432.771 107.814 432.25C96.4445 430.766 86.5125 428.423 84.6307 425.221C84.4477 424.909 84.3955 424.57 84.4216 424.258C84.6568 422.436 84.6046 416.995 84.5523 409.133C84.3693 380.444 84.0034 319.969 95.4251 281.049C95.4251 280.997 95.4513 280.945 95.4774 280.893C95.6081 280.424 95.7649 279.904 95.9479 279.357C96.7843 276.675 97.6468 274.098 98.5877 271.677C89.9364 272.172 80.9454 271.989 72.451 270.297C63.0941 268.449 54.3644 264.752 47.3859 258.14C40.2244 251.319 34.396 241.739 30.5539 231.326C27.13 222.006 25.2743 212.035 25.4834 202.767C19.864 201.283 15.6821 199.096 14.715 196.779C13.6696 194.306 24.4902 179.623 26.2152 177.307L26.8686 176.447L27.8879 176.76C34.4744 178.712 41.9233 178.921 48.745 178.426C55.5928 177.931 61.8395 176.708 65.8645 175.849L66.8577 175.64L67.5896 176.656C71.4578 182.019 74.7249 187.538 77.6261 193.499C76.1363 195.4 74.4374 197.04 72.5294 198.419C74.5681 200.762 77.4431 203.444 81.3636 205.37C84.6307 206.984 88.6557 208.052 93.5172 208C93.1774 206.776 92.8115 205.631 92.4456 204.537C91.9751 203.158 103.475 194.228 117.511 184.127C135.78 170.98 158.284 155.282 162.779 152.549C165.785 150.102 178.043 151.013 193.438 152.158C204.284 152.965 216.726 153.877 228.252 153.929C238.105 153.981 278.251 178.53 303.813 194.15C312.386 199.383 319.286 203.626 322.788 205.527C323.52 205.943 323.808 206.88 323.389 207.609C323.18 207.922 322.736 208.416 322.448 208.729Z" fill="#252322"/>
<path d="M173.443 107.095C172.894 106.861 172.345 106.913 171.979 106.314C168.32 100.795 166.49 92.725 168.686 86.2948C169.548 83.7696 173.181 80.0989 176.004 81.6088C178.121 82.7543 179.141 86.3208 180.055 88.7159C181.911 83.9518 190.353 66.4054 191.895 64.6351C192.967 63.4116 194.692 62.8389 195.554 62.969C201.749 62.188 207.917 60.7822 213.876 62.136C220.802 63.75 230.499 66.5356 234.263 73.3302C236.119 76.7406 239.255 81.4787 238.575 85.4617C237.922 89.3147 236.876 94.6254 236.432 97.0726C239.804 95.5626 241.895 95.7969 244.299 95.3544C247.723 94.7556 250.938 99.5718 250.363 105.898C249.683 114.333 243.175 121.362 235.596 123.653C235.413 123.679 232.276 131.072 232.303 131.358C232.355 132.139 229.872 127.74 225.272 124.199C220.776 120.711 214.216 118.055 210.426 117.795C206.14 117.509 198.639 121.257 190.902 117.613C190.04 117.821 190.667 115.088 188.576 114.463C182.591 112.666 170.907 115.608 170.986 115.426C172.188 112.484 172.319 110.063 173.443 107.095Z" fill="#FCDBBE"/>
<path d="M152.769 79.2389C150.547 77.9373 149.345 66.6388 149.789 64.426C150.364 61.7185 151.305 58.7768 154.128 58.3863C155.566 50.8106 160.479 31.3117 164.243 35.0084C169.784 33.6287 173.6 17.5401 178.88 19.9612C181.807 18.8157 184.525 18.0608 186.224 16.3686C191.112 11.4483 195.058 6.81441 209.852 2.3367C211.028 1.97223 215.994 1.79 215.079 4.60159C214.922 5.09622 228.879 2.0243 234.786 2.20653C237.922 2.31066 231.257 6.21565 233.401 5.95532C239.595 5.17432 249.057 6.68425 256.323 11.4223C257.237 12.0211 255.068 13.2186 253.918 13.8955C259.354 17.5922 266.464 23.8662 269.783 29.0468C270.463 30.0881 266.882 30.4526 267.666 31.546C268.345 32.4832 271.168 34.3316 274.017 38.3667C278.356 44.5106 282.355 52.3466 277.964 50.8366C272.972 48.78 273.677 50.0296 274.671 51.904C276.213 56.2776 284.237 74.0583 282.381 75.5682C281.309 75.8286 280.969 75.2558 279.898 75.5162C282.485 78.0935 283.74 97.5143 281.283 100.118C280.656 100.768 279.715 99.4928 279.061 99.7531C278.382 100.039 277.964 101.888 277.258 103.033C275.611 105.741 273.913 110.271 271.299 110.843C270.959 111.468 270.358 108.266 269.914 108.839C269.051 110.114 264.137 119.929 260.975 118.471C260.975 118.914 258.361 120.762 256.479 121.699C248.534 125.604 247.279 123.183 238.68 124.563C235.387 125.396 235.858 123.574 237.452 122.558C243.254 118.809 248.403 116.493 249.553 110.687C251.017 103.32 251.121 100.092 245.607 95.4316C244.378 93.9998 234.159 99.9614 236.459 95.6138C237.661 93.2188 237.844 88.0642 238.628 85.0183C239.491 81.9464 235.1 73.1992 232.12 71.2727C230.421 70.7521 228.748 67.1855 227.049 66.5868C224.018 65.5194 220.149 65.988 217.196 64.8165C216.569 64.5562 216.569 62.083 215.994 61.7706C214.138 62.1351 213.328 62.7859 211.394 62.4475C206.401 61.6144 201.357 61.8747 196.417 63.1504C194.718 63.5929 193.516 64.5822 191.843 65.0768C191.399 66.4566 182.408 86.8146 181.781 86.8406C180.343 86.9448 179.742 81.1914 175.586 81.3476C167.902 81.66 168.582 95.5618 170.385 100.456C171.352 101.445 173.495 105.533 172.267 105.897C172.058 105.949 170.15 104.882 167.641 103.32C153.893 94.7547 158.232 95.718 151.567 86.5022C149.371 85.6691 147.411 79.9678 149.188 78.2497C149.868 77.6249 152.194 79.8117 152.769 79.2389Z" fill="#F2E0D2"/>
<path d="M195.921 74.2411C198.534 73.4601 203.03 73.1477 203.134 73.1217C205.461 73.382 206.14 72.0543 206.741 70.6486C207.055 69.8936 207.212 68.0452 206.637 67.3684C205.8 66.275 204.049 66.1448 202.69 66.3791C201.148 66.6394 200.495 67.4985 199.188 68.2014C198.247 68.2275 196.522 68.2795 195.712 68.67C194.274 69.3469 192.941 70.3101 191.739 71.2213C191.164 71.6378 190.615 72.0804 190.145 72.549C189.334 73.2258 187.923 75.2044 187.844 75.9854C187.792 76.2457 187.871 76.5321 188.001 76.7664C188.341 77.235 189.073 77.4432 189.648 77.1569C191.739 76.2457 193.359 74.9961 195.921 74.2411Z" fill="#2B2A29"/>
<path d="M238.21 80.5141C236.746 86.1373 235.779 91.9167 235.021 97.6701C234.942 98.3209 235.648 99.0759 236.328 98.8676C239.02 98.1126 241.529 95.9258 244.378 95.9519C247.384 96.0039 248.612 99.8048 249.03 102.226C249.997 107.797 247.593 113.42 243.463 117.143C240.536 119.798 237.295 122.063 233.845 123.521C233.583 123.625 231.858 130.446 231.728 130.628C231.44 131.019 232.773 131.617 233.27 131.904C233.479 132.034 234.89 125.005 235.23 125.005C237.974 124.667 242.418 120.996 244.509 119.2C249.501 114.93 252.454 108.448 251.252 101.861C250.755 98.9977 249.448 95.301 246.547 94.0514C244.509 93.1663 237.896 95.8738 237.216 96.4465C238.157 91.9688 239.02 86.0332 239.569 80.6703C239.673 79.8633 238.393 79.7592 238.21 80.5141Z" fill="#2B2A29"/>
<path d="M172.293 105.533C171.483 103.554 170.934 101.654 170.124 99.6753C168.817 96.4732 168.477 93.2451 169.209 89.8347C169.758 87.2314 170.202 83.4305 173.365 82.8057C176.606 82.1549 178.331 85.2789 179.22 87.752C178.252 90.0169 177.338 92.4901 176.554 94.4166C175.064 98.0872 173.679 101.81 172.293 105.533ZM190.223 64.6866C186.276 70.1796 183.14 79.3693 180.108 85.7735C179.298 83.769 178.174 81.8425 176.135 80.9053C173.835 79.8379 171.3 80.671 169.758 82.6495C168.033 84.8363 167.301 87.9343 166.909 90.6157C166.491 93.6356 166.778 96.6294 167.824 99.493C168.896 102.357 170.385 105.038 171.326 107.954C170.255 110.818 169.967 112.432 169.366 115.269C169.209 116.128 172.163 115.243 172.607 114.618C172.241 112.145 187.061 72.2102 192.105 65.2333C192.523 64.218 190.537 64.6866 190.223 64.6866Z" fill="#252322"/>
<path d="M241.608 106.21C240.719 105.064 239.177 104.752 237.949 105.559C237.008 106.184 236.537 107.277 236.145 108.292C235.675 109.854 235.387 111.208 235.727 112.796C235.988 114.124 236.955 113.915 237.165 113.082C237.635 111.286 237.661 108.709 239.151 107.303C241.242 107.329 239.386 109.516 240.902 110.297C241.373 110.531 242.653 107.459 241.608 106.21Z" fill="#252322"/>
<path d="M217.954 89.2875C218.947 88.09 220.541 88.0119 221.378 88.8449C222.972 90.5892 223.835 93.2706 223.782 95.145C222.763 94.7285 223.286 94.5723 222.815 94.364C222.319 94.1557 223.259 91.3962 221.299 90.5371C219.339 89.678 218.241 91.1879 217.849 92.1251C217.457 93.0623 217.875 94.8326 219.836 95.5095C220.515 95.7438 225.298 97.5401 225.481 96.1343C225.795 93.9475 224.2 89.7821 223.259 88.4805C222.658 87.5954 221.9 86.7102 220.803 86.3718C218.973 85.7991 217.405 87.4131 216.307 88.7148C215.575 89.6259 214.007 92.4896 214.347 93.1144C214.896 93.5309 216.673 90.433 217.954 89.2875Z" fill="#252322"/>
<path d="M192.967 85.5391C192.131 84.4978 191.295 84.1073 190.406 84.7841C188.707 86.216 187.113 87.7779 186.825 89.418C187.818 89.1577 188.393 89.2618 188.838 89.1317C189.308 89.0015 188.603 87.9341 190.171 86.7627C191.739 85.5912 193.255 86.9709 193.516 88.1945C193.751 89.418 192.732 90.7197 191.739 90.98C191.112 91.1623 186.799 91.1102 185.571 90.5375C184.63 90.0949 186.512 86.1899 188.785 84.0031C189.439 83.2482 190.249 82.5453 191.295 82.363C193.046 82.0767 193.908 83.7428 194.771 85.0705C195.32 85.9817 196.051 88.4027 195.633 88.8453C194.823 89.4441 194.013 86.7366 192.967 85.5391Z" fill="#252322"/>
<path d="M228.461 10.1469C235.282 2.96177 255.8 10.6416 254.519 12.0474C254.519 12.0474 252.663 12.2296 251.775 13.0887C251.2 13.6094 251.827 14.6507 252.428 14.9631C255.512 16.6032 266.934 27.9277 268.162 29.4636C268.215 29.5157 261.733 28.5524 266.202 32.0409C274.514 38.7575 278.774 50.3162 278.539 50.3162C277.232 50.3683 270.724 46.2811 272.449 51.2014C273.73 54.013 283.191 73.0433 281.361 74.1887C280.002 75.0218 276.788 72.809 279.453 78.2239C282.982 85.4091 281.989 100.743 280.603 99.5972C279.793 98.9203 278.303 97.7228 278.016 98.3736C275.219 104.648 274.566 108.527 271.822 110.089C271.011 110.557 270.985 106.444 269.94 107.251C267.953 108.787 265.235 117.534 262.229 117.664C261.707 117.118 260.896 116.337 260.452 116.805C256.61 120.918 251.644 123.183 251.147 122.663C248.874 118.68 241.059 125.084 234.838 124.068C234.211 124.199 234.106 125.318 233.819 125.604C233.427 125.969 233.087 125.5 235.126 126.021C238.732 126.958 245.816 124.693 247.959 124.693C249.893 124.693 249.239 126.359 252.219 125.474C254.388 125.11 257.734 122.064 260.478 119.591C261.106 119.018 259.929 120.97 262.282 120.476C266.045 119.487 268.528 112.588 269.339 111.416C270.175 110.167 269.835 113.161 272.135 112.041C274.435 110.922 277.467 106.652 278.251 104.361C279.088 101.94 278.774 101.081 279.95 102.096C280.891 102.903 282.093 101.602 282.825 100.144C285.805 94.1302 284.707 82.9099 281.492 77.2867C281.754 76.5057 282.511 78.276 283.792 77.3908C285.831 72.9391 278.722 55.2105 276.082 52.451C275.716 52.0605 281.414 54.065 280.917 51.1233C280.421 48.1815 275.559 36.2323 270.044 31.5202C268.293 30.0103 275.089 33.4988 269.757 26.9905C265.967 22.3565 260.478 16.4991 256.322 13.8697C256.845 13.3751 260.191 12.8544 258.23 11.3705C251.043 5.20063 240.196 4.0812 236.328 4.60186C235.753 4.67996 238.837 3.6126 236.694 2.2068C234.551 0.801006 223.678 0.696873 215.915 3.48243C217.928 0.540674 215.915 -0.266357 213.38 0.0720754C204.964 1.16547 189.491 9.07958 181.336 18.6338C181.232 18.7379 181.389 17.2801 180.526 16.7073C177.337 14.5986 166.935 29.5938 165.341 33.0562C160.688 26.4958 152.377 51.2795 153.867 58.4126C153.239 57.0589 151.148 56.5903 150.155 58.6469C146.287 66.6131 149.423 76.5317 150.338 77.2086C147.907 76.6098 146.679 75.152 148.561 83.0921C149.423 86.6847 153.893 91.2665 153.945 91.4488C152.664 91.631 154.363 93.7657 155.513 94.8071C157.395 96.4732 160.767 98.2174 159.747 98.0612C157.186 97.6707 161.838 101.446 164.792 103.138C168.111 105.116 171.065 105.637 172.842 109.646C173.312 110.765 173.678 108.839 173.338 107.563C171.744 101.992 160.505 99.9617 163.72 98.4778C166.046 95.9786 157.813 95.0934 156.663 92.2298C159.146 92.8025 155.539 88.1686 153.422 85.9037C152.508 84.9665 149.815 81.2958 150.208 79.7338C152.455 80.7752 155.487 82.1028 152.9 77.8594C151.148 75.5685 150.312 65.1031 152.142 61.7188C152.821 60.4432 155.958 63.7494 156.088 62.0052C154.886 57.5795 160.192 34.6182 163.746 36.3364C165.053 35.8418 165.105 38.9397 167.118 35.6335C169.366 32.2231 174.279 22.8772 178.723 20.7685C178.723 20.7685 178.827 23.8665 180.212 24.0227C180.5 24.0487 185.414 17.5925 191.608 12.9585C197.489 8.53288 204.52 5.95559 210.008 3.95103C214.033 2.46713 210.008 5.74732 213.458 6.24196C217.065 5.53906 229.062 3.35226 232.434 4.13326C225.743 7.77792 226.788 11.9172 228.461 10.1469Z" fill="#252322"/>
<path d="M241.111 84.8101C241.634 85.2006 244.457 86.5544 244.718 88.1945C244.979 89.8345 247.488 86.8668 245.45 84.3936C237.53 79.3692 238.053 77.0783 235.492 71.3249C234.394 68.1488 231.336 69.1121 230.682 68.4092C230.447 68.1749 230.473 67.3679 230.134 66.691C228.513 63.9054 224.488 64.6604 224.488 64.6604C224.54 64.6083 224.253 64.2178 224.54 63.9835C225.298 63.3587 224.567 61.5364 223.521 61.9009C222.031 62.4215 220.411 63.8794 218.843 64.1137C216.935 64.4261 216.908 62.5777 218.111 61.9269C219.313 61.2761 217.196 59.6099 215.863 60.1046C215.027 60.417 213.903 61.1199 212.517 61.0678C204.859 60.0785 201.801 60.6252 199.292 60.9897C196.365 61.4062 194.196 62.4476 186.198 66.2745C184.577 67.0555 182.147 67.3679 181.911 66.0141C181.728 64.9207 181.049 65.5716 181.153 66.4046C181.624 69.5807 185.91 69.2422 188.184 67.9406C192.497 65.4674 201.749 61.7707 208.257 63.1505C214.765 64.5302 216.124 62.3955 215.366 63.0984C214.87 63.567 215.419 65.4935 216.882 66.0141C218.346 66.5348 220.176 66.1443 221.639 65.8319C221.613 65.7278 221.561 67.8885 222.789 67.6282C224.305 67.3158 226.135 66.8732 227.572 67.6021C228.069 67.8625 228.513 68.253 228.592 68.8257C228.722 69.4765 228.487 69.9712 228.879 70.596C229.585 71.8976 230.892 71.1427 231.937 71.8716C233.009 72.6005 234.106 76.6357 235.047 78.1717C235.988 80.5407 239.203 84.3936 241.111 84.8101Z" fill="#252322"/>
<path d="M266.124 61.3279C267.221 62.9159 266.777 69.6846 267.404 69.4242C269.051 68.8255 269.338 61.1977 267.875 58.9068C266.855 57.2667 264.137 58.1779 264.111 59.87C264.085 61.5101 265.679 60.3907 266.124 61.3279Z" fill="#252322"/>
<path d="M170.542 62.1869C169.993 56.9282 173.705 50.5501 176.214 48.129C178.723 45.7079 175.848 43.6252 172.737 47.4521C169.653 51.279 167.589 57.3708 168.843 62.7076C170.15 68.0704 171.091 67.4456 170.542 62.1869Z" fill="#252322"/>
<path d="M213.197 16.6028C212.152 14.5722 208.937 14.4941 207.578 15.171C201.958 17.9305 199.057 22.6946 195.947 28.1095C195.058 29.8277 196.156 30.2442 197.019 28.6302C199.136 25.4541 204.128 20.3776 207.473 18.3731C208.467 17.8003 210.714 17.4619 211.472 19.1541C211.577 19.4665 214.243 18.6334 213.197 16.6028Z" fill="#252322"/>
<path d="M163.014 68.0713C163.433 70.154 164.948 72.5491 166.935 74.059C168.346 75.0743 169.705 74.5797 168.006 73.1218C166.308 71.6639 165.497 68.8784 165.027 66.9259C164.53 64.9994 162.596 65.9887 163.014 68.0713Z" fill="#252322"/>
<path d="M257.237 80.28C261.785 84.237 260.478 94.0516 258.126 98.8677C257.603 100.013 258.649 100.378 259.511 99.0239C261.942 95.2751 264.843 81.6077 260.295 78.9523C258.204 77.3643 255.747 79.1866 257.237 80.28Z" fill="#252322"/>
<path d="M177.024 96.6295C177.024 96.6556 177.024 96.6556 177.024 96.6818L177.05 96.6556L177.024 96.6295C177.024 96.6556 177.024 96.6556 176.998 96.6556V96.6818C176.998 96.7079 176.998 96.734 177.024 96.7602V96.7863C177.05 96.8125 177.103 96.8386 177.129 96.8125C177.103 96.8125 177.103 96.8125 177.103 96.8125H177.129L177.155 96.7863C177.155 96.7602 177.155 96.7602 177.155 96.7341C177.129 96.7079 177.129 96.6818 177.076 96.6556C177.076 96.6818 177.076 96.7079 177.103 96.7341C177.076 96.7079 177.076 96.6818 177.076 96.6818V96.6556C177.076 96.6556 177.076 96.6295 177.05 96.6295C177.076 96.6033 177.024 96.6033 177.024 96.6295Z" fill="#1D1D1E"/>
<path d="M174.541 91.1878C174.384 90.5891 174.175 89.4696 173.914 88.949C173.626 88.3242 174.802 87.4911 174.985 87.8556C176.031 89.4176 176.371 90.6671 176.423 92.6977C176.501 93.687 176.214 98.6854 175.299 98.2168C173.313 97.1755 175.534 95.3531 174.541 91.1878Z" fill="#252322"/>
<path d="M218.868 69.2167C218.241 68.9304 217.431 68.7481 216.725 68.67C215.183 68.5399 213.745 69.0085 212.778 70.1539C211.942 71.1692 211.864 72.575 212.491 73.6945C212.726 74.137 213.144 74.5275 213.589 74.7879C214.19 75.1263 214.817 75.2825 215.549 75.3346C216.228 75.3866 216.15 75.3866 216.751 75.647C217.274 76.454 231.257 87.8305 231.44 84.6024C231.597 82.7801 230.447 80.1767 229.532 78.5106C227.441 74.8139 222.815 71.1172 218.868 69.2167Z" fill="#252322"/>
<path d="M203.37 129.51C201.462 131.593 197.437 132.79 195.032 131.749C193.307 130.994 191.765 129.198 190.772 126.933C190.432 127.037 185.492 128.677 185.44 128.703C181.075 130.317 177.024 131.567 168.477 130.812C167.824 130.76 166.909 130.812 166.255 130.681C165.288 134.3 162.805 136.226 160.793 138.257C158.127 140.991 155.487 144.01 157.918 149.686C158.728 151.586 158.597 152.133 157.892 154.268C153.971 166.113 156.899 168.117 162.152 177.802C164.269 181.707 166.595 186.054 171.979 190.428C174.489 192.458 175.926 195.4 176.919 198.108C177.756 200.372 178.67 202.872 179.559 202.715C181.049 202.403 181.728 202.273 181.964 203.47C182.068 203.965 182.068 204.486 182.068 205.058C182.068 205.735 181.624 206.881 181.807 207.115C182.199 207.636 184.603 207.662 190.563 203.028C192.836 201.258 194.823 200.503 196.966 200.138C200.129 199.617 204.18 199.591 211.603 192.719C215.575 189.048 218.869 186.731 221.613 184.831C224.958 182.514 228.121 180.509 229.82 177.541C236.851 165.254 236.014 155.934 234.786 149.113C234.577 147.967 233.61 144.583 233.479 143.568C233.113 143.568 231.911 143.255 231.545 143.229C225.847 143.073 219.705 140.392 213.746 136.877C210.243 134.743 206.297 132.087 203.37 129.51Z" fill="#B3B3B3"/>
<path d="M192.104 127.452C192.836 129.014 194.98 131.409 196.182 131.93C198.299 132.841 201.618 130.628 202.951 129.144C202.167 128.389 200.886 127.192 200.181 126.437C198.926 126.749 194.431 127.036 192.104 127.452Z" fill="#FCDBBE"/>
<path d="M189.465 115.373C189.57 116.961 189.962 118.393 190.275 118.966C191.347 120.996 197.541 120.554 199.475 120.345C201.383 120.137 202.507 119.46 204.415 118.575C208.179 117.378 213.197 118.054 217.379 119.695C222.136 121.543 226.893 124.693 230.108 128.884C232.486 131.982 235.387 134.117 238.471 135.835C241.111 137.293 245.319 138.959 247.828 139.272C245.162 140.469 237.975 143.385 231.597 143.229C226.318 143.098 219.993 139.558 214.321 136.2C207.735 132.295 203.213 130.472 199.946 125.916C199.868 125.864 197.855 125.031 198.456 125.812C192.863 125.656 190.903 127.244 187.296 128.598C183.166 130.134 176.423 131.436 168.373 130.733C161.682 130.134 154.965 124.459 151.515 121.543C153.214 121.725 155.043 121.829 156.925 121.751C160.166 121.621 163.511 120.97 166.465 119.226C169.157 117.664 172.398 115.347 176.188 114.566C179.821 113.811 184.734 113.785 189.465 115.373Z" fill="#B3B3B3"/>
<path fill-rule="evenodd" clip-rule="evenodd" d="M203.344 131.201C199.475 135.419 192.628 133.388 190.328 128.077C189.988 128.181 186.041 129.379 185.989 129.405C181.624 131.019 177.102 132.685 168.556 131.93C167.902 131.878 167.249 131.774 166.595 131.644C165.628 135.262 163.459 137.475 161.473 139.506C158.807 142.239 156.48 144.608 158.911 150.284C159.721 152.184 159.146 153.902 158.441 156.011C157.265 159.577 155.618 164.524 161.211 173.427C162.126 174.885 162.858 176.239 163.59 177.566C165.707 181.471 167.772 185.272 173.182 189.672C175.691 191.702 176.867 194.905 177.86 197.586C178.697 199.851 179.35 201.647 180.239 201.491C181.729 201.179 182.33 201.907 182.565 203.105C182.669 203.6 182.669 204.12 182.669 204.693C182.669 205.37 182.669 206.099 182.852 206.333C183.244 206.854 185.074 206.125 191.033 201.491C193.307 199.721 195.163 199.408 197.306 199.07C200.469 198.549 204.363 197.924 211.786 191.052C215.759 187.381 219.078 185.064 221.822 183.164C225.168 180.847 227.625 179.154 229.323 176.187C236.354 163.899 234.211 154.631 232.983 147.81C232.774 146.665 232.277 145.806 232.12 144.791C225.246 144.791 218.999 142.057 213.171 138.621C209.59 136.486 206.271 133.804 203.344 131.201ZM189.073 116.102C189.178 117.69 189.387 118.939 189.7 119.512C190.772 121.543 197.045 121.387 199.005 121.178C200.913 120.97 202.873 120.345 204.807 119.486C213.72 116.649 223.469 123.183 228.748 130.056C231.127 133.154 234.943 135.314 238.001 137.033C240.641 138.49 243.359 139.428 245.868 139.74C243.202 140.938 238.184 142.265 231.806 142.109C226.527 141.979 220.385 139.584 214.713 136.226C208.127 132.321 202.586 128.468 199.319 123.912C198.273 122.688 196.496 123.678 197.254 124.589C197.306 124.693 197.463 124.901 197.437 124.901C191.843 124.745 188.89 126.047 185.283 127.4C172.293 132.19 162.544 130.55 151.907 121.543C156.951 122.09 162.806 122.766 167.275 120.163C174.463 115.92 180.918 113.368 189.073 116.102ZM192.445 127.478C194.196 131.175 199.397 132.347 202.089 129.405C201.305 128.65 200.547 127.895 199.867 127.14C198.613 127.426 194.771 127.036 192.445 127.478ZM200.73 76.6615C197.803 84.9401 190.824 94.9889 189.465 103.111C189.23 104.647 188.89 109.646 188.968 113.785C184.159 112.327 179.873 112.327 176.083 113.108C172.032 113.941 168.582 115.659 165.733 117.325C160.819 120.215 154.416 119.799 148.979 118.887C148.117 118.679 147.359 119.512 147.725 120.371C148.352 121.881 153.893 126.151 154.886 126.802C157.526 128.52 160.349 130.42 163.694 131.383C162.832 134.455 161.342 135.835 159.538 137.657C156.324 140.938 153.396 144.166 156.402 151.143C156.899 152.288 156.271 153.668 155.696 155.36C154.39 159.343 152.586 164.836 158.728 174.599C162.309 180.326 166.256 187.615 171.405 191.807C173.443 193.473 174.227 195.92 175.116 198.367C176.266 201.517 177.39 204.615 179.951 204.224C179.977 204.485 179.977 204.875 179.977 205.24C179.977 206.281 179.925 207.453 180.579 208.26C181.729 209.717 185.1 209.665 192.445 203.99C194.3 202.558 196.051 201.907 197.881 201.595C201.357 201.022 205.827 200.267 213.72 192.926C217.614 189.333 220.646 187.407 223.338 185.559C226.919 183.085 229.637 180.873 231.571 177.488C238.968 164.55 237.243 154.162 235.962 147.029C235.779 145.988 235.727 145.545 235.596 144.634C241.372 144.348 245.293 142.864 247.541 141.693C248.22 141.328 249.266 140.781 249.579 140.469C250.311 139.74 249.841 138.569 249.24 137.944C248.926 137.605 248.456 137.657 247.776 137.657C245.11 137.657 242.026 136.772 239.02 135.106C236.197 133.544 233.479 131.279 231.284 128.416C226.396 122.037 218.111 116.831 209.878 116.596C211.42 115.607 212.857 114.566 214.164 113.577C214.844 113.056 215.236 108.943 214.635 107.355C214.426 106.808 213.537 107.094 213.276 107.225C212.622 107.537 213.694 112.223 212.204 112.926C207.055 115.373 200.207 119.096 194.771 118.523C192.497 118.263 192.053 118.158 192.053 118.028C191.582 116.753 191.033 108.917 192.131 102.799C193.647 94.4682 201.253 84.081 202.141 77.026C202.22 76.3231 201.017 75.8545 200.73 76.6615Z" fill="#252322"/>
<path d="M180.578 181.628C180.84 181.55 174.201 172.048 174.776 161.739C174.933 158.823 172.868 157.704 172.581 160.724C171.927 167.05 176.736 179.858 180.578 181.628Z" fill="#252322"/>
<path d="M171.117 136.799C169.836 138.127 168.869 139.663 169.078 141.641C169.287 143.646 169.81 144.297 170.202 142.37C170.62 140.444 171.169 138.908 172.79 137.554C174.41 136.252 172.398 135.471 171.117 136.799Z" fill="#252322"/>
<path d="M223.652 171.58C223.26 173.714 222.136 175.563 221.195 176.187C220.254 176.786 219.705 176.864 220.62 175.459C221.535 174.053 222.397 171.918 221.9 170.642C221.404 169.341 224.044 169.445 223.652 171.58Z" fill="#252322"/>
<path d="M221.404 155.412C219.888 159.734 217.535 163.326 216.046 164.342C214.556 165.357 213.85 165.357 215.68 162.676C217.509 159.994 219.653 155.777 219.653 152.991C219.679 150.18 222.92 151.091 221.404 155.412Z" fill="#252322"/>
</svg>
