<svg width="72" height="72" viewBox="0 0 72 72" xmlns="http://www.w3.org/2000/svg">
<rect width="72" height="72" fill="#8C1A1E" rx="15"/>
<path d="M18.5964 61.9466C18.5053 61.9624 18.4142 61.9774 18.3231 61.9923C17.9955 61.2963 17.6408 60.6063 17.2677 59.9428C16.8866 59.2643 16.4592 58.5964 15.9976 57.9584C15.9722 57.9214 15.9459 57.8898 15.9197 57.8634C15.9083 57.8519 15.9039 57.8414 15.9039 57.8264C15.9039 57.8211 15.9048 57.8123 15.9144 57.7982C16.051 57.5791 16.185 57.36 16.3164 57.1418C16.4461 56.9253 16.581 56.7061 16.7185 56.4905C16.7658 56.4175 16.8139 56.3445 16.8621 56.2697C16.9103 56.1957 16.962 56.1236 17.0145 56.0549C17.0671 55.9863 17.1249 55.9194 17.1844 55.8569C17.2431 55.7953 17.3079 55.7381 17.3754 55.6862C17.4674 55.6158 17.5663 55.5648 17.6697 55.5357C17.8554 55.4829 18.0586 55.4794 18.2662 55.5137L18.3608 55.5287L18.3424 55.4345C18.338 55.4108 18.3345 55.3888 18.3319 55.3659C18.3284 55.3369 18.3231 55.3096 18.3144 55.2849C18.3038 55.255 18.2881 55.2295 18.2653 55.2084C18.2408 55.1846 18.2075 55.1705 18.1672 55.1653C17.7713 55.1107 17.3701 55.0702 16.976 55.0438C16.581 55.0174 16.1789 55.0007 15.7813 54.9945L15.7059 54.9937L15.7138 55.0693C15.7156 55.0817 15.7156 55.0966 15.7147 55.1125C15.7138 55.1371 15.7147 55.16 15.7173 55.182C15.7217 55.2093 15.7296 55.233 15.7427 55.2533C15.7541 55.2709 15.7821 55.3017 15.8373 55.3017C15.9354 55.3017 16.0309 55.314 16.1202 55.3377C16.2078 55.3615 16.2858 55.3958 16.3515 55.4407C16.4154 55.4847 16.468 55.5375 16.5056 55.5991C16.5424 55.6589 16.5599 55.7258 16.5599 55.8015C16.5599 55.8737 16.545 55.9476 16.5153 56.0206C16.4837 56.0981 16.4452 56.1755 16.3996 56.2503C16.3541 56.3251 16.3042 56.3999 16.2499 56.4721C16.1956 56.5451 16.1456 56.6173 16.1018 56.685C16.0107 56.8258 15.9205 56.9658 15.8321 57.1048C15.7602 57.2174 15.6884 57.3301 15.6166 57.4454C15.4975 57.2852 15.3783 57.125 15.2592 56.9649C15.1208 56.7801 14.9851 56.5926 14.8502 56.4043C14.7153 56.2151 14.5813 56.0233 14.4543 55.8341C14.3465 55.6748 14.2414 55.5102 14.1416 55.3439C14.2055 55.3404 14.2686 55.3369 14.3316 55.3333C14.4429 55.3272 14.5533 55.3201 14.668 55.3254C14.7293 55.3289 14.7932 55.3245 14.8327 55.2964C14.8598 55.2761 14.8791 55.2497 14.8896 55.2172C14.8975 55.1917 14.9019 55.1635 14.9019 55.1336C14.9019 55.1116 14.9027 55.0878 14.9045 55.0641L14.9097 54.9893L14.8379 54.9901C14.3246 54.9989 13.8087 55.0236 13.3025 55.0649C12.7962 55.1063 12.2821 55.1732 11.7723 55.2638C11.7399 55.2717 11.7145 55.277 11.697 55.2788C11.6602 55.2832 11.6295 55.2999 11.6085 55.3272C11.591 55.3492 11.5778 55.3791 11.5673 55.4222C11.5594 55.4557 11.5498 55.5067 11.5375 55.5762L11.52 55.6748L11.7232 55.6317C11.7618 55.6237 11.8003 55.6149 11.838 55.6079C11.8756 55.6009 11.9115 55.5938 11.944 55.5894C11.9737 55.585 11.9991 55.5824 12.0167 55.578C12.0272 55.5938 12.0421 55.622 12.0613 55.6616C12.3355 56.245 12.6307 56.8294 12.9372 57.3961C13.2447 57.9646 13.5854 58.5225 13.9506 59.0531C13.9734 59.0883 13.9997 59.127 14.0312 59.1693C14.0619 59.2106 14.0899 59.2502 14.1171 59.2881C14.1425 59.325 14.1644 59.3576 14.1827 59.3875C14.1924 59.4034 14.1968 59.413 14.1994 59.4192C14.1985 59.4227 14.1959 59.428 14.1924 59.4342C14.1836 59.4509 14.1705 59.4738 14.153 59.5019C13.9979 59.7474 13.842 59.9912 13.6844 60.2332C13.5267 60.4752 13.3664 60.7181 13.2026 60.9627L13.0634 61.1748C13.0169 61.2461 12.9688 61.3156 12.9188 61.3843C12.8698 61.4511 12.8172 61.5171 12.762 61.5805C12.7077 61.6421 12.6499 61.6984 12.5886 61.7486C12.5019 61.8199 12.4108 61.8691 12.3171 61.8947C12.1743 61.9334 12.0184 61.9413 11.8599 61.9281C11.8082 61.9237 11.7565 61.9175 11.704 61.9096L11.6111 61.8947L11.6286 61.9871C11.633 62.0117 11.6365 62.0355 11.6374 62.0592C11.6391 62.09 11.6444 62.1191 11.6505 62.1446C11.6593 62.1763 11.6742 62.2044 11.6943 62.2273C11.718 62.2537 11.7521 62.2713 11.7951 62.2792C12.2137 62.3593 12.6394 62.4191 13.0598 62.4579C13.4794 62.4966 13.9095 62.5239 14.3378 62.5397L14.4175 62.5423L14.4061 62.4631C14.4035 62.442 14.4008 62.4227 14.4 62.4042C14.3991 62.3804 14.3956 62.3575 14.3903 62.3373C14.3825 62.3083 14.3667 62.2845 14.343 62.266C14.3203 62.2484 14.2896 62.2379 14.2484 62.2352C14.195 62.2317 14.1363 62.2273 14.0724 62.2229C14.0111 62.2176 13.948 62.2088 13.8841 62.1956C13.821 62.1824 13.7588 62.1648 13.6993 62.1428C13.6432 62.1217 13.5933 62.0935 13.5495 62.0566C13.489 62.0073 13.4409 61.9448 13.4076 61.8709C13.3734 61.7961 13.3568 61.7169 13.3568 61.6351C13.3568 61.5594 13.3734 61.4899 13.405 61.4274C13.4409 61.3579 13.482 61.2892 13.5249 61.2232C13.5696 61.1555 13.6169 61.0877 13.6651 61.0208C13.7141 60.9531 13.7632 60.8862 13.8122 60.8193C13.863 60.7515 13.9103 60.6829 13.955 60.6143C14.0549 60.462 14.153 60.3107 14.2502 60.1602C14.3299 60.0361 14.4096 59.9111 14.4893 59.7853C14.6303 59.9727 14.7731 60.1611 14.9176 60.3476C15.0805 60.5597 15.2426 60.7735 15.4029 60.9874C15.5632 61.2021 15.7208 61.4195 15.8724 61.6351C16.002 61.8199 16.1299 62.0108 16.2525 62.2044C16.2069 62.2071 16.1614 62.2088 16.1159 62.2106L15.868 62.2211C15.854 62.2211 15.8417 62.2203 15.8286 62.2185C15.7418 62.2088 15.6989 62.2414 15.684 62.2643C15.6709 62.2845 15.6613 62.3083 15.656 62.3347C15.6508 62.3575 15.6481 62.3839 15.6464 62.4112C15.6455 62.4341 15.6446 62.4552 15.6429 62.4746L15.6367 62.5503L15.7103 62.5494C16.2218 62.5406 16.7369 62.5159 17.2431 62.4746C17.7494 62.4332 18.26 62.3663 18.7602 62.2766C18.7943 62.2704 18.8197 62.266 18.8381 62.2634C18.8741 62.259 18.9047 62.2423 18.9266 62.215C18.9441 62.193 18.9573 62.1613 18.9669 62.1182C18.9739 62.0856 18.9835 62.0346 18.9976 61.9651L19.0168 61.8674L18.9196 61.8876C18.811 61.9079 18.7041 61.9281 18.5964 61.9466Z" fill="white"/>
<path d="M24.9502 57.9565L25.0509 57.9793L25.0299 57.8781C25.0255 57.8579 25.022 57.8368 25.0211 57.8148C25.0185 57.784 25.0141 57.7576 25.0071 57.7338C24.9984 57.703 24.9826 57.6757 24.9598 57.6537C24.9362 57.63 24.9038 57.6141 24.8617 57.6062C24.472 57.542 24.0796 57.4953 23.6942 57.4681C23.3105 57.4408 22.9172 57.4241 22.5266 57.417L22.4504 57.4161L22.46 57.4927C22.4635 57.5173 22.4653 57.542 22.4662 57.5666C22.467 57.5948 22.4697 57.6238 22.4732 57.6529L22.4802 57.7109H22.7613C22.8174 57.7109 22.8734 57.7118 22.9304 57.7127C22.9304 57.7461 22.9251 57.7796 22.9164 57.8121C22.9059 57.8491 22.8936 57.8852 22.8787 57.9221C22.8629 57.96 22.8463 57.9961 22.8288 58.0321C22.8095 58.0709 22.792 58.1096 22.7762 58.1474C22.5353 58.7185 22.2945 59.2906 22.0536 59.8634C21.8513 60.3457 21.6498 60.8367 21.4527 61.3269C21.437 61.1218 21.4238 60.9159 21.4142 60.7126C21.4002 60.417 21.3932 60.116 21.3932 59.8186C21.3932 59.4912 21.4037 59.155 21.4238 58.8197C21.444 58.4853 21.4799 58.1518 21.5316 57.8289L21.5508 57.7444C21.5666 57.7417 21.5903 57.7391 21.6209 57.7382L21.8819 57.7277C21.959 57.7241 21.9905 57.6889 22.0046 57.6608C22.0168 57.6344 22.0238 57.6027 22.0238 57.5675C22.0238 57.5578 22.0229 57.5481 22.0221 57.5393C22.0212 57.5341 22.0212 57.5279 22.0212 57.5217C22.0212 57.5121 22.0212 57.5041 22.0221 57.4989L22.0387 57.4179L21.9564 57.4197C21.5561 57.4267 21.1497 57.4434 20.7485 57.4707C20.3465 57.498 19.9427 57.549 19.5494 57.6221L19.5047 57.63L19.4364 57.9776L19.531 57.9617C19.6134 57.9485 19.6948 57.9353 19.7763 57.9221C19.8253 57.9142 19.8752 57.9072 19.9243 57.8993C19.785 58.576 19.715 59.2703 19.715 59.9646C19.715 60.6634 19.7868 61.3638 19.9287 62.0485C19.8796 62.0388 19.8306 62.0283 19.7815 62.0177C19.7001 62.0001 19.6177 61.9816 19.5354 61.9631L19.4355 61.9411L19.4557 62.0415C19.4601 62.0652 19.4636 62.0872 19.4662 62.1101C19.4688 62.1391 19.4741 62.1655 19.4811 62.1893C19.4899 62.2201 19.5047 62.2465 19.5258 62.2685C19.5494 62.2931 19.5818 62.3099 19.6239 62.3178C20.0101 62.382 20.4017 62.4287 20.7879 62.4559C21.1725 62.4832 21.5657 62.4999 21.9564 62.507L22.0326 62.5079L22.0229 62.4313C22.0194 62.4067 22.0177 62.3811 22.0168 62.3574C22.0159 62.3292 22.0133 62.3002 22.0098 62.2685L22.0028 62.2051L21.9397 62.2095C21.9161 62.2113 21.8924 62.2122 21.8697 62.2122H21.6437C21.6122 62.2122 21.5815 62.2122 21.55 62.2113L21.5491 62.2025C21.5465 62.1858 21.5456 62.1708 21.5456 62.1567C21.5456 62.133 21.5482 62.1101 21.5535 62.0872C21.5596 62.0617 21.5701 62.0309 21.5832 61.9966C21.8408 61.3718 22.1009 60.7487 22.3619 60.1274C22.587 59.5933 22.8095 59.0512 23.0259 58.5117C23.0425 58.7247 23.0565 58.9377 23.067 59.148C23.0819 59.4498 23.0898 59.7587 23.0898 60.0676C23.0898 60.3994 23.0802 60.7408 23.0609 61.0831C23.0416 61.4237 23.0048 61.7651 22.9514 62.0969C22.947 62.1295 22.9426 62.155 22.9356 62.1814C22.919 62.184 22.8945 62.1858 22.8603 62.1875C22.8174 62.1911 22.7753 62.1928 22.7333 62.1937C22.6904 62.1946 22.6457 62.1963 22.6045 62.1972C22.5607 62.1972 22.5266 62.2095 22.5029 62.2333C22.4837 62.2527 22.4697 62.2773 22.4626 62.3063C22.4565 62.3301 22.4548 62.3565 22.4574 62.3838C22.4591 62.4023 22.46 62.4207 22.46 62.4392V62.507L22.5275 62.5061C22.9339 62.4991 23.3403 62.4815 23.7345 62.4524C24.1312 62.4234 24.535 62.3732 24.9362 62.3037L24.9791 62.2958L24.9887 62.2527C24.9975 62.2157 25.0054 62.1796 25.0115 62.1435C25.0176 62.1092 25.0238 62.074 25.0299 62.0397L25.0474 61.9455L24.9537 61.9614C24.8731 61.9746 24.7917 61.9878 24.7102 62.001C24.6603 62.0089 24.6103 62.0159 24.5613 62.0239C24.6279 61.7 24.6787 61.3709 24.7137 61.0444C24.7522 60.688 24.7715 60.3228 24.7715 59.9585C24.7715 59.2606 24.6997 58.561 24.5578 57.8773C24.6068 57.8869 24.6559 57.8966 24.7049 57.9063C24.7855 57.9204 24.867 57.938 24.9502 57.9565Z" fill="white"/>
<path d="M31.1165 57.9795L31.2163 58.0015L31.1962 57.9012C31.1918 57.8792 31.1883 57.8572 31.1874 57.8352C31.1857 57.807 31.1804 57.7797 31.1734 57.7551C31.1647 57.7243 31.1489 57.697 31.1261 57.6741C31.1025 57.6504 31.0701 57.6345 31.028 57.6266C30.6365 57.5606 30.2432 57.514 29.8587 57.4876C29.4742 57.4612 29.0835 57.4444 28.6946 57.4383L28.6219 57.4374L28.6272 57.5104C28.6289 57.5316 28.6289 57.5509 28.6281 57.5685C28.6272 57.5958 28.6289 57.6187 28.6333 57.6389C28.6412 57.6688 28.6587 57.6944 28.685 57.7102C28.7087 57.7252 28.7393 57.7322 28.7814 57.7322H29.0827C29.0984 57.7322 29.1037 57.734 29.1037 57.734C29.1081 57.7384 29.1107 57.7454 29.1116 57.7507C29.1151 57.7674 29.1177 57.7859 29.1177 57.807C29.1177 57.836 29.1194 57.8651 29.1238 57.8941L29.1387 58.0015C29.144 58.0367 29.1475 58.0719 29.151 58.108C29.1781 58.3368 29.1974 58.5673 29.2105 58.7935C29.2228 59.0223 29.2324 59.252 29.2394 59.4817L29.2403 59.494L29.2324 59.4922L29.2167 59.4966C29.1983 59.5019 29.1799 59.5045 29.1606 59.5054C29.1335 59.5063 29.1072 59.5089 29.0827 59.5125C28.8155 59.5485 28.551 59.5855 28.2891 59.6233C28.0526 59.6577 27.8144 59.692 27.5761 59.7254C27.5814 59.4509 27.5901 59.1728 27.6024 58.8965C27.6155 58.5981 27.6418 58.2945 27.6804 57.9936C27.6839 57.9663 27.6865 57.9346 27.6874 57.8985C27.6882 57.8695 27.6909 57.8413 27.6961 57.8158C27.7005 57.7938 27.7075 57.7762 27.7276 57.7586C27.7811 57.7551 27.8345 57.7524 27.8871 57.7516L28.05 57.7463C28.1113 57.7436 28.1525 57.7216 28.1717 57.6812C28.1849 57.6548 28.1919 57.6231 28.1919 57.5879C28.1919 57.5773 28.191 57.5668 28.1901 57.5553C28.1892 57.55 28.1892 57.5448 28.1892 57.5395C28.1892 57.5236 28.1901 57.5184 28.1901 57.5184L28.2076 57.4365L28.1236 57.4383C27.7224 57.4453 27.3169 57.462 26.9157 57.4893C26.5137 57.5166 26.1107 57.5676 25.7166 57.6407L25.6719 57.6486L25.6036 57.9962L25.6982 57.9804C25.7805 57.9672 25.862 57.954 25.9434 57.9408C25.9925 57.9328 26.0424 57.9258 26.0915 57.9179C25.9531 58.5937 25.8821 59.2881 25.8821 59.9833C25.8821 60.682 25.954 61.3825 26.0959 62.0671C26.0468 62.0574 25.9978 62.0469 25.9487 62.0363C25.8672 62.0187 25.7849 62.0002 25.7026 61.9818L25.6027 61.9598L25.6229 62.0601C25.6272 62.0838 25.6308 62.1067 25.6334 62.1287C25.636 62.1578 25.6413 62.1842 25.6483 62.2088C25.657 62.2396 25.6719 62.266 25.6929 62.2871C25.7157 62.3118 25.749 62.3285 25.791 62.3364C26.1782 62.4006 26.5697 62.4473 26.9551 62.4746C27.3396 62.5018 27.7329 62.5186 28.1236 62.5256L28.2006 62.5265L28.191 62.4499C28.1875 62.4253 28.1857 62.4006 28.1849 62.376C28.184 62.3478 28.1814 62.3188 28.1779 62.288L28.1709 62.2246L28.1078 62.229C28.0841 62.2308 28.0605 62.2317 28.0377 62.2317H27.8494C27.8135 62.2317 27.7767 62.2308 27.739 62.229L27.7233 62.2282L27.7171 62.2308L27.718 62.2273L27.7154 62.2132C27.6585 61.8568 27.6208 61.4951 27.6033 61.1378C27.5866 60.7981 27.577 60.4523 27.5744 60.1091C27.8582 60.0721 28.1419 60.0317 28.4196 59.9894C28.6911 59.9481 28.9688 59.9085 29.2447 59.8724C29.2438 60.2473 29.2359 60.6248 29.2211 60.997C29.2053 61.3921 29.1676 61.7917 29.1089 62.1842C29.1072 62.1947 29.1054 62.2026 29.1046 62.2079C29.0967 62.2079 29.087 62.207 29.0765 62.207C29.0249 62.2035 28.9784 62.2062 28.9303 62.2097C28.8865 62.2132 28.833 62.2141 28.7971 62.2123C28.7822 62.2114 28.7682 62.2106 28.7568 62.2106C28.6964 62.2106 28.6517 62.2484 28.6403 62.3109C28.6351 62.3426 28.6307 62.3901 28.6272 62.4543L28.6228 62.5256L28.6938 62.5247C29.0984 62.5177 29.504 62.5001 29.8999 62.471C30.2949 62.442 30.6987 62.3927 31.1007 62.3232L31.1436 62.3153L31.1542 62.2722C31.1629 62.2352 31.1708 62.1982 31.1769 62.1622C31.1831 62.1278 31.1892 62.0935 31.1953 62.0583L31.2128 61.9642L31.1191 61.98C31.0385 61.9932 30.9571 62.0064 30.8756 62.0196C30.8257 62.0275 30.7758 62.0346 30.7267 62.0425C30.7933 61.7178 30.8441 61.3886 30.8783 61.063C30.9159 60.7057 30.9352 60.3405 30.9352 59.9771C30.9352 59.2793 30.8634 58.5797 30.7223 57.8959C30.7714 57.9056 30.8204 57.9152 30.8695 57.9249C30.9527 57.9434 31.0342 57.961 31.1165 57.9795Z" fill="white"/>
<path d="M37.0428 61.6824C37.0279 61.6718 37.0113 61.6568 36.9937 61.6384L36.9324 61.5715L36.8878 61.6507C36.8764 61.6709 36.8571 61.6964 36.8317 61.7272C36.8045 61.7589 36.7739 61.7906 36.7397 61.8214C36.7064 61.8513 36.6714 61.8768 36.6355 61.8971C36.5742 61.9323 36.5216 61.9208 36.5059 61.905C36.4875 61.8865 36.4726 61.8601 36.4603 61.8284C36.4472 61.7932 36.4375 61.7519 36.4323 61.707C36.427 61.6586 36.4235 61.6111 36.4235 61.5644C36.4235 61.4984 36.4262 61.4333 36.4305 61.37C36.4358 61.3022 36.4384 61.2424 36.4384 61.1904C36.4384 61.0707 36.4323 60.9475 36.42 60.8261C36.4078 60.702 36.3832 60.5815 36.3473 60.4671C36.3114 60.35 36.258 60.24 36.1897 60.1388C36.1196 60.0359 36.0276 59.9461 35.9146 59.8704C35.8393 59.8203 35.7596 59.7789 35.6764 59.749C35.5958 59.7191 35.5108 59.6953 35.4259 59.6786C35.3409 59.6619 35.2542 59.6513 35.1692 59.646C35.0352 59.6381 34.9021 59.6337 34.7698 59.6434C34.7576 59.6443 34.7453 59.6451 34.733 59.646C34.7383 59.6425 34.7427 59.639 34.7479 59.6355C34.7716 59.6187 34.7891 59.6047 34.8005 59.5932C34.8977 59.4999 34.973 59.3917 35.0265 59.2711C35.0781 59.155 35.1176 59.0327 35.1456 58.9068C35.1727 58.7827 35.1929 58.6551 35.2051 58.5258C35.2165 58.3999 35.2305 58.2785 35.2454 58.1615C35.2489 58.1342 35.2542 58.1025 35.2621 58.0647C35.27 58.0295 35.2805 57.9943 35.2945 57.9617C35.3076 57.9318 35.3225 57.908 35.3427 57.8887C35.3549 57.8763 35.3707 57.8702 35.3917 57.8702C35.4355 57.8702 35.453 57.886 35.4627 57.8983C35.4846 57.9265 35.5021 57.9617 35.5143 58.0031C35.5284 58.0497 35.5389 58.0981 35.5467 58.1474C35.5564 58.2063 35.5695 58.2539 35.587 58.2943C35.6168 58.3595 35.6615 58.4263 35.7202 58.4941C35.778 58.561 35.8454 58.6226 35.9208 58.6789C35.997 58.7343 36.0784 58.7801 36.1643 58.8153C36.3202 58.8787 36.4822 58.891 36.6171 58.8311C36.6749 58.8056 36.7257 58.7687 36.7686 58.7229C36.8115 58.6771 36.8457 58.6208 36.8685 58.5566C36.8913 58.4932 36.9026 58.4237 36.9026 58.348C36.9026 58.1905 36.8685 58.0453 36.8019 57.9159C36.7353 57.7883 36.6451 57.6766 36.5348 57.5859C36.4244 57.4962 36.2956 57.4249 36.152 57.3765C35.9479 57.307 35.7237 57.2823 35.51 57.321C35.4443 57.3334 35.3821 57.3536 35.3243 57.3809C35.2656 57.409 35.2113 57.4451 35.1631 57.4891C35.1132 57.5349 35.072 57.5903 35.0396 57.6546C35.0098 57.7153 34.9844 57.7786 34.966 57.8438C34.9476 57.9071 34.9327 57.9723 34.9214 58.0365C34.91 58.1007 34.9003 58.165 34.8933 58.2292C34.8863 58.2917 34.8776 58.3533 34.8671 58.414C34.8469 58.5451 34.8215 58.6763 34.79 58.8056C34.7593 58.9315 34.7146 59.0555 34.6577 59.1726C34.6008 59.2923 34.5255 59.3864 34.4344 59.4524C34.3406 59.5202 34.2355 59.573 34.1217 59.6091C34.0052 59.646 33.8808 59.6724 33.7538 59.6874C33.6478 59.7006 33.5436 59.7138 33.4411 59.727C33.4455 59.4058 33.4551 59.0837 33.4709 58.7669C33.4875 58.4272 33.5199 58.0805 33.5663 57.7382L33.5681 57.7267L33.5655 57.7162L33.5742 57.7179L33.583 57.717C33.6425 57.7135 33.7021 57.71 33.7608 57.7056C33.8186 57.7012 33.8755 57.6994 33.9333 57.6994C33.9447 57.6994 33.9561 57.6994 33.9649 57.7003C33.978 57.7012 33.9894 57.7021 33.9999 57.7021C34.0621 57.7021 34.1059 57.6642 34.1147 57.6035C34.119 57.5745 34.1243 57.5243 34.1295 57.4522L34.1348 57.3782L34.0612 57.38C33.6425 57.3914 33.2195 57.4134 32.8034 57.4451C32.3856 57.4768 31.9661 57.5314 31.557 57.6079L31.5124 57.6158L31.5036 57.6598C31.4966 57.6942 31.4905 57.7302 31.4843 57.7663C31.4782 57.8024 31.4729 57.8376 31.4677 57.8719L31.4537 57.9626L31.5439 57.9476C31.6245 57.9344 31.7042 57.9221 31.7848 57.9107C31.8356 57.9036 31.8855 57.8966 31.9363 57.8895C31.811 58.568 31.7471 59.2615 31.7471 59.9531C31.7471 60.3219 31.7655 60.6923 31.8005 61.054C31.8329 61.384 31.8802 61.7167 31.9424 62.0458C31.8925 62.0352 31.8434 62.0247 31.7944 62.0132C31.7138 61.9948 31.6332 61.9736 31.5518 61.9508L31.4545 61.9226L31.4677 62.0238C31.4712 62.0476 31.4738 62.0713 31.4747 62.0942C31.4764 62.1232 31.4808 62.1496 31.4861 62.1743C31.494 62.2068 31.5089 62.235 31.5299 62.2579C31.5527 62.2825 31.5859 62.2992 31.6262 62.3072C32.0283 62.3872 32.4364 62.4436 32.8411 62.4744C33.244 62.506 33.6548 62.5228 34.0621 62.5245H34.133L34.1234 62.3688C34.1217 62.3424 34.1208 62.3151 34.1208 62.2878V62.2209H34.0542C33.9885 62.2209 33.9246 62.2236 33.8606 62.2271C33.766 62.2332 33.6907 62.2385 33.6364 62.2271C33.6224 62.2244 33.611 62.2183 33.6014 62.2104C33.5909 62.2007 33.5812 62.1866 33.5733 62.1681C33.5637 62.1452 33.5567 62.1127 33.5523 62.0704C33.5103 61.751 33.4805 61.4236 33.463 61.098C33.4455 60.7724 33.4367 60.4424 33.4367 60.1195C33.4367 60.1177 33.4367 60.1168 33.4367 60.1159C33.4455 60.1133 33.4604 60.1107 33.4823 60.1071C33.5479 60.0983 33.6136 60.0904 33.6785 60.0834C33.7415 60.0763 33.8055 60.0728 33.8685 60.0728C34.0674 60.0728 34.225 60.1195 34.3363 60.2101C34.4492 60.3034 34.536 60.438 34.592 60.6105C34.6236 60.7091 34.6516 60.8094 34.6752 60.9079C34.6998 61.0083 34.7217 61.1103 34.7418 61.2124C34.7619 61.3154 34.7812 61.4184 34.7996 61.5213C34.818 61.6252 34.8381 61.729 34.8583 61.8328C34.8802 61.942 34.9082 62.0423 34.9389 62.1312C34.9722 62.2262 35.0212 62.308 35.0834 62.3758C35.1465 62.4444 35.2305 62.4972 35.3304 62.5342C35.4285 62.5694 35.5529 62.5879 35.7018 62.5879C35.9313 62.5879 36.1529 62.5421 36.3605 62.4532C36.568 62.3635 36.7555 62.2315 36.9149 62.0634C36.9315 62.0467 36.9491 62.0282 36.9683 62.0053C36.9885 61.9833 37.0069 61.9604 37.0235 61.9384C37.041 61.9156 37.0559 61.8927 37.0691 61.8716C37.0875 61.8408 37.0962 61.8152 37.0962 61.7897C37.1006 61.7457 37.0804 61.7088 37.0428 61.6824Z" fill="white"/>
<path d="M48.1395 62.0231C48.263 61.3578 48.326 60.6802 48.326 60.0061C48.326 59.6286 48.3068 59.2502 48.2691 58.8806C48.2349 58.5444 48.1824 58.2039 48.1132 57.8677L48.2603 57.8976C48.3418 57.9143 48.4224 57.9319 48.503 57.9504L48.6028 57.9733L48.5827 57.8721C48.5783 57.8492 48.5748 57.8281 48.5739 57.807C48.5721 57.7779 48.5669 57.7515 48.5599 57.7269C48.5511 57.6961 48.5362 57.6697 48.5152 57.6477C48.4916 57.623 48.4592 57.6063 48.4189 57.5984C48.0151 57.5218 47.6017 57.4682 47.1882 57.4382C46.4831 57.3881 45.7675 57.3828 45.08 57.411C44.7953 57.4224 44.5036 57.4409 44.2146 57.4646L44.1673 57.4682L44.0779 57.8149L44.1752 57.8026C44.2295 57.7955 44.2916 57.7867 44.3608 57.7753C44.4896 57.7542 44.6341 57.7506 44.7165 57.7858C44.7567 57.8026 44.7874 57.8254 44.8111 57.8554C44.8356 57.8853 44.8531 57.9231 44.8645 57.9671C44.8767 58.0147 44.8829 58.0683 44.8829 58.1273C44.8829 58.2039 44.8776 58.2795 44.8671 58.3526C44.8557 58.4318 44.8487 58.5004 44.8452 58.5567C44.8268 58.8014 44.8128 59.0478 44.8032 59.2915C44.7935 59.5344 44.7892 59.7826 44.7892 60.029C44.7892 60.2596 44.7935 60.4945 44.8032 60.726C44.8128 60.9548 44.8172 61.1871 44.8172 61.4168V61.54C44.8172 61.5804 44.8163 61.6209 44.8146 61.6605C44.8128 61.6984 44.8102 61.7432 44.8058 61.7943C44.8023 61.84 44.7935 61.884 44.7804 61.9245C44.7681 61.9615 44.7506 61.9914 44.727 62.0169C44.7156 62.0284 44.6963 62.0442 44.6516 62.0442C44.5947 62.0442 44.5448 62.0336 44.5036 62.0116C44.4598 61.9896 44.4213 61.9597 44.3889 61.9236C44.3556 61.8858 44.3267 61.8427 44.303 61.7952C44.2785 61.745 44.2575 61.6931 44.2417 61.642C44.2137 61.5576 44.1769 61.4748 44.1331 61.3965C44.0876 61.3156 44.0298 61.2443 43.9623 61.1844C43.894 61.1237 43.8134 61.0744 43.7223 61.0384C43.6303 61.0023 43.5244 60.9847 43.407 60.9847C43.3387 60.9847 43.2756 60.9979 43.2213 61.0243C43.167 61.0507 43.1206 61.0876 43.0847 61.1325C43.0487 61.1774 43.0216 61.2311 43.0032 61.2936C42.9857 61.3534 42.9787 61.4352 42.9787 61.5039C42.9787 61.5039 42.6493 61.7661 42.6038 61.7978C42.56 61.8286 42.5136 61.855 42.4672 61.877C42.426 61.8964 42.3901 61.906 42.3612 61.906C42.334 61.906 42.3288 61.8964 42.3253 61.8911C42.32 61.8823 42.3069 61.8532 42.3069 61.774C42.3069 61.7371 42.3104 61.6992 42.3174 61.6596C42.3244 61.6174 42.3331 61.5752 42.3419 61.5329C42.3515 61.4898 42.3603 61.4467 42.3691 61.4036C42.3778 61.3596 42.3848 61.3182 42.3901 61.276C42.4137 61.0656 42.4321 60.8544 42.4435 60.6485C42.4558 60.44 42.461 60.2279 42.461 60.0184C42.461 59.7659 42.4531 59.5107 42.4365 59.259C42.4207 59.0091 42.3962 58.7547 42.3638 58.5022L42.3437 58.3543C42.3366 58.3024 42.327 58.2523 42.3147 58.2021C42.3025 58.1528 42.2867 58.1027 42.2683 58.0542C42.2491 58.005 42.2245 57.9557 42.1948 57.9073C42.1334 57.8131 42.0607 57.7322 41.9775 57.6644C41.8952 57.5975 41.8041 57.5412 41.7051 57.4954C41.6088 57.4506 41.5054 57.4145 41.3977 57.3872C41.2917 57.3608 41.1822 57.3397 41.0727 57.3247C40.9632 57.3098 40.852 57.301 40.7443 57.2966C40.4701 57.286 40.2214 57.2886 39.9647 57.3054C39.8071 57.3159 39.6494 57.3362 39.4961 57.3652C39.342 57.3942 39.1887 57.4356 39.0389 57.4875C38.8874 57.5403 38.742 57.6098 38.6053 57.6943C38.5055 57.7568 38.4056 57.8298 38.3075 57.9126C38.2086 57.9962 38.1192 58.0895 38.0413 58.1907C37.9615 58.2927 37.8976 58.4045 37.8486 58.5207C37.7995 58.6403 37.7741 58.7671 37.7741 58.8973C37.7741 59.0099 37.7925 59.1173 37.8302 59.2167C37.8678 59.3162 37.9186 59.4042 37.9826 59.4772C38.0474 59.5511 38.1253 59.611 38.2138 59.6541C38.4048 59.7456 38.643 59.7395 38.8462 59.6356C38.9513 59.5811 39.045 59.508 39.1239 59.4183C39.2018 59.3285 39.2649 59.2255 39.3113 59.1111C39.3586 58.995 39.3823 58.8744 39.3823 58.753C39.3823 58.6755 39.3717 58.6007 39.3507 58.5295C39.3297 58.4573 39.2964 58.3887 39.2509 58.3227C39.2272 58.2901 39.2009 58.2575 39.1703 58.2241C39.1423 58.1942 39.1169 58.1634 39.0923 58.1335C39.0696 58.1053 39.0503 58.0763 39.0345 58.0481C39.0223 58.0252 39.0161 58.0032 39.0161 57.9786C39.0161 57.9416 39.0354 57.9002 39.0731 57.8571C39.1204 57.8017 39.1799 57.7577 39.25 57.7251C39.3244 57.6908 39.4033 57.6644 39.483 57.6468C39.5644 57.6292 39.645 57.6169 39.723 57.6116C39.8018 57.6054 39.8692 57.6028 39.9262 57.6028C40.012 57.6028 40.0979 57.6125 40.1828 57.6301C40.2643 57.6477 40.3396 57.6802 40.4062 57.7251C40.4473 57.7542 40.4824 57.7885 40.5104 57.8263C40.5393 57.865 40.5621 57.9073 40.5805 57.9522C40.5989 57.9979 40.612 58.0463 40.6199 58.0965C40.6278 58.1493 40.6339 58.2021 40.6365 58.254L40.6514 58.5726C40.6567 58.6817 40.6602 58.7899 40.6637 58.8973C40.6672 59.0047 40.6698 59.1111 40.6724 59.2159C40.6751 59.3179 40.6759 59.4139 40.6759 59.5063C40.6716 59.508 40.6646 59.5098 40.6541 59.5124C40.2888 59.5837 39.9209 59.6655 39.5592 59.7562C39.1992 59.8468 38.8331 59.9436 38.4731 60.0448C38.3434 60.0809 38.2164 60.1223 38.0956 60.1672C37.9703 60.2147 37.8564 60.2763 37.7583 60.3511C37.6576 60.4276 37.5753 60.5244 37.5148 60.6397C37.4535 60.7559 37.422 60.9011 37.422 61.0727C37.422 61.1871 37.4351 61.3024 37.4605 61.4132C37.4859 61.5241 37.5236 61.6324 37.5718 61.7344C37.6199 61.8365 37.6804 61.9342 37.7505 62.024C37.8214 62.1146 37.902 62.1956 37.9922 62.2669C38.1665 62.4033 38.3557 62.5045 38.5545 62.5678C38.7525 62.6303 38.9583 62.6629 39.1668 62.6629C39.3122 62.6629 39.4585 62.647 39.6021 62.6171C39.744 62.5872 39.885 62.5423 40.0208 62.4833C40.1565 62.4244 40.2862 62.3513 40.407 62.2651C40.4999 62.1991 40.5884 62.1252 40.6698 62.0451C40.7031 62.1181 40.7425 62.185 40.7881 62.2449C40.8538 62.332 40.9308 62.405 41.0158 62.464C41.1008 62.5221 41.1945 62.5678 41.2943 62.5986C41.5203 62.6681 41.7787 62.6567 42.0178 62.5775C42.1501 62.5335 42.2771 62.4737 42.3962 62.4006C42.5145 62.3276 42.6274 62.2422 42.7317 62.1463C42.835 62.0512 42.9288 61.9501 43.0093 61.8462L43.033 61.8163C43.0523 61.8708 43.075 61.9236 43.1057 61.9729C43.1889 62.1076 43.2966 62.2211 43.4254 62.31C43.5524 62.3989 43.696 62.4657 43.8519 62.5097C44.0061 62.5537 44.1594 62.5757 44.3065 62.5757C44.4502 62.5757 44.5737 62.5537 44.6744 62.5089C44.776 62.464 44.8619 62.4015 44.9275 62.3232C44.9924 62.2457 45.0432 62.1542 45.0782 62.0495C45.1115 61.9492 45.136 61.8409 45.1518 61.7274C45.1675 61.6156 45.1763 61.4968 45.1789 61.3736C45.1816 61.2531 45.1824 61.1325 45.1824 61.0111C45.1824 60.8228 45.1807 60.6344 45.1763 60.4479C45.1719 60.2622 45.1702 60.0756 45.1702 59.8899C45.1702 59.7104 45.1728 59.5318 45.1763 59.354C45.1807 59.1763 45.1868 58.9967 45.1956 58.8172C45.2008 58.6852 45.2052 58.5497 45.2096 58.4124C45.2131 58.2804 45.2315 58.1511 45.2621 58.027C45.2858 57.9319 45.3235 57.8606 45.376 57.8166C45.4303 57.7709 45.4978 57.7383 45.5766 57.7216C45.6607 57.7031 45.7561 57.6943 45.8613 57.6961C45.9716 57.6978 46.089 57.6987 46.2125 57.6987H46.4945C46.5506 58.0639 46.5926 58.4318 46.6189 58.7943C46.6478 59.1771 46.6618 59.5679 46.6618 59.9551C46.6618 60.3335 46.6487 60.718 46.6224 61.1008C46.5979 61.4643 46.5602 61.8286 46.5103 62.185C46.4481 62.1885 46.3868 62.1921 46.3255 62.1956C46.2475 62.2 46.1696 62.2035 46.0916 62.207C46.0697 62.2079 46.004 62.2114 45.9725 62.2616C45.9558 62.2871 45.948 62.3188 45.948 62.3549C45.948 62.3698 45.9488 62.3848 45.9497 62.4024C45.9506 62.4165 45.9506 62.4314 45.9506 62.4464V62.515L46.0189 62.5133C46.4393 62.5018 46.8633 62.4807 47.2793 62.4525C47.6954 62.4235 48.1141 62.3707 48.524 62.2941L48.5686 62.2862L48.5774 62.2422C48.5844 62.2079 48.5905 62.1736 48.5958 62.1401L48.6238 61.95L48.5345 61.965C48.404 61.987 48.2726 62.0055 48.1395 62.0231ZM40.6698 59.8706V59.9762C40.6698 60.2701 40.6672 60.5623 40.6611 60.8456C40.6558 61.122 40.6462 61.4036 40.633 61.6843C40.5717 61.7406 40.5078 61.7943 40.4438 61.8453C40.3738 61.9008 40.2993 61.9492 40.2214 61.9914C40.1443 62.0328 40.0646 62.0671 39.9822 62.0917C39.8587 62.1296 39.7151 62.1375 39.5837 62.1173C39.5399 62.1102 39.4987 62.0988 39.4602 62.0812C39.4234 62.0644 39.3893 62.0424 39.3586 62.0152C39.3306 61.9896 39.3069 61.9562 39.2877 61.914C39.2369 61.8084 39.2009 61.6957 39.1808 61.5796C39.1606 61.4616 39.1501 61.3411 39.1501 61.2214C39.1501 61.1281 39.1563 61.0322 39.1685 60.9363C39.1799 60.8456 39.2071 60.762 39.2482 60.6855C39.2885 60.6089 39.3411 60.5403 39.4033 60.4804C39.4698 60.4171 39.539 60.3572 39.61 60.3027C39.6906 60.2393 39.7773 60.1839 39.8666 60.1381C39.9568 60.0915 40.0514 60.0501 40.1469 60.0158C40.2433 59.9815 40.3431 59.9507 40.443 59.9251C40.5192 59.9058 40.5945 59.8873 40.6698 59.8706Z" fill="white"/>
<path d="M53.9519 61.2637C53.9949 61.1176 54.0168 60.9698 54.0168 60.8228C54.0168 60.6987 54.001 60.5764 53.9686 60.4585C53.9371 60.3397 53.888 60.2279 53.8241 60.1241C53.7601 60.0211 53.6787 59.9261 53.5806 59.8416C53.4833 59.758 53.3686 59.6876 53.239 59.6322C53.0209 59.5407 52.7949 59.4782 52.5698 59.4456C52.145 59.3858 51.693 59.3884 51.2586 59.4227C51.079 59.4368 50.8994 59.4491 50.7208 59.4606C50.7348 59.2071 50.7602 58.9572 50.7943 58.7152C50.8329 58.4494 50.8854 58.1766 50.9529 57.903C50.9608 57.8713 50.9678 57.8466 50.9739 57.829C50.9783 57.8176 50.9818 57.8141 50.9818 57.8141C50.9827 57.8141 50.9862 57.8114 50.9984 57.8097C51.0186 57.807 51.0457 57.8053 51.0816 57.8035C51.1438 57.8 51.206 57.7974 51.2673 57.7947C51.3304 57.7921 51.3926 57.7894 51.4556 57.7859L51.5038 57.7833L51.5397 57.6416C51.5467 57.6126 51.5555 57.5844 51.5651 57.5554L51.5949 57.4647L51.5003 57.4674C51.0886 57.4788 50.67 57.4982 50.2583 57.5246C49.8449 57.551 49.4288 57.5941 49.0233 57.653L48.9812 57.6592L48.969 57.6997C48.9585 57.734 48.9488 57.7701 48.9392 57.8062L48.8893 58.005L48.9856 57.9927C49.0662 57.9822 49.1477 57.9725 49.2291 57.9637C49.2782 57.9584 49.3272 57.9522 49.3763 57.9461C49.2939 58.2638 49.2309 58.5885 49.1871 58.9123C49.1398 59.2687 49.1152 59.6339 49.1152 59.9974C49.1152 60.3635 49.1398 60.7304 49.1879 61.0895C49.2317 61.4142 49.2957 61.7389 49.3789 62.0583C49.3298 62.0504 49.2817 62.0425 49.2335 62.0355C49.152 62.0232 49.0706 62.0091 48.9882 61.9941L48.8849 61.9747L48.912 62.0768C48.9182 62.0997 48.9226 62.1226 48.9261 62.1446C48.9296 62.1745 48.9366 62.2027 48.9462 62.2282C48.9576 62.2581 48.9742 62.2845 48.9953 62.3039C49.0198 62.3276 49.0548 62.3426 49.0977 62.347C49.5217 62.4007 49.9631 62.4447 50.4107 62.4781C50.8574 62.5107 51.3094 62.5274 51.7552 62.5274C51.9444 62.5274 52.1345 62.5168 52.3202 62.4966C52.5093 62.4755 52.6933 62.4341 52.8658 62.3743C53.041 62.3127 53.2066 62.2264 53.3572 62.1173C53.5105 62.0073 53.6454 61.8603 53.7593 61.6808C53.8451 61.5497 53.909 61.4089 53.9519 61.2637ZM51.9365 62.0056C51.9234 62.0408 51.9041 62.0724 51.8805 62.1006C51.8586 62.127 51.827 62.1499 51.7885 62.1675C51.7263 62.1965 51.6615 62.2176 51.5949 62.2282C51.4548 62.2502 51.3032 62.2484 51.1596 62.2352C51.1009 62.23 51.044 62.2247 50.9879 62.2212C50.8995 61.9017 50.8338 61.5752 50.7926 61.2505C50.7488 60.9091 50.7225 60.5597 50.7146 60.2086C50.7129 60.1848 50.7103 60.1496 50.7059 60.1039C50.7015 60.0607 50.6997 60.0167 50.6997 59.9719C50.6997 59.927 50.7041 59.8874 50.7129 59.8539C50.7146 59.8478 50.7164 59.8443 50.7164 59.8425C50.7803 59.839 50.8443 59.8355 50.9073 59.8311C51.0335 59.8231 51.1622 59.8205 51.2971 59.8381C51.3637 59.8469 51.4285 59.8627 51.4907 59.8847C51.5511 59.9059 51.6072 59.9358 51.658 59.9736C51.7079 60.0097 51.7508 60.0572 51.7867 60.1118C51.8156 60.1584 51.8402 60.2077 51.8577 60.2596C51.8761 60.3124 51.8901 60.367 51.8988 60.4233C51.9085 60.4805 51.9155 60.5386 51.9199 60.5958C51.9242 60.6556 51.9278 60.7146 51.9313 60.7709C51.94 60.9355 51.9488 61.1009 51.9593 61.2655C51.9698 61.43 51.9742 61.5946 51.9742 61.7556C51.9742 61.8005 51.9715 61.8445 51.9654 61.8885C51.9602 61.929 51.9505 61.9686 51.9365 62.0056Z" fill="white"/>
<path d="M55.9526 62.0205C55.9167 62.0257 55.8799 62.0301 55.8431 62.0354C55.9228 61.7195 55.9832 61.3965 56.0253 61.0736C56.0708 60.7189 56.0945 60.3564 56.0945 59.9964C56.0945 59.633 56.0708 59.2669 56.0244 58.9088C55.9824 58.5849 55.9202 58.2593 55.8396 57.9399C55.8764 57.9452 55.9123 57.9513 55.9491 57.9575L56.2521 58.0094L56.2329 57.9144C56.2285 57.8897 56.2241 57.8668 56.2206 57.844C56.2162 57.8158 56.2101 57.7885 56.2004 57.7639C56.1891 57.7348 56.1733 57.7093 56.1523 57.6882C56.1269 57.6627 56.0936 57.6477 56.0515 57.6424C55.6653 57.5932 55.2738 57.5544 54.8884 57.528C54.503 57.5008 54.1106 57.4814 53.7234 57.4691L53.6288 57.4664L53.6586 57.5571C53.6665 57.5808 53.6726 57.6037 53.6788 57.6266C53.6849 57.653 53.6928 57.6794 53.7015 57.7067L53.7156 57.7489L53.7602 57.7516C53.8364 57.7568 53.9118 57.7612 53.9853 57.7639L54.2078 57.7744C54.2306 57.7762 54.2402 57.7788 54.2402 57.7762C54.2411 57.7788 54.2428 57.7832 54.2437 57.7912C54.2463 57.8096 54.2516 57.8316 54.2586 57.858C54.3532 58.2074 54.4242 58.5638 54.4697 58.9176C54.5144 59.2704 54.5371 59.6348 54.5371 59.9982C54.5371 60.3731 54.5126 60.7489 54.4636 61.1149C54.4163 61.4661 54.3444 61.8233 54.249 62.1762C54.1894 62.1797 54.1299 62.1833 54.072 62.1868C53.9985 62.1912 53.9231 62.1947 53.8461 62.1982C53.8023 62.2009 53.769 62.2123 53.7453 62.2325C53.7234 62.2501 53.7059 62.2739 53.6945 62.3012C53.6849 62.3232 53.6779 62.3478 53.6726 62.3751C53.6691 62.3953 53.6639 62.4165 53.6577 62.4385L53.6332 62.5256L53.7234 62.5229C54.1263 62.5115 54.5319 62.4895 54.9269 62.4596C55.3237 62.4288 55.7266 62.3883 56.126 62.3373L56.1715 62.3311L56.2556 61.9817L56.161 61.9932C56.0892 62.0029 56.02 62.0117 55.9526 62.0205Z" fill="white"/>
<path d="M61.4383 62.0865C61.5031 61.7617 61.5531 61.4326 61.5863 61.107C61.6223 60.7497 61.6415 60.3845 61.6415 60.0211C61.6415 59.6524 61.6223 59.2819 61.5846 58.9211C61.5504 58.5928 61.4996 58.2611 61.4331 57.9346C61.483 57.9443 61.532 57.9539 61.5811 57.9645C61.6625 57.9812 61.7431 57.9997 61.8255 58.0199L61.9201 58.0437L61.9069 57.9469C61.9034 57.9231 61.9017 57.8994 61.8999 57.8765C61.8982 57.8475 61.8929 57.8193 61.8859 57.7955C61.8771 57.7647 61.8614 57.7375 61.8386 57.7146C61.815 57.6908 61.7825 57.675 61.7405 57.6671C61.3534 57.6011 60.9618 57.5535 60.5756 57.5263C60.1902 57.499 59.7978 57.4831 59.408 57.4779L59.3712 57.477L59.3511 57.5078C59.3248 57.5483 59.3125 57.5843 59.3125 57.6178C59.3125 57.6574 59.3292 57.6935 59.3589 57.719C59.3817 57.7375 59.4106 57.7524 59.4448 57.7612C59.4737 57.7691 59.5052 57.7744 59.5411 57.7771C59.6156 57.7832 59.6997 57.7815 59.7741 57.7771C59.7864 57.7762 59.7986 57.7753 59.8091 57.7753C59.8573 58.0991 59.8906 58.4309 59.9072 58.7627C59.9239 59.1024 59.9326 59.4456 59.9335 59.7844C59.8713 59.8222 59.8039 59.8627 59.7303 59.9049C59.6462 59.9533 59.556 60 59.464 60.0422C59.373 60.0836 59.2784 60.1188 59.1838 60.1469C59.0392 60.1892 58.8965 60.2032 58.7616 60.1689C58.7151 60.1575 58.674 60.139 58.6372 60.1135C58.6013 60.0888 58.5715 60.058 58.5461 60.0202C58.5233 59.985 58.5093 59.941 58.5049 59.89C58.5014 59.8504 58.4988 59.8108 58.4979 59.7712C58.4962 59.7316 58.4953 59.6911 58.4953 59.6497C58.4953 59.538 58.4988 59.4236 58.5067 59.3109C58.5146 59.1965 58.5207 59.0848 58.526 58.9739C58.5347 58.8031 58.5452 58.6333 58.5575 58.4643C58.5706 58.2945 58.5864 58.1247 58.6065 57.9557C58.6083 57.9302 58.6092 57.9047 58.6092 57.8774C58.6092 57.8571 58.6109 57.8378 58.6144 57.8202C58.6162 57.8105 58.6197 57.8017 58.6197 57.7999L58.6363 57.7982C58.7011 57.7929 58.7651 57.7903 58.8281 57.7885C58.893 57.7867 58.9587 57.7841 59.027 57.7806L59.0865 57.7779L59.09 57.7181C59.0918 57.6891 59.0935 57.6591 59.0935 57.631C59.0944 57.6037 59.0953 57.5755 59.097 57.5474L59.1014 57.4752L59.0296 57.4761C58.6302 57.4831 58.2255 57.4999 57.8287 57.5254C57.4302 57.5518 57.0255 57.6037 56.6253 57.6803L56.5832 57.6882L56.5727 57.7295C56.5639 57.7647 56.5561 57.8017 56.5499 57.8387C56.5438 57.8739 56.5377 57.9073 56.5315 57.9407L56.5123 58.0358L56.6077 58.0199C56.6883 58.0067 56.7698 57.9935 56.8512 57.9803C56.902 57.9724 56.9528 57.9645 57.0028 57.9566C56.9564 58.2127 56.9134 58.474 56.8766 58.7327C56.8355 59.0249 56.8136 59.3215 56.8136 59.6136C56.8136 59.7175 56.8215 59.8204 56.8355 59.9199C56.8504 60.0211 56.8775 60.1179 56.9161 60.2094C56.9546 60.3018 57.008 60.3889 57.0746 60.4681C57.1412 60.5473 57.227 60.6195 57.3277 60.682C57.4451 60.7568 57.566 60.8104 57.6886 60.8412C57.9671 60.9125 58.2877 60.9002 58.6004 60.814C58.7747 60.7656 58.9481 60.704 59.1154 60.63C59.2819 60.5561 59.4457 60.4743 59.6016 60.3872C59.7189 60.3212 59.8293 60.2578 59.9344 60.1962C59.93 60.5324 59.9204 60.8668 59.9064 61.1932C59.8915 61.54 59.86 61.8946 59.8118 62.2466C59.7636 62.2484 59.7154 62.2501 59.6681 62.2519C59.6016 62.2537 59.535 62.2563 59.4675 62.2598C59.422 62.2616 59.3896 62.2633 59.3703 62.2651C59.3195 62.2695 59.2941 62.295 59.2819 62.3161C59.2687 62.339 59.2643 62.3681 59.267 62.4033C59.2687 62.4244 59.2678 62.4543 59.2643 62.4939L59.2591 62.5661L59.3318 62.5652C59.7478 62.5617 60.1674 62.5467 60.5791 62.5203C60.9934 62.4939 61.4085 62.4411 61.8132 62.3628L61.8579 62.354L61.8868 62.2044C61.8938 62.1683 61.8999 62.1322 61.9052 62.0953L61.9174 62.0055L61.5855 62.0609C61.5364 62.0715 61.4874 62.0794 61.4383 62.0865Z" fill="white"/>
<path d="M19.0564 51.793C19.1799 52.1098 19.3437 52.4011 19.5416 52.659C19.7396 52.9168 19.9726 53.1403 20.2336 53.3234C20.4946 53.5064 20.7889 53.6498 21.1086 53.7502C21.4283 53.8496 21.7769 53.9006 22.1474 53.9006C22.3121 53.9006 22.4785 53.8874 22.6397 53.861C22.8017 53.8346 22.9637 53.7924 23.1223 53.7352C23.2703 53.6806 23.4166 53.6155 23.5558 53.5425C23.6934 53.4712 23.8326 53.4017 23.9719 53.3357C24.0008 53.3225 24.0332 53.311 24.0674 53.3022C24.1278 53.2864 24.1882 53.2855 24.2417 53.2996C24.2636 53.3049 24.2811 53.3137 24.296 53.326C24.31 53.3374 24.3223 53.3524 24.3319 53.3718C24.3407 53.3894 24.3459 53.4131 24.3459 53.4422V53.5381L24.5447 53.5002C24.5806 53.4932 24.6166 53.4853 24.6498 53.4774C24.6849 53.4703 24.712 53.4606 24.7331 53.4474C24.7585 53.4307 24.7777 53.4078 24.7882 53.3806C24.797 53.3594 24.8014 53.3357 24.8022 53.3102C24.8031 53.2943 24.8049 53.275 24.8075 53.2565C24.8653 52.9538 24.9126 52.644 24.9485 52.336C24.9836 52.0306 25.0133 51.7191 25.0361 51.4093C25.0396 51.3469 25.044 51.2853 25.051 51.2237C25.058 51.1577 25.0615 51.0925 25.0615 51.0257C25.0615 50.9614 25.0274 50.9069 24.9643 50.8743C24.9258 50.8541 24.8679 50.8285 24.79 50.7969L24.7112 50.7652L24.6858 50.8461C24.6087 51.0899 24.5246 51.3301 24.4352 51.5598C24.3976 51.6575 24.3564 51.7587 24.3126 51.8625C24.2688 51.9655 24.2233 52.0667 24.176 52.1635C24.1296 52.2594 24.0796 52.3518 24.0288 52.4398C23.9798 52.5252 23.9281 52.6 23.8782 52.6642C23.7827 52.7848 23.6741 52.9001 23.5567 53.0083C23.4402 53.1148 23.3115 53.2107 23.1757 53.2926C23.0408 53.3735 22.8972 53.4386 22.7474 53.487C22.4294 53.5891 22.0756 53.5777 21.8111 53.4791C21.6692 53.4263 21.5404 53.3533 21.4283 53.2609C21.3162 53.1685 21.2163 53.0585 21.134 52.9353C21.0499 52.8094 20.9781 52.6722 20.9203 52.5296C20.8625 52.3844 20.8152 52.233 20.7819 52.0773C20.7477 51.9215 20.725 51.7657 20.7136 51.6144C20.6987 51.4199 20.689 51.2219 20.6838 51.0248C20.6785 50.8268 20.6759 50.6279 20.6759 50.4281C20.6759 50.2372 20.6759 50.0436 20.675 49.8491C20.6742 49.6555 20.6768 49.4592 20.6838 49.2656C20.6908 49.0712 20.7031 48.8758 20.7206 48.6848C20.739 48.4939 20.7661 48.302 20.802 48.1146C20.8266 47.987 20.8572 47.855 20.894 47.7212C20.9308 47.5901 20.9763 47.4608 21.0315 47.3367C21.0858 47.2135 21.1515 47.0956 21.2268 46.9847C21.3004 46.8773 21.3889 46.7814 21.4914 46.6987C21.6175 46.5966 21.7594 46.5227 21.9118 46.4787C22.2595 46.3766 22.6475 46.3951 22.9559 46.4883C23.1267 46.5403 23.2861 46.6133 23.4297 46.7048C23.5742 46.7972 23.7056 46.9072 23.8204 47.0331C23.9369 47.1589 24.0437 47.2988 24.1366 47.4476C24.2294 47.5972 24.3117 47.7573 24.3818 47.9236C24.4519 48.09 24.5123 48.2616 24.5605 48.4296L24.5728 48.4807C24.5771 48.5 24.5824 48.5185 24.5894 48.5352C24.5973 48.5546 24.6087 48.574 24.6236 48.5924C24.6393 48.6118 24.6595 48.6294 24.6814 48.6444C24.7033 48.6602 24.7252 48.676 24.7453 48.6928C24.7663 48.7095 24.7874 48.7271 24.8084 48.7456L24.9503 48.867L24.938 48.6804C24.9126 48.295 24.8802 47.9113 24.8399 47.5382C24.7996 47.1624 24.7427 46.7814 24.6691 46.4047L24.6595 46.3546L24.4677 46.3088C24.4195 46.2974 24.3704 46.2877 24.3205 46.2789L24.2084 46.2604L24.2303 46.3731C24.2312 46.3775 24.2312 46.3845 24.2312 46.3924C24.2312 46.4338 24.2163 46.4426 24.2093 46.447C24.1506 46.4804 24.0323 46.4787 23.8922 46.4523C23.8195 46.4382 23.7442 46.4206 23.668 46.3986C23.59 46.3766 23.5129 46.3519 23.4359 46.3255C23.3579 46.2991 23.287 46.2736 23.2213 46.2499L23.0487 46.1856C22.9953 46.1654 22.9567 46.1531 22.9331 46.1478C22.5048 46.0457 22.0397 46.0633 21.6263 46.1707C21.3959 46.2305 21.1743 46.315 20.9658 46.4232C20.7591 46.5306 20.5612 46.66 20.3764 46.8087C20.1933 46.9565 20.0207 47.1202 19.8631 47.2962C19.7063 47.4713 19.56 47.6605 19.4286 47.8576C19.2972 48.0539 19.1799 48.2589 19.0783 48.4657C18.9539 48.7165 18.8628 48.9796 18.8059 49.248C18.7489 49.5147 18.72 49.791 18.72 50.0682C18.72 50.3648 18.7498 50.6631 18.8094 50.9526C18.8672 51.2404 18.9504 51.5237 19.0564 51.793Z" fill="white"/>
<path d="M28.8367 53.6666C29.0399 53.6613 29.244 53.6525 29.4437 53.6384C29.4884 53.6358 29.5243 53.6217 29.5523 53.5971C29.5768 53.5759 29.5943 53.5487 29.6057 53.5179C29.6145 53.4941 29.6206 53.4668 29.6241 53.4369C29.6259 53.4167 29.6294 53.3955 29.6338 53.3753L29.6565 53.2697L29.5497 53.2803C29.4638 53.2882 29.378 53.2961 29.2922 53.3031C29.2387 53.3075 29.1853 53.3111 29.1319 53.3146C29.1835 52.9679 29.2186 52.6167 29.2352 52.2691C29.2536 51.8907 29.2632 51.5053 29.2632 51.1234C29.2632 50.7458 29.2536 50.363 29.2343 49.9855C29.2168 49.6405 29.1809 49.2921 29.1275 48.9471C29.2939 48.9621 29.4489 49.0061 29.5882 49.0782C29.7555 49.1653 29.9053 49.2841 30.0323 49.432C30.1619 49.5816 30.2714 49.7576 30.3599 49.9556C30.4492 50.1562 30.5158 50.3718 30.5596 50.5962C30.5675 50.6367 30.585 50.6702 30.6095 50.6957C30.6296 50.7159 30.6542 50.7326 30.6813 50.7467C30.7041 50.7582 30.7295 50.7687 30.7549 50.7775C30.775 50.7846 30.7943 50.7916 30.8136 50.8004L30.9353 50.8567L30.9248 50.7221C30.9012 50.4167 30.867 50.1131 30.8232 49.8174C30.7794 49.52 30.7181 49.219 30.6428 48.9198C30.6332 48.8837 30.6218 48.8573 30.6069 48.8389C30.5894 48.816 30.5675 48.7993 30.5403 48.7896C30.5219 48.7825 30.5009 48.779 30.4755 48.7773C30.4615 48.7764 30.4448 48.7746 30.4273 48.772C30.0656 48.713 29.7038 48.6699 29.3526 48.6417C28.623 48.5845 27.8697 48.5863 27.1436 48.6479C26.7669 48.6796 26.3868 48.7289 26.0145 48.7949L25.9655 48.8037L25.9524 48.8521C25.877 49.1249 25.8166 49.4021 25.7728 49.6766C25.729 49.9512 25.694 50.2328 25.6677 50.5082C25.6642 50.5285 25.6607 50.5514 25.6554 50.5751C25.6493 50.6059 25.6467 50.635 25.6467 50.6631C25.6467 50.723 25.6712 50.7582 25.6913 50.7775C25.7132 50.7978 25.7395 50.8136 25.7702 50.8233C25.7947 50.8312 25.821 50.8374 25.849 50.8418L25.9909 50.8646L26.0032 50.7854C26.0391 50.5575 26.0951 50.334 26.1705 50.1228C26.2449 49.9151 26.3535 49.718 26.4945 49.5385C26.5637 49.4496 26.6382 49.3695 26.7144 49.3017C26.7897 49.2349 26.8712 49.1777 26.9553 49.131C27.0393 49.0853 27.1313 49.0483 27.2268 49.0228C27.2951 49.0043 27.3678 48.9911 27.444 48.9823C27.3906 49.3299 27.3555 49.681 27.3389 50.0251C27.3205 50.4035 27.3109 50.789 27.3109 51.1709C27.3109 51.551 27.3205 51.9347 27.3398 52.3087C27.3573 52.6546 27.3941 53.0039 27.4484 53.348C27.395 53.3454 27.3407 53.3419 27.2872 53.3383C27.2014 53.3331 27.1164 53.3251 27.0323 53.3172L26.9281 53.3067L26.9474 53.4105C26.9579 53.4668 26.971 53.5214 26.9868 53.5759L27.0026 53.6296L27.0577 53.6331C27.2557 53.6463 27.451 53.6569 27.6437 53.6631C27.8373 53.6701 28.0326 53.6727 28.2306 53.6727C28.432 53.6736 28.6352 53.671 28.8367 53.6666Z" fill="white"/>
<path d="M35.9455 53.7175C36.0769 53.6735 36.2039 53.6146 36.3221 53.5415C36.4404 53.4694 36.5525 53.384 36.6558 53.289C36.7583 53.1948 36.8511 53.0945 36.9317 52.9907L36.9729 52.9379L36.8739 52.8287C36.8555 52.8067 36.8363 52.7865 36.8179 52.7654L36.753 52.695L36.697 52.7724C36.6926 52.7786 36.6768 52.7971 36.6339 52.8349C36.5989 52.8648 36.5595 52.8956 36.5148 52.9264C36.4719 52.9563 36.4272 52.9819 36.3817 53.0039C36.3151 53.0355 36.2625 53.0311 36.2573 53.0232C36.2538 53.0171 36.2406 52.9915 36.2406 52.915C36.2406 52.8789 36.2441 52.8419 36.2503 52.8041C36.2573 52.7627 36.266 52.7205 36.2748 52.6791L36.3011 52.5515C36.3098 52.5084 36.3168 52.4662 36.3221 52.4248C36.3458 52.218 36.3633 52.0095 36.3747 51.8035C36.386 51.595 36.3922 51.3855 36.3922 51.1796C36.3922 50.9306 36.3843 50.678 36.3685 50.429C36.3528 50.1817 36.3282 49.9291 36.2967 49.6801L36.2766 49.534C36.2695 49.483 36.2599 49.4319 36.2477 49.3826C36.2354 49.3325 36.2196 49.2832 36.2012 49.2348C36.182 49.1855 36.1574 49.1362 36.1277 49.087C36.0672 48.9937 35.9936 48.9118 35.9096 48.8441C35.8272 48.7772 35.7361 48.7209 35.638 48.6751C35.5417 48.6311 35.4392 48.5941 35.3323 48.5669C35.2272 48.5405 35.1186 48.5193 35.01 48.5053C34.9014 48.4912 34.791 48.4815 34.6842 48.4771C34.4109 48.4665 34.163 48.4692 33.9125 48.4859C33.7575 48.4965 33.6007 48.5158 33.4483 48.5449C33.295 48.5739 33.1426 48.6144 32.9946 48.6663C32.8457 48.7182 32.7003 48.7869 32.5636 48.8722C32.4646 48.9338 32.3648 49.0069 32.2684 49.0887C32.1703 49.1723 32.081 49.2647 32.003 49.3659C31.9242 49.468 31.8594 49.5789 31.8112 49.695C31.7622 49.8147 31.7368 49.9414 31.7368 50.0717C31.7368 50.1843 31.756 50.2926 31.7928 50.392C31.8305 50.4914 31.8822 50.5794 31.9461 50.6534C32.0109 50.7282 32.0898 50.788 32.1791 50.8311C32.3709 50.9235 32.6118 50.9174 32.815 50.8126C32.921 50.7581 33.0147 50.685 33.0935 50.5944C33.1715 50.5055 33.2346 50.4017 33.281 50.2873C33.3283 50.1711 33.3519 50.0506 33.3519 49.9282C33.3519 49.8508 33.3414 49.7751 33.3195 49.703C33.2985 49.6308 33.2652 49.5613 33.2188 49.4944C33.1951 49.4618 33.1689 49.4293 33.1382 49.395C33.1111 49.3659 33.0857 49.336 33.0611 49.3061C33.0392 49.2788 33.0208 49.2515 33.0051 49.2234C32.9937 49.2031 32.9884 49.1829 32.9884 49.1609C32.9884 49.1274 33.0059 49.0896 33.0419 49.0491C33.0874 48.9963 33.1452 48.9532 33.2127 48.9224C33.2854 48.8889 33.3616 48.8634 33.4404 48.8458C33.521 48.8282 33.5998 48.8168 33.676 48.8115C33.754 48.8062 33.8205 48.8027 33.8757 48.8027C33.9589 48.8027 34.0439 48.8115 34.1262 48.83C34.2051 48.8467 34.2778 48.8784 34.3426 48.9215C34.3829 48.9497 34.4161 48.9831 34.4424 49.0183C34.4696 49.0553 34.4923 49.0966 34.5099 49.1398C34.5274 49.1846 34.5405 49.2313 34.5475 49.2797C34.5554 49.3316 34.5607 49.3835 34.5642 49.4337L34.5791 49.7487C34.5834 49.8561 34.5878 49.9634 34.5913 50.069C34.5948 50.1755 34.5975 50.2802 34.6001 50.3832C34.6027 50.4809 34.6036 50.5733 34.6036 50.6604C34.6001 50.6613 34.5966 50.6622 34.5922 50.663C34.2305 50.7334 33.8661 50.8144 33.5096 50.9042C33.1522 50.9939 32.7914 51.0898 32.4366 51.1902C32.3087 51.2254 32.1826 51.2667 32.0626 51.3116C31.9382 51.3582 31.8252 51.4198 31.7263 51.4947C31.6247 51.5721 31.5423 51.6689 31.4819 51.7842C31.4206 51.9003 31.389 52.0464 31.389 52.218C31.389 52.3324 31.4022 52.4468 31.4276 52.5577C31.453 52.6686 31.4898 52.7759 31.5379 52.878C31.5861 52.9792 31.6457 53.0769 31.7157 53.1667C31.7858 53.2564 31.8664 53.3374 31.9566 53.4087C32.1292 53.5442 32.3175 53.6454 32.5163 53.7079C32.7125 53.7703 32.9175 53.802 33.1251 53.802C33.2696 53.802 33.415 53.7871 33.5578 53.7563C33.6997 53.7263 33.8398 53.6815 33.9738 53.6234C34.1078 53.5653 34.2375 53.4923 34.3583 53.4069C34.4459 53.3444 34.5291 53.2758 34.6062 53.201C34.6377 53.267 34.6745 53.3286 34.7166 53.384C34.7823 53.4711 34.8594 53.5451 34.9452 53.6031C35.0302 53.6621 35.1239 53.707 35.2237 53.7378C35.4488 53.8073 35.7063 53.7967 35.9455 53.7175ZM34.1648 53.113C34.0894 53.1543 34.0106 53.1869 33.9309 53.2115C33.81 53.2485 33.6681 53.2564 33.5429 53.2371C33.5008 53.2309 33.4605 53.2186 33.4238 53.2027C33.3887 53.1869 33.3563 53.1658 33.3274 53.1403C33.3002 53.1156 33.2792 53.0848 33.2608 53.0435C33.2109 52.9405 33.1759 52.8305 33.1566 52.717C33.1365 52.6008 33.1259 52.482 33.1259 52.365C33.1259 52.2735 33.1321 52.1793 33.1443 52.0851C33.1557 51.9971 33.1811 51.9162 33.2223 51.8423C33.2617 51.7683 33.3125 51.7015 33.3729 51.6425C33.4386 51.58 33.5061 51.521 33.5762 51.4682C33.655 51.4058 33.74 51.3521 33.8275 51.3063C33.9169 51.2606 34.0097 51.2201 34.1034 51.1866C34.198 51.1523 34.2961 51.1224 34.3951 51.0969C34.4643 51.0793 34.5326 51.0626 34.6018 51.0467V51.1347C34.6018 51.4225 34.5992 51.7085 34.5931 51.9936C34.5878 52.2682 34.5782 52.5445 34.5659 52.8164C34.5064 52.871 34.4451 52.9229 34.3837 52.9713C34.3128 53.0241 34.2401 53.0725 34.1648 53.113Z" fill="white"/>
<path d="M42.4577 52.3439C42.5602 52.1696 42.6329 51.9813 42.6731 51.7851C42.7134 51.5915 42.7336 51.3935 42.7336 51.1963C42.7336 50.9807 42.7117 50.759 42.6696 50.5372C42.6267 50.3146 42.5628 50.0955 42.4778 49.886C42.392 49.6748 42.2834 49.4742 42.1546 49.2903C42.0241 49.1037 41.8691 48.9391 41.693 48.7992C41.5161 48.6593 41.3146 48.5466 41.0922 48.4657C40.8697 48.3838 40.62 48.3425 40.3503 48.3425C40.0157 48.3425 39.731 48.4199 39.5042 48.573C39.371 48.6628 39.2545 48.7737 39.1555 48.9048C39.1573 48.8846 39.1599 48.8643 39.1617 48.8441C39.1748 48.7112 39.1906 48.5774 39.209 48.4428L39.2256 48.3187L39.1065 48.3574C38.9191 48.4182 38.7272 48.4674 38.5372 48.5035C38.3436 48.5405 38.1483 48.5757 37.9521 48.6091C37.8154 48.6329 37.6805 48.6593 37.5465 48.6892C37.4125 48.7182 37.2785 48.7499 37.1445 48.7842L37.0902 48.7974L37.0849 48.8529C37.0814 48.8863 37.0779 48.9206 37.0727 48.9532C37.0674 48.9893 37.063 49.0254 37.0595 49.0615L37.049 49.1741L37.1585 49.1451C37.2391 49.1239 37.3197 49.1046 37.3985 49.087C37.4432 49.0773 37.487 49.0676 37.5316 49.0579C37.3924 50.0699 37.3214 51.1013 37.3214 52.1256C37.3214 52.6835 37.3424 53.2459 37.3845 53.7985C37.423 54.3107 37.4808 54.829 37.557 55.3412C37.5141 55.3297 37.4712 55.3174 37.4292 55.306C37.3486 55.284 37.2689 55.2593 37.1909 55.2329L37.0709 55.1924L37.0876 55.3183C37.0902 55.3403 37.0919 55.3605 37.0919 55.3808C37.0919 55.4107 37.0954 55.4397 37.1016 55.4652C37.1094 55.496 37.1226 55.5233 37.141 55.548C37.1638 55.577 37.197 55.5972 37.2408 55.6087C37.6306 55.7116 38.03 55.7838 38.4294 55.8234C38.8271 55.863 39.2317 55.8859 39.632 55.8929L39.7161 55.8947L39.7012 55.577H39.4052C39.3342 55.577 39.2615 55.5752 39.1836 55.5717C39.1792 55.5717 39.1731 55.5744 39.1731 55.5708C39.1739 55.5506 39.1731 55.526 39.1713 55.4934C39.1266 55.0921 39.0942 54.6847 39.075 54.2825C39.0609 53.9824 39.0496 53.678 39.0417 53.3726C39.1258 53.4852 39.2256 53.5785 39.3412 53.6516C39.5401 53.7783 39.7739 53.8425 40.0358 53.8425C40.1611 53.8425 40.2898 53.8267 40.4168 53.795C40.5412 53.7642 40.6656 53.7228 40.7865 53.6736C40.9065 53.6243 41.0238 53.5671 41.1368 53.5055C41.2489 53.4439 41.3567 53.3796 41.4574 53.3163C41.5538 53.2556 41.6492 53.1887 41.7438 53.1192C41.8384 53.0488 41.9295 52.9731 42.0145 52.8939C42.1003 52.8147 42.1809 52.7284 42.2553 52.6378C42.3289 52.5445 42.3972 52.4468 42.4577 52.3439ZM40.0779 48.6883C40.1838 48.6883 40.2767 48.7042 40.3546 48.735C40.4326 48.7666 40.5009 48.8089 40.5579 48.8617C40.6157 48.9154 40.6647 48.9779 40.7033 49.05C40.7444 49.1257 40.7795 49.2058 40.8075 49.2885C40.8364 49.373 40.86 49.461 40.8784 49.5499C40.8977 49.6423 40.9143 49.7311 40.9292 49.8165C40.9713 50.0814 40.9958 50.3498 41.0019 50.6155C41.0072 50.8707 41.0116 51.1259 41.0151 51.3811L41.0133 51.3961C41.0098 51.4313 41.0081 51.4612 41.0063 51.4859L41.0037 51.5501C41.0028 51.573 41.0028 51.5888 41.0028 51.6055L40.9941 51.8097C40.987 51.9443 40.9722 52.0799 40.952 52.2127C40.9319 52.3439 40.903 52.4732 40.8644 52.5982C40.8276 52.7187 40.776 52.8279 40.7103 52.9255C40.6682 52.9889 40.6174 53.0461 40.5587 53.0963C40.4992 53.1473 40.4344 53.1904 40.366 53.2256C40.2977 53.2608 40.225 53.2881 40.1488 53.3066C39.9701 53.3497 39.7792 53.3409 39.6513 53.2952C39.5777 53.2696 39.5138 53.2336 39.4595 53.1896C39.4061 53.1456 39.3605 53.0928 39.3246 53.032C39.2869 52.9678 39.2536 52.8992 39.2274 52.827C39.2002 52.7539 39.1783 52.6774 39.1617 52.5973C39.1442 52.5137 39.1284 52.4319 39.1135 52.35C39.0872 52.2075 39.0688 52.0631 39.0583 51.9215C39.0478 51.7789 39.0426 51.6319 39.0426 51.485C39.0426 51.3591 39.0461 51.2333 39.0522 51.1075C39.0592 50.9807 39.0671 50.8549 39.0776 50.7299C39.0855 50.6182 39.0977 50.4888 39.1117 50.3419C39.1266 50.1967 39.1485 50.0453 39.1783 49.8913C39.2072 49.7391 39.2466 49.5868 39.2948 49.439C39.3412 49.2947 39.4025 49.1644 39.4752 49.0518C39.5453 48.9426 39.632 48.8529 39.7319 48.786C39.8291 48.72 39.9421 48.6883 40.0779 48.6883Z" fill="white"/>
<path d="M43.0463 53.0805L42.9281 53.0532L42.9526 53.1729C42.957 53.1957 42.9605 53.2177 42.9631 53.2389C42.9658 53.2679 42.971 53.2952 42.978 53.3198C42.9877 53.3524 43.0034 53.3806 43.0253 53.4034C43.0499 53.4298 43.0849 53.4474 43.1296 53.4562C43.5115 53.5196 43.8986 53.5662 44.2805 53.5926C44.6633 53.619 45.0513 53.6366 45.4358 53.6428L45.526 53.6446L45.5155 53.5548C45.5129 53.5302 45.5103 53.5064 45.5103 53.4826C45.5094 53.4545 45.5068 53.4254 45.5032 53.3946L45.4945 53.3198L45.42 53.3251C45.3964 53.3269 45.3736 53.3278 45.3517 53.3278H45.1275C45.1003 53.3278 45.0732 53.3278 45.046 53.3269C45.0443 53.3128 45.0434 53.2987 45.0434 53.2864C45.0434 53.2644 45.046 53.2424 45.0513 53.2204C45.0574 53.1958 45.0671 53.1658 45.0802 53.1333C45.3351 52.5155 45.5917 51.9004 45.8501 51.2861C46.0647 50.7757 46.2775 50.2574 46.4851 49.7408C46.5 49.9327 46.5123 50.1236 46.5219 50.3137C46.5368 50.6103 46.5438 50.9157 46.5438 51.2219C46.5438 51.551 46.5342 51.8889 46.5149 52.2242C46.4956 52.5595 46.4597 52.8957 46.4072 53.2248C46.4028 53.2574 46.3984 53.282 46.4019 53.297C46.3862 53.2996 46.3625 53.3014 46.3292 53.3022C46.2872 53.3058 46.246 53.3075 46.2048 53.3084C46.1619 53.3093 46.1181 53.3102 46.0778 53.3119C46.0314 53.3119 45.9946 53.3251 45.9684 53.3515C45.9473 53.3726 45.9324 53.399 45.9254 53.4298C45.9193 53.4545 45.9176 53.4818 45.9202 53.5108C45.9219 53.5284 45.9219 53.5469 45.9219 53.5645V53.6446L46.0016 53.6437C46.4028 53.6366 46.804 53.619 47.1946 53.5909C47.5853 53.5627 47.9856 53.5134 48.3832 53.4448L48.434 53.436L48.4463 53.385C48.455 53.348 48.462 53.3119 48.4682 53.2758C48.4734 53.2424 48.4804 53.2081 48.4866 53.1729L48.5076 53.062L48.3964 53.0805C48.3166 53.0937 48.2369 53.1069 48.1564 53.1192C48.1134 53.1262 48.0705 53.1324 48.0276 53.1386C48.0915 52.8244 48.1406 52.5049 48.1747 52.1881C48.2124 51.8344 48.2317 51.4727 48.2317 51.1137C48.2317 50.4299 48.1625 49.7435 48.025 49.0729C48.067 49.0808 48.1091 49.0896 48.1511 49.0984C48.2317 49.1152 48.3123 49.1328 48.3937 49.1512L48.5128 49.1785L48.4874 49.058C48.4831 49.0377 48.4804 49.0175 48.4787 48.9972C48.4769 48.9673 48.4717 48.9392 48.4647 48.9136C48.455 48.8811 48.4384 48.852 48.4147 48.8283C48.3893 48.8028 48.3552 48.786 48.3105 48.7772C47.9242 48.7139 47.5362 48.6672 47.1561 48.6408C46.7786 48.6144 46.3905 48.5968 46.0016 48.5907L45.9105 48.5889L45.9219 48.6796C45.9254 48.7042 45.9272 48.728 45.9272 48.7508C45.9281 48.779 45.9307 48.808 45.9342 48.8371L45.9421 48.9066H46.232C46.2828 48.9066 46.3336 48.9075 46.3853 48.9075C46.3844 48.9356 46.38 48.9629 46.3721 48.9893C46.3625 49.0254 46.3502 49.0606 46.3354 49.0958C46.3205 49.1328 46.3038 49.168 46.2863 49.204C46.267 49.2428 46.2495 49.2815 46.2346 49.3184C45.9964 49.8825 45.7581 50.4484 45.5208 51.0142C45.3272 51.4753 45.1354 51.9435 44.9479 52.4081C44.9339 52.2242 44.9225 52.0394 44.9138 51.8573C44.8998 51.5651 44.8927 51.2685 44.8927 50.9746C44.8927 50.6508 44.9024 50.319 44.9225 49.9881C44.9427 49.6581 44.9786 49.329 45.0294 49.0096L45.0381 48.9365C45.053 48.9339 45.0758 48.9321 45.1196 48.9295L45.3631 48.9198C45.4454 48.9163 45.4805 48.8776 45.4954 48.8459C45.5085 48.8177 45.5155 48.7852 45.5155 48.7482C45.5155 48.7385 45.5146 48.728 45.5138 48.7192C45.5129 48.7139 45.5129 48.7086 45.5129 48.7033C45.5129 48.6954 45.5129 48.6884 45.5138 48.684L45.533 48.5872L45.4349 48.5889C45.0373 48.596 44.6352 48.6127 44.2411 48.6391C43.8434 48.6664 43.444 48.7165 43.0542 48.7887L43.0017 48.7984L42.9281 49.1688L43.2828 49.1116C43.3258 49.1046 43.3678 49.0984 43.4107 49.0923C43.2758 49.7558 43.2075 50.4369 43.2075 51.1172C43.2075 51.8018 43.2767 52.4882 43.4151 53.1597C43.3731 53.1509 43.331 53.143 43.289 53.1333C43.2084 53.1174 43.1278 53.099 43.0463 53.0805Z" fill="white"/>
<path d="M51.4418 53.6639H51.5259L51.5154 53.4958C51.5136 53.4694 51.5127 53.443 51.5127 53.4166V53.3374H51.4339C51.3682 53.3374 51.3052 53.3391 51.2421 53.3435C51.151 53.3497 51.0765 53.355 51.024 53.3435C51.0126 53.3409 51.0038 53.3365 50.996 53.3295C50.9872 53.3215 50.9793 53.3092 50.9723 53.2925C50.9636 53.2714 50.9566 53.2406 50.9522 53.1992C50.911 52.8851 50.8812 52.5621 50.8637 52.2391C50.8471 51.9223 50.8383 51.6029 50.8383 51.279C50.8462 51.2773 50.8576 51.2755 50.8716 51.2738C50.9364 51.2658 51.0012 51.257 51.066 51.25C51.1273 51.243 51.1904 51.2394 51.2517 51.2394C51.4453 51.2394 51.5977 51.2843 51.7054 51.3723C51.8158 51.4621 51.899 51.5941 51.9542 51.7622C51.9849 51.859 52.0129 51.9575 52.0365 52.0552C52.0602 52.1547 52.0821 52.255 52.1022 52.3562C52.1224 52.4583 52.1408 52.5595 52.1592 52.6615C52.1776 52.7636 52.1968 52.8666 52.217 52.9704C52.2389 53.0795 52.266 53.179 52.2975 53.267C52.3308 53.362 52.3799 53.4447 52.4429 53.5134C52.5069 53.5829 52.591 53.6366 52.6926 53.6735C52.7907 53.7087 52.9159 53.7272 53.064 53.7272C53.2926 53.7272 53.5124 53.6823 53.72 53.5926C53.9276 53.5037 54.1133 53.3726 54.2718 53.2045C54.2876 53.1887 54.306 53.1693 54.3252 53.1473C54.3454 53.1244 54.3629 53.1024 54.3804 53.0804C54.3979 53.0575 54.4137 53.0347 54.4269 53.0127C54.4461 52.9801 54.4558 52.9528 54.4558 52.9255C54.4558 52.8798 54.4339 52.8384 54.3936 52.8103C54.3796 52.8006 54.3638 52.7865 54.348 52.7689L54.2753 52.6897L54.2219 52.783C54.2105 52.8032 54.1921 52.8279 54.1676 52.856C54.1413 52.8868 54.1115 52.9167 54.0774 52.9475C54.045 52.9766 54.0117 53.0012 53.9766 53.0206C53.925 53.0505 53.8785 53.0443 53.8654 53.0303C53.8488 53.0127 53.8347 52.9889 53.8234 52.959C53.8102 52.9255 53.8015 52.8859 53.7962 52.8419C53.791 52.7944 53.7883 52.7487 53.7883 52.7029C53.7883 52.6378 53.791 52.5744 53.7953 52.5119C53.8006 52.4451 53.8032 52.3852 53.8032 52.3333C53.8032 52.2136 53.7971 52.0922 53.7848 51.9725C53.7726 51.8493 53.748 51.7287 53.713 51.6152C53.6771 51.4982 53.6237 51.3882 53.5553 51.287C53.4861 51.184 53.3933 51.0934 53.2803 51.0177C53.2059 50.9675 53.1261 50.927 53.0429 50.8962C52.9624 50.8663 52.8783 50.8426 52.7933 50.8267C52.7092 50.81 52.6234 50.7994 52.5384 50.7942C52.4088 50.7862 52.28 50.7827 52.1513 50.7906C52.1644 50.781 52.1749 50.7713 52.1819 50.7642C52.2783 50.671 52.3545 50.5618 52.4079 50.4422C52.4587 50.3269 52.499 50.2054 52.5262 50.0796C52.5533 49.9573 52.5735 49.8297 52.5848 49.7012C52.5962 49.5762 52.6094 49.4574 52.6251 49.3413C52.6278 49.3149 52.6339 49.2841 52.6418 49.2471C52.6488 49.2128 52.6593 49.1793 52.6733 49.1477C52.6847 49.1204 52.7005 49.0975 52.718 49.079C52.725 49.072 52.7355 49.0649 52.7574 49.0649C52.7942 49.0649 52.8082 49.0773 52.817 49.0869C52.838 49.1142 52.8546 49.1477 52.866 49.1864C52.8791 49.2321 52.8897 49.2788 52.8975 49.3272C52.9072 49.387 52.9203 49.4354 52.9387 49.4759C52.9685 49.541 53.0132 49.6088 53.0718 49.6766C53.1296 49.7434 53.1971 49.8059 53.2724 49.8605C53.3477 49.9159 53.4292 49.9617 53.515 49.9969C53.6718 50.0611 53.8374 50.0726 53.9723 50.0127C54.0309 49.9863 54.0826 49.9494 54.1264 49.9027C54.1702 49.8561 54.2044 49.7989 54.228 49.7338C54.2508 49.6704 54.2631 49.5991 54.2631 49.5234C54.2631 49.3659 54.2289 49.2198 54.1615 49.0905C54.0949 48.9629 54.0055 48.852 53.8934 48.7605C53.7831 48.6707 53.6552 48.5994 53.5115 48.551C53.3066 48.4815 53.0788 48.4577 52.8713 48.4956C52.8056 48.5079 52.7425 48.5281 52.6838 48.5563C52.6243 48.5845 52.5699 48.6214 52.5209 48.6654C52.4701 48.7112 52.4281 48.7675 52.3956 48.8335C52.365 48.8942 52.3405 48.9576 52.3212 49.0227C52.3028 49.0869 52.2879 49.1512 52.2765 49.2145C52.2651 49.2779 52.2564 49.3421 52.2485 49.4055C52.2415 49.4671 52.2327 49.5278 52.2222 49.5877C52.203 49.7162 52.1775 49.8455 52.146 49.974C52.1162 50.0972 52.0724 50.2186 52.0164 50.3339C51.9603 50.4501 51.8876 50.5416 51.8 50.6058C51.7081 50.6727 51.6056 50.7238 51.4952 50.759C51.3814 50.795 51.2596 50.8214 51.1344 50.8364C51.0345 50.8487 50.9364 50.861 50.8401 50.8734C50.8444 50.561 50.8541 50.2477 50.869 49.9406C50.8856 49.6035 50.9171 49.2621 50.9636 48.925L50.9653 48.9153H50.9679C51.0266 48.9118 51.0853 48.9083 51.144 48.9039C51.2009 48.8995 51.257 48.8977 51.3139 48.8977C51.3253 48.8977 51.3358 48.8986 51.3437 48.8986C51.3568 48.8995 51.3691 48.9004 51.3796 48.9004C51.4462 48.9004 51.4961 48.8573 51.5057 48.7913C51.5101 48.7622 51.5154 48.7121 51.5206 48.6408L51.5268 48.5537L51.44 48.5563C51.0275 48.5677 50.6097 48.5897 50.1963 48.6205C49.7828 48.6513 49.3677 48.7059 48.963 48.7816L48.9105 48.7913L48.8999 48.8441C48.8929 48.8784 48.8868 48.9136 48.8807 48.9497C48.8745 48.9857 48.8693 49.0201 48.864 49.0544L48.8483 49.1617L48.9551 49.1441C49.034 49.1309 49.1137 49.1186 49.1925 49.1081C49.2363 49.1019 49.2801 49.0957 49.3239 49.0896C49.2021 49.7549 49.1399 50.4351 49.1399 51.1127C49.1399 51.477 49.1575 51.8431 49.1925 52.2013C49.224 52.5207 49.2696 52.8437 49.3291 53.1631C49.2871 53.1535 49.2442 53.1447 49.2021 53.135C49.1224 53.1165 49.0427 53.0963 48.963 53.0734L48.8483 53.0399L48.8632 53.1587C48.8667 53.1825 48.8684 53.2054 48.8702 53.2274C48.8719 53.2564 48.8763 53.2837 48.8824 53.3083C48.8903 53.3427 48.9061 53.3726 48.9289 53.3972C48.9543 53.4245 48.9884 53.4421 49.0313 53.4491C49.429 53.5283 49.8336 53.5838 50.2331 53.6146C50.6325 53.6454 51.0389 53.6621 51.4418 53.6639Z" fill="white"/>
<path d="M53.1557 19.3988C51.5161 17.9204 49.206 17.3051 47.1691 16.7639C46.8283 16.6739 46.4985 16.5856 46.1844 16.4972C44.6547 16.0649 43.5162 15.7225 42.8063 15.2381C41.674 14.4681 41.5154 13.8812 42.219 12.5037L42.2394 12.4611C42.42 12.0761 42.9712 10.6135 42.3179 9.57685C41.5813 8.41083 39.0278 8.94729 36.8433 8.94729H36.559C33.6662 8.94729 32.2434 9.38277 31.0215 10.5157C30.1594 11.3156 30.7891 12.0004 30.8802 12.2276C30.9839 12.5447 31.2241 13.0071 31.3058 13.2264C31.5005 13.7486 31.232 14.5139 31.1645 14.9383C31.0278 15.7825 29.7589 16.3489 28.1821 16.9359C27.4425 17.2104 26.541 17.6096 25.9097 17.9346C24.7413 18.5358 23.4315 18.6557 22.6824 19.1401L22.3243 19.3704C18.2285 21.9865 16.7287 25.2132 17.8689 28.9637L17.883 29.0126C17.883 29.0126 17.8485 29.1498 17.8344 29.2019C17.693 29.7131 17.3648 30.9075 18.0935 33.5015C18.885 36.3163 22.084 38.033 28.0408 39.7608C30.1641 40.3761 35.868 41.1871 40.5354 41.1871C41.619 41.1871 42.7105 40.9978 43.5177 40.9015C47.7423 40.3982 48.482 40.4108 50.0257 39.2716C50.3131 39.0602 50.6288 38.8267 50.9994 38.5695C53.1195 37.099 54.4434 35.2245 55.18 33.9102L55.2193 33.8549L55.2444 33.795C55.7469 32.8814 56.0296 32.1304 56.1804 31.6602C57.7132 26.8509 55.7674 21.753 53.1557 19.3988Z" fill="white"/>
<path d="M41.1353 41.5785C36.3375 41.5785 30.1044 40.6839 27.923 40.0686C21.7998 38.3408 18.7059 36.3165 17.8924 33.5C17.1433 30.9061 17.481 29.7101 17.6255 29.2005C17.6412 29.1468 17.6757 29.0111 17.6757 29.0111L17.66 28.9622C16.4884 25.2133 18.0291 21.985 22.2395 19.369L22.6085 19.1371C23.3781 18.6542 24.3973 18.0973 25.5987 17.4961C26.2473 17.1711 27.1409 16.7198 27.901 16.4453C29.5217 15.8583 30.6902 15.3077 30.8315 14.4619C30.9022 14.0391 31.0357 13.7298 30.8346 13.2091C30.7498 12.9898 30.6509 12.7342 30.5457 12.4171C30.453 12.1899 29.7542 11.2179 30.6415 10.418C31.8978 9.2835 33.8955 8.66499 36.8684 8.66499L37.0772 8.66341C39.323 8.66341 42.0368 8.40938 42.7937 9.5754C43.4659 10.612 42.8989 12.0731 42.7136 12.4597L42.6917 12.5023C41.9692 13.8797 42.1326 14.4667 43.2963 15.2367C44.0265 15.721 45.1965 16.0634 46.7686 16.4958C47.0921 16.5841 47.4313 16.6725 47.7815 16.7624C49.8765 17.3052 52.2495 17.919 53.9362 19.3974C56.6201 21.7515 58.6209 26.8479 57.041 31.6587C56.8871 32.1273 56.595 32.88 56.0799 33.7935L56.0532 33.8535L56.0139 33.9087C55.2554 35.223 53.8953 37.0975 51.7155 38.568C51.3339 38.8252 51.0104 39.0587 50.7152 39.2702C49.129 40.4094 48.405 40.9285 44.0627 41.4318C43.235 41.5296 42.2488 41.5785 41.1353 41.5785ZM32.2638 14.7191C31.934 17.2405 28.2842 19.8534 26.139 21.1867C26.0117 21.2655 25.8029 21.4249 25.5814 21.5922C25.3239 21.7878 25.0318 22.0087 24.8684 22.1034L24.4256 22.359C22.2693 23.5944 19.587 25.1312 18.8033 29.2194C18.7907 29.2651 18.4327 30.6631 19.1912 33.2886C20.0707 36.3307 23.7503 37.4494 28.4083 38.8631L28.6329 38.9309C29.9332 39.3254 35.1566 40.2721 40.3752 40.2721C42.0383 40.2721 43.5633 40.1743 44.906 39.9818C50.3382 39.2023 53.9692 34.5982 54.6445 33.4085C56.4725 29.0932 52.7458 23.424 49.3551 20.9815C48.2778 20.2052 47.2334 19.5678 46.2236 18.9524C44.1977 17.7154 42.2849 16.5463 41.4683 14.8501C41.2688 14.4967 41.1793 13.3827 41.1589 13.2218C41.1212 12.9125 42.1451 11.6471 42.1451 11.6471C42.1451 11.6471 40.4836 12.0368 39.8617 12.0368C38.9869 12.0337 38.2692 11.9627 37.5358 11.666C36.8008 11.3694 36.1083 11.382 35.3199 11.382C34.9728 11.382 33.3929 12.0447 32.9972 12.0447C32.4946 12.0447 31.4377 11.8128 31.4377 11.8128C31.4377 11.8128 32.3329 14.0754 32.2638 14.7191ZM46.1498 17.7707C46.4058 17.9284 46.6712 18.091 46.9445 18.2582C47.926 18.8578 49.0332 19.5347 50.1357 20.3267C52.4238 21.974 56.0406 26.0905 56.4285 29.8647L56.4631 28.5851C56.6123 24.8614 54.7387 21.8493 53.0881 20.4025C51.2742 18.812 48.7379 18.1146 46.5 17.5008L45.4541 17.3068L46.1498 17.7707ZM29.7604 16.6204C28.4837 17.321 27.2446 17.9332 26.1939 18.4602C24.7993 19.1591 23.4896 19.8139 22.7672 20.2636C19.8367 22.0844 18.3526 24.0725 18.2285 26.3414V27.5027L18.5677 26.4314C20.0031 23.5329 22.5253 22.0671 24.3675 20.9957C24.6737 20.819 24.9611 20.6502 25.2139 20.494C27.2257 19.2443 28.7883 18.1288 29.9756 16.9044L30.8346 16.1171L29.7604 16.6204ZM35.2398 10.5552C36.226 10.5552 37.0443 10.5679 37.8358 10.8866C38.7168 11.2416 39.4298 11.0317 40.102 11.0317C40.1695 11.0317 40.2386 11.0302 40.3077 11.027C41.0552 10.9923 43.045 10.6515 41.8043 9.87676C40.6186 9.13518 38.387 9.45548 36.7443 9.35608C36.5119 9.34188 33.0443 9.23459 31.7691 10.418C31.3749 10.784 32.4538 10.926 32.9155 10.926C33.2139 10.926 33.5437 10.8708 33.897 10.7619C34.3541 10.6231 34.7922 10.5552 35.2398 10.5552Z" fill="#14293E"/>
<path d="M22.7843 31.804C22.3713 31.804 21.8797 31.6619 21.8797 30.9866C21.8797 29.554 22.3822 27.3245 26.7199 24.5128C29.6299 22.6273 31.5679 20.27 32.3421 18.8263C32.3406 18.8279 32.3421 18.8294 32.3468 18.8294C32.3531 18.8294 32.3657 18.8279 32.383 18.8279C32.4772 18.8279 32.5714 18.8799 32.5871 18.9083C32.0139 20.2101 30.0335 23.1527 27.5993 25.2449C24.2888 28.0929 23.5255 29.322 23.7093 31.5121C23.6795 31.5894 23.2868 31.804 22.7843 31.804Z" fill="#14293E"/>
<path d="M44.3406 32.2927C43.9291 32.2927 43.5381 32.1538 43.3449 31.9408C43.235 31.8193 43.1894 31.6805 43.2067 31.5148C43.3276 30.2873 43.2491 28.2029 42.6351 26.3679C42.4466 25.8046 42.1262 25.1309 41.754 24.3499C41.0913 22.9551 40.2652 21.2195 39.7014 19.1162C39.6952 19.0957 39.692 19.0673 39.703 19.0531C39.7187 19.031 39.7721 19.0105 39.8412 19.0105C39.9433 19.0105 40.0234 19.0547 40.0312 19.0941C40.1663 19.7694 41.6096 22.8746 43.3292 25.7825C44.8793 28.4049 45.1148 30.6107 45.0394 31.9992C45.0285 32.1649 44.7285 32.2927 44.3406 32.2927Z" fill="#14293E"/>
<path d="M50.5313 31.5326C50.1905 31.5326 49.9958 31.2564 49.9958 30.7768C49.9958 28.784 48.5792 26.321 46.1105 24.0205C44.4834 22.5042 43.0418 20.1359 42.8596 19.6278C42.8533 19.6263 42.8863 19.6136 42.9413 19.6136C43.0292 19.6136 43.0904 19.6452 43.1014 19.6594C43.7532 20.786 45.9204 22.9444 46.9758 23.9274C49.154 25.9565 51.2804 28.1576 51.2804 30.7799C51.2789 31.2217 50.8847 31.5326 50.5313 31.5326Z" fill="#14293E"/>
<path d="M36.5228 30.8319C36.3375 30.8319 36.2244 30.7719 36.1899 30.6552C35.3324 27.8324 36.7489 22.7581 37.2829 20.8489C37.3583 20.5791 37.4148 20.3756 37.4431 20.2572C37.4651 20.1657 37.5844 20.1594 37.6206 20.1594C37.7069 20.1594 37.765 20.191 37.7745 20.2052C37.1463 23.6512 36.7819 26.3761 37.7713 29.8757C37.8043 29.994 37.7697 30.1234 37.6645 30.2623C37.4321 30.5684 36.9091 30.8319 36.5228 30.8319Z" fill="#14293E"/>
<path d="M29.6347 33.634C29.4447 33.634 28.8118 33.5867 28.6343 32.9776C27.9433 30.6172 28.3627 28.962 30.2378 26.6537C31.6292 24.9386 34.1985 21.3585 34.9963 18.8103C35.0026 18.8103 35.0528 18.785 35.1361 18.785C35.2115 18.785 35.2696 18.8087 35.2868 18.8324C35.2994 18.8497 35.2947 18.8813 35.2884 18.9049C34.6681 21.2196 32.9924 24.8392 31.3937 27.3243C30.3823 28.8958 29.6033 30.431 30.3163 33.3121C30.3226 33.3389 30.3242 33.3721 30.2896 33.4194C30.208 33.522 29.9692 33.634 29.6347 33.634C29.6363 33.634 29.6363 33.634 29.6347 33.634Z" fill="#14293E"/>
</svg>
