<svg width="1198" height="800" viewBox="0 0 1198 800" fill="none" xmlns="http://www.w3.org/2000/svg">
<rect width="277" height="375" rx="30" fill="white"/>
<circle cx="229" cy="323" r="19" fill="#EFEFEF"/>
<rect x="29" y="324" width="56" height="18" fill="#EFEFEF"/>
<rect x="65" y="255" width="155" height="14" fill="#EFEFEF"/>
<rect x="93" y="274" width="98" height="14" fill="#EFEFEF"/>
<rect x="29" y="304" width="38" height="10" fill="#EFEFEF"/>
<circle cx="142.5" cy="134.5" r="85.5" fill="#EFEFEF"/>
<rect x="307" width="277" height="375" rx="30" fill="white"/>
<circle cx="536" cy="323" r="19" fill="#EFEFEF"/>
<rect x="336" y="324" width="56" height="18" fill="#EFEFEF"/>
<rect x="372" y="255" width="155" height="14" fill="#EFEFEF"/>
<rect x="400" y="274" width="98" height="14" fill="#EFEFEF"/>
<rect x="336" y="304" width="38" height="10" fill="#EFEFEF"/>
<circle cx="449.5" cy="134.5" r="85.5" fill="#EFEFEF"/>
<rect x="614" width="277" height="375" rx="30" fill="white"/>
<circle cx="843" cy="323" r="19" fill="#EFEFEF"/>
<rect x="643" y="324" width="56" height="18" fill="#EFEFEF"/>
<rect x="679" y="255" width="155" height="14" fill="#EFEFEF"/>
<rect x="707" y="274" width="98" height="14" fill="#EFEFEF"/>
<rect x="643" y="304" width="38" height="10" fill="#EFEFEF"/>
<circle cx="756.5" cy="134.5" r="85.5" fill="#EFEFEF"/>
<rect x="921" width="277" height="375" rx="30" fill="white"/>
<circle cx="1150" cy="323" r="19" fill="#EFEFEF"/>
<rect x="950" y="324" width="56" height="18" fill="#EFEFEF"/>
<rect x="986" y="255" width="155" height="14" fill="#EFEFEF"/>
<rect x="1014" y="274" width="98" height="14" fill="#EFEFEF"/>
<rect x="950" y="304" width="38" height="10" fill="#EFEFEF"/>
<circle cx="1063.5" cy="134.5" r="85.5" fill="#EFEFEF"/>
<rect y="425" width="277" height="375" rx="30" fill="white"/>
<circle cx="229" cy="748" r="19" fill="#EFEFEF"/>
<rect x="29" y="749" width="56" height="18" fill="#EFEFEF"/>
<rect x="65" y="680" width="155" height="14" fill="#EFEFEF"/>
<rect x="93" y="699" width="98" height="14" fill="#EFEFEF"/>
<rect x="29" y="729" width="38" height="10" fill="#EFEFEF"/>
<circle cx="142.5" cy="559.5" r="85.5" fill="#EFEFEF"/>
<rect x="307" y="425" width="277" height="375" rx="30" fill="white"/>
<circle cx="536" cy="748" r="19" fill="#EFEFEF"/>
<rect x="336" y="749" width="56" height="18" fill="#EFEFEF"/>
<rect x="372" y="680" width="155" height="14" fill="#EFEFEF"/>
<rect x="400" y="699" width="98" height="14" fill="#EFEFEF"/>
<rect x="336" y="729" width="38" height="10" fill="#EFEFEF"/>
<circle cx="449.5" cy="559.5" r="85.5" fill="#EFEFEF"/>
<rect x="614" y="425" width="277" height="375" rx="30" fill="white"/>
<circle cx="843" cy="748" r="19" fill="#EFEFEF"/>
<rect x="643" y="749" width="56" height="18" fill="#EFEFEF"/>
<rect x="679" y="680" width="155" height="14" fill="#EFEFEF"/>
<rect x="707" y="699" width="98" height="14" fill="#EFEFEF"/>
<rect x="643" y="729" width="38" height="10" fill="#EFEFEF"/>
<circle cx="756.5" cy="559.5" r="85.5" fill="#EFEFEF"/>
<rect x="921" y="425" width="277" height="375" rx="30" fill="white"/>
<circle cx="1150" cy="748" r="19" fill="#EFEFEF"/>
<rect x="950" y="749" width="56" height="18" fill="#EFEFEF"/>
<rect x="986" y="680" width="155" height="14" fill="#EFEFEF"/>
<rect x="1014" y="699" width="98" height="14" fill="#EFEFEF"/>
<rect x="950" y="729" width="38" height="10" fill="#EFEFEF"/>
<circle cx="1063.5" cy="559.5" r="85.5" fill="#EFEFEF"/>
</svg>
