<svg width="14" height="14" viewBox="0 0 14 14" fill="none" xmlns="http://www.w3.org/2000/svg">
<path fill-rule="evenodd" clip-rule="evenodd" d="M8.94551 0.776296C9.28378 1.0769 9.24435 1.56751 9.06655 1.9753C8.17501 4.02001 9.66092 4.91996 11.1665 5.83181C11.8827 6.26557 12.6033 6.70203 13.0746 7.26569C14.2484 8.66955 13.7168 10.9425 12.4174 12.1256C10.9478 13.4637 8.84135 14 6.88044 14C4.92341 14 2.80857 13.4595 1.34346 12.1256C0.0257579 10.9259 -0.557045 8.75273 0.686281 7.26569C1.15176 6.70897 1.87072 6.28054 2.58751 5.85342C4.09963 4.95236 5.60203 4.0571 4.69432 1.9753C4.51652 1.56751 4.47709 1.0769 4.81536 0.776296C5.98009 -0.258767 7.78078 -0.258764 8.94551 0.776296ZM6.88047 5.03896C6.26125 6.73675 6.26125 9.51587 6.88048 11.1974C7.4997 9.51587 7.49969 6.73675 6.88047 5.03896ZM5.33241 5.03175C6.05149 6.01753 5.2039 6.99236 4.35882 7.96431C3.74843 8.66632 3.13936 9.36683 3.12286 10.0689C2.43735 9.10952 3.26322 8.15302 4.09332 7.19164C4.71169 6.47546 5.33241 5.75656 5.33241 5.03175ZM8.42853 5.03175C7.70945 6.01753 8.55705 6.99236 9.40213 7.96431C10.0125 8.66632 10.6216 9.36683 10.6381 10.0689C11.3236 9.10952 10.4977 8.15302 9.66762 7.19164C9.04925 6.47546 8.42853 5.75656 8.42853 5.03175Z" fill="#CCCCCC"/>
</svg>
