<svg width="38" height="30" viewBox="0 0 38 30" fill="none" xmlns="http://www.w3.org/2000/svg">
<path d="M12.569 6.67529L11.7432 7.42866C10.6 8.60432 9.09699 9.67128 7.15797 10.8707C6.91185 11.0218 6.63448 11.1818 6.34213 11.3517C4.56678 12.3762 2.13676 13.7817 0.754954 16.5616L0.432617 17.5873V16.4741C0.550058 14.3002 1.98184 12.3937 4.80166 10.6483C5.49881 10.2198 6.75942 9.59007 8.10249 8.92291C9.11448 8.41816 10.3064 7.82971 11.5383 7.15755L12.569 6.67529Z" fill="white"/>
<path d="M37.2515 18.6237L37.219 19.8519C36.8455 16.2337 33.3647 12.2869 31.1608 10.709C30.1001 9.94935 29.0319 9.30093 28.0861 8.72497C27.8238 8.56755 27.5689 8.41013 27.3228 8.2602L26.6519 7.81543L27.6601 8.00159C29.8153 8.59129 32.2578 9.2597 34.0031 10.7814C35.5911 12.1695 37.3952 15.0543 37.2515 18.6237Z" fill="white"/>
<path d="M30.41 11.3376C29.3718 10.5942 28.3661 9.98454 27.394 9.39234C25.4425 8.20668 23.5985 7.08725 22.8126 5.46307C22.6227 5.12199 22.534 4.05503 22.5178 3.90136C22.4815 3.60276 23.4648 2.39212 23.4648 2.39212C23.4648 2.39212 21.8668 2.76568 21.2671 2.76568C20.4251 2.76193 19.7317 2.69322 19.027 2.41211C18.3199 2.12726 17.6515 2.13725 16.8956 2.13725C16.5583 2.13725 15.039 2.77193 14.6555 2.77193C14.1745 2.77193 13.1562 2.54954 13.1562 2.54954C13.1562 2.54954 14.0146 4.7172 13.9483 5.33688C13.631 7.75066 10.1165 10.2556 8.05007 11.5363C7.92513 11.6112 7.72648 11.7624 7.51284 11.9261C7.26421 12.1122 6.98185 12.3259 6.82568 12.4146L6.39965 12.6607C4.3232 13.8463 1.7395 15.3168 0.986133 19.2361C0.973639 19.2786 0.628814 20.6179 1.35969 23.1366C2.20427 26.0539 5.75123 27.1259 10.2377 28.4814L10.4539 28.5464C11.7045 28.9225 16.7344 29.8333 21.7619 29.8333C23.3636 29.8333 24.8303 29.7383 26.1234 29.5546C31.357 28.805 34.8503 24.3935 35.5024 23.2541C37.2653 19.1162 33.6759 13.6789 30.41 11.3376ZM5.70875 21.4313C5.68251 21.5062 5.3027 21.7124 4.81795 21.7124C4.4219 21.7124 3.94714 21.5749 3.94714 20.9265C3.94714 19.5547 4.43189 17.4158 8.61103 14.7209C11.4109 12.9131 13.2774 10.6567 14.0245 9.27115C14.0245 9.27489 14.0245 9.27489 14.0283 9.27489C14.0345 9.27489 14.0483 9.27115 14.0645 9.27115C14.1557 9.27115 14.2482 9.31987 14.2607 9.34986C13.711 10.5942 11.8007 13.4178 9.45685 15.4218C6.26847 18.1529 5.53134 19.3323 5.70875 21.4313ZM16.8631 9.34361C16.2634 11.5637 14.653 15.032 13.11 17.4158C12.1368 18.9188 11.3871 20.393 12.0755 23.1529C12.0818 23.1791 12.0818 23.2116 12.0493 23.2541C11.9706 23.3553 11.7382 23.464 11.4171 23.464C11.2335 23.464 10.625 23.4177 10.4539 22.8355C9.78919 20.5729 10.1915 18.9875 11.9968 16.7736C13.3399 15.1294 15.8124 11.6974 16.582 9.2549C16.5883 9.2549 16.6382 9.23242 16.7157 9.23242C16.7882 9.23242 16.8431 9.2549 16.8594 9.27489C16.8719 9.29114 16.8656 9.32362 16.8631 9.34361ZM19.1482 20.2294C18.9258 20.528 18.4211 20.7791 18.0475 20.7791C17.8701 20.7791 17.7627 20.7204 17.7264 20.6092C16.9006 17.9043 18.2674 13.0405 18.7809 11.2077C18.8534 10.949 18.9083 10.7554 18.9346 10.6417C18.9546 10.5567 19.072 10.5468 19.1045 10.5468C19.1894 10.5468 19.2457 10.5792 19.2557 10.593C18.6497 13.8938 18.2999 16.5075 19.2519 19.8608C19.2831 19.9732 19.2494 20.0982 19.1482 20.2294ZM26.2484 21.896C26.2421 22.0559 25.9535 22.1771 25.58 22.1771C25.1802 22.1771 24.8066 22.0459 24.6204 21.8398C24.5155 21.7249 24.4693 21.5912 24.4868 21.4338C24.6042 20.2543 24.5292 18.2566 23.937 16.4987C23.7534 15.9578 23.446 15.3131 23.0887 14.5635C22.4503 13.2279 21.6544 11.5637 21.111 9.54601C21.1047 9.52602 21.101 9.49978 21.111 9.48729C21.1272 9.4648 21.1797 9.44481 21.2447 9.44481C21.3434 9.44481 21.4221 9.48729 21.4283 9.52352C21.5595 10.1719 22.9475 13.1492 24.6055 15.9353C26.0972 18.4503 26.3233 20.5629 26.2484 21.896ZM31.5407 21.4512C31.2134 21.4512 31.0272 21.1864 31.0272 20.7279C31.0272 18.8151 29.6616 16.4538 27.2841 14.2499C25.7186 12.7956 24.3268 10.5268 24.1532 10.0383C24.1532 10.0345 24.1832 10.0258 24.2319 10.0258C24.3169 10.0258 24.3756 10.0557 24.3856 10.0682C25.014 11.1489 27.1004 13.2154 28.1162 14.1587C30.2151 16.1039 32.2616 18.2129 32.2616 20.7279C32.2603 21.1526 31.8805 21.4512 31.5407 21.4512Z" fill="white"/>
<path d="M21.6957 1.79499C21.627 1.79874 21.5621 1.80124 21.4958 1.80124C20.8512 1.80124 20.1628 2.00114 19.3144 1.66006C18.5511 1.35521 17.7627 1.34272 16.812 1.34272C16.3834 1.34272 15.9574 1.40769 15.5214 1.54262C15.1803 1.64757 14.8629 1.70004 14.5743 1.70004C14.1296 1.70004 13.0913 1.56261 13.4711 1.21154C14.6993 0.0783578 18.0363 0.179557 18.2625 0.1933C19.8442 0.288252 21.9956 -0.0165943 23.135 0.690548C24.3319 1.43517 22.4166 1.76251 21.6957 1.79499Z" fill="white"/>
</svg>
