<svg width="20" height="20" viewBox="0 0 20 20" fill="none" xmlns="http://www.w3.org/2000/svg">
<path fill-rule="evenodd" clip-rule="evenodd" d="M12.7793 1.10899C13.2625 1.53843 13.2062 2.23931 12.9522 2.82186C11.6786 5.74288 13.8013 7.02852 15.9521 8.33116C16.9753 8.95082 18.0047 9.57433 18.678 10.3796C20.3548 12.3851 19.5955 15.6321 17.7392 17.3224C15.6397 19.2338 12.6305 20 9.8292 20C7.03344 20 4.01224 19.2279 1.91923 17.3224C0.0367971 15.6084 -0.795779 12.5039 0.980401 10.3796C1.64537 9.58424 2.67246 8.97221 3.69644 8.36203C5.85661 7.0748 8.0029 5.79585 6.70618 2.82186C6.45217 2.23931 6.39585 1.53843 6.87908 1.10899C8.54298 -0.369667 11.1154 -0.369663 12.7793 1.10899ZM9.82925 7.19851C8.94464 9.62392 8.94464 13.5941 9.82925 15.9963C10.7139 13.5941 10.7139 9.62392 9.82925 7.19851ZM7.61774 7.18822C8.64499 8.59647 7.43414 9.98909 6.22688 11.3776C5.3549 12.3805 4.4848 13.3812 4.46122 14.3841C3.48193 13.0136 4.66175 11.6472 5.8476 10.2738C6.73099 9.25065 7.61774 8.22366 7.61774 7.18822ZM12.0408 7.18822C11.0135 8.59647 12.2244 9.98909 13.4316 11.3776C14.3036 12.3805 15.1737 13.3812 15.1973 14.3841C16.1766 13.0136 14.9967 11.6472 13.8109 10.2738C12.9275 9.25065 12.0408 8.22366 12.0408 7.18822Z" fill="white"/>
</svg>
