<svg width="212" height="227" viewBox="0 0 212 227" fill="none" xmlns="http://www.w3.org/2000/svg">
<path d="M193.422 4.89208C194.498 4.89208 195.575 5.23452 196.504 5.87049C197.727 6.70215 198.559 7.97409 198.803 9.44171L207.071 53.9107C207.609 56.8949 205.652 59.8301 202.619 60.4172L162.26 68.1466C162.406 68.8315 162.504 69.8099 162.7 70.8862C165.831 86.1006 169.598 101.266 173.56 116.236C174.93 116.285 176.153 116.578 177.131 117.214C178.11 117.85 178.697 118.78 178.844 119.954C179.088 121.911 178.012 124.503 176.447 127.145C176.936 128.955 177.425 130.716 177.865 132.526C178.159 133.652 177.865 135.462 176.887 136.146C176.447 136.489 176.006 136.636 175.566 136.636C174.343 136.636 173.12 135.511 171.897 133.505C170.136 135.657 168.57 137.418 167.739 138.25C168.521 140.354 169.108 142.555 169.402 144.854C171.457 159.922 166.76 172.935 155.313 183.502C151.399 187.122 144.697 192.21 134.815 196.221L134.864 196.417C135.011 196.906 138.435 208.109 135.157 213.05C134.228 214.469 132.858 215.251 131.146 215.398C130.901 215.398 130.706 215.447 130.461 215.447C122.878 215.447 118.867 202.777 118.671 202.19C118.671 202.141 118.671 202.141 118.671 202.092L118.524 201.456C116.714 201.896 114.855 202.287 112.899 202.63C101.94 204.587 89.759 205.174 81.8827 205.174C78.8007 205.174 76.3547 205.076 74.8871 204.978C74.8871 205.076 74.8871 205.223 74.8871 205.32C74.7403 208.598 74.3489 216.328 69.7504 219.752C68.2338 220.877 66.8151 221.464 65.4943 221.464C63.9288 221.464 62.4612 220.682 60.9446 219.116C57.8626 215.936 56.8842 207.082 56.6396 204C50.7691 203.657 49.9864 203.559 42.795 202.336L41.2785 202.092C27.1404 199.695 14.6656 191.672 8.7951 181.056C3.80519 172.054 3.46274 161.536 7.91453 150.578C13.2958 137.37 24.89 129.64 36.0929 122.155C41.6209 118.486 46.8065 115.013 51.1605 111.001C58.9878 103.761 58.0094 89.4761 57.2267 83.7034C56.9331 81.5999 58.1562 79.4963 60.1619 78.8114C63.3418 77.6862 65.5921 77.3437 67.3533 77.3437C68.6741 77.3437 69.7015 77.5394 70.6799 77.7351C71.4137 77.8819 72.0986 77.9797 72.8324 77.9797C74.1533 77.9797 75.7187 77.5394 78.3604 75.974C84.9158 72.0603 92.1561 70.6905 96.8036 70.6905C96.9014 70.6905 96.9503 70.6905 96.9993 70.6905C99.6899 70.7394 101.989 72.843 102.185 75.5337C102.625 81.5998 104.386 87.2747 107.37 92.4113C111.822 100.092 118.329 105.571 125.716 107.919C138.973 112.126 149.1 117.165 156.34 123.134C157.857 121.813 161.624 119.465 165.733 117.899C160.694 100.777 156.291 77.0502 154.481 69.6632L110.991 77.9797C110.648 78.0286 110.306 78.0776 109.963 78.0776C107.37 78.0776 104.973 76.2675 104.435 73.6258L95.0424 29.5481C94.7489 28.0805 94.9935 26.6129 95.8251 25.3899C96.6568 24.1669 97.8798 23.3352 99.3475 23.0417L192.248 5.03884C192.737 4.941 193.08 4.89208 193.422 4.89208ZM7.3764 170V170.049C7.3764 170.049 7.3764 170.049 7.3764 170C7.3764 169.951 7.3764 169.951 7.3764 169.902C7.3764 169.951 7.3764 170 7.3764 170ZM8.74618 175.43C8.50158 174.696 8.3059 174.011 8.11021 173.277C7.91453 172.544 7.71885 171.761 7.57209 171.027C7.81669 172.495 8.20805 173.962 8.74618 175.43ZM193.422 0C192.737 0 192.101 0.0489208 191.416 0.195683L98.5158 18.1985C95.7762 18.7367 93.3791 20.3021 91.8137 22.6503C90.2482 24.9985 89.759 27.787 90.346 30.5266L97.8798 65.7495C97.6352 65.7495 97.4395 65.7006 97.1949 65.7006C97.0971 65.7006 96.9993 65.7006 96.9014 65.7006C94.3575 65.7006 85.2583 66.1409 75.9144 71.7179C74.4957 72.5495 73.4194 73.0387 72.8813 73.0387C72.6367 73.0387 72.1964 72.9409 71.6583 72.843C70.631 72.6473 69.2122 72.4027 67.4511 72.4027C64.8094 72.4027 61.9231 72.9898 58.5965 74.1639C54.4382 75.6804 51.8943 79.9365 52.4814 84.3394C53.0195 88.2531 54.2425 101.56 47.9317 107.381C43.8713 111.148 38.7835 114.524 33.4512 118.046C22.1994 125.58 9.43108 134.092 3.51166 148.719C-1.52718 161.096 -1.13581 173.131 4.63684 183.404C11.2411 195.243 24.9879 204.244 40.5936 206.837L42.1101 207.082C47.3936 207.962 49.3504 208.305 52.3346 208.549C53.0684 213.784 54.5849 219.459 57.5691 222.492C60.0152 225.036 62.7547 226.307 65.5921 226.307C67.9892 226.307 70.3374 225.427 72.7346 223.617C77.3331 220.192 78.8986 214.469 79.4856 210.017C80.2683 210.017 81.1 210.017 81.9806 210.017C87.2151 210.017 100.815 209.772 113.877 207.424C114.415 207.326 114.953 207.228 115.442 207.131C116.029 208.451 116.763 210.017 117.742 211.533C122.145 218.774 127.183 220.29 130.559 220.29C130.95 220.29 131.293 220.29 131.684 220.241C134.864 219.948 137.555 218.333 139.316 215.692C141.37 212.561 142.006 208.207 141.224 202.336C141.077 201.113 140.832 199.939 140.637 198.912C149.1 194.949 155.019 190.302 158.688 186.975C164.95 181.203 169.451 174.647 172.044 167.456C174.685 160.264 175.419 152.388 174.294 144.121C174.147 143.142 174.001 142.164 173.756 141.234C174.343 141.381 174.93 141.479 175.566 141.479C177.083 141.479 178.55 140.99 179.871 140.011C182.66 137.908 183.344 133.994 182.611 131.206C182.317 130.031 181.975 128.906 181.681 127.732C183.344 124.503 183.98 121.715 183.687 119.318C183.344 116.676 181.975 114.426 179.724 113.007C179.039 112.567 178.306 112.224 177.474 111.931C174.49 100.532 170.919 86.2962 167.885 71.9135L203.5 65.0646C209.126 63.9884 212.893 58.5092 211.816 52.8834L203.549 8.41437C203.059 5.67481 201.494 3.27769 199.195 1.71223C197.531 0.63597 195.526 0 193.422 0ZM110.061 82.9207C110.697 82.9207 111.382 82.8718 112.018 82.725L150.861 75.2891C151.252 77.0502 151.644 79.056 152.133 81.3063C154.188 90.9926 156.878 103.859 159.96 115.111C158.737 115.747 157.563 116.383 156.536 117.018C149.149 111.637 139.511 107.136 127.281 103.223C121.068 101.217 115.491 96.5207 111.675 89.9164C110.355 87.666 109.327 85.3178 108.593 82.8718C109.132 82.8718 109.572 82.9207 110.061 82.9207Z" fill="white"/>
<path fill-rule="evenodd" clip-rule="evenodd" d="M197.581 9.63741L205.848 54.1064C206.288 56.4057 204.772 58.656 202.424 59.0963L110.893 76.6589C108.594 77.0992 106.294 75.5826 105.805 73.2833L96.4124 29.2057C95.9232 26.9064 97.3908 24.6561 99.6901 24.2158L192.591 6.21296C194.939 5.82159 197.14 7.33814 197.581 9.63741Z" fill="white"/>
<path d="M110.061 78.0286C107.468 78.0286 105.071 76.2186 104.533 73.5768L95.1403 29.4992C94.8468 28.0316 95.0914 26.564 95.9231 25.341C96.7547 24.1179 97.9777 23.2863 99.4454 22.9928L192.346 4.98991C193.814 4.69638 195.281 4.98991 196.504 5.82156C197.727 6.65321 198.559 7.92515 198.803 9.39278L207.071 53.8618C207.609 56.8459 205.652 59.7812 202.619 60.3682L111.089 77.9308C110.795 77.9797 110.404 78.0286 110.061 78.0286ZM193.422 7.48487C193.226 7.48487 193.031 7.48487 192.835 7.53379L99.9346 25.5366C99.1518 25.6834 98.5159 26.1237 98.0756 26.7597C97.6353 27.3956 97.4885 28.1784 97.6842 28.9611L107.077 73.0387C107.419 74.6531 109.034 75.7294 110.648 75.3869L202.179 57.8243C203.793 57.5308 204.87 55.9654 204.576 54.351L196.308 9.88199C196.162 9.09925 195.721 8.41436 195.085 7.97407C194.596 7.68055 194.009 7.48487 193.422 7.48487Z" fill="#01283F"/>
<path fill-rule="evenodd" clip-rule="evenodd" d="M156.731 124.601C155.655 123.867 170.918 114.524 176.593 118.095C182.268 121.666 166.613 137.957 166.613 137.957C166.613 137.957 162.259 128.564 156.731 124.601Z" fill="white"/>
<path d="M166.613 139.033C166.565 139.033 166.516 139.033 166.418 139.033C166.075 138.984 165.782 138.739 165.635 138.446C165.586 138.348 161.33 129.249 156.095 125.531C155.606 125.188 155.362 124.503 155.851 123.721C157.172 121.813 171.114 113.447 177.131 117.263C178.11 117.899 178.697 118.829 178.844 120.003C179.577 125.873 168.619 137.467 167.347 138.739C167.201 138.935 166.907 139.033 166.613 139.033ZM158.248 124.357C162.308 127.683 165.537 133.407 166.907 136.049C170.576 132.037 177.18 123.916 176.74 120.149C176.691 119.611 176.447 119.22 176.006 118.975C171.848 116.383 160.89 122.253 158.248 124.357Z" fill="#01283F"/>
<path fill-rule="evenodd" clip-rule="evenodd" d="M74.1042 203.853C83.2524 204.587 99.9344 205.076 119.503 200.184L119.894 201.896C119.894 201.896 124.003 215.056 131.195 214.371C139.218 213.588 133.983 196.808 133.983 196.808L133.592 195.634C138.582 193.677 173.218 180.028 168.423 145.05C166.907 133.847 158.688 119.513 125.52 108.947C117.448 106.354 110.844 100.288 106.539 92.9495C103.897 88.3509 101.744 82.6272 101.206 75.5826C101.06 73.4301 99.2495 71.7668 97.097 71.7178C92.4985 71.6689 85.356 73.0387 78.9963 76.8545C70.3863 81.9912 71.7071 75.8272 60.651 79.7898C59.1345 80.3279 58.205 81.8934 58.4007 83.5567C59.2323 89.5739 60.2108 104.201 51.9921 111.784C38.6367 124.112 15.8396 129.836 9.23531 150.236C-0.059639 179.001 19.949 197.346 41.523 201.015C50.5734 202.532 50.5734 202.581 57.7158 202.972C57.7158 202.972 58.4496 214.909 61.7762 218.382C63.9287 220.633 65.9834 221.269 69.1632 218.92C74.6424 214.811 74.1042 203.853 74.1042 203.853Z" fill="white"/>
<mask id="mask0_844_14023" style="mask-type:luminance" maskUnits="userSpaceOnUse" x="6" y="71" width="163" height="150">
<path d="M74.1042 203.853C83.2524 204.587 99.9344 205.076 119.503 200.184L119.894 201.896C119.894 201.896 124.003 215.056 131.195 214.371C139.218 213.588 133.983 196.808 133.983 196.808L133.592 195.634C138.582 193.677 173.218 180.028 168.423 145.05C166.907 133.847 158.688 119.513 125.52 108.947C117.448 106.354 110.844 100.288 106.539 92.9495C103.897 88.3509 101.744 82.6272 101.206 75.5826C101.06 73.4301 99.2495 71.7668 97.097 71.7178C92.4985 71.6689 85.356 73.0387 78.9963 76.8545C70.3863 81.9912 71.7071 75.8272 60.651 79.7898C59.1345 80.3279 58.205 81.8934 58.4007 83.5567C59.2323 89.5739 60.2108 104.201 51.9921 111.784C38.6367 124.112 15.8396 129.836 9.23531 150.236C-0.059639 179.001 19.949 197.346 41.523 201.015C50.5734 202.532 50.5734 202.581 57.7158 202.972C57.7158 202.972 58.4496 214.909 61.7762 218.382C63.9287 220.633 65.9834 221.269 69.1632 218.92C74.6424 214.811 74.1042 203.853 74.1042 203.853Z" fill="white"/>
</mask>
<g mask="url(#mask0_844_14023)">
<g opacity="0.96">
<path fill-rule="evenodd" clip-rule="evenodd" d="M119.552 200.184C119.552 200.184 129.042 197.591 133.592 195.585L119.552 200.184Z" fill="white"/>
<path d="M119.552 201.26C119.062 201.26 118.622 200.967 118.524 200.477C118.377 199.89 118.72 199.303 119.258 199.156C119.356 199.108 128.749 196.564 133.152 194.607C133.69 194.362 134.326 194.607 134.57 195.145C134.815 195.683 134.57 196.319 134.032 196.564C129.482 198.569 120.236 201.113 119.845 201.211C119.747 201.26 119.649 201.26 119.552 201.26Z" fill="#01283F"/>
</g>
</g>
<path d="M65.5921 221.464C64.0266 221.464 62.559 220.682 61.0424 219.116C57.9604 215.936 56.982 207.082 56.7374 204C50.8669 203.657 50.0842 203.559 42.8928 202.336L41.3763 202.092C27.2382 199.695 14.7634 191.672 8.89287 181.056C3.90295 172.054 3.56051 161.536 8.0123 150.578C13.3936 137.37 24.9878 129.64 36.1907 122.155C41.7187 118.486 46.9043 115.013 51.2583 111.001C59.0856 103.761 58.1072 89.4761 57.3244 83.7034C57.0309 81.5998 58.2539 79.4963 60.2597 78.8114C65.9345 76.8056 68.5762 77.2948 70.7287 77.6862C72.8323 78.0776 74.3489 78.3711 78.4093 75.974C85.0625 71.9625 92.4496 70.6416 97.097 70.6905C99.7877 70.7394 102.087 72.843 102.283 75.5337C102.723 81.5998 104.484 87.2747 107.468 92.4113C111.92 100.092 118.426 105.571 125.814 107.919C152.965 116.578 167.2 128.662 169.451 144.903C171.506 159.971 166.809 172.984 155.362 183.551C151.448 187.171 144.746 192.259 134.864 196.27L134.913 196.466C135.06 196.955 138.484 208.158 135.206 213.099C134.277 214.518 132.907 215.3 131.195 215.447C123.221 216.23 118.916 202.826 118.769 202.238C118.769 202.19 118.769 202.19 118.769 202.141L118.622 201.505C116.812 201.945 114.953 202.336 112.996 202.679C97.733 205.418 80.1215 205.418 74.9359 204.978C74.9359 205.076 74.9359 205.223 74.9359 205.32C74.7892 208.598 74.3978 216.328 69.7992 219.752C68.2827 220.877 66.9129 221.464 65.5921 221.464ZM67.451 79.4473C65.9345 79.4473 63.9287 79.7409 60.9935 80.8171C59.9662 81.2085 59.3302 82.2847 59.477 83.4099C60.3086 89.525 61.287 104.69 52.7259 112.616C48.2252 116.774 42.9417 120.247 37.3648 124.014C26.4065 131.303 15.1058 138.837 10.018 151.41C5.81086 161.732 6.10439 171.663 10.7519 180.028C16.3288 190.057 28.2166 197.689 41.7187 199.988L43.2353 200.233C50.818 201.505 51.1115 201.554 57.7647 201.945C58.3029 201.994 58.7431 202.434 58.7921 202.972C58.9877 206.201 60.0151 215.105 62.559 217.697C64.369 219.556 65.7877 220.143 68.5273 218.089C72.2942 215.3 72.6366 208.305 72.7834 205.32C72.8812 203.804 72.8812 203.315 73.5172 202.972C73.7618 202.826 74.1043 202.826 74.3489 202.874C76.0122 203.168 95.1891 203.706 112.605 200.624C114.904 200.233 117.106 199.743 119.16 199.254C119.454 199.205 119.747 199.254 119.992 199.401C120.237 199.548 120.432 199.792 120.481 200.086L120.873 201.749C121.949 205.223 125.862 213.931 131.048 213.392C132.124 213.295 132.907 212.805 133.494 211.974C135.744 208.598 133.837 200.184 132.956 197.2L132.565 196.026C132.369 195.487 132.662 194.9 133.201 194.705C144.893 190.106 171.603 176.164 167.347 145.246C166.418 138.641 163.385 132.869 158.052 127.585C151.008 120.639 139.952 114.768 125.178 110.023C117.252 107.528 110.306 101.657 105.609 93.5365C102.478 88.1063 100.619 82.0891 100.13 75.7294C100.032 74.1639 98.6625 72.8919 97.097 72.8919C92.7431 72.843 85.8453 74.115 79.5345 77.8819C74.7892 80.7193 72.6366 80.3279 70.3374 79.8876C69.5057 79.5941 68.6251 79.4473 67.451 79.4473ZM74.5445 202.874C74.5935 202.874 74.6424 202.923 74.6424 202.923C74.5935 202.874 74.5445 202.874 74.5445 202.874Z" fill="#01283F"/>
<path d="M58.5475 124.895C58.254 124.895 58.0094 124.748 57.8137 124.503C57.5202 124.112 57.6181 123.525 58.0094 123.231C69.5547 114.866 68.2828 94.8085 68.2828 94.6128C68.2339 94.1236 68.6252 93.6833 69.1144 93.6344C69.6036 93.5854 70.0439 93.9768 70.0929 94.466C70.1418 95.3466 71.4626 115.698 59.0857 124.65C58.9389 124.846 58.7432 124.895 58.5475 124.895Z" fill="#ABAABF"/>
<path d="M85.8943 116.138C85.5518 116.138 85.2583 115.942 85.1115 115.649C80.2684 106.158 82.2741 95.2487 82.372 94.8085C82.4698 94.3192 82.959 94.0257 83.4482 94.0746C83.9375 94.1725 84.231 94.6617 84.1821 95.102C84.1821 95.1998 82.1763 105.913 86.7749 114.817C87.0195 115.257 86.8238 115.795 86.3835 116.04C86.1878 116.138 86.041 116.138 85.8943 116.138Z" fill="#ABAABF"/>
<path d="M110.11 116.138C110.012 116.138 109.963 116.138 109.865 116.089C93.7216 111.442 90.8842 91.1394 90.7864 90.2588C90.7375 89.7696 91.0799 89.3293 91.5691 89.2315C92.0583 89.1826 92.4986 89.525 92.5965 90.0142C92.6454 90.2099 95.3849 110.023 110.404 114.328C110.893 114.475 111.137 114.964 111.04 115.453C110.844 115.893 110.501 116.138 110.11 116.138Z" fill="#ABAABF"/>
<path fill-rule="evenodd" clip-rule="evenodd" d="M73.1258 167.603C91.6178 163.346 80.6107 133.603 61.5316 144.708C51.992 150.236 54.1934 171.957 73.1258 167.603Z" fill="#FFC0C9"/>
<path fill-rule="evenodd" clip-rule="evenodd" d="M148.66 157.623C162.309 154.149 155.704 125.58 137.75 136.049C128.798 141.283 131.048 162.123 148.66 157.623Z" fill="#FFC0C9"/>
<path d="M61.1892 187.66C53.9 187.66 45.6324 181.643 45.1432 181.349C44.7518 181.056 44.654 180.518 44.9475 180.077C45.241 179.686 45.7792 179.588 46.2195 179.882C46.3662 179.98 59.5748 189.568 66.1791 184.285C67.1576 183.502 67.5978 182.621 67.5 181.594C67.1086 176.995 57.1777 170.636 53.3619 168.581C52.9216 168.336 52.7748 167.798 53.0195 167.358C53.2641 166.918 53.8022 166.771 54.2425 167.016C54.8295 167.358 68.723 174.99 69.3101 181.447C69.4568 183.11 68.7719 184.529 67.3043 185.703C65.5432 187.122 63.3907 187.66 61.1892 187.66Z" fill="#ABAABF"/>
<path fill-rule="evenodd" clip-rule="evenodd" d="M154.334 68.6359C157.123 78.7135 168.081 142.898 176.936 136.147C177.865 135.413 178.208 133.652 177.914 132.526C172.484 112.224 167.005 91.5797 162.749 70.8862C162.211 68.2445 162.602 66.3855 160.303 67.1682C158.786 67.6574 154.677 68.7826 153.698 68.7337" fill="#01283F"/>
<path fill-rule="evenodd" clip-rule="evenodd" d="M189.557 18.8345L195.232 48.8229L113.143 64.5754L107.468 34.587L189.557 18.8345Z" fill="#891924"/>
<path fill-rule="evenodd" clip-rule="evenodd" d="M196.064 48.6272L190.389 18.6877L190.242 17.8561L189.411 18.0028L175.811 20.5956L175.517 20.6445L175.175 20.7424L169.598 21.8186L169.06 21.9165L168.766 21.9654L107.322 33.7064L106.49 33.8532L106.637 34.6848L112.36 64.6732L112.507 65.5049L113.339 65.3581L195.428 49.6056L196.259 49.4589L196.064 48.6272ZM113.192 64.5265L107.517 34.587L168.375 22.9438H168.424L168.962 22.846L169.696 22.6992L175.762 21.5251L176.642 21.3294L176.985 21.2805L189.606 18.8345L195.281 48.774L113.192 64.5265Z" fill="#01283F"/>
<path fill-rule="evenodd" clip-rule="evenodd" d="M125.911 58.5092C125.765 58.5582 125.618 58.6071 125.52 58.656C124.786 57.6776 124.052 56.6992 123.319 55.7697C122.536 54.8402 121.704 53.9107 120.775 53.0301C120.726 52.9812 120.677 52.9323 120.628 52.8833C120.579 52.8833 120.579 52.8344 120.579 52.8344V52.7855C120.726 52.3941 120.873 52.0028 121.019 51.6603C121.166 51.269 121.313 50.8776 121.46 50.5352C121.509 50.3884 121.557 50.2905 121.606 50.1438C121.655 49.997 121.704 49.8992 121.802 49.7524C121.851 49.6057 121.9 49.5078 121.998 49.41C122.096 49.3121 122.145 49.1654 122.242 49.0675C122.34 48.9208 122.487 48.8229 122.634 48.7251C122.927 48.5783 123.221 48.5294 123.563 48.5294H123.71L123.661 48.3826C123.661 48.3337 123.612 48.2848 123.612 48.2848C123.612 48.2359 123.563 48.187 123.563 48.138C123.514 48.0891 123.514 48.0402 123.465 48.0402C123.416 47.9913 123.368 47.9913 123.319 47.9913C122.683 48.0402 122.047 48.0891 121.46 48.138C120.824 48.2359 120.237 48.2848 119.601 48.4316L119.503 48.4805L119.552 48.5783C119.552 48.6272 119.552 48.6272 119.552 48.6272C119.552 48.6762 119.552 48.7251 119.601 48.7251C119.601 48.774 119.65 48.8229 119.65 48.8229C119.698 48.8718 119.747 48.8718 119.796 48.8718C119.943 48.8229 120.09 48.8229 120.237 48.8229C120.383 48.8229 120.53 48.8718 120.628 48.9208C120.726 48.9697 120.824 49.0675 120.921 49.1165C121.019 49.2143 121.068 49.3121 121.068 49.41C121.068 49.5078 121.068 49.6546 121.068 49.7524C121.019 49.8992 121.019 49.997 120.97 50.1438C120.921 50.2905 120.873 50.3884 120.824 50.5352C120.775 50.6819 120.726 50.7798 120.677 50.9265C120.579 51.1711 120.481 51.4157 120.383 51.6603C120.286 51.856 120.237 52.0517 120.139 52.2474C119.894 52.0028 119.698 51.8071 119.454 51.6114C119.16 51.3668 118.916 51.1222 118.671 50.8776C118.427 50.633 118.133 50.3395 117.888 50.0949C117.693 49.8503 117.448 49.6546 117.252 49.41C117.35 49.3611 117.448 49.3611 117.546 49.3121C117.742 49.2632 117.888 49.2143 118.084 49.2143C118.182 49.2143 118.28 49.1654 118.329 49.1165C118.378 49.0675 118.378 49.0186 118.378 48.9697C118.378 48.9208 118.378 48.8718 118.378 48.8229C118.378 48.774 118.378 48.7251 118.378 48.7251V48.6272L118.28 48.6762C117.497 48.8229 116.714 49.0186 115.98 49.2632C115.198 49.4589 114.464 49.7524 113.681 50.0459C113.632 50.0949 113.583 50.0949 113.583 50.0949C113.534 50.0949 113.486 50.1438 113.437 50.1927C113.437 50.2416 113.388 50.2905 113.388 50.3395C113.388 50.3884 113.388 50.4862 113.388 50.5841V50.7308L113.681 50.5841C113.73 50.5352 113.779 50.5352 113.877 50.4862C113.926 50.4373 113.975 50.4373 114.024 50.4373C114.073 50.4373 114.122 50.3884 114.122 50.3884C114.122 50.4373 114.17 50.4373 114.219 50.5352C114.806 51.3668 115.442 52.1985 116.078 52.9812C116.714 53.7639 117.399 54.5467 118.133 55.2805C118.182 55.3294 118.231 55.3783 118.28 55.4272C118.329 55.4762 118.378 55.5251 118.475 55.574C118.524 55.6229 118.573 55.6718 118.622 55.7208C118.671 55.7697 118.671 55.7697 118.671 55.7697C118.671 55.7697 118.671 55.7697 118.671 55.8186C118.671 55.8675 118.622 55.9164 118.622 55.9654C118.475 56.4056 118.28 56.797 118.133 57.2373C117.937 57.6776 117.791 58.069 117.595 58.5092L117.448 58.9006C117.399 59.0474 117.35 59.1452 117.301 59.292C117.252 59.4387 117.204 59.5366 117.106 59.6344C117.057 59.7323 116.959 59.879 116.861 59.9279C116.763 60.0747 116.616 60.1725 116.47 60.2215C116.274 60.3193 116.029 60.3682 115.785 60.4171C115.687 60.4171 115.638 60.4171 115.54 60.4171H115.393L115.442 60.5639C115.442 60.6128 115.491 60.6618 115.491 60.6618C115.491 60.7107 115.54 60.7596 115.54 60.8085C115.54 60.8574 115.589 60.9064 115.638 60.9064C115.687 60.9553 115.736 60.9553 115.834 60.9553C116.519 60.9553 117.155 60.9064 117.839 60.8574C118.475 60.8085 119.16 60.7107 119.796 60.6128L119.943 60.5639L119.894 60.4171C119.894 60.3682 119.845 60.3682 119.845 60.3193C119.845 60.2704 119.796 60.2215 119.796 60.2215C119.747 60.1725 119.747 60.1236 119.698 60.1236C119.65 60.0747 119.601 60.0747 119.552 60.0747C119.454 60.0747 119.356 60.1236 119.258 60.1236C119.16 60.1236 119.063 60.1236 118.965 60.1236C118.867 60.1236 118.769 60.1236 118.671 60.0747C118.573 60.0747 118.475 60.0258 118.427 59.9769C118.329 59.9279 118.231 59.8301 118.133 59.7323C118.035 59.6344 117.986 59.4877 117.986 59.3898C117.937 59.2431 117.937 59.1452 117.986 59.0474C118.035 58.9006 118.084 58.8028 118.084 58.7049C118.133 58.5582 118.182 58.4603 118.231 58.3625C118.28 58.2157 118.329 58.1179 118.378 58.02C118.427 57.8733 118.475 57.7754 118.524 57.6776C118.622 57.3841 118.72 57.1395 118.818 56.8949C118.916 56.6503 119.014 56.4546 119.063 56.2589C119.356 56.5035 119.601 56.7481 119.894 56.9927C120.188 57.2862 120.53 57.5797 120.824 57.8733C121.117 58.1668 121.46 58.4603 121.753 58.7538C121.998 58.9984 122.242 59.292 122.487 59.5366C122.389 59.5366 122.34 59.5855 122.291 59.5855L121.9 59.6833C121.851 59.6833 121.851 59.6833 121.851 59.6833C121.704 59.6833 121.655 59.7812 121.655 59.7812C121.655 59.8301 121.606 59.879 121.606 59.9279C121.606 59.9769 121.606 60.0258 121.606 60.0747C121.606 60.1236 121.606 60.1725 121.606 60.1725V60.2704L121.704 60.2215C122.487 60.0747 123.27 59.879 124.004 59.6344C124.786 59.4387 125.52 59.1452 126.254 58.9006C126.303 58.8517 126.352 58.8517 126.352 58.8517C126.401 58.8517 126.45 58.8028 126.498 58.7538C126.498 58.7049 126.547 58.656 126.547 58.6071C126.547 58.5582 126.547 58.4603 126.547 58.3625V58.2157L126.401 58.2646C126.205 58.3625 126.058 58.4114 125.911 58.5092Z" fill="white"/>
<path fill-rule="evenodd" clip-rule="evenodd" d="M134.424 50.3884H134.57L134.521 50.2416C134.521 50.1927 134.473 50.1927 134.473 50.1438C134.473 50.0949 134.424 50.046 134.424 49.997C134.375 49.9481 134.375 49.8992 134.326 49.8992C134.277 49.8503 134.228 49.8503 134.179 49.8503C133.543 49.8503 132.956 49.8992 132.369 49.997C131.782 50.0949 131.146 50.1438 130.559 50.2416L130.461 50.2906L130.51 50.3884C130.51 50.4373 130.559 50.4862 130.559 50.4862C130.559 50.5352 130.608 50.5841 130.608 50.633L130.657 50.7309L131.097 50.633C131.195 50.633 131.244 50.5841 131.342 50.5841C131.342 50.633 131.342 50.6819 131.342 50.7309C131.342 50.7798 131.342 50.8776 131.293 50.9265C131.293 50.9755 131.293 51.0733 131.244 51.1222C131.244 51.1711 131.195 51.269 131.195 51.3179C130.999 52.2963 130.804 53.2258 130.608 54.2042C130.461 55.0359 130.265 55.8675 130.119 56.6503C130.021 56.3078 129.923 56.0143 129.874 55.7208C129.776 55.2805 129.678 54.7913 129.58 54.351C129.483 53.8129 129.385 53.3237 129.336 52.7855C129.238 52.2474 129.238 51.7093 129.189 51.2201V51.0733C129.189 51.0733 129.238 51.0244 129.287 51.0244L129.678 50.9265C129.776 50.8776 129.825 50.8287 129.825 50.7798C129.825 50.7309 129.825 50.6819 129.825 50.633V50.5841C129.825 50.5841 129.825 50.5841 129.825 50.5352V50.4862V50.3884L129.678 50.4373C129.042 50.5841 128.455 50.7309 127.868 50.8776C127.281 51.0244 126.645 51.2201 126.058 51.4647L126.009 51.5136V52.1006L126.156 52.0517C126.303 52.0028 126.401 51.9539 126.547 51.905C126.645 51.856 126.694 51.856 126.792 51.8071C126.792 52.8834 126.89 54.0085 127.086 55.0848C127.281 56.1611 127.624 57.2373 128.015 58.2647C127.917 58.2647 127.868 58.2647 127.77 58.2647C127.624 58.2647 127.526 58.2647 127.379 58.2647H127.183L127.232 58.4114C127.232 58.4603 127.232 58.5093 127.281 58.5093C127.281 58.5582 127.281 58.6071 127.33 58.656C127.379 58.7049 127.379 58.7539 127.428 58.7539C127.477 58.8028 127.526 58.8028 127.575 58.8028C128.211 58.8028 128.798 58.7539 129.385 58.656C129.972 58.5582 130.608 58.5093 131.195 58.4114L131.342 58.3625L131.293 58.2647C131.293 58.2157 131.244 58.1668 131.244 58.1668C131.244 58.1179 131.244 58.069 131.195 58.02V57.9222L131.097 57.9711C131.048 57.9711 130.999 57.9711 130.999 58.02L130.657 58.069C130.608 58.069 130.559 58.069 130.51 58.1179C130.51 58.069 130.51 58.069 130.51 58.02C130.51 57.9711 130.51 57.9222 130.51 57.9222C130.51 57.8733 130.51 57.8244 130.51 57.7754C130.706 56.7481 130.95 55.6719 131.146 54.5956C131.342 53.715 131.537 52.7855 131.684 51.856C131.782 52.1985 131.88 52.492 131.929 52.8344C132.027 53.3237 132.173 53.7639 132.222 54.2532C132.32 54.7913 132.418 55.3294 132.467 55.8675C132.565 56.4057 132.614 56.9438 132.614 57.4819C132.614 57.5308 132.614 57.5798 132.614 57.6287C132.565 57.6287 132.565 57.6776 132.516 57.6776C132.467 57.6776 132.369 57.7265 132.32 57.7265C132.271 57.7265 132.173 57.7754 132.124 57.7754C132.075 57.7754 132.027 57.8244 131.978 57.8733C131.929 57.9222 131.929 57.9711 131.929 58.02C131.929 58.069 131.929 58.1179 131.929 58.1668C131.929 58.2157 131.929 58.2157 131.978 58.2647L132.027 58.3625L132.124 58.3136C132.76 58.1668 133.347 58.0201 133.934 57.8733C134.521 57.7265 135.157 57.5308 135.745 57.2862L135.793 57.2373V57.1395C135.793 57.0906 135.793 56.9927 135.793 56.9438C135.793 56.8949 135.793 56.846 135.793 56.7481V56.6013L135.647 56.6503C135.549 56.6992 135.402 56.7481 135.304 56.797C135.206 56.846 135.157 56.846 135.06 56.8949C135.06 56.3567 135.06 55.8186 135.011 55.3294C134.962 54.7424 134.864 54.2042 134.766 53.6172C134.57 52.5409 134.228 51.4647 133.837 50.4373C133.934 50.4373 133.983 50.4373 134.081 50.4373C134.13 50.3884 134.277 50.3884 134.424 50.3884Z" fill="white"/>
<path fill-rule="evenodd" clip-rule="evenodd" d="M143.865 48.6273H144.012L143.963 48.4805C143.963 48.4316 143.914 48.4316 143.914 48.3827C143.914 48.3337 143.865 48.2848 143.865 48.2359C143.865 48.187 143.816 48.1381 143.767 48.1381C143.718 48.0891 143.67 48.0891 143.621 48.0891C142.985 48.0891 142.398 48.1381 141.811 48.2359C141.224 48.3337 140.588 48.3827 140.001 48.4805L139.903 48.5294L139.952 48.6273C139.952 48.6762 139.952 48.6762 139.952 48.7251C139.952 48.774 139.952 48.823 140.001 48.823C140.049 48.8719 140.049 48.9208 140.098 48.9208C140.147 48.9208 140.196 48.9697 140.245 48.9208L140.685 48.823H140.734C140.734 48.823 140.734 48.823 140.734 48.8719C140.734 48.9208 140.783 48.9208 140.783 48.9697C140.783 49.0186 140.783 49.0676 140.832 49.1165L140.881 49.2632C140.881 49.3122 140.93 49.3611 140.93 49.41C141.028 49.7524 141.126 50.0949 141.224 50.4863C141.321 50.8287 141.37 51.2201 141.468 51.5625V51.6114H141.419C141.419 51.6114 141.37 51.6604 141.321 51.6604C141.272 51.6604 141.224 51.7093 141.224 51.7093C140.832 51.856 140.441 52.0028 140.049 52.1006C139.707 52.2474 139.365 52.3452 138.973 52.492C138.875 52.0517 138.826 51.6114 138.778 51.1711C138.68 50.6819 138.68 50.2417 138.631 49.7524C138.631 49.7035 138.631 49.6546 138.631 49.6057C138.631 49.5568 138.631 49.5078 138.631 49.4589C138.631 49.41 138.631 49.41 138.68 49.3611C138.778 49.3122 138.826 49.3122 138.924 49.3122L139.169 49.2632C139.267 49.2143 139.316 49.1654 139.365 49.1165C139.365 49.0676 139.365 49.0186 139.365 48.9697V48.9208C139.365 48.9208 139.365 48.9208 139.365 48.8719C139.365 48.823 139.365 48.823 139.365 48.823V48.6762L139.267 48.7251C138.631 48.8719 138.044 49.0186 137.457 49.1654C136.87 49.3122 136.234 49.5078 135.647 49.7524L135.598 49.8014V50.3884L135.744 50.3395C135.842 50.2906 135.989 50.2417 136.136 50.1927C136.234 50.1438 136.283 50.1438 136.38 50.0949C136.38 51.1712 136.478 52.2963 136.674 53.3726C136.87 54.4488 137.212 55.5251 137.603 56.5524C137.506 56.5524 137.457 56.5524 137.359 56.5524C137.212 56.5524 137.114 56.5524 136.967 56.5524H136.821L136.87 56.6992C136.87 56.7481 136.919 56.797 136.919 56.797C136.919 56.846 136.967 56.8949 136.967 56.9438C136.967 56.9927 137.016 57.0416 137.065 57.0416C137.114 57.0906 137.163 57.0906 137.212 57.0906C137.848 57.0906 138.435 57.0416 139.022 56.9438C139.609 56.846 140.245 56.797 140.832 56.6992L140.93 56.6503L140.881 56.5524C140.881 56.5035 140.832 56.4546 140.832 56.4546C140.832 56.4057 140.783 56.3568 140.783 56.3078L140.734 56.21L140.636 56.2589C140.588 56.2589 140.539 56.2589 140.539 56.3078L140.245 56.3568C140.196 56.3568 140.147 56.4057 140.049 56.4057H139.903V56.3568C139.707 55.8186 139.56 55.2805 139.413 54.6934C139.316 54.1553 139.169 53.6172 139.071 53.0791C139.511 52.9323 139.903 52.7855 140.343 52.6388C140.734 52.492 141.175 52.3452 141.566 52.1985C141.664 52.7855 141.762 53.3726 141.86 53.9596C141.957 54.5956 142.006 55.2316 142.055 55.8675V55.9165C142.055 55.9165 142.055 55.9165 142.006 55.9165C141.908 55.9165 141.86 55.9654 141.762 55.9654C141.713 55.9654 141.615 56.0143 141.566 56.0143C141.517 56.0143 141.517 56.0143 141.517 56.0143C141.419 56.0143 141.37 56.1121 141.37 56.21C141.37 56.2589 141.37 56.3568 141.37 56.4546V56.5524L141.468 56.5035C142.104 56.3568 142.691 56.21 143.278 56.0632C143.865 55.9165 144.501 55.7208 145.088 55.4762L145.137 55.4273V55.3294C145.137 55.2805 145.137 55.1827 145.137 55.1337C145.137 55.0848 145.137 55.0359 145.137 54.9381V54.7913L144.99 54.8402C144.893 54.8891 144.746 54.938 144.648 54.987C144.55 55.0359 144.501 55.0359 144.403 55.0848C144.403 54.5467 144.403 54.0086 144.354 53.5193C144.306 52.9323 144.257 52.3942 144.11 51.8071C143.914 50.7309 143.572 49.6546 143.18 48.6273C143.278 48.6273 143.327 48.6273 143.425 48.6273C143.572 48.5783 143.719 48.5783 143.865 48.6273Z" fill="white"/>
<path fill-rule="evenodd" clip-rule="evenodd" d="M153.992 52.6877C153.943 52.6877 153.943 52.6388 153.894 52.6388L153.796 52.5409L153.747 52.6877C153.747 52.7366 153.698 52.7855 153.698 52.8344C153.649 52.8834 153.6 52.9323 153.6 53.0301C153.552 53.0791 153.503 53.128 153.454 53.1769C153.356 53.2747 153.258 53.2747 153.258 53.2258C153.209 53.1769 153.209 53.1769 153.16 53.128C153.111 53.079 153.111 53.0301 153.062 52.9323C153.013 52.8344 153.013 52.7855 153.013 52.6877C153.013 52.5898 152.965 52.492 152.965 52.3942C152.965 52.2963 152.916 52.1985 152.916 52.1006C152.867 51.905 152.818 51.7093 152.769 51.5136C152.72 51.3179 152.671 51.1222 152.524 50.9755C152.426 50.7798 152.329 50.633 152.182 50.4862C152.035 50.3395 151.888 50.2416 151.693 50.1438C151.546 50.0949 151.399 50.046 151.301 49.997C151.154 49.9481 151.008 49.9481 150.91 49.9481C150.763 49.9481 150.616 49.9481 150.518 49.997C150.323 50.046 150.078 50.046 149.883 50.0949H149.834C149.834 50.0949 149.834 50.0949 149.883 50.046C149.931 49.997 149.931 49.997 149.98 49.9481C150.127 49.7524 150.176 49.5568 150.225 49.3611C150.274 49.1654 150.323 48.9697 150.323 48.774C150.323 48.5783 150.323 48.3827 150.274 48.1381C150.274 47.9424 150.225 47.7467 150.225 47.551C150.225 47.5021 150.225 47.4532 150.225 47.4042C150.225 47.3553 150.225 47.3064 150.274 47.2086C150.274 47.1596 150.274 47.1107 150.323 47.0618C150.323 47.0129 150.372 47.0129 150.421 47.0129C150.47 47.0129 150.518 47.0129 150.518 47.0618C150.567 47.1107 150.616 47.1596 150.616 47.2086C150.665 47.3064 150.665 47.3553 150.714 47.4532C150.763 47.551 150.763 47.5999 150.812 47.6978C150.861 47.7956 150.959 47.8934 151.057 47.9913C151.154 48.0891 151.301 48.1381 151.399 48.2359C151.546 48.2848 151.693 48.3337 151.839 48.3827C152.084 48.4316 152.329 48.4316 152.524 48.2848C152.622 48.2359 152.671 48.1381 152.72 48.0891C152.769 47.9913 152.818 47.8934 152.818 47.7956C152.818 47.6978 152.818 47.551 152.818 47.4532C152.769 47.2086 152.671 46.964 152.524 46.8172C152.377 46.6215 152.231 46.4747 152.035 46.3769C151.839 46.2791 151.595 46.1812 151.399 46.1323C151.057 46.0834 150.714 46.0834 150.421 46.2301C150.323 46.2791 150.225 46.328 150.127 46.3769C150.029 46.4258 149.98 46.5237 149.931 46.6215C149.883 46.7194 149.834 46.8172 149.785 46.915C149.785 47.0129 149.736 47.1107 149.736 47.2575C149.736 47.3553 149.736 47.4532 149.736 47.551C149.736 47.6488 149.736 47.7467 149.736 47.8445C149.736 47.9424 149.736 48.0402 149.736 48.1381C149.736 48.3337 149.736 48.5783 149.736 48.774C149.736 48.9697 149.687 49.1654 149.638 49.41C149.589 49.6057 149.491 49.8014 149.393 49.8992C149.295 50.046 149.1 50.1438 148.953 50.2416C148.806 50.3395 148.611 50.4373 148.415 50.4862C148.268 50.5352 148.121 50.5841 147.926 50.633C147.828 50.1438 147.779 49.6057 147.681 49.1165C147.583 48.5783 147.534 48.0402 147.534 47.4532C147.632 47.4042 147.73 47.4042 147.828 47.3553C147.926 47.3064 148.024 47.3064 148.072 47.3064H148.121H148.17C148.268 47.3064 148.317 47.2086 148.317 47.1107C148.317 47.0618 148.317 46.964 148.268 46.8661V46.7683L148.17 46.8172C147.534 46.964 146.898 47.1107 146.262 47.3064C145.626 47.5021 144.99 47.6978 144.403 47.9424H144.306V48.0402C144.306 48.0891 144.306 48.1381 144.306 48.2359C144.306 48.2848 144.306 48.3337 144.306 48.4316V48.5783L144.452 48.5294C144.599 48.4805 144.697 48.4316 144.795 48.3827C144.893 48.3337 144.942 48.3337 145.039 48.2848C145.039 49.3611 145.186 50.4862 145.382 51.5625C145.48 52.1496 145.626 52.6877 145.773 53.2747C145.92 53.7639 146.116 54.3021 146.311 54.7913C146.213 54.7913 146.165 54.7913 146.067 54.7913C145.969 54.7913 145.822 54.7913 145.675 54.7424H145.529L145.577 54.8891C145.577 54.938 145.626 54.987 145.626 54.987C145.626 55.0359 145.675 55.0848 145.675 55.1337C145.724 55.1826 145.724 55.2316 145.773 55.2805C145.822 55.3294 145.871 55.3294 145.92 55.3294C146.556 55.3294 147.192 55.2805 147.828 55.2316C148.464 55.1337 149.1 55.0848 149.687 54.938L149.785 54.8891L149.736 54.6445C149.736 54.5956 149.687 54.5467 149.687 54.4978V54.3999L149.589 54.4488C149.491 54.4978 149.393 54.4978 149.295 54.4978C149.149 54.5467 149.051 54.5467 148.953 54.5467H148.904C148.855 54.5467 148.855 54.4978 148.855 54.4978C148.855 54.4488 148.806 54.3999 148.806 54.351C148.659 53.8618 148.513 53.3726 148.366 52.8834C148.219 52.3942 148.121 51.856 148.024 51.3668C148.024 51.3668 148.072 51.3668 148.072 51.3179C148.17 51.269 148.268 51.269 148.366 51.2201C148.464 51.1711 148.562 51.1711 148.659 51.1222C148.953 51.0733 149.247 51.0733 149.442 51.2201C149.638 51.3179 149.834 51.5136 149.98 51.7582C150.078 51.905 150.127 52.0517 150.225 52.1985C150.274 52.3452 150.372 52.492 150.421 52.6388C150.47 52.7855 150.518 52.9323 150.616 53.128C150.665 53.2747 150.763 53.4215 150.812 53.6172C150.861 53.7639 150.959 53.9107 151.008 54.0575C151.106 54.2042 151.203 54.3021 151.301 54.3999C151.448 54.4978 151.546 54.5467 151.742 54.5956C151.888 54.6445 152.084 54.6445 152.329 54.5467C152.671 54.4978 153.013 54.351 153.307 54.1553C153.6 53.9596 153.845 53.715 154.041 53.3726C154.041 53.3237 154.09 53.3237 154.09 53.2747C154.139 53.2258 154.139 53.1769 154.139 53.128C154.188 53.079 154.188 53.0301 154.188 52.9812C154.236 52.9323 154.236 52.8834 154.188 52.8344C154.09 52.7366 154.041 52.6877 153.992 52.6877Z" fill="white"/>
<path fill-rule="evenodd" clip-rule="evenodd" d="M171.652 49.7524C171.457 49.8503 171.261 49.8992 171.065 49.9481C171.065 48.8718 170.967 47.7956 170.772 46.7193C170.674 46.1323 170.527 45.5452 170.332 44.9582C170.185 44.469 169.989 43.9308 169.793 43.3927H170.038C170.185 43.3927 170.332 43.3927 170.429 43.4416H170.576L170.527 43.2949C170.527 43.246 170.478 43.246 170.478 43.197C170.478 43.1481 170.429 43.0992 170.429 43.0503C170.429 43.0013 170.38 42.9524 170.332 42.9524C170.283 42.9035 170.234 42.9035 170.185 42.9035C169.549 42.9035 168.913 42.9524 168.277 43.0013C167.201 43.1481 166.075 43.3438 165.048 43.5884C164.608 43.6862 164.168 43.833 163.727 43.9308H163.678L163.629 44.5179L163.776 44.469C163.874 44.42 163.972 44.42 164.07 44.3711C164.265 44.2733 164.461 44.2244 164.608 44.2733C164.657 44.3222 164.706 44.3222 164.803 44.3711C164.852 44.42 164.901 44.469 164.901 44.5179C164.95 44.5668 164.95 44.6647 164.999 44.7625C164.999 44.9093 165.048 45.0071 165.048 45.1049C165.048 45.2517 165.048 45.3495 165.048 45.4474C165.097 45.8388 165.146 46.2301 165.195 46.6215C165.244 47.0129 165.293 47.4042 165.391 47.7467C165.488 48.138 165.537 48.4805 165.635 48.8229C165.733 49.1654 165.782 49.5567 165.88 49.8992L165.929 50.0949L165.978 50.2905C165.978 50.3395 165.978 50.4373 165.978 50.5351C165.978 50.633 165.978 50.6819 165.978 50.7308C165.978 50.7797 165.978 50.8287 165.929 50.8776C165.929 50.8776 165.88 50.9265 165.831 50.9265C165.733 50.9265 165.684 50.9265 165.586 50.9265C165.488 50.9265 165.439 50.8776 165.391 50.8287C165.342 50.7798 165.293 50.7308 165.244 50.633C165.195 50.5351 165.146 50.4862 165.097 50.3884C165.048 50.2416 164.95 50.1438 164.852 50.0459C164.755 49.9481 164.657 49.8503 164.51 49.7524C164.412 49.6546 164.216 49.6057 164.07 49.6057C163.923 49.5567 163.776 49.5567 163.58 49.6057C163.483 49.6057 163.385 49.6546 163.287 49.7035C163.189 49.7524 163.14 49.8503 163.14 49.8992C163.091 49.997 163.042 50.0949 163.042 50.1927C163.042 50.2905 163.042 50.4373 163.091 50.5351C163.091 50.5351 162.651 51.0244 162.602 51.1222C162.553 51.1711 162.504 51.22 162.406 51.3179C162.357 51.3668 162.309 51.3668 162.26 51.3668C162.211 51.3668 162.211 51.3668 162.211 51.3668C162.211 51.3668 162.162 51.3179 162.113 51.1711C162.113 51.1222 162.113 51.0733 162.113 50.9754C162.113 50.8776 162.113 50.8287 162.113 50.7798C162.113 50.7308 162.113 50.633 162.113 50.5841C162.113 50.4862 162.113 50.4373 162.113 50.3884C162.064 50.0459 162.064 49.7035 162.015 49.41L161.868 48.4316C161.77 48.0402 161.673 47.6488 161.575 47.2575C161.477 46.8661 161.379 46.4747 161.232 46.0834L161.134 45.8388C161.134 45.7898 161.085 45.692 161.037 45.5941C160.988 45.4963 160.988 45.4474 160.939 45.3495C160.89 45.2517 160.841 45.2028 160.792 45.1539C160.645 45.0071 160.547 44.9093 160.401 44.8603C160.254 44.7625 160.107 44.7136 159.911 44.6647C159.765 44.6157 159.569 44.5668 159.422 44.5668C159.226 44.5668 159.08 44.5668 158.884 44.5668C158.688 44.5668 158.542 44.6157 158.346 44.6157C157.906 44.6647 157.563 44.7625 157.172 44.8603C156.927 44.9093 156.683 45.0071 156.487 45.1049C156.242 45.2028 156.047 45.3006 155.851 45.3985C155.655 45.5452 155.411 45.692 155.264 45.8388C155.117 45.9855 155.019 46.0834 154.873 46.279C154.726 46.4258 154.628 46.6215 154.53 46.8172C154.432 47.0128 154.383 47.2085 154.334 47.4042C154.285 47.5999 154.285 47.7956 154.334 47.9913C154.383 48.1869 154.432 48.3337 154.53 48.4805C154.628 48.6272 154.726 48.774 154.873 48.8718C154.97 48.9697 155.117 49.0675 155.264 49.0675C155.606 49.1654 155.949 49.0675 156.193 48.8229C156.34 48.7251 156.487 48.5783 156.585 48.3826C156.683 48.1869 156.732 48.0402 156.78 47.8445C156.829 47.6488 156.829 47.4531 156.78 47.2575C156.732 47.1107 156.732 47.0129 156.683 46.915C156.634 46.8172 156.585 46.7193 156.487 46.6215C156.438 46.5726 156.389 46.5236 156.34 46.4747C156.291 46.4258 156.242 46.3769 156.193 46.3769C156.144 46.328 156.096 46.279 156.096 46.2301C156.096 46.1812 156.047 46.1812 156.047 46.1323C156.047 46.0834 156.047 45.9855 156.096 45.9366C156.144 45.8388 156.242 45.7409 156.34 45.692C156.438 45.5941 156.536 45.5452 156.683 45.4963C156.829 45.4474 156.927 45.3985 157.025 45.3495C157.172 45.3006 157.27 45.3006 157.319 45.3006C157.465 45.2517 157.612 45.2517 157.71 45.2517C157.857 45.2517 158.003 45.3006 158.101 45.3495C158.199 45.3985 158.248 45.4474 158.297 45.4963C158.346 45.5452 158.395 45.6431 158.444 45.692C158.493 45.7409 158.542 45.8388 158.542 45.8877C158.591 45.9855 158.591 46.0834 158.639 46.1323L158.737 46.6215C158.786 46.7682 158.835 46.9639 158.884 47.1107C158.933 47.3064 158.933 47.4531 158.982 47.5999C159.031 47.7467 159.031 47.8934 159.08 48.0402C158.542 48.2848 158.003 48.5294 157.465 48.774C156.927 49.0186 156.389 49.2632 155.9 49.5567C155.704 49.6546 155.557 49.7524 155.362 49.8503C155.166 49.9481 155.019 50.0949 154.873 50.2416C154.726 50.3884 154.628 50.5841 154.579 50.7798C154.53 50.9754 154.53 51.22 154.579 51.5136C154.628 51.7092 154.677 51.856 154.726 52.0517C154.824 52.2474 154.873 52.3941 155.019 52.5409C155.117 52.6877 155.264 52.8344 155.362 52.9323C155.509 53.0301 155.655 53.1769 155.802 53.2258C156.096 53.3726 156.438 53.5193 156.732 53.5193C157.025 53.5682 157.368 53.5682 157.71 53.4704C157.906 53.4215 158.15 53.3726 158.346 53.2747C158.542 53.1769 158.737 53.079 158.933 52.9323C159.129 52.7855 159.324 52.6387 159.471 52.492C159.569 52.3452 159.716 52.1985 159.814 52.0517C159.911 52.1495 159.96 52.2474 160.058 52.3452C160.205 52.492 160.352 52.5409 160.498 52.6387C160.645 52.7366 160.792 52.7855 160.988 52.7855C161.379 52.8344 161.721 52.7366 162.064 52.5409C162.26 52.4431 162.455 52.2963 162.602 52.1495C162.749 52.0028 162.896 51.856 163.042 51.6603C163.14 51.4646 163.287 51.269 163.385 51.1222L163.434 51.0733C163.483 51.1711 163.532 51.22 163.58 51.3179C163.776 51.5136 163.923 51.6603 164.167 51.7582C164.412 51.856 164.657 51.9049 164.901 51.9538C165.146 51.9538 165.391 51.9538 165.635 51.9049C165.831 51.856 166.026 51.7582 166.173 51.7092C166.32 51.6114 166.418 51.4646 166.516 51.3668C166.614 51.22 166.662 51.0733 166.662 50.8776C166.662 50.7308 166.711 50.5351 166.662 50.3395C166.662 50.1438 166.614 49.9481 166.614 49.8013C166.565 49.6057 166.516 49.41 166.516 49.2143C166.467 48.9208 166.418 48.6272 166.32 48.3337C166.271 48.0402 166.222 47.7467 166.173 47.4531C166.124 47.1596 166.075 46.8661 166.026 46.6215C165.978 46.328 165.929 46.0834 165.929 45.7898L165.831 45.1539C165.782 44.9582 165.782 44.7625 165.782 44.5179C165.782 44.3711 165.831 44.2244 165.929 44.1265C166.026 44.0287 166.075 43.9798 166.222 43.9308C166.369 43.8819 166.467 43.833 166.662 43.7841C166.809 43.7352 167.005 43.6862 167.201 43.6862L167.641 43.5884C167.837 44.1265 167.983 44.7136 168.179 45.2517C168.326 45.8388 168.473 46.4258 168.57 47.0618C168.668 47.6488 168.766 48.2848 168.864 48.8718C168.962 49.4589 168.962 50.0459 169.011 50.5841C168.913 50.633 168.815 50.633 168.717 50.6819C168.619 50.7308 168.473 50.7308 168.375 50.7798C168.326 50.7798 168.228 50.8287 168.228 50.9265C168.179 50.9754 168.179 51.0244 168.228 51.0733V51.1222C168.228 51.1711 168.277 51.1711 168.277 51.1711V51.269H168.375C169.011 51.1222 169.647 50.9754 170.283 50.7798C170.919 50.633 171.555 50.3884 172.142 50.1927L172.191 50.1438V50.0459C172.191 49.997 172.191 49.9481 172.191 49.8503L172.142 49.5567L171.652 49.7524ZM159.471 51.6114C159.373 51.7092 159.324 51.8071 159.226 51.9538C159.129 52.0517 159.031 52.1495 158.933 52.2474C158.835 52.3452 158.688 52.4431 158.591 52.492C158.395 52.5898 158.199 52.6387 158.003 52.6387C157.906 52.6387 157.857 52.6387 157.808 52.6387C157.71 52.6387 157.661 52.5898 157.612 52.5409C157.563 52.492 157.514 52.4431 157.465 52.3941C157.368 52.2474 157.27 52.0517 157.221 51.9049C157.123 51.7092 157.123 51.5625 157.074 51.3668C157.025 51.22 157.025 51.0733 157.025 50.9265C157.025 50.7797 157.025 50.633 157.074 50.4862C157.123 50.3395 157.172 50.2416 157.221 50.1438C157.319 49.997 157.416 49.8992 157.514 49.8013C157.612 49.6546 157.759 49.5567 157.857 49.4589C158.003 49.361 158.101 49.2632 158.248 49.1654C158.395 49.0675 158.542 49.0186 158.688 48.9208C158.786 48.8718 158.933 48.8229 159.031 48.774L159.08 48.9208C159.178 49.361 159.227 49.8503 159.324 50.2905L159.471 51.6114Z" fill="white"/>
<path fill-rule="evenodd" clip-rule="evenodd" d="M179.48 45.7899C179.382 45.5942 179.284 45.4474 179.186 45.3006C179.039 45.1539 178.893 45.056 178.746 44.9093C178.55 44.8114 178.355 44.7136 178.159 44.6647C177.816 44.5668 177.425 44.5668 177.083 44.5668C176.398 44.6158 175.713 44.7136 175.077 44.9093C174.783 45.0071 174.539 45.056 174.245 45.105C174.196 44.7136 174.147 44.3222 174.147 43.9309C174.098 43.4906 174.098 43.0503 174.147 42.61C174.147 42.5611 174.147 42.5122 174.147 42.5122V42.4632C174.196 42.4632 174.196 42.4143 174.294 42.4143C174.392 42.3654 174.49 42.3654 174.588 42.3165C174.686 42.2676 174.783 42.2676 174.881 42.2186H174.93V41.974C174.93 41.9251 174.93 41.8762 174.93 41.8273V41.6805L174.783 41.7294C174.147 41.8762 173.511 42.023 172.875 42.1697C172.239 42.3654 171.652 42.5122 171.016 42.7079L170.968 42.7568V42.8546C170.968 42.9035 170.968 42.9525 170.968 43.0503V43.3927L171.114 43.3438C171.212 43.2949 171.359 43.246 171.506 43.246C171.555 43.1971 171.652 43.1971 171.701 43.1481C171.701 43.6863 171.701 44.1755 171.701 44.7136C171.75 45.3007 171.799 45.8388 171.946 46.4258C172.044 47.0129 172.191 47.551 172.386 48.0891C172.533 48.5783 172.778 49.0676 172.973 49.5568C172.875 49.5568 172.827 49.5568 172.729 49.5568C172.631 49.5568 172.484 49.5568 172.337 49.5568H172.191L172.239 49.7035C172.239 49.7524 172.288 49.7524 172.288 49.8014C172.337 49.8503 172.337 49.8992 172.337 49.8992C172.337 49.9481 172.386 49.997 172.435 49.997C172.484 50.046 172.533 50.046 172.582 50.046C173.267 49.997 173.952 49.9481 174.637 49.8503C175.321 49.7524 176.055 49.6546 176.691 49.5078C176.985 49.4589 177.278 49.3611 177.523 49.3122C177.816 49.2143 178.061 49.1165 178.306 48.9697C178.55 48.8229 178.795 48.6273 178.991 48.4316C179.186 48.2359 179.382 47.9424 179.48 47.6488C179.578 47.4042 179.627 47.1596 179.627 46.964C179.675 46.7194 179.675 46.4747 179.578 46.2301C179.627 46.1323 179.578 45.9855 179.48 45.7899ZM176.838 48.6273C176.838 48.7251 176.838 48.774 176.838 48.8229C176.838 48.8719 176.789 48.9208 176.789 48.9697C176.74 49.0186 176.74 49.0676 176.691 49.1165C176.593 49.2143 176.496 49.2632 176.398 49.2632C176.202 49.3611 175.957 49.3611 175.713 49.41C175.615 49.41 175.517 49.4589 175.419 49.4589C175.175 48.9697 174.979 48.4805 174.832 47.9913C174.686 47.4532 174.539 46.915 174.392 46.3769C174.392 46.328 174.392 46.2791 174.343 46.2301C174.343 46.1812 174.294 46.0834 174.294 46.0345C174.294 45.9366 174.294 45.8877 174.294 45.8388V45.7899C174.392 45.7899 174.49 45.7409 174.588 45.692C174.783 45.6431 174.979 45.5942 175.175 45.5942C175.273 45.5942 175.37 45.5942 175.468 45.5942C175.566 45.6431 175.664 45.6431 175.762 45.692C175.86 45.7409 175.957 45.7899 176.006 45.8877C176.055 45.9366 176.104 46.0345 176.153 46.0834C176.202 46.1812 176.251 46.2301 176.251 46.328C176.3 46.4258 176.349 46.5237 176.349 46.5726C176.349 46.6704 176.398 46.7683 176.447 46.8661C176.545 47.1107 176.593 47.3553 176.642 47.6488C176.74 47.8935 176.74 48.1381 176.789 48.4316C176.838 48.4805 176.838 48.5294 176.838 48.6273Z" fill="white"/>
<path fill-rule="evenodd" clip-rule="evenodd" d="M183.002 47.6488C182.953 47.6488 182.904 47.6978 182.855 47.6978C182.855 47.1596 182.855 46.6704 182.855 46.1323C182.806 45.5452 182.757 45.0071 182.659 44.4201C182.562 43.833 182.415 43.2949 182.219 42.7568C182.072 42.2676 181.877 41.7783 181.632 41.2891C181.681 41.2891 181.73 41.2891 181.828 41.2891H182.317L182.268 41.1424C182.268 41.0935 182.268 41.0445 182.219 41.0445C182.219 40.9956 182.17 40.9467 182.17 40.8978C182.121 40.8488 182.121 40.7999 182.072 40.7999C182.024 40.751 181.975 40.751 181.877 40.751C181.29 40.7999 180.654 40.8488 180.067 40.8978C179.48 40.9956 178.844 41.0445 178.257 41.1424L178.11 41.1913L178.208 41.3381C178.257 41.387 178.257 41.4359 178.257 41.4359C178.257 41.4848 178.306 41.5337 178.306 41.5827L178.354 41.6316H178.452C178.599 41.6316 178.697 41.5827 178.795 41.5827L179.137 41.5337C179.186 41.5337 179.186 41.5337 179.186 41.5337C179.186 41.5337 179.186 41.5337 179.186 41.5827C179.186 41.6316 179.235 41.6316 179.235 41.6805C179.48 42.2186 179.724 42.7568 179.871 43.2949C180.067 43.833 180.213 44.3711 180.311 44.9582C180.409 45.5452 180.507 46.1323 180.556 46.7193C180.605 47.3064 180.605 47.8445 180.556 48.4316C180.458 48.4805 180.36 48.4805 180.262 48.5294C180.165 48.5783 180.018 48.5783 179.92 48.6273C179.871 48.6273 179.822 48.6762 179.773 48.7251C179.724 48.774 179.724 48.8229 179.724 48.8719C179.724 48.9208 179.724 48.9697 179.724 49.0186C179.724 49.0675 179.724 49.0675 179.724 49.1165V49.2632L179.871 49.2143C180.507 49.0675 181.094 48.9208 181.681 48.774C182.268 48.6272 182.904 48.4316 183.491 48.2359L183.54 48.187V47.5999L183.393 47.6488C183.198 47.5999 183.1 47.5999 183.002 47.6488Z" fill="white"/>
<path fill-rule="evenodd" clip-rule="evenodd" d="M191.416 46.1323C191.416 45.5942 191.367 45.056 191.367 44.5668C191.318 43.9798 191.221 43.4417 191.123 42.8546C191.025 42.2676 190.878 41.7294 190.682 41.1424C190.536 40.6532 190.34 40.115 190.144 39.6258C190.242 39.6258 190.291 39.6258 190.389 39.6258C190.536 39.6258 190.634 39.6258 190.78 39.6258H190.927L190.878 39.4791C190.878 39.4302 190.878 39.3812 190.829 39.3812C190.829 39.3323 190.829 39.2834 190.78 39.2345C190.731 39.1855 190.731 39.1366 190.682 39.1366C190.634 39.0877 190.585 39.0877 190.536 39.0877C189.9 39.0877 189.313 39.1366 188.726 39.2345C188.139 39.3323 187.503 39.3812 186.916 39.528H186.867L186.818 39.5769C186.769 39.6748 186.769 39.7237 186.769 39.7726C186.769 39.8215 186.818 39.8704 186.867 39.9194C186.916 39.9683 186.964 39.9683 187.013 39.9683C187.062 39.9683 187.111 39.9683 187.16 39.9683C187.258 39.9683 187.405 39.9194 187.503 39.8704C187.552 39.8704 187.552 39.8704 187.552 39.8704C187.747 40.3596 187.894 40.8489 187.992 41.387C188.09 41.9251 188.236 42.4632 188.334 43.0014C188.236 43.0992 188.139 43.1481 188.041 43.246C187.943 43.3438 187.796 43.4417 187.649 43.5395C187.552 43.6373 187.405 43.7352 187.258 43.7841C187.062 43.8819 186.818 43.9798 186.622 43.9309C186.524 43.9309 186.475 43.8819 186.426 43.8819C186.377 43.833 186.329 43.833 186.231 43.7352C186.182 43.6863 186.133 43.6373 186.133 43.5395C186.133 43.4906 186.084 43.3927 186.084 43.3438C186.084 43.2949 186.084 43.1971 186.035 43.1481C185.986 42.9524 185.986 42.8057 185.937 42.61C185.888 42.4143 185.888 42.2676 185.839 42.0719C185.79 41.7783 185.741 41.5337 185.741 41.2891C185.693 40.9956 185.693 40.751 185.644 40.4575C185.644 40.4086 185.644 40.3596 185.595 40.3107C185.595 40.2618 185.595 40.2618 185.595 40.2129V40.164H185.644C185.741 40.115 185.839 40.115 185.937 40.0661C186.035 40.0172 186.133 40.0172 186.231 39.9683L186.329 39.9194V39.8215C186.329 39.7726 186.329 39.7237 186.329 39.6748C186.329 39.6258 186.329 39.5769 186.28 39.528V39.4302L186.182 39.4791C185.546 39.6258 184.959 39.7726 184.372 39.9194C183.785 40.0661 183.149 40.2618 182.562 40.5064L182.513 40.5553V40.6532C182.513 40.7021 182.513 40.751 182.513 40.8489C182.513 40.8978 182.513 40.9467 182.513 40.9956V41.1424L182.659 41.0935C182.757 41.0445 182.904 40.9956 183.002 40.9467C183.1 40.8978 183.149 40.8978 183.247 40.8489C183.247 41.2891 183.247 41.6805 183.295 42.0719C183.344 42.5611 183.393 43.0014 183.491 43.4417C183.54 43.5884 183.589 43.7841 183.589 43.9309C183.638 44.0776 183.687 44.2244 183.785 44.3711C183.882 44.5179 183.98 44.6158 184.127 44.7136C184.225 44.8114 184.421 44.9093 184.567 44.9582C184.763 45.056 184.959 45.105 185.154 45.105C185.595 45.1539 186.084 45.0071 186.524 44.8114C186.769 44.6647 187.013 44.5179 187.258 44.3711C187.503 44.2244 187.698 44.0287 187.943 43.833C188.09 43.6863 188.236 43.5395 188.383 43.4417C188.481 43.9798 188.579 44.469 188.628 45.0071C188.726 45.5452 188.775 46.1323 188.823 46.6704C188.726 46.6704 188.677 46.7193 188.579 46.7193C188.481 46.7683 188.383 46.7683 188.285 46.8172C188.187 46.8172 188.188 46.8661 188.139 46.8661C188.041 46.915 188.041 46.964 188.041 46.964C188.041 47.0129 188.041 47.0618 188.041 47.1107C188.041 47.1596 188.041 47.2086 188.041 47.2575V47.3553L188.139 47.3064C188.775 47.1596 189.411 47.0129 190.046 46.8661C190.682 46.7193 191.27 46.4747 191.905 46.2791L191.954 46.2301V45.9855C191.954 45.9366 191.954 45.8877 191.954 45.7899V45.6431L191.465 45.8388C191.563 46.0834 191.465 46.1323 191.416 46.1323Z" fill="white"/>
<path fill-rule="evenodd" clip-rule="evenodd" d="M112.605 44.1755C112.85 44.5668 113.143 44.9093 113.437 45.2028C113.779 45.4963 114.122 45.7409 114.513 45.8877C114.904 46.0834 115.296 46.1812 115.736 46.2301C116.176 46.279 116.617 46.279 117.106 46.1812C117.302 46.1323 117.546 46.0834 117.742 45.9855C117.937 45.8877 118.133 45.7898 118.329 45.692C118.525 45.5942 118.671 45.4474 118.867 45.3495C119.014 45.2028 119.209 45.1049 119.356 44.9582C119.405 44.9093 119.454 44.9093 119.454 44.9093C119.552 44.8603 119.601 44.8603 119.699 44.8603C119.748 44.8603 119.748 44.8603 119.796 44.9093C119.845 44.9093 119.845 44.9582 119.845 44.9582C119.845 45.0071 119.894 45.0071 119.894 45.056L119.943 45.2028L120.188 45.1049C120.237 45.1049 120.286 45.056 120.335 45.056C120.384 45.056 120.432 45.0071 120.432 45.0071C120.481 44.9582 120.481 44.9582 120.481 44.9093C120.481 44.8603 120.481 44.8603 120.481 44.8114C120.481 44.7625 120.481 44.7625 120.481 44.7136C120.481 44.2733 120.481 43.8819 120.432 43.4906C120.384 43.0992 120.335 42.6589 120.286 42.2675C120.286 42.1697 120.237 42.1208 120.237 42.0229C120.237 41.9251 120.237 41.8273 120.188 41.7783C120.188 41.6805 120.09 41.6316 120.041 41.5827C119.992 41.5827 119.894 41.5337 119.796 41.5337L119.699 41.4848V41.5827C119.65 41.9251 119.601 42.2675 119.552 42.5611C119.503 42.7078 119.503 42.8546 119.454 43.0014C119.454 43.1481 119.405 43.2949 119.356 43.4416C119.307 43.5884 119.258 43.7352 119.209 43.833C119.161 43.9798 119.112 44.0776 119.063 44.1755C118.965 44.3711 118.867 44.5179 118.72 44.7136C118.622 44.9093 118.427 45.056 118.28 45.2028C118.133 45.3496 117.937 45.4474 117.791 45.5452C117.399 45.7409 116.959 45.8388 116.568 45.7898C116.372 45.7409 116.176 45.692 116.03 45.5942C115.834 45.4963 115.687 45.3985 115.54 45.2517C115.394 45.1049 115.247 44.9582 115.149 44.7625C115.051 44.5668 114.953 44.3711 114.855 44.1755C114.758 43.9798 114.709 43.7841 114.66 43.5884C114.562 43.3438 114.513 43.0503 114.464 42.8057C114.415 42.5611 114.366 42.2675 114.317 42.0229C114.268 41.7783 114.22 41.5337 114.171 41.2402C114.122 40.9956 114.073 40.7021 114.024 40.4575C113.975 40.2129 113.926 39.9193 113.926 39.6747C113.877 39.4301 113.877 39.1366 113.877 38.892C113.877 38.6963 113.877 38.5496 113.877 38.3539C113.877 38.1582 113.926 37.9625 113.975 37.8158C114.024 37.6201 114.073 37.4733 114.122 37.2776C114.22 37.1309 114.268 36.9841 114.415 36.8373C114.562 36.6906 114.709 36.5438 114.904 36.446C115.345 36.2014 115.834 36.1524 116.274 36.2014C116.519 36.2503 116.714 36.2992 116.959 36.397C117.155 36.4949 117.35 36.5927 117.546 36.7395C117.742 36.8863 117.889 37.033 118.084 37.2287C118.231 37.4244 118.378 37.6201 118.525 37.8158C118.671 38.0114 118.769 38.256 118.867 38.4517L118.916 38.5006C118.916 38.5496 118.965 38.5496 118.965 38.5985C118.965 38.6474 119.014 38.6474 119.014 38.6474C119.014 38.6963 119.063 38.6963 119.112 38.6963C119.161 38.6963 119.161 38.7452 119.209 38.7452C119.258 38.7452 119.258 38.7942 119.307 38.7942L119.503 38.9409L119.454 38.6963C119.307 38.2071 119.161 37.7179 119.014 37.2287C118.867 36.7395 118.671 36.2503 118.525 35.7611V35.7122H118.28C118.231 35.7122 118.133 35.7122 118.084 35.7122H117.937H117.889C117.889 35.7122 117.889 35.7122 117.889 35.7611C117.889 35.81 117.889 35.8589 117.889 35.8589C117.791 35.9078 117.644 35.9568 117.497 35.9568C117.399 35.9568 117.302 35.9568 117.204 35.9568C117.106 35.9568 117.008 35.9078 116.861 35.9078C116.763 35.9078 116.666 35.8589 116.568 35.8589L116.323 35.81C116.225 35.81 116.225 35.7611 116.176 35.7611C115.589 35.7122 115.002 35.8589 114.513 36.1035C114.22 36.2503 113.975 36.3971 113.73 36.5927C113.486 36.7884 113.241 37.033 113.045 37.2287C112.85 37.4733 112.654 37.7179 112.507 38.0114C112.361 38.305 112.214 38.5496 112.067 38.8431C111.969 39.1366 111.822 39.4301 111.773 39.7237C111.676 40.0661 111.627 40.4575 111.627 40.7999C111.627 41.1913 111.676 41.5337 111.725 41.9251C111.822 42.3165 111.92 42.7078 112.067 43.0503C112.214 43.4906 112.361 43.833 112.605 44.1755Z" fill="white"/>
<path fill-rule="evenodd" clip-rule="evenodd" d="M125.667 44.2244C125.911 44.1754 126.205 44.0776 126.449 44.0287C126.498 44.0287 126.547 43.9798 126.596 43.9308C126.645 43.8819 126.645 43.833 126.645 43.7841C126.645 43.7352 126.645 43.6862 126.645 43.6862C126.645 43.6373 126.645 43.6373 126.645 43.5884V43.4416L126.498 43.4906C126.401 43.5395 126.254 43.5395 126.156 43.5884C126.058 43.6373 126.009 43.6373 125.96 43.6373C125.911 43.1481 125.911 42.7078 125.814 42.2186C125.716 41.7294 125.667 41.1913 125.569 40.7021C125.471 40.2129 125.373 39.7237 125.226 39.2344C125.129 38.7942 124.982 38.3539 124.835 37.9136C125.08 37.8647 125.275 37.9136 125.471 37.9625C125.716 38.0603 125.96 38.1582 126.156 38.305C126.352 38.4517 126.547 38.6963 126.694 38.9409C126.841 39.1855 126.988 39.4301 127.134 39.7237C127.183 39.7726 127.183 39.8215 127.232 39.8704C127.281 39.9193 127.281 39.9193 127.33 39.9193C127.379 39.9193 127.379 39.9193 127.428 39.9683C127.477 39.9683 127.477 39.9683 127.526 39.9683L127.672 40.0172L127.624 39.8215C127.526 39.4301 127.379 39.0388 127.281 38.6474C127.134 38.256 126.988 37.8647 126.841 37.5222C126.792 37.4733 126.792 37.4244 126.792 37.4244C126.743 37.3755 126.743 37.3755 126.694 37.3755C126.645 37.3755 126.645 37.3755 126.596 37.3755C126.547 37.3755 126.547 37.3755 126.547 37.3755C126.058 37.3755 125.569 37.4244 125.129 37.4733C124.15 37.5711 123.221 37.7668 122.291 38.0114C121.802 38.1582 121.313 38.305 120.873 38.5006L120.824 38.5496V38.5985C120.775 38.9898 120.775 39.3812 120.775 39.7237C120.775 40.115 120.824 40.4575 120.873 40.8488C120.873 40.8978 120.873 40.8978 120.873 40.9467C120.873 40.9956 120.873 41.0445 120.873 41.0934C120.873 41.1913 120.921 41.2402 120.97 41.2402C121.019 41.2891 121.068 41.2891 121.068 41.2891C121.117 41.2891 121.166 41.2891 121.166 41.2891H121.362V41.0934C121.362 40.7999 121.362 40.4575 121.411 40.1639C121.46 39.8704 121.557 39.5769 121.704 39.3323C121.802 39.1855 121.851 39.0877 121.949 38.9409C122.047 38.8431 122.144 38.7452 122.242 38.6474C122.34 38.5496 122.438 38.5006 122.585 38.4517C122.683 38.4028 122.78 38.3539 122.878 38.3539C122.878 38.8431 122.927 39.2834 122.976 39.7726C123.074 40.2618 123.123 40.7999 123.221 41.2891C123.319 41.7783 123.416 42.3165 123.563 42.7567C123.661 43.197 123.808 43.6373 123.955 44.0776C123.857 44.0776 123.808 44.1265 123.759 44.1265C123.661 44.1265 123.514 44.1754 123.416 44.1754H123.27L123.319 44.3222C123.319 44.42 123.367 44.469 123.416 44.5179L123.465 44.5668H123.563C123.808 44.5179 124.101 44.5179 124.346 44.469C124.59 44.42 124.835 44.3711 125.129 44.3222C125.178 44.3222 125.422 44.2733 125.667 44.2244Z" fill="white"/>
<path fill-rule="evenodd" clip-rule="evenodd" d="M135.744 41.0445L135.647 40.9467L135.598 41.0934C135.598 41.0934 135.598 41.1424 135.549 41.1913C135.5 41.2402 135.451 41.2891 135.402 41.338C135.353 41.387 135.304 41.4359 135.255 41.4848C135.157 41.5337 135.108 41.5337 135.108 41.5337C135.108 41.5337 135.059 41.4848 135.059 41.387C135.059 41.338 135.059 41.2891 135.059 41.2402C135.059 41.1913 135.059 41.1424 135.059 41.0445V40.8488C135.059 40.7999 135.059 40.751 135.059 40.6532C135.011 40.3596 135.011 40.115 134.962 39.8215L134.815 38.9898C134.766 38.6474 134.668 38.305 134.57 38.0114C134.472 37.669 134.375 37.3755 134.277 37.033L134.179 36.8373C134.179 36.7395 134.13 36.6906 134.081 36.6417C134.032 36.5927 134.032 36.4949 133.983 36.446C133.934 36.397 133.885 36.2992 133.885 36.2503C133.788 36.1524 133.641 36.0546 133.543 36.0057C133.445 35.9568 133.298 35.9078 133.152 35.8589C133.005 35.81 132.858 35.81 132.76 35.81C132.613 35.81 132.467 35.81 132.32 35.81C132.173 35.81 132.026 35.81 131.88 35.8589C131.537 35.9078 131.195 36.0057 130.901 36.0546C130.706 36.1035 130.51 36.2014 130.314 36.2503C130.118 36.3481 129.923 36.446 129.776 36.5438C129.58 36.6417 129.434 36.7884 129.287 36.9352C129.189 37.033 129.042 37.1798 128.944 37.2776C128.847 37.4244 128.749 37.5711 128.7 37.7179C128.602 37.8647 128.553 38.0114 128.504 38.2071C128.455 38.3539 128.455 38.5496 128.504 38.7452C128.553 38.892 128.602 39.0388 128.651 39.1366C128.7 39.2834 128.798 39.3812 128.895 39.4301C128.993 39.528 129.14 39.5769 129.238 39.6258C129.531 39.6747 129.825 39.6258 130.07 39.4301C130.167 39.3323 130.314 39.1855 130.363 39.0877C130.461 38.9409 130.51 38.7942 130.51 38.6474C130.559 38.5006 130.559 38.305 130.51 38.1582C130.51 38.0604 130.461 37.9625 130.412 37.8647C130.363 37.7668 130.314 37.669 130.216 37.6201C130.167 37.5711 130.118 37.5222 130.07 37.4733C130.021 37.4244 129.972 37.4244 129.972 37.3755C129.923 37.3265 129.923 37.3265 129.874 37.2776C129.874 37.2287 129.825 37.2287 129.825 37.1798C129.825 37.1309 129.825 37.0819 129.874 37.033C129.923 36.9352 129.972 36.8863 130.07 36.8373C130.167 36.7395 130.265 36.7395 130.363 36.6906C130.461 36.6417 130.559 36.5927 130.657 36.5927C130.754 36.5438 130.852 36.5438 130.901 36.4949C130.999 36.4949 131.146 36.446 131.244 36.446C131.341 36.446 131.439 36.4949 131.537 36.5438C131.586 36.5438 131.635 36.5927 131.684 36.6417C131.733 36.6906 131.782 36.7395 131.831 36.7884C131.88 36.8373 131.88 36.8863 131.929 36.9841C131.977 37.033 131.977 37.1309 131.977 37.1798L132.075 37.6201C132.075 37.7668 132.124 37.9136 132.173 38.0604C132.222 38.2071 132.222 38.3539 132.271 38.5006C132.32 38.6474 132.32 38.7452 132.369 38.892C131.929 39.0877 131.439 39.2834 130.999 39.4791C130.559 39.6747 130.118 39.9193 129.678 40.115C129.531 40.2129 129.385 40.3107 129.238 40.3596C129.091 40.4575 128.944 40.5553 128.847 40.7021C128.749 40.8488 128.651 40.9956 128.602 41.1424C128.553 41.338 128.553 41.5337 128.602 41.7294C128.651 41.8762 128.7 42.0229 128.749 42.1697C128.798 42.3165 128.895 42.4632 128.993 42.5611C129.091 42.7078 129.189 42.8057 129.287 42.9035C129.385 43.0014 129.531 43.0992 129.678 43.1481C129.923 43.2949 130.216 43.3927 130.461 43.3927C130.754 43.4416 130.999 43.4416 131.293 43.3438C131.488 43.2949 131.684 43.246 131.831 43.1481C132.026 43.0503 132.173 42.9524 132.369 42.8546C132.516 42.7567 132.662 42.61 132.809 42.4632C132.907 42.3654 133.005 42.2186 133.103 42.1208C133.152 42.2186 133.249 42.2675 133.298 42.3654C133.396 42.4632 133.543 42.5611 133.641 42.61C133.788 42.6589 133.934 42.7078 134.032 42.7078C134.326 42.7568 134.668 42.6589 134.962 42.5121C135.108 42.4143 135.304 42.3165 135.402 42.1697C135.549 42.0229 135.647 41.9251 135.793 41.7294C135.891 41.5827 135.989 41.4359 136.087 41.2402L136.136 41.1424L135.744 41.0445ZM132.858 41.6805C132.76 41.7783 132.711 41.8762 132.662 41.9251C132.565 42.0229 132.516 42.0719 132.418 42.1697C132.32 42.2675 132.222 42.3165 132.124 42.3654C131.977 42.4632 131.782 42.5121 131.635 42.5121C131.537 42.5121 131.537 42.5121 131.439 42.5121C131.39 42.4632 131.341 42.4632 131.293 42.4632C131.244 42.4143 131.244 42.3654 131.195 42.3165C131.097 42.1697 131.048 42.0719 130.95 41.9251C130.901 41.7783 130.852 41.6316 130.803 41.4359C130.754 41.2891 130.754 41.1913 130.754 41.0445C130.706 40.8978 130.754 40.7999 130.803 40.7021C130.852 40.5553 130.901 40.5064 130.95 40.4086C130.999 40.3107 131.097 40.2129 131.195 40.115C131.293 40.0172 131.39 39.9193 131.488 39.8215C131.586 39.7237 131.684 39.6258 131.831 39.5769C131.929 39.4791 132.075 39.4301 132.173 39.3812C132.271 39.3323 132.32 39.2834 132.418 39.2834V39.3812C132.516 39.7726 132.565 40.1639 132.613 40.5064L132.858 41.6805Z" fill="white"/>
<path fill-rule="evenodd" clip-rule="evenodd" d="M142.74 36.6417C142.642 36.3481 142.495 36.1035 142.3 35.81C142.104 35.5165 141.957 35.3208 141.713 35.0762C141.517 34.8805 141.272 34.6848 140.979 34.5381C140.734 34.3913 140.441 34.2935 140.098 34.2445C139.805 34.1956 139.462 34.1956 139.12 34.2445C138.68 34.3424 138.337 34.4891 138.093 34.7827C137.946 34.9294 137.799 35.1251 137.701 35.3208C137.701 35.2719 137.701 35.2719 137.701 35.223C137.701 35.0273 137.652 34.8316 137.652 34.6848V34.5381L137.506 34.6359C137.261 34.7827 137.065 34.8805 136.821 34.9784C136.576 35.0762 136.331 35.174 136.087 35.2719C135.891 35.3697 135.744 35.4186 135.598 35.4676C135.402 35.5654 135.255 35.6143 135.108 35.7122L135.011 35.7611V35.8589C135.011 35.9079 135.011 35.9568 135.011 36.0057C135.011 36.0546 135.011 36.1035 135.011 36.1525L135.06 36.2992L135.157 36.2503C135.255 36.2014 135.353 36.1525 135.451 36.1035C135.5 36.0546 135.549 36.0546 135.647 36.0057C135.696 37.3755 135.891 38.7453 136.136 40.115C136.283 40.8488 136.429 41.5827 136.625 42.3165C136.821 43.0014 137.016 43.6373 137.212 44.3222C137.163 44.3222 137.114 44.3222 137.016 44.2733C136.919 44.2733 136.772 44.2244 136.674 44.2244L136.527 44.1755L136.576 44.3711V44.469C136.576 44.5179 136.625 44.5668 136.625 44.5668C136.625 44.6157 136.674 44.6647 136.723 44.6647C136.772 44.7136 136.821 44.7136 136.87 44.7136C137.408 44.7625 137.946 44.7625 138.435 44.7136C138.973 44.6647 139.511 44.6157 140.001 44.5179H140.098L140.001 44.0776L139.609 44.1755L139.316 44.2244V44.1265C139.169 43.5884 139.022 43.0992 138.875 42.5122C138.778 42.1208 138.68 41.7294 138.582 41.3381C138.729 41.4848 138.875 41.5827 139.071 41.6316C139.365 41.7783 139.658 41.7783 140.001 41.7294C140.147 41.6805 140.343 41.6316 140.49 41.5827C140.637 41.4848 140.783 41.4359 140.93 41.3381C141.077 41.2402 141.224 41.1424 141.321 40.9956C141.419 40.8978 141.566 40.751 141.713 40.6532C141.811 40.5553 141.957 40.4575 142.055 40.3107C142.153 40.2129 142.251 40.0661 142.349 39.9683C142.447 39.8215 142.544 39.7237 142.593 39.5769C142.691 39.4301 142.74 39.2834 142.789 39.1366C142.887 38.892 142.887 38.5985 142.936 38.3539C142.936 38.1093 142.936 37.8158 142.838 37.5712C142.936 37.2287 142.887 36.9841 142.74 36.6417ZM140.832 38.2071C140.832 38.256 140.832 38.305 140.832 38.3539L140.93 38.7942C140.93 38.9899 140.979 39.1366 140.979 39.3323C140.979 39.528 140.979 39.6748 140.979 39.8704C140.979 40.0661 140.93 40.2129 140.832 40.3596C140.783 40.4575 140.734 40.5553 140.685 40.6042C140.637 40.7021 140.588 40.751 140.441 40.7999C140.343 40.8489 140.294 40.9467 140.147 40.9956C139.903 41.0935 139.658 41.1424 139.511 41.0935C139.413 41.0935 139.316 41.0445 139.218 40.9956C139.12 40.9467 139.071 40.8978 138.973 40.7999C138.924 40.7021 138.826 40.6532 138.778 40.5553C138.729 40.4575 138.68 40.3596 138.631 40.2618C138.582 40.164 138.533 40.0661 138.533 39.9194C138.435 39.7237 138.386 39.528 138.337 39.3812C138.288 39.1855 138.239 38.9899 138.19 38.7942C138.142 38.5985 138.142 38.4517 138.093 38.305C138.093 38.1093 138.044 37.9625 138.044 37.8158C137.995 37.669 137.995 37.4733 137.995 37.2776C137.995 37.0819 137.946 36.8863 137.995 36.6906C137.995 36.4949 137.995 36.2503 138.044 36.0546C138.044 35.8589 138.093 35.6632 138.19 35.5165C138.239 35.3697 138.337 35.223 138.484 35.0762C138.582 34.9784 138.729 34.8805 138.924 34.8805C139.071 34.8316 139.169 34.8316 139.267 34.8805C139.365 34.9294 139.511 34.9294 139.56 35.0273C139.658 35.0762 139.756 35.174 139.805 35.223C139.903 35.3208 139.952 35.4186 140.001 35.5165C140.049 35.6143 140.098 35.7611 140.147 35.8589C140.196 36.0057 140.245 36.1035 140.294 36.2014C140.392 36.5438 140.539 36.8863 140.588 37.2287C140.685 37.5222 140.734 37.8647 140.832 38.2071Z" fill="white"/>
<path fill-rule="evenodd" clip-rule="evenodd" d="M143.865 39.9683H143.718L143.767 40.115C143.767 40.1639 143.816 40.1639 143.816 40.2129C143.816 40.2618 143.816 40.3107 143.865 40.3107C143.865 40.3596 143.914 40.4085 143.963 40.4085C144.012 40.4575 144.061 40.4575 144.11 40.4575C144.648 40.4575 145.137 40.4085 145.626 40.3596C146.116 40.3107 146.654 40.2129 147.143 40.115L147.241 40.0661L147.192 39.9683C147.192 39.9193 147.192 39.9193 147.192 39.8704C147.192 39.8215 147.143 39.7726 147.143 39.7726L147.094 39.6747L146.996 39.7236C146.996 39.7236 146.947 39.7237 146.898 39.7726L146.605 39.8215C146.556 39.8215 146.507 39.8215 146.507 39.8704C146.507 39.8215 146.507 39.8215 146.507 39.8215C146.507 39.7726 146.507 39.7726 146.507 39.7236C146.507 39.6747 146.507 39.6258 146.507 39.5769C146.703 38.6963 146.849 37.8157 147.045 36.9352C147.192 36.2014 147.339 35.4675 147.485 34.7337C147.534 34.9783 147.632 35.2229 147.681 35.4675C147.779 35.8589 147.877 36.2503 147.926 36.6416C148.024 37.0819 148.072 37.5222 148.121 37.9625C148.17 38.4028 148.219 38.8431 148.219 39.2834C148.219 39.3323 148.219 39.3812 148.219 39.3812C148.17 39.3812 148.17 39.3812 148.121 39.4301C148.072 39.4301 148.024 39.479 147.975 39.479C147.926 39.479 147.877 39.528 147.828 39.528C147.779 39.528 147.73 39.5769 147.681 39.6258C147.681 39.6747 147.632 39.7236 147.632 39.7236C147.632 39.7726 147.632 39.8215 147.632 39.8215C147.632 39.8704 147.632 39.8704 147.632 39.9193L147.681 40.0172L147.779 39.9683C148.317 39.8704 148.806 39.7237 149.295 39.5769C149.785 39.4301 150.323 39.2834 150.812 39.0877L150.861 39.0388V38.9409C150.861 38.892 150.861 38.8431 150.861 38.7942C150.861 38.7452 150.861 38.6963 150.861 38.6474V38.5006L150.714 38.5496C150.616 38.5985 150.518 38.6474 150.421 38.6474C150.372 38.6963 150.323 38.6963 150.274 38.6963C150.274 38.256 150.274 37.8157 150.225 37.4244C150.176 36.9352 150.127 36.446 150.029 36.0057C149.834 35.1251 149.589 34.1956 149.247 33.3639C149.295 33.3639 149.344 33.3639 149.442 33.3639C149.54 33.3639 149.687 33.3639 149.785 33.3639H149.931L149.883 33.2172C149.883 33.1683 149.883 33.1683 149.883 33.1193C149.883 33.0704 149.834 33.0215 149.834 33.0215C149.785 32.9726 149.785 32.9237 149.736 32.9237C149.687 32.9237 149.638 32.8747 149.589 32.8747C149.051 32.8747 148.562 32.9237 148.072 32.9726C147.583 33.0215 147.094 33.1193 146.556 33.2172L146.409 33.2661L146.458 33.3639C146.458 33.4129 146.507 33.4129 146.507 33.4618C146.507 33.5107 146.556 33.5596 146.556 33.5596V33.6575L146.947 33.5596C146.996 33.5596 147.094 33.5107 147.143 33.5107C147.143 33.5596 147.143 33.6086 147.143 33.6086C147.143 33.6575 147.143 33.7064 147.094 33.7553C147.094 33.8042 147.094 33.8532 147.045 33.9021C147.045 33.951 147.045 33.9999 146.996 34.0488C146.849 34.8316 146.654 35.6632 146.507 36.446C146.36 37.0819 146.213 37.7668 146.116 38.4517C146.067 38.2071 145.969 37.9625 145.92 37.7179C145.822 37.3265 145.724 36.9352 145.675 36.5438C145.577 36.1035 145.529 35.6632 145.48 35.2229C145.431 34.7827 145.382 34.3424 145.382 33.9021V33.8042C145.382 33.8042 145.431 33.8042 145.48 33.7553L145.773 33.6575C145.871 33.6086 145.92 33.5596 145.92 33.5107C145.92 33.4618 145.92 33.4129 145.92 33.3639V33.315C145.92 33.315 145.92 33.315 145.92 33.2661V33.2172V33.0704L145.773 33.1193C145.235 33.2172 144.746 33.364 144.257 33.4618C143.767 33.6086 143.229 33.7553 142.74 33.951L142.691 33.9999V34.4891L143.131 34.3424C143.18 34.2934 143.229 34.2934 143.278 34.2934C143.278 35.2229 143.376 36.1035 143.523 37.033C143.718 37.9136 143.963 38.8431 144.306 39.6747C144.257 39.6747 144.208 39.6747 144.11 39.6747C144.11 39.9683 143.963 39.9683 143.865 39.9683Z" fill="white"/>
<path fill-rule="evenodd" clip-rule="evenodd" d="M154.873 38.6474L154.97 38.5985L154.922 38.3539C154.922 38.305 154.922 38.256 154.922 38.256L154.873 38.1582L154.775 38.2071C154.677 38.2071 154.628 38.256 154.53 38.256C154.432 38.305 154.334 38.305 154.237 38.305H154.188L154.139 38.256C154.139 38.2071 154.09 38.2071 154.09 38.1093C153.943 37.7179 153.845 37.2776 153.747 36.8863C153.65 36.446 153.552 36.0546 153.454 35.6143H153.503C153.601 35.5654 153.65 35.5654 153.747 35.5165C153.845 35.4676 153.894 35.4676 153.992 35.4676C154.237 35.4186 154.432 35.4186 154.628 35.5165C154.775 35.6143 154.922 35.7611 155.068 35.9568C155.117 36.1035 155.166 36.2014 155.264 36.3481C155.313 36.4949 155.362 36.5927 155.411 36.7395C155.46 36.8863 155.509 36.9841 155.557 37.1309C155.606 37.2776 155.655 37.3755 155.704 37.5222C155.753 37.669 155.802 37.7668 155.9 37.9136C155.949 38.0604 156.047 38.1093 156.145 38.2071C156.242 38.305 156.389 38.3539 156.536 38.3539C156.683 38.4028 156.829 38.3539 157.025 38.305C157.319 38.256 157.612 38.1093 157.857 37.9625C158.101 37.7668 158.297 37.5712 158.493 37.3265C158.493 37.2776 158.542 37.2776 158.542 37.2287C158.591 37.1798 158.591 37.1309 158.591 37.1309C158.591 37.0819 158.639 37.033 158.639 37.033C158.639 36.9841 158.688 36.9352 158.639 36.8863C158.639 36.8373 158.591 36.7884 158.542 36.7395C158.493 36.7395 158.493 36.6906 158.444 36.6906L158.346 36.5927L158.297 36.7395C158.297 36.7884 158.248 36.7884 158.248 36.8373C158.199 36.8863 158.199 36.9352 158.15 36.9841C158.101 37.033 158.052 37.0819 158.052 37.1309C158.004 37.1798 157.955 37.1798 157.906 37.1798C157.857 37.1309 157.857 37.1309 157.808 37.0819C157.759 37.033 157.759 36.9841 157.759 36.9352C157.71 36.8863 157.71 36.7884 157.71 36.7395C157.71 36.6417 157.661 36.5438 157.661 36.4949C157.661 36.3971 157.612 36.2992 157.612 36.2503C157.563 36.1035 157.514 35.9078 157.514 35.7611C157.465 35.6143 157.416 35.4676 157.319 35.3208C157.221 35.174 157.123 35.0273 157.025 34.9294C156.927 34.7827 156.781 34.7337 156.585 34.6359C156.487 34.587 156.34 34.5381 156.242 34.5381C156.145 34.4891 155.998 34.4891 155.9 34.4891C155.802 34.4891 155.655 34.4891 155.557 34.5381C155.362 34.587 155.215 34.587 155.068 34.6359C155.068 34.6359 155.068 34.587 155.117 34.587C155.215 34.4402 155.313 34.2935 155.313 34.0978C155.362 33.951 155.362 33.7553 155.362 33.6086C155.362 33.4129 155.362 33.2661 155.362 33.0704C155.362 32.8748 155.313 32.728 155.313 32.5812C155.313 32.5323 155.313 32.4834 155.313 32.4345C155.313 32.3856 155.313 32.3366 155.313 32.2877C155.313 32.2388 155.362 32.1899 155.362 32.1899L155.411 32.1409C155.46 32.1409 155.509 32.1409 155.509 32.1409C155.557 32.1899 155.557 32.2388 155.606 32.2877C155.655 32.3366 155.655 32.3855 155.704 32.4834C155.753 32.5812 155.753 32.6302 155.802 32.6791C155.851 32.7769 155.949 32.8258 156.047 32.9237C156.145 33.0215 156.242 33.0704 156.34 33.1194C156.438 33.1683 156.585 33.2172 156.683 33.2661C156.927 33.315 157.123 33.315 157.27 33.1683C157.368 33.1194 157.368 33.0704 157.465 32.9726C157.514 32.8748 157.563 32.8258 157.563 32.728C157.563 32.6302 157.563 32.5323 157.563 32.4345C157.514 32.2388 157.416 32.0431 157.319 31.8963C157.221 31.7496 157.074 31.6028 156.878 31.505C156.732 31.4071 156.536 31.3582 156.34 31.3093C156.047 31.2604 155.753 31.3093 155.509 31.4071C155.411 31.4561 155.362 31.505 155.264 31.5539C155.166 31.6028 155.117 31.6517 155.068 31.7496C155.019 31.8474 154.97 31.8963 154.97 31.9942C154.922 32.092 154.922 32.1899 154.922 32.2877C154.922 32.3855 154.922 32.4834 154.922 32.5323C154.922 32.6302 154.922 32.728 154.922 32.7769C154.922 32.8748 154.922 32.9237 154.922 33.0215C154.922 33.2172 154.922 33.364 154.922 33.5596C154.922 33.7553 154.873 33.9021 154.824 34.0489C154.775 34.2445 154.726 34.3424 154.628 34.4402C154.53 34.5381 154.383 34.6359 154.286 34.7337C154.139 34.8316 153.992 34.8805 153.845 34.9294C153.747 34.9784 153.601 35.0273 153.454 35.0762C153.356 34.6359 153.307 34.2445 153.258 33.8532C153.209 33.4129 153.16 32.9237 153.111 32.4834C153.209 32.4345 153.258 32.4345 153.356 32.4345C153.454 32.3856 153.503 32.3855 153.601 32.3855H153.65H153.699C153.796 32.3855 153.845 32.2877 153.845 32.1899C153.845 32.1409 153.845 32.092 153.796 31.9942V31.8963L153.699 31.9453C153.16 32.092 152.622 32.1899 152.084 32.3366C151.546 32.4834 151.057 32.6791 150.519 32.8748L150.47 32.9237V33.0215C150.47 33.0704 150.47 33.1194 150.47 33.1683C150.47 33.2172 150.47 33.2661 150.47 33.315V33.4618L150.616 33.4129C150.714 33.364 150.812 33.315 150.91 33.315C150.959 33.2661 151.008 33.2661 151.057 33.2661C151.057 34.1956 151.155 35.0762 151.35 35.9568C151.448 36.446 151.546 36.9352 151.693 37.3755C151.791 37.8158 151.937 38.2071 152.133 38.5985C152.084 38.5985 152.035 38.5985 151.937 38.5985C151.84 38.5985 151.693 38.5985 151.595 38.5496H151.448L151.497 38.6963C151.497 38.7452 151.546 38.7453 151.546 38.7942C151.546 38.8431 151.546 38.892 151.595 38.892C151.595 38.9409 151.644 38.9899 151.693 38.9899C151.742 39.0388 151.791 39.0388 151.84 39.0388C152.378 39.0388 152.916 38.9899 153.454 38.9409C153.796 38.7942 154.334 38.7452 154.873 38.6474Z" fill="white"/>
<path fill-rule="evenodd" clip-rule="evenodd" d="M183.149 22.6014C181.974 21.8676 180.458 21.7697 179.137 21.623C178.892 21.623 178.697 21.574 178.501 21.574C177.523 21.4762 176.74 21.3784 176.251 21.1827C175.468 20.8402 175.272 20.4978 175.566 19.5194V19.4705C175.615 19.2259 175.81 18.1985 175.272 17.6604C174.685 17.0244 173.169 17.6604 171.799 17.905L171.603 17.9539C169.793 18.2964 169.011 18.7366 168.375 19.6172C167.934 20.2043 168.423 20.5956 168.472 20.6935C168.57 20.8892 168.766 21.1338 168.864 21.2805C169.059 21.574 168.962 22.1122 168.962 22.3568C168.962 22.8949 168.277 23.433 167.347 23.9712C166.907 24.2158 166.418 24.6071 166.075 24.8517C165.439 25.3899 164.608 25.5856 164.216 25.9769L164.021 26.1726C161.819 28.3251 161.281 30.5266 162.406 32.7769V32.8258C162.406 32.8258 162.406 32.9237 162.406 32.9726C162.357 33.315 162.308 34.0978 163.091 35.6632C163.923 37.3755 166.075 38.0603 169.989 38.4517C171.359 38.5985 174.979 38.4028 177.865 37.8647C178.55 37.7179 179.186 37.4733 179.675 37.3265C182.219 36.4949 182.659 36.446 183.491 35.5165C183.638 35.3208 183.785 35.174 184.029 34.9783C185.154 33.8042 185.741 32.4834 186.035 31.5539V31.505V31.456C186.231 30.8201 186.328 30.3309 186.328 29.9884C186.818 26.7597 185.008 23.7755 183.149 22.6014Z" fill="white"/>
<path fill-rule="evenodd" clip-rule="evenodd" d="M183.638 22.5035C182.415 21.7697 180.898 21.6719 179.529 21.5741C179.284 21.5741 179.088 21.5251 178.844 21.5251C178.061 21.4762 177.425 21.3784 176.936 21.2805C176.789 21.2316 176.691 21.1827 176.545 21.1338C176.202 20.987 175.957 20.7913 175.811 20.5956C175.664 20.351 175.713 20.0086 175.86 19.4705V19.4215C175.909 19.1769 176.104 18.1496 175.566 17.6115C174.979 16.9755 173.316 17.4158 171.946 17.7093L171.799 17.7582C169.94 18.1007 168.815 18.7366 168.179 19.6172C167.739 20.2532 168.277 20.7424 168.375 20.8892C168.473 21.0848 168.57 21.2316 168.668 21.3784C168.815 21.623 168.815 21.8187 168.815 22.0143C168.815 22.0633 168.815 22.1611 168.815 22.21C168.815 22.4546 168.668 22.6992 168.424 22.9928H168.375C168.081 23.2863 167.69 23.5309 167.201 23.8244C166.76 24.1179 166.271 24.4604 165.88 24.7539C165.195 25.292 164.657 25.7323 164.216 26.1237L164.021 26.3194C161.722 28.4719 161.183 30.6733 162.357 32.9237V32.9726C162.357 32.9726 162.357 33.0704 162.357 33.1194C162.357 33.4618 162.26 34.2445 163.042 35.81C163.874 37.4733 166.027 38.4028 170.038 38.7452C171.457 38.892 175.419 38.6963 178.355 38.1093C179.039 37.9625 179.627 37.8157 180.116 37.669C182.709 36.8373 183.1 36.446 183.98 35.5165C184.127 35.3208 184.323 35.174 184.519 34.9294C185.693 33.7553 186.28 32.3855 186.622 31.456L186.671 31.4071V31.3582C186.916 30.7222 186.965 30.233 187.014 29.8906C187.405 26.6618 185.546 23.6776 183.638 22.5035ZM185.742 31.2604C185.448 32.092 183.785 35.4186 180.507 36.5927C179.724 36.8863 178.795 37.1309 177.768 37.3265C174.539 37.9625 171.212 37.9625 170.38 37.8647H170.234C167.201 37.5222 164.804 37.2287 163.874 35.4186C163.091 33.8532 163.14 32.9237 163.14 32.8747C163.14 30.1841 164.608 28.9122 165.782 27.8848L166.027 27.6891C166.124 27.5913 166.271 27.4445 166.418 27.2978C166.516 27.151 166.663 27.0532 166.711 26.9553C167.739 25.9769 169.402 24.2158 169.647 22.6992C169.696 22.5035 169.696 22.3079 169.696 22.1611C169.696 22.0633 169.647 21.9654 169.598 21.8187C169.353 21.2805 168.815 20.4 168.815 20.4C168.815 20.4 169.5 20.4 169.793 20.351C170.038 20.3021 170.919 19.7151 171.163 19.6661C171.652 19.5683 172.093 19.4705 172.582 19.5683C173.071 19.6661 173.511 19.6172 174.05 19.5194C174.441 19.4215 175.419 19.0302 175.419 19.0302C175.419 19.0302 174.93 19.9597 174.979 20.1553C175.028 20.2043 175.077 20.4978 175.175 20.7424C175.224 20.8892 175.321 21.0359 175.37 21.1338C175.468 21.2805 175.566 21.3784 175.713 21.5251C176.447 22.2589 177.621 22.6992 178.795 23.1884C179.529 23.482 180.214 23.7266 180.947 24.1179C183.393 25.1942 186.329 28.3251 185.742 31.2604ZM162.406 31.1136C162.211 29.646 162.896 28.2273 164.461 26.7597C164.852 26.3683 165.586 25.8302 166.369 25.1942C166.956 24.7539 167.641 24.2158 168.375 23.6287L168.962 23.1884L168.522 23.7755C167.934 24.705 167.103 25.5856 166.027 26.6129C165.88 26.7597 165.733 26.9064 165.586 27.0532C164.559 27.9338 163.189 29.1568 162.651 31.1625L162.553 31.8963L162.406 31.1136ZM174.196 18.8345C174.147 18.8345 174.098 18.8834 174.05 18.8834C173.609 18.9812 173.218 19.1769 172.631 19.0791C172.093 18.9813 171.604 19.0791 170.968 19.1769C170.674 19.2259 170.429 19.3237 170.185 19.4705C169.94 19.5683 169.745 19.6661 169.598 19.7151C169.304 19.764 168.619 19.8129 168.815 19.5194C169.451 18.5899 171.604 18.2964 171.75 18.2474C172.778 18.1007 174.098 17.6604 174.93 17.9539C175.86 18.2964 174.637 18.7366 174.196 18.8345ZM181.388 23.5309C180.605 23.1395 179.871 22.846 179.186 22.6014C178.991 22.5525 178.795 22.4546 178.648 22.4057L178.159 22.21H178.844C180.311 22.3079 181.926 22.4546 183.247 23.2374C184.421 23.9712 185.937 25.6345 186.329 28.0316L186.475 28.8632C185.693 26.515 183.002 24.3136 181.388 23.5309Z" fill="#01283F"/>
<path fill-rule="evenodd" clip-rule="evenodd" d="M165.88 34.0488C165.635 34.0978 165.293 34.0488 165.195 33.6575C164.999 32.7769 165.048 31.3093 167.396 29.01C168.962 27.4445 169.891 25.7323 170.185 24.7539C170.185 24.7539 170.185 24.7539 170.234 24.7539C170.282 24.7539 170.331 24.7539 170.38 24.8028C170.185 25.6834 169.304 27.787 168.081 29.4014C166.369 31.6028 166.075 32.4834 166.418 33.8042C166.418 33.8042 166.173 33.9999 165.88 34.0488Z" fill="#01283F"/>
<path fill-rule="evenodd" clip-rule="evenodd" d="M179.235 31.7985C178.99 31.8474 178.697 31.7985 178.55 31.7006C178.452 31.6517 178.403 31.5539 178.403 31.456C178.305 30.6733 178.012 29.3524 177.425 28.2762C177.229 27.9337 176.936 27.5424 176.642 27.1021C176.055 26.3194 175.37 25.292 174.734 24.0201V23.9712C174.734 23.9712 174.783 23.9222 174.832 23.9222C174.881 23.9222 174.93 23.9222 174.93 23.9712C175.077 24.3625 176.349 26.1726 177.767 27.787C179.039 29.2546 179.431 30.6244 179.577 31.505C179.675 31.6028 179.48 31.7496 179.235 31.7985Z" fill="#01283F"/>
<path fill-rule="evenodd" clip-rule="evenodd" d="M182.953 30.5755C182.757 30.6244 182.562 30.4776 182.513 30.1352C182.268 28.8633 181.094 27.4935 179.284 26.3194C178.11 25.5366 176.936 24.2158 176.74 23.9223C176.74 23.9223 176.74 23.9223 176.789 23.8733C176.838 23.8733 176.887 23.8733 176.887 23.8733C177.425 24.5093 179.039 25.6345 179.773 26.1237C181.339 27.151 182.953 28.2762 183.246 29.9395C183.393 30.282 183.198 30.5266 182.953 30.5755Z" fill="#01283F"/>
<path fill-rule="evenodd" clip-rule="evenodd" d="M174.245 31.7985C174.147 31.8474 174.049 31.7985 174.001 31.7007C173.12 30.0373 173.413 26.6618 173.511 25.3899C173.511 25.1942 173.56 25.0963 173.56 24.9985C173.56 24.9496 173.658 24.9007 173.658 24.9007C173.707 24.9007 173.756 24.9007 173.756 24.9007C173.756 27.151 173.854 28.9122 174.93 31.0158C174.979 31.1136 174.979 31.1625 174.93 31.2604C174.783 31.505 174.49 31.7496 174.245 31.7985Z" fill="#01283F"/>
<path fill-rule="evenodd" clip-rule="evenodd" d="M170.331 34.3913C170.233 34.4402 169.793 34.4402 169.646 34.0978C168.913 32.6791 169.01 31.6028 169.891 29.9395C170.527 28.7165 171.701 26.1237 171.897 24.4115C171.897 24.4115 171.946 24.3625 171.995 24.3625C172.044 24.3625 172.092 24.3625 172.092 24.3625V24.4115C171.995 25.9769 171.408 28.423 170.674 30.1841C170.233 31.3093 169.94 32.3366 170.723 34.0978C170.723 34.0978 170.723 34.1467 170.723 34.1956C170.674 34.2445 170.527 34.3424 170.331 34.3913Z" fill="#01283F"/>
<path fill-rule="evenodd" clip-rule="evenodd" d="M72.2943 123.623C71.0224 124.552 71.9519 126.607 73.4684 126.216C73.5173 126.216 73.5173 126.216 73.5173 126.216C75.4253 125.726 77.9691 123.867 81.3936 123.867C84.818 123.867 85.6497 124.748 86.677 124.357C87.7044 123.965 87.6065 120.785 82.2742 120.785C77.9691 120.834 74.3001 122.106 72.2943 123.623Z" fill="#ABAABF"/>
<path fill-rule="evenodd" clip-rule="evenodd" d="M117.693 118.877C116.421 119.807 117.35 121.862 118.867 121.47C118.916 121.47 118.916 121.47 118.916 121.47C120.824 120.981 123.367 119.122 126.792 119.122C130.216 119.122 131.048 120.003 132.075 119.611C133.103 119.22 133.005 116.04 127.672 116.04C123.367 116.04 119.698 117.361 117.693 118.877Z" fill="#ABAABF"/>
<path d="M72.1474 88.5955C64.3201 88.5955 58.8899 83.6545 58.5964 83.4099C58.1561 83.0185 58.1561 82.3337 58.5474 81.8934C58.9388 81.4531 59.6237 81.4531 60.064 81.8444C60.1618 81.8934 67.8424 88.889 77.6755 85.5135C83.5949 83.4588 86.3344 81.9423 88.3402 80.866C89.9057 79.9855 91.1287 79.3495 92.9877 78.9092C94.3575 78.5668 95.3848 78.4689 96.2164 78.3222C97.7819 78.1265 98.5157 78.0286 99.9344 76.9034C100.424 76.5121 101.06 76.6099 101.451 77.0991C101.842 77.5883 101.744 78.2243 101.255 78.6157C99.3474 80.0833 98.2222 80.279 96.51 80.5236C95.6783 80.6214 94.7488 80.7682 93.4769 81.0617C91.8625 81.4531 90.8841 81.9912 89.3675 82.8229C87.3129 83.948 84.4755 85.5624 78.3604 87.6171C76.2078 88.302 74.1043 88.5955 72.1474 88.5955Z" fill="#01283F"/>
<path fill-rule="evenodd" clip-rule="evenodd" d="M88.1936 158.993C106.539 154.834 99.9835 122.302 77.3331 132.673C66.0814 137.859 66.7173 163.885 88.1936 158.993Z" fill="white"/>
<path d="M83.3015 160.264C79.6814 160.264 75.8166 158.944 72.2943 155.128C70.2397 152.926 68.0871 146.958 69.4569 141.479C70.2397 138.299 72.49 134.092 78.8986 131.793C87.6065 128.662 92.4497 131.499 95.6785 134.288C98.1245 136.391 99.5921 140.256 99.69 144.659C99.7389 149.062 98.3202 152.975 95.8252 155.226C93.1835 157.574 88.4871 160.264 83.3015 160.264ZM79.1432 132.624L79.4368 133.456C74.8871 135.07 72.0986 137.957 71.1202 141.919C69.8483 147.154 72.1476 152.437 73.5663 153.954C83.0569 164.129 94.4554 154.052 94.6022 153.905C96.7058 151.997 97.9288 148.523 97.8799 144.659C97.831 140.843 96.559 137.37 94.5044 135.559C91.4713 132.918 87.2641 130.618 79.4368 133.407L79.1432 132.624Z" fill="#01283F"/>
<path fill-rule="evenodd" clip-rule="evenodd" d="M87.9978 154.639C103.555 151.899 95.6784 126.754 79.3388 135.168C71.1202 139.375 72.0007 157.476 87.9978 154.639Z" fill="#01283F"/>
<path fill-rule="evenodd" clip-rule="evenodd" d="M83.9374 147.398C81.3935 145.784 82.1274 145.637 80.6108 142.555C79.4367 140.158 75.3274 141.479 75.3763 144.463C75.4252 147.496 79.1432 152.975 84.818 153.513C89.1719 153.905 92.9388 150.676 90.8842 148.964C88.8295 147.3 86.5302 149.013 83.9374 147.398Z" fill="#113E58"/>
<path fill-rule="evenodd" clip-rule="evenodd" d="M85.2582 136.929C86.0899 136.244 89.9546 136.342 91.7647 139.424C92.8898 141.381 93.3791 143.24 93.2812 145.197C93.2323 146.86 91.569 149.453 88.7805 149.991C85.3071 150.285 83.1546 148.23 82.0294 146.175C79.2409 139.082 84.3287 137.027 85.2582 136.929Z" fill="white"/>
<path fill-rule="evenodd" clip-rule="evenodd" d="M132.565 152.828C150.91 148.67 144.355 116.138 121.704 126.509C110.403 131.695 111.088 157.721 132.565 152.828Z" fill="white"/>
<path d="M127.673 154.1C124.052 154.1 120.188 152.78 116.665 148.964C114.611 146.762 112.458 140.794 113.828 135.315C114.611 132.135 116.861 127.928 123.27 125.629C131.978 122.498 136.821 125.335 140.05 128.124C142.496 130.227 143.963 134.092 144.061 138.495C144.11 142.898 142.691 146.811 140.196 149.062C137.506 151.41 132.858 154.1 127.673 154.1ZM130.314 126.02C128.455 126.02 126.303 126.411 123.808 127.292C119.258 128.906 116.47 131.793 115.491 135.755C114.219 140.99 116.519 146.273 117.937 147.79C121.117 151.214 124.493 152.339 127.624 152.339C133.837 152.339 138.875 147.839 138.973 147.79C141.077 145.882 142.3 142.408 142.251 138.544C142.202 134.728 140.93 131.254 138.875 129.493C136.772 127.683 134.179 126.02 130.314 126.02Z" fill="#01283F"/>
<path fill-rule="evenodd" clip-rule="evenodd" d="M131.733 149.502C147.29 146.664 139.462 120.883 123.074 129.493C114.904 133.847 115.736 152.437 131.733 149.502Z" fill="#01283F"/>
<path fill-rule="evenodd" clip-rule="evenodd" d="M127.966 141.968C125.422 140.354 126.156 140.207 124.639 137.125C123.465 134.728 119.356 136 119.405 139.033C119.454 142.066 123.172 147.545 128.847 148.083C133.201 148.475 136.967 145.246 134.913 143.534C132.858 141.87 130.51 143.582 127.966 141.968Z" fill="#113E58"/>
<path fill-rule="evenodd" clip-rule="evenodd" d="M128.749 131.303C129.581 130.618 133.445 130.667 135.255 133.896C136.381 135.902 136.87 137.81 136.772 139.864C136.723 141.528 135.011 144.218 132.271 144.805C128.798 145.099 126.645 142.995 125.52 140.892C122.732 133.505 127.77 131.401 128.749 131.303Z" fill="white"/>
<path d="M115.149 169.021C120.041 167.407 122.389 163.787 122.438 163.689C122.732 163.249 122.585 162.613 122.144 162.368C121.704 162.075 121.117 162.221 120.824 162.662C120.579 163.053 114.415 172.544 100.081 164.716C99.592 164.472 99.005 164.618 98.7604 165.108C98.5158 165.597 98.6625 166.184 99.1517 166.428C106.098 170.293 111.382 170.244 115.149 169.021Z" fill="#01283F"/>
</svg>
