<svg width="47" height="38" viewBox="0 0 47 38" fill="none" xmlns="http://www.w3.org/2000/svg">
<path d="M15.4908 8.23779L14.4426 9.19403C12.9916 10.6863 11.0839 12.0405 8.62274 13.5629C8.31034 13.7548 7.95829 13.9577 7.58722 14.1734C5.33381 15.4738 2.24944 17.2578 0.49556 20.7862L0.0864258 22.0881V20.6751C0.23549 17.9159 2.05281 15.496 5.63194 13.2806C6.51681 12.7367 8.11687 11.9374 9.82159 11.0906C11.1061 10.45 12.6189 9.70306 14.1825 8.84991L15.4908 8.23779Z" fill="white"/>
<path d="M46.8196 23.4042L46.7783 24.9631C46.3042 20.3706 41.8862 15.3611 39.0888 13.3582C37.7425 12.3941 36.3867 11.5711 35.1862 10.84C34.8532 10.6402 34.5297 10.4404 34.2173 10.2501L33.3657 9.68555L34.6455 9.92183C37.3809 10.6703 40.4812 11.5187 42.6965 13.4502C44.7121 15.212 47.0019 18.8736 46.8196 23.4042Z" fill="white"/>
<path d="M38.1357 14.1558C36.8179 13.2123 35.5414 12.4384 34.3076 11.6868C31.8306 10.1819 29.49 8.76098 28.4925 6.69946C28.2515 6.26654 28.1389 4.91227 28.1183 4.71722C28.0723 4.33821 29.3203 2.80158 29.3203 2.80158C29.3203 2.80158 27.2921 3.27573 26.5309 3.27573C25.4621 3.27098 24.582 3.18376 23.6876 2.82696C22.79 2.4654 21.9416 2.47808 20.9822 2.47808C20.5541 2.47808 18.6257 3.28366 18.1389 3.28366C17.5284 3.28366 16.2359 3.00139 16.2359 3.00139C16.2359 3.00139 17.3254 5.75274 17.2413 6.53929C16.8385 9.60304 12.3777 12.7825 9.75482 14.408C9.59624 14.5031 9.3441 14.695 9.07293 14.9028C8.75736 15.139 8.39897 15.4102 8.20075 15.5228L7.65999 15.8352C5.02441 17.3401 1.74499 19.2066 0.788763 24.1812C0.772905 24.2351 0.335227 25.9351 1.26291 29.1321C2.33491 32.8349 6.83697 34.1955 12.5315 35.9161L12.8059 35.9985C14.3933 36.4758 20.7777 37.6319 27.1589 37.6319C29.1919 37.6319 31.0536 37.5114 32.6949 37.2783C39.3377 36.3268 43.7716 30.7274 44.5994 29.2811C46.837 24.029 42.281 17.1276 38.1357 14.1558ZM6.78305 26.9674C6.74975 27.0626 6.26767 27.3242 5.65238 27.3242C5.14969 27.3242 4.54709 27.1498 4.54709 26.3268C4.54709 24.5856 5.16237 21.8707 10.4668 18.4502C14.0206 16.1555 16.3898 13.2916 17.3381 11.5329C17.3381 11.5377 17.3381 11.5377 17.3428 11.5377C17.3508 11.5377 17.3682 11.5329 17.3888 11.5329C17.5046 11.5329 17.6219 11.5948 17.6378 11.6329C16.94 13.2123 14.5154 16.7962 11.5404 19.3398C7.49349 22.8063 6.55787 24.3033 6.78305 26.9674ZM20.941 11.6249C20.1798 14.4429 18.1357 18.845 16.1773 21.8707C14.9419 23.7784 13.9905 25.6497 14.8642 29.1527C14.8722 29.186 14.8722 29.2272 14.8309 29.2811C14.731 29.4096 14.4361 29.5475 14.0285 29.5475C13.7954 29.5475 13.0231 29.4889 12.8059 28.7499C11.9622 25.878 12.4729 23.8656 14.7643 21.0556C16.4691 18.9687 19.6073 14.6126 20.5842 11.5123C20.5921 11.5123 20.6555 11.4838 20.7539 11.4838C20.8458 11.4838 20.9156 11.5123 20.9362 11.5377C20.9521 11.5583 20.9442 11.5996 20.941 11.6249ZM23.8414 25.4419C23.5591 25.8209 22.9185 26.1397 22.4443 26.1397C22.2191 26.1397 22.0828 26.0651 22.0368 25.924C20.9886 22.4908 22.7234 16.3173 23.3752 13.9909C23.4672 13.6627 23.5369 13.4169 23.5702 13.2726C23.5956 13.1647 23.7447 13.152 23.7859 13.152C23.8937 13.152 23.9651 13.1933 23.9778 13.2107C23.2087 17.4004 22.7647 20.7178 23.973 24.9741C24.0127 25.1168 23.9699 25.2754 23.8414 25.4419ZM32.8535 27.5574C32.8455 27.7603 32.4792 27.9142 32.0051 27.9142C31.4976 27.9142 31.0234 27.7477 30.7872 27.486C30.654 27.3401 30.5953 27.1704 30.6175 26.9706C30.7665 25.4736 30.6714 22.938 29.9197 20.7067C29.6866 20.0201 29.2965 19.2018 28.843 18.2504C28.0326 16.5551 27.0225 14.4429 26.3327 11.8818C26.3247 11.8564 26.32 11.8231 26.3327 11.8073C26.3533 11.7787 26.4199 11.7534 26.5024 11.7534C26.6276 11.7534 26.7275 11.8073 26.7355 11.8533C26.902 12.6763 28.6638 16.4552 30.7681 19.9916C32.6616 23.1837 32.9486 25.8653 32.8535 27.5574ZM39.5709 26.9928C39.1554 26.9928 38.9191 26.6566 38.9191 26.0746C38.9191 23.6468 37.1858 20.6497 34.1681 17.8523C32.1811 16.0065 30.4145 13.1267 30.1941 12.5066C30.1941 12.5019 30.2321 12.4908 30.294 12.4908C30.4018 12.4908 30.4764 12.5288 30.489 12.5447C31.2867 13.9164 33.935 16.5393 35.2242 17.7366C37.8883 20.2056 40.4859 22.8824 40.4859 26.0746C40.4843 26.6138 40.0022 26.9928 39.5709 26.9928Z" fill="white"/>
<path d="M27.0751 2.04344C26.9878 2.0482 26.9054 2.05137 26.8213 2.05137C26.0031 2.05137 25.1293 2.3051 24.0525 1.87218C23.0836 1.48525 22.083 1.46939 20.8762 1.46939C20.3323 1.46939 19.7915 1.55185 19.2381 1.72311C18.8052 1.85632 18.4024 1.92292 18.0361 1.92292C17.4715 1.92292 16.1537 1.74849 16.6358 1.30288C18.1946 -0.135432 22.4303 -0.0069835 22.7173 0.0104602C24.7249 0.13098 27.4557 -0.255953 28.9019 0.641605C30.4211 1.58674 27.9901 2.00221 27.0751 2.04344Z" fill="white"/>
</svg>
