<svg width="38" height="30" viewBox="0 0 38 30" fill="none" xmlns="http://www.w3.org/2000/svg">
<path d="M12.6129 6.79785L11.7871 7.55122C10.6439 8.72688 9.14094 9.79384 7.20192 10.9932C6.95579 11.1444 6.67843 11.3043 6.38608 11.4742C4.61072 12.4987 2.1807 13.9043 0.7989 16.6841L0.476562 17.7098V16.5967C0.594003 14.4227 2.02578 12.5162 4.84561 10.7708C5.54275 10.3423 6.80337 9.71263 8.14644 9.04547C9.15843 8.54072 10.3503 7.95227 11.5822 7.28011L12.6129 6.79785Z" fill="white"/>
<path d="M37.2954 18.7463L37.263 19.9744C36.8894 16.3562 33.4087 12.4095 31.2048 10.8315C30.1441 10.0719 29.0758 9.42349 28.1301 8.84753C27.8677 8.69011 27.6128 8.53269 27.3667 8.38276L26.6958 7.93799L27.704 8.12414C29.8592 8.71385 32.3017 9.38226 34.0471 10.904C35.635 12.292 37.4391 15.1768 37.2954 18.7463Z" fill="white"/>
<path d="M30.454 11.4602C29.4157 10.7168 28.41 10.1071 27.438 9.51489C25.4865 8.32924 23.6424 7.20981 22.8566 5.58563C22.6667 5.24455 22.5779 4.17759 22.5617 4.02392C22.5255 3.72532 23.5087 2.51468 23.5087 2.51468C23.5087 2.51468 21.9108 2.88824 21.3111 2.88824C20.469 2.88449 19.7756 2.81578 19.071 2.53467C18.3638 2.24981 17.6954 2.25981 16.9395 2.25981C16.6022 2.25981 15.083 2.89449 14.6994 2.89449C14.2184 2.89449 13.2002 2.6721 13.2002 2.6721C13.2002 2.6721 14.0585 4.83976 13.9923 5.45944C13.6749 7.87322 10.1605 10.3782 8.09401 11.6588C7.96907 11.7338 7.77042 11.8849 7.55678 12.0486C7.30816 12.2348 7.0258 12.4484 6.86963 12.5371L6.44359 12.7832C4.36714 13.9689 1.78345 15.4394 1.03008 19.3587C1.01758 19.4011 0.672759 20.7405 1.40364 23.2592C2.24821 26.1765 5.79517 27.2484 10.2817 28.604L10.4978 28.669C11.7484 29.045 16.7784 29.9558 21.8058 29.9558C23.4075 29.9558 24.8743 29.8609 26.1674 29.6772C31.401 28.9276 34.8942 24.5161 35.5464 23.3766C37.3093 19.2387 33.7198 13.8015 30.454 11.4602ZM5.75269 21.5538C5.72646 21.6288 5.34665 21.8349 4.86189 21.8349C4.46584 21.8349 3.99108 21.6975 3.99108 21.0491C3.99108 19.6773 4.47584 17.5383 8.65498 14.8435C11.4548 13.0356 13.3214 10.7793 14.0685 9.3937C14.0685 9.39745 14.0685 9.39745 14.0722 9.39745C14.0785 9.39745 14.0922 9.3937 14.1085 9.3937C14.1997 9.3937 14.2921 9.44243 14.3046 9.47241C13.7549 10.7168 11.8446 13.5404 9.5008 15.5443C6.31241 18.2755 5.57528 19.4549 5.75269 21.5538ZM16.9071 9.46617C16.3074 11.6863 14.6969 15.1545 13.154 17.5383C12.1807 19.0413 11.4311 20.5156 12.1195 23.2754C12.1257 23.3017 12.1257 23.3342 12.0932 23.3766C12.0145 23.4778 11.7821 23.5865 11.4611 23.5865C11.2774 23.5865 10.669 23.5403 10.4978 22.9581C9.83313 20.6955 10.2354 19.11 12.0408 16.8962C13.3838 15.252 15.8563 11.82 16.6259 9.37746C16.6322 9.37746 16.6822 9.35497 16.7596 9.35497C16.8321 9.35497 16.8871 9.37746 16.9033 9.39745C16.9158 9.41369 16.9096 9.44618 16.9071 9.46617ZM19.1922 20.3519C18.9698 20.6505 18.465 20.9016 18.0915 20.9016C17.9141 20.9016 17.8066 20.8429 17.7704 20.7317C16.9445 18.0268 18.3113 13.1631 18.8248 11.3302C18.8973 11.0716 18.9523 10.878 18.9785 10.7643C18.9985 10.6793 19.1159 10.6693 19.1484 10.6693C19.2334 10.6693 19.2896 10.7018 19.2996 10.7155C18.6937 14.0164 18.3438 16.63 19.2959 19.9834C19.3271 20.0958 19.2934 20.2207 19.1922 20.3519ZM26.2923 22.0186C26.2861 22.1785 25.9975 22.2997 25.6239 22.2997C25.2241 22.2997 24.8505 22.1685 24.6644 21.9624C24.5594 21.8474 24.5132 21.7137 24.5307 21.5563C24.6481 20.3769 24.5732 18.3792 23.981 16.6213C23.7973 16.0803 23.49 15.4357 23.1327 14.686C22.4942 13.3505 21.6984 11.6863 21.1549 9.66857C21.1487 9.64858 21.1449 9.62234 21.1549 9.60985C21.1712 9.58736 21.2236 9.56737 21.2886 9.56737C21.3873 9.56737 21.466 9.60985 21.4723 9.64608C21.6034 10.2945 22.9915 13.2717 24.6494 16.0578C26.1411 18.5728 26.3673 20.6855 26.2923 22.0186ZM31.5846 21.5738C31.2573 21.5738 31.0712 21.3089 31.0712 20.8504C31.0712 18.9376 29.7056 16.5763 27.328 14.3724C25.7626 12.9182 24.3708 10.6493 24.1971 10.1608C24.1971 10.1571 24.2271 10.1483 24.2758 10.1483C24.3608 10.1483 24.4195 10.1783 24.4295 10.1908C25.0579 11.2715 27.1444 13.338 28.1601 14.2812C30.2591 16.2265 32.3055 18.3354 32.3055 20.8504C32.3043 21.2752 31.9245 21.5738 31.5846 21.5738Z" fill="white"/>
<path d="M21.7397 1.91755C21.671 1.9213 21.606 1.9238 21.5398 1.9238C20.8951 1.9238 20.2067 2.1237 19.3584 1.78262C18.595 1.47777 17.8067 1.46528 16.8559 1.46528C16.4274 1.46528 16.0013 1.53024 15.5653 1.66518C15.2242 1.77012 14.9069 1.8226 14.6183 1.8226C14.1735 1.8226 13.1353 1.68517 13.5151 1.33409C14.7432 0.200916 18.0803 0.302115 18.3064 0.315858C19.8881 0.41081 22.0395 0.105964 23.179 0.813107C24.3759 1.55773 22.4606 1.88507 21.7397 1.91755Z" fill="white"/>
</svg>
