<svg width="27" height="23" viewBox="0 0 27 23" fill="none" xmlns="http://www.w3.org/2000/svg">
<path d="M8.88711 5.54834L8.29722 6.08646C7.48067 6.92622 6.40711 7.68833 5.02209 8.54504C4.84629 8.65302 4.64817 8.76725 4.43935 8.88862C3.17124 9.62039 1.43551 10.6244 0.448503 12.61L0.218262 13.3426V12.5475C0.302148 10.9947 1.32485 9.63289 3.33901 8.38619C3.83697 8.0801 4.73741 7.63033 5.69675 7.15378C6.4196 6.79325 7.27096 6.37292 8.15087 5.89281L8.88711 5.54834Z" fill="white"/>
<path d="M26.5175 14.0835L26.4943 14.9607C26.2274 12.3763 23.7412 9.55721 22.167 8.4301C21.4093 7.88751 20.6463 7.42435 19.9708 7.01295C19.7834 6.90051 19.6013 6.78807 19.4255 6.68098L18.9463 6.36328L19.6665 6.49625C21.2059 6.91747 22.9505 7.3949 24.1972 8.48186C25.3315 9.47332 26.6201 11.5339 26.5175 14.0835Z" fill="white"/>
<path d="M21.6307 8.87885C20.8891 8.34786 20.1707 7.91237 19.4764 7.48937C18.0825 6.64247 16.7653 5.84288 16.204 4.68275C16.0683 4.43912 16.005 3.677 15.9934 3.56724C15.9675 3.35395 16.6698 2.48921 16.6698 2.48921C16.6698 2.48921 15.5284 2.75604 15.1001 2.75604C14.4986 2.75336 14.0033 2.70428 13.5 2.50349C12.9949 2.30002 12.5175 2.30716 11.9775 2.30716C11.7366 2.30716 10.6514 2.7605 10.3775 2.7605C10.0339 2.7605 9.30657 2.60165 9.30657 2.60165C9.30657 2.60165 9.91965 4.14998 9.87236 4.59261C9.64568 6.31675 7.13534 8.10602 5.6593 9.02074C5.57006 9.07428 5.42817 9.18226 5.27557 9.29917C5.09798 9.43214 4.89629 9.58474 4.78474 9.6481L4.48043 9.8239C2.99725 10.6708 1.15175 11.7212 0.61363 14.5206C0.604706 14.551 0.358402 15.5076 0.88046 17.3067C1.48373 19.3905 4.01727 20.1562 7.22191 21.1245L7.37629 21.1709C8.26959 21.4395 11.8624 22.09 15.4535 22.09C16.5975 22.09 17.6452 22.0222 18.5689 21.891C22.3072 21.3556 24.8023 18.2045 25.2682 17.3906C26.5274 14.435 23.9635 10.5512 21.6307 8.87885ZM3.98693 16.0886C3.96819 16.1421 3.6969 16.2894 3.35064 16.2894C3.06775 16.2894 2.72864 16.1912 2.72864 15.7281C2.72864 14.7482 3.07489 13.2204 6.05999 11.2955C8.05988 10.0042 9.39313 8.39248 9.92679 7.4028C9.92679 7.40548 9.92679 7.40548 9.92947 7.40548C9.93393 7.40548 9.94375 7.4028 9.95535 7.4028C10.0205 7.4028 10.0865 7.43761 10.0955 7.45903C9.7028 8.34786 8.33831 10.3647 6.66415 11.7961C4.38673 13.7469 3.86021 14.5894 3.98693 16.0886ZM11.9543 7.45456C11.526 9.04037 10.3757 11.5177 9.27355 13.2204C8.57837 14.294 8.04292 15.347 8.53464 17.3183C8.5391 17.3371 8.5391 17.3603 8.5159 17.3906C8.45968 17.4629 8.29369 17.5406 8.06434 17.5406C7.93315 17.5406 7.49855 17.5075 7.37629 17.0917C6.90153 15.4755 7.18889 14.3431 8.47842 12.7617C9.43775 11.5873 11.2038 9.13586 11.7535 7.3912C11.758 7.3912 11.7937 7.37514 11.849 7.37514C11.9008 7.37514 11.9401 7.3912 11.9517 7.40548C11.9606 7.41708 11.9561 7.44029 11.9543 7.45456ZM13.5866 15.2301C13.4277 15.4434 13.0672 15.6228 12.8003 15.6228C12.6736 15.6228 12.5969 15.5808 12.571 15.5014C11.9811 13.5693 12.9574 10.0952 13.3242 8.78604C13.3759 8.60131 13.4152 8.46298 13.434 8.38178C13.4482 8.32109 13.5321 8.31395 13.5553 8.31395C13.616 8.31395 13.6562 8.33716 13.6633 8.34697C13.2305 10.7047 12.9806 12.5716 13.6606 14.9668C13.6829 15.0472 13.6588 15.1364 13.5866 15.2301ZM18.6581 16.4206C18.6536 16.5348 18.4475 16.6214 18.1807 16.6214C17.8951 16.6214 17.6283 16.5277 17.4953 16.3804C17.4203 16.2983 17.3873 16.2028 17.3998 16.0904C17.4837 15.248 17.4302 13.821 17.0072 12.5654C16.876 12.179 16.6564 11.7185 16.4012 11.183C15.9452 10.2291 15.3767 9.04037 14.9885 7.59913C14.9841 7.58486 14.9814 7.56611 14.9885 7.55719C15.0001 7.54113 15.0376 7.52685 15.084 7.52685C15.1545 7.52685 15.2107 7.55719 15.2152 7.58307C15.3089 8.04623 16.3004 10.1728 17.4846 12.1629C18.5501 13.9593 18.7117 15.4684 18.6581 16.4206ZM22.4383 16.1029C22.2045 16.1029 22.0716 15.9137 22.0716 15.5862C22.0716 14.2199 21.0962 12.5333 19.3979 10.959C18.2797 9.92029 17.2856 8.29967 17.1615 7.95074C17.1615 7.94807 17.183 7.94182 17.2178 7.94182C17.2784 7.94182 17.3204 7.96324 17.3275 7.97216C17.7764 8.74409 19.2667 10.2201 19.9923 10.8939C21.4915 12.2834 22.9533 13.7898 22.9533 15.5862C22.9524 15.8896 22.6811 16.1029 22.4383 16.1029Z" fill="white"/>
<path d="M15.4059 2.06255C15.3569 2.06523 15.3104 2.06701 15.2631 2.06701C14.8027 2.06701 14.311 2.2098 13.705 1.96617C13.1597 1.74842 12.5966 1.7395 11.9175 1.7395C11.6114 1.7395 11.3071 1.7859 10.9957 1.88228C10.752 1.95725 10.5254 1.99473 10.3192 1.99473C10.0015 1.99473 9.25993 1.89656 9.53122 1.6458C10.4085 0.836383 12.7921 0.908668 12.9536 0.918484C14.0834 0.986307 15.6201 0.76856 16.434 1.27366C17.2889 1.80554 15.9209 2.03935 15.4059 2.06255Z" fill="white"/>
</svg>
