<svg width="22" height="18" viewBox="0 0 22 18" fill="none" xmlns="http://www.w3.org/2000/svg">
<path d="M7.45851 3.9375L6.9866 4.368C6.33336 5.0398 5.47451 5.64949 4.3665 6.33486C4.22585 6.42125 4.06736 6.51263 3.9003 6.60972C2.88582 7.19514 1.49723 7.99831 0.70763 9.58679L0.523438 10.1729V9.53682C0.590546 8.29459 1.4087 7.20514 3.02003 6.20778C3.4184 5.96291 4.13876 5.60309 4.90622 5.22185C5.4845 4.93343 6.16559 4.59717 6.86952 4.21308L7.45851 3.9375Z" fill="white"/>
<path d="M21.5628 10.7655L21.5442 11.4673C21.3308 9.39978 19.3418 7.14449 18.0824 6.24281C17.4763 5.80874 16.8659 5.43821 16.3254 5.10909C16.1755 5.01914 16.0299 4.92918 15.8892 4.84351L15.5059 4.58936L16.082 4.69573C17.3135 5.0327 18.7092 5.41465 19.7066 6.28421C20.614 7.07738 21.6449 8.72584 21.5628 10.7655Z" fill="white"/>
<path d="M17.6534 6.6021C17.0601 6.17731 16.4854 5.82892 15.93 5.49051C14.8148 4.813 13.7611 4.17332 13.312 3.24522C13.2035 3.05032 13.1528 2.44063 13.1435 2.35281C13.1228 2.18219 13.6847 1.49039 13.6847 1.49039C13.6847 1.49039 12.7716 1.70386 12.4289 1.70386C11.9477 1.70171 11.5515 1.66245 11.1488 1.50181C10.7447 1.33904 10.3628 1.34475 9.93086 1.34475C9.7381 1.34475 8.86996 1.70743 8.65079 1.70743C8.37593 1.70743 7.79408 1.58035 7.79408 1.58035C7.79408 1.58035 8.28454 2.81901 8.24671 3.17311C8.06537 4.55242 6.0571 5.98384 4.87627 6.71561C4.80487 6.75845 4.69136 6.84483 4.56928 6.93835C4.42721 7.04473 4.26586 7.16681 4.17662 7.2175L3.93317 7.35814C2.74663 8.03566 1.27023 8.87595 0.839732 11.1155C0.832593 11.1398 0.63555 11.9051 1.0532 13.3444C1.53581 15.0114 3.56264 15.624 6.12635 16.3986L6.24986 16.4357C6.9645 16.6506 9.83876 17.171 12.7116 17.171C13.6268 17.171 14.465 17.1168 15.2039 17.0118C18.1945 16.5835 20.1907 14.0626 20.5633 13.4115C21.5707 11.047 19.5196 7.93999 17.6534 6.6021ZM3.53837 12.3699C3.52338 12.4127 3.30634 12.5305 3.02934 12.5305C2.80303 12.5305 2.53174 12.452 2.53174 12.0815C2.53174 11.2976 2.80874 10.0753 5.19682 8.5354C6.79672 7.50236 7.86333 6.21301 8.29026 5.42126C8.29026 5.42341 8.29026 5.42341 8.2924 5.42341C8.29597 5.42341 8.30382 5.42126 8.3131 5.42126C8.36522 5.42126 8.41805 5.44911 8.42519 5.46624C8.11106 6.17731 7.01947 7.79078 5.68015 8.93592C3.85821 10.4966 3.43699 11.1705 3.53837 12.3699ZM9.91229 5.46267C9.56961 6.73132 8.64936 8.71317 7.76766 10.0753C7.21152 10.9342 6.78316 11.7766 7.17653 13.3537C7.1801 13.3687 7.1801 13.3872 7.16154 13.4115C7.11656 13.4693 6.98377 13.5315 6.80029 13.5315C6.69535 13.5315 6.34767 13.505 6.24986 13.1723C5.87005 11.8794 6.09993 10.9735 7.13156 9.70838C7.89903 8.76886 9.31188 6.80771 9.75166 5.41198C9.75523 5.41198 9.78379 5.39913 9.82805 5.39913C9.86946 5.39913 9.90087 5.41198 9.91015 5.42341C9.91729 5.43269 9.91372 5.45125 9.91229 5.46267ZM11.2181 11.6831C11.091 11.8537 10.8026 11.9972 10.5891 11.9972C10.4877 11.9972 10.4263 11.9637 10.4056 11.9001C9.93371 10.3545 10.7147 7.57518 11.0082 6.52785C11.0496 6.38006 11.081 6.26941 11.096 6.20444C11.1074 6.15589 11.1745 6.15018 11.1931 6.15018C11.2416 6.15018 11.2738 6.16874 11.2795 6.1766C10.9332 8.06279 10.7333 9.55632 11.2773 11.4725C11.2952 11.5367 11.2759 11.6081 11.2181 11.6831ZM15.2753 12.6355C15.2717 12.7269 15.1068 12.7961 14.8934 12.7961C14.6649 12.7961 14.4514 12.7211 14.3451 12.6034C14.2851 12.5377 14.2587 12.4613 14.2687 12.3713C14.3358 11.6974 14.2929 10.5558 13.9545 9.55132C13.8496 9.24219 13.674 8.87381 13.4698 8.44545C13.105 7.68226 12.6502 6.73132 12.3396 5.57833C12.3361 5.5669 12.3339 5.55191 12.3396 5.54477C12.3489 5.53192 12.3789 5.5205 12.416 5.5205C12.4724 5.5205 12.5174 5.54477 12.521 5.56548C12.5959 5.936 13.3891 7.63729 14.3365 9.22934C15.1889 10.6665 15.3181 11.8737 15.2753 12.6355ZM18.2995 12.3813C18.1124 12.3813 18.0061 12.23 18.0061 11.968C18.0061 10.8749 17.2257 9.52562 15.8671 8.26625C14.9726 7.43525 14.1773 6.13876 14.078 5.85961C14.078 5.85747 14.0952 5.85247 14.123 5.85247C14.1716 5.85247 14.2051 5.86961 14.2108 5.87675C14.5699 6.49429 15.7622 7.67512 16.3426 8.21414C17.542 9.32572 18.7114 10.5308 18.7114 11.968C18.7107 12.2107 18.4937 12.3813 18.2995 12.3813Z" fill="white"/>
<path d="M12.6739 1.14897C12.6346 1.15111 12.5975 1.15253 12.5596 1.15253C12.1913 1.15253 11.7979 1.26676 11.3131 1.07186C10.8769 0.897664 10.4264 0.890524 9.88313 0.890524C9.63825 0.890524 9.39481 0.927648 9.14565 1.00475C8.95074 1.06472 8.76941 1.09471 8.60449 1.09471C8.35033 1.09471 7.75706 1.01618 7.97409 0.815562C8.67588 0.168032 10.5828 0.22586 10.712 0.233713C11.6158 0.287971 12.8452 0.113774 13.4963 0.517855C14.1802 0.943355 13.0858 1.1304 12.6739 1.14897Z" fill="white"/>
</svg>
