<svg width="17" height="13" viewBox="0 0 17 13" fill="none" xmlns="http://www.w3.org/2000/svg">
<path d="M5.98546 2.92236L5.63153 3.24523C5.1416 3.74909 4.49747 4.20635 3.66646 4.72038C3.56098 4.78516 3.44211 4.8537 3.31682 4.92652C2.55596 5.36558 1.51452 5.96795 0.922324 7.15931L0.78418 7.59891V7.12183C0.834511 6.19016 1.44813 5.37308 2.65662 4.62507C2.9554 4.44141 3.49566 4.17155 4.07126 3.88562C4.50496 3.6693 5.01577 3.41711 5.54372 3.12904L5.98546 2.92236Z" fill="white"/>
<path d="M16.5637 8.04373L16.5498 8.57006C16.3897 7.01943 14.8979 5.32797 13.9534 4.6517C13.4988 4.32616 13.041 4.04826 12.6357 3.80142C12.5232 3.73396 12.414 3.66649 12.3085 3.60224L12.021 3.41162L12.4531 3.4914C13.3767 3.74413 14.4235 4.03059 15.1715 4.68276C15.8521 5.27763 16.6253 6.51397 16.5637 8.04373Z" fill="white"/>
<path d="M13.6316 4.92104C13.1866 4.60245 12.7556 4.34115 12.339 4.08735C11.5027 3.57922 10.7124 3.09947 10.3756 2.40339C10.2942 2.25722 10.2562 1.79995 10.2492 1.73409C10.2337 1.60612 10.6551 1.08728 10.6551 1.08728C10.6551 1.08728 9.97023 1.24737 9.71322 1.24737C9.35233 1.24577 9.05517 1.21632 8.75318 1.09584C8.45012 0.973762 8.16366 0.978046 7.83971 0.978046C7.69514 0.978046 7.04405 1.25005 6.87967 1.25005C6.67352 1.25005 6.23714 1.15474 6.23714 1.15474C6.23714 1.15474 6.60498 2.08373 6.57661 2.34931C6.4406 3.38378 4.93441 4.45734 4.04879 5.00617C3.99524 5.0383 3.91011 5.10309 3.81855 5.17323C3.71199 5.25301 3.59098 5.34457 3.52405 5.38259L3.34147 5.48807C2.45156 5.9962 1.34427 6.62642 1.0214 8.3061C1.01605 8.3243 0.868264 8.8983 1.1815 9.97775C1.54346 11.228 3.06357 11.6874 4.98635 12.2684L5.07898 12.2962C5.61495 12.4574 7.77064 12.8477 9.92526 12.8477C10.6117 12.8477 11.2403 12.807 11.7945 12.7283C14.0374 12.407 15.5345 10.5164 15.814 10.0281C16.5696 8.2547 15.0312 5.92445 13.6316 4.92104ZM3.04537 9.24687C3.03413 9.279 2.87135 9.36734 2.6636 9.36734C2.49386 9.36734 2.2904 9.30844 2.2904 9.03055C2.2904 8.44264 2.49815 7.52596 4.2892 6.37101C5.48912 5.59623 6.28907 4.62922 6.60927 4.03542C6.60927 4.03702 6.60927 4.03702 6.61087 4.03702C6.61355 4.03702 6.61944 4.03542 6.6264 4.03542C6.66549 4.03542 6.70511 4.0563 6.71047 4.06915C6.47487 4.60245 5.65618 5.81255 4.65169 6.6714C3.28525 7.84187 2.96934 8.34733 3.04537 9.24687ZM7.82579 4.06647C7.56878 5.01795 6.8786 6.50434 6.21733 7.52596C5.80022 8.1701 5.47895 8.80192 5.77398 9.98471C5.77666 9.99595 5.77666 10.0099 5.76274 10.0281C5.729 10.0714 5.62941 10.118 5.4918 10.118C5.41309 10.118 5.15233 10.0982 5.07898 9.84871C4.79412 8.87902 4.96653 8.19955 5.74025 7.25074C6.31585 6.5461 7.37548 5.07524 7.70532 4.02846C7.70799 4.02846 7.72941 4.01882 7.76261 4.01882C7.79366 4.01882 7.81722 4.02846 7.82418 4.03702C7.82954 4.04398 7.82686 4.05791 7.82579 4.06647ZM8.80511 8.73177C8.70981 8.85974 8.49349 8.96737 8.33339 8.96737C8.25736 8.96737 8.21131 8.9422 8.19578 8.89455C7.84186 7.73532 8.42763 5.65084 8.64769 4.86535C8.67875 4.75451 8.70231 4.67152 8.71355 4.6228C8.72212 4.58639 8.77245 4.5821 8.78637 4.5821C8.82278 4.5821 8.84688 4.59602 8.85116 4.60191C8.59147 6.01655 8.44155 7.13669 8.84956 8.57382C8.86294 8.62201 8.84849 8.67555 8.80511 8.73177ZM11.848 9.44605C11.8454 9.51459 11.7217 9.56653 11.5616 9.56653C11.3902 9.56653 11.2301 9.51031 11.1503 9.42196C11.1054 9.3727 11.0856 9.31541 11.0931 9.24794C11.1434 8.74248 11.1113 7.88631 10.8575 7.13295C10.7788 6.9011 10.647 6.62481 10.4939 6.30355C10.2203 5.73116 9.87921 5.01795 9.64629 4.15321C9.64362 4.14465 9.64201 4.1334 9.64629 4.12805C9.65325 4.11841 9.67574 4.10984 9.70359 4.10984C9.74588 4.10984 9.77962 4.12805 9.7823 4.14358C9.83852 4.42147 10.4334 5.69743 11.1439 6.89146C11.7832 7.96931 11.8802 8.87474 11.848 9.44605ZM14.1162 9.25544C13.9759 9.25544 13.8961 9.14192 13.8961 8.94542C13.8961 8.12565 13.3109 7.11367 12.2919 6.16915C11.621 5.5459 11.0245 4.57354 10.9501 4.36418C10.9501 4.36257 10.9629 4.35882 10.9838 4.35882C11.0202 4.35882 11.0454 4.37167 11.0497 4.37703C11.319 4.84019 12.2132 5.72581 12.6485 6.13006C13.5481 6.96375 14.4251 7.86757 14.4251 8.94542C14.4246 9.12747 14.2618 9.25544 14.1162 9.25544Z" fill="white"/>
<path d="M9.89686 0.831081C9.86741 0.832687 9.83957 0.833758 9.81119 0.833758C9.5349 0.833758 9.23988 0.919429 8.87631 0.773254C8.54916 0.642606 8.21129 0.637251 7.80382 0.637251C7.62016 0.637251 7.43758 0.665094 7.25071 0.722922C7.10453 0.767899 6.96853 0.790388 6.84485 0.790388C6.65423 0.790388 6.20928 0.731489 6.37205 0.58103C6.89839 0.0953846 8.32855 0.138755 8.42547 0.144645C9.10334 0.185339 10.0254 0.054691 10.5137 0.357751C11.0266 0.676874 10.2058 0.81716 9.89686 0.831081Z" fill="white"/>
</svg>
