<svg width="38" height="30" viewBox="0 0 38 30" fill="none" xmlns="http://www.w3.org/2000/svg">
<path d="M13.1144 6.8418L12.2886 7.59517C11.1454 8.77082 9.6424 9.83778 7.70338 11.0372C7.45726 11.1884 7.17989 11.3483 6.88754 11.5182C5.11219 12.5427 2.68217 13.9482 1.30036 16.7281L0.978027 17.7538V16.6406C1.09547 14.4667 2.52725 12.5602 5.34707 10.8148C6.04422 10.3863 7.30483 9.75658 8.6479 9.08941C9.65989 8.58467 10.8518 7.99621 12.0837 7.32405L13.1144 6.8418Z" fill="white"/>
<path d="M37.7969 18.7902L37.7644 20.0184C37.3909 16.4002 33.9101 12.4534 31.7062 10.8755C30.6455 10.1159 29.5773 9.46743 28.6315 8.89147C28.3692 8.73405 28.1143 8.57663 27.8682 8.42671L27.1973 7.98193L28.2055 8.16809C30.3607 8.75779 32.8032 9.4262 34.5486 10.9479C36.1365 12.336 37.9406 15.2208 37.7969 18.7902Z" fill="white"/>
<path d="M30.9554 11.5041C29.9172 10.7607 28.9115 10.151 27.9395 9.55884C25.9879 8.37319 24.1439 7.25375 23.358 5.62957C23.1681 5.2885 23.0794 4.22154 23.0632 4.06786C23.0269 3.76926 24.0102 2.55863 24.0102 2.55863C24.0102 2.55863 22.4122 2.93219 21.8125 2.93219C20.9705 2.92844 20.2771 2.85972 19.5724 2.57862C18.8653 2.29376 18.1969 2.30375 17.441 2.30375C17.1037 2.30375 15.5844 2.93843 15.2009 2.93843C14.7199 2.93843 13.7016 2.71605 13.7016 2.71605C13.7016 2.71605 14.56 4.8837 14.4937 5.50339C14.1764 7.91717 10.6619 10.4222 8.59548 11.7028C8.47054 11.7777 8.27189 11.9289 8.05825 12.0926C7.80962 12.2787 7.52726 12.4924 7.37109 12.5811L6.94506 12.8272C4.86861 14.0128 2.28491 15.4833 1.53154 19.4026C1.51905 19.4451 1.17422 20.7844 1.9051 23.3031C2.74968 26.2204 6.29664 27.2924 10.7831 28.6479L10.9993 28.7129C12.2499 29.089 17.2798 29.9998 22.3073 29.9998C23.909 29.9998 25.3758 29.9048 26.6688 29.7212C31.9025 28.9715 35.3957 24.56 36.0479 23.4206C37.8107 19.2827 34.2213 13.8454 30.9554 11.5041ZM6.25416 21.5978C6.22792 21.6727 5.84811 21.8789 5.36336 21.8789C4.96731 21.8789 4.49255 21.7414 4.49255 21.093C4.49255 19.7212 4.9773 17.5823 9.15644 14.8874C11.9563 13.0796 13.8228 10.8232 14.57 9.43765C14.57 9.4414 14.57 9.4414 14.5737 9.4414C14.58 9.4414 14.5937 9.43765 14.6099 9.43765C14.7011 9.43765 14.7936 9.48638 14.8061 9.51636C14.2564 10.7607 12.3461 13.5843 10.0023 15.5883C6.81388 18.3194 6.07675 19.4988 6.25416 21.5978ZM17.4085 9.51011C16.8088 11.7302 15.1984 15.1985 13.6554 17.5823C12.6822 19.0853 11.9325 20.5595 12.6209 23.3194C12.6272 23.3456 12.6272 23.3781 12.5947 23.4206C12.516 23.5218 12.2836 23.6305 11.9625 23.6305C11.7789 23.6305 11.1704 23.5843 10.9993 23.002C10.3346 20.7394 10.7369 19.154 12.5422 16.9401C13.8853 15.2959 16.3578 11.8639 17.1274 9.42141C17.1337 9.42141 17.1836 9.39892 17.2611 9.39892C17.3336 9.39892 17.3885 9.42141 17.4048 9.4414C17.4173 9.45764 17.411 9.49012 17.4085 9.51011ZM19.6936 20.3959C19.4712 20.6945 18.9665 20.9456 18.5929 20.9456C18.4155 20.9456 18.3081 20.8869 18.2718 20.7757C17.446 18.0708 18.8128 13.207 19.3263 11.3742C19.3988 11.1156 19.4537 10.9219 19.48 10.8082C19.5 10.7233 19.6174 10.7133 19.6499 10.7133C19.7348 10.7133 19.7911 10.7457 19.8011 10.7595C19.1951 14.0603 18.8453 16.674 19.7973 20.0273C19.8286 20.1397 19.7948 20.2647 19.6936 20.3959ZM26.7938 22.0625C26.7875 22.2224 26.4989 22.3436 26.1254 22.3436C25.7256 22.3436 25.352 22.2124 25.1659 22.0063C25.0609 21.8914 25.0147 21.7577 25.0322 21.6003C25.1496 20.4209 25.0747 18.4231 24.4825 16.6652C24.2988 16.1243 23.9914 15.4796 23.6341 14.73C22.9957 13.3944 22.1999 11.7302 21.6564 9.71251C21.6501 9.69252 21.6464 9.66628 21.6564 9.65379C21.6726 9.6313 21.7251 9.61131 21.7901 9.61131C21.8888 9.61131 21.9675 9.65379 21.9737 9.69002C22.1049 10.3384 23.493 13.3157 25.1509 16.1018C26.6426 18.6168 26.8687 20.7294 26.7938 22.0625ZM32.0861 21.6177C31.7588 21.6177 31.5726 21.3529 31.5726 20.8944C31.5726 18.9816 30.2071 16.6203 27.8295 14.4164C26.2641 12.9621 24.8723 10.6933 24.6986 10.2048C24.6986 10.201 24.7286 10.1923 24.7773 10.1923C24.8623 10.1923 24.921 10.2223 24.931 10.2347C25.5594 11.3155 27.6459 13.3819 28.6616 14.3252C30.7605 16.2704 32.807 18.3794 32.807 20.8944C32.8057 21.3191 32.4259 21.6177 32.0861 21.6177Z" fill="white"/>
<path d="M22.2407 1.96149C22.1719 1.96524 22.107 1.96774 22.0408 1.96774C21.3961 1.96774 20.7077 2.16764 19.8594 1.82656C19.096 1.52172 18.3077 1.50922 17.3569 1.50922C16.9283 1.50922 16.5023 1.57419 16.0663 1.70912C15.7252 1.81407 15.4079 1.86654 15.1193 1.86654C14.6745 1.86654 13.6363 1.72911 14.0161 1.37804C15.2442 0.244862 18.5813 0.346061 18.8074 0.359804C20.3891 0.454756 22.5405 0.14991 23.6799 0.857052C24.8768 1.60168 22.9615 1.92901 22.2407 1.96149Z" fill="white"/>
</svg>
