<svg width="12" height="10" viewBox="0 0 12 10" fill="none" xmlns="http://www.w3.org/2000/svg">
<path d="M4.20776 2.68164L3.97181 2.89689C3.64519 3.23279 3.21577 3.53764 2.66176 3.88032C2.59144 3.92351 2.51219 3.9692 2.42866 4.01775C1.92142 4.31046 1.22713 4.71204 0.832331 5.50628L0.740234 5.79935V5.48129C0.773789 4.86018 1.18287 4.31546 1.98853 3.81678C2.18772 3.69434 2.54789 3.51443 2.93162 3.32382C3.22076 3.1796 3.5613 3.01147 3.91327 2.81943L4.20776 2.68164Z" fill="white"/>
<path d="M11.2599 6.0954L11.2506 6.4463C11.1439 5.41253 10.1494 4.28489 9.51972 3.83405C9.21666 3.61702 8.91146 3.43175 8.64124 3.26719C8.56628 3.22222 8.49346 3.17724 8.42313 3.1344L8.23145 3.00732L8.51951 3.06051C9.13527 3.229 9.83313 3.41997 10.3318 3.85475C10.7855 4.25134 11.301 5.07556 11.2599 6.0954Z" fill="white"/>
<path d="M9.30519 4.01345C9.00856 3.80105 8.7212 3.62686 8.44349 3.45766C7.88591 3.1189 7.35904 2.79906 7.13451 2.33501C7.08025 2.23756 7.05491 1.93271 7.05026 1.88881C7.03991 1.80349 7.32084 1.4576 7.32084 1.4576C7.32084 1.4576 6.86429 1.56433 6.69295 1.56433C6.45235 1.56326 6.25424 1.54363 6.05291 1.46331C5.85087 1.38192 5.6599 1.38478 5.44394 1.38478C5.34756 1.38478 4.91349 1.56611 4.8039 1.56611C4.66647 1.56611 4.37555 1.50258 4.37555 1.50258C4.37555 1.50258 4.62078 2.1219 4.60186 2.29896C4.51119 2.98861 3.50706 3.70432 2.91664 4.0702C2.88095 4.09162 2.82419 4.13481 2.76315 4.18157C2.69212 4.23476 2.61144 4.2958 2.56682 4.32115L2.4451 4.39147C1.85183 4.73022 1.11363 5.15037 0.898382 6.27016C0.894812 6.28229 0.796291 6.66496 1.00511 7.38459C1.24642 8.2181 2.25983 8.52437 3.54169 8.91168L3.60344 8.93024C3.96076 9.03768 5.39789 9.29791 6.8343 9.29791C7.29193 9.29791 7.711 9.27078 8.08046 9.21831C9.57577 9.00413 10.5738 7.7437 10.7602 7.41815C11.2638 6.23589 10.2383 4.68239 9.30519 4.01345ZM2.2477 6.89734C2.2402 6.91876 2.13169 6.97766 1.99318 6.97766C1.88003 6.97766 1.74438 6.93839 1.74438 6.75313C1.74438 6.36118 1.88288 5.75006 3.07692 4.9801C3.87687 4.46357 4.41017 3.8189 4.62364 3.42303C4.62364 3.4241 4.62364 3.4241 4.62471 3.4241C4.62649 3.4241 4.63042 3.42303 4.63506 3.42303C4.66112 3.42303 4.68753 3.43695 4.6911 3.44552C4.53404 3.80105 3.98824 4.60779 3.31858 5.18035C2.40762 5.96067 2.19701 6.29764 2.2477 6.89734ZM5.43465 3.44373C5.26331 4.07806 4.80319 5.06898 4.36234 5.75006C4.08427 6.17949 3.87009 6.60071 4.06678 7.38923C4.06856 7.39673 4.06856 7.40601 4.05928 7.41815C4.03679 7.44706 3.9704 7.47812 3.87866 7.47812C3.82618 7.47812 3.65234 7.46491 3.60344 7.29857C3.41354 6.65211 3.52848 6.19912 4.04429 5.56659C4.42802 5.09682 5.13445 4.11625 5.35434 3.41839C5.35612 3.41839 5.3704 3.41196 5.39253 3.41196C5.41324 3.41196 5.42894 3.41839 5.43358 3.4241C5.43715 3.42874 5.43537 3.43802 5.43465 3.44373ZM6.08754 6.55394C6.024 6.63926 5.87979 6.71101 5.77305 6.71101C5.72237 6.71101 5.69167 6.69423 5.68132 6.66246C5.44536 5.88964 5.83588 4.49998 5.98259 3.97632C6.00329 3.90243 6.019 3.8471 6.0265 3.81462C6.03221 3.79034 6.06576 3.78749 6.07504 3.78749C6.09932 3.78749 6.11538 3.79677 6.11824 3.8007C5.94511 4.74379 5.84516 5.49055 6.11717 6.44864C6.12609 6.48077 6.11645 6.51646 6.08754 6.55394ZM8.11615 7.03013C8.11437 7.07582 8.03191 7.11045 7.92518 7.11045C7.81095 7.11045 7.70422 7.07297 7.65103 7.01407C7.62105 6.98123 7.60784 6.94303 7.61284 6.89805C7.64639 6.56108 7.62497 5.9903 7.45577 5.48806C7.4033 5.33349 7.31549 5.1493 7.2134 4.93512C7.03099 4.55353 6.8036 4.07806 6.64832 3.50156C6.64654 3.49585 6.64547 3.48835 6.64832 3.48478C6.65297 3.47836 6.66796 3.47265 6.68652 3.47265C6.71472 3.47265 6.73721 3.48478 6.73899 3.49514C6.77647 3.6804 7.17306 4.53104 7.64675 5.32706C8.07296 6.04563 8.13757 6.64925 8.11615 7.03013ZM9.62824 6.90305C9.53472 6.90305 9.48153 6.82738 9.48153 6.69637C9.48153 6.14986 9.09137 5.4752 8.41207 4.84552C7.9648 4.43002 7.56715 3.78178 7.51753 3.6422C7.51753 3.64113 7.52609 3.63864 7.54002 3.63864C7.56429 3.63864 7.58107 3.6472 7.58392 3.65077C7.76347 3.95954 8.3596 4.54996 8.64981 4.81946C9.24951 5.37525 9.83421 5.97781 9.83421 6.69637C9.83385 6.81774 9.72534 6.90305 9.62824 6.90305Z" fill="white"/>
<path d="M6.81569 1.28713C6.79605 1.2882 6.77749 1.28891 6.75857 1.28891C6.57438 1.28891 6.3777 1.34603 6.13532 1.24858C5.91721 1.16148 5.69197 1.15791 5.42032 1.15791C5.29789 1.15791 5.17616 1.17647 5.05158 1.21502C4.95413 1.24501 4.86346 1.26 4.781 1.26C4.65393 1.26 4.35729 1.22073 4.46581 1.12043C4.8167 0.796663 5.77015 0.825576 5.83476 0.829503C6.28667 0.856632 6.90136 0.769533 7.22691 0.971574C7.56888 1.18432 7.02165 1.27785 6.81569 1.28713Z" fill="white"/>
</svg>
