<svg width="44" height="35" viewBox="0 0 44 35" fill="none" xmlns="http://www.w3.org/2000/svg">
<path d="M14.8247 8.10059L13.8809 8.96158C12.5744 10.3052 10.8567 11.5246 8.6407 12.8953C8.35941 13.0681 8.04243 13.2508 7.70831 13.445C5.67934 14.6159 2.90218 16.2222 1.32297 19.3992L0.95459 20.5714V19.2992C1.08881 16.8147 2.72512 14.6358 5.94778 12.6411C6.74452 12.1514 8.18521 11.4318 9.72015 10.6693C10.8767 10.0924 12.2389 9.41992 13.6467 8.65174L14.8247 8.10059Z" fill="white"/>
<path d="M43.0333 21.7566L42.9962 23.1602C42.5692 19.0251 38.5913 14.5146 36.0725 12.7112C34.8603 11.8431 33.6395 11.102 32.5586 10.4438C32.2588 10.2639 31.9675 10.084 31.6862 9.91261L30.9194 9.4043L32.0717 9.61705C34.5347 10.291 37.3262 11.0549 39.3209 12.794C41.1357 14.3803 43.1975 17.6773 43.0333 21.7566Z" fill="white"/>
<path d="M35.2144 13.4293C34.0279 12.5797 32.8785 11.8829 31.7676 11.2061C29.5373 9.85109 27.4298 8.57174 26.5317 6.71553C26.3147 6.32573 26.2133 5.10635 26.1947 4.93072C26.1533 4.58947 27.277 3.20588 27.277 3.20588C27.277 3.20588 25.4508 3.63281 24.7654 3.63281C23.8031 3.62852 23.0106 3.54999 22.2053 3.22873C21.3972 2.90318 20.6333 2.9146 19.7694 2.9146C19.3839 2.9146 17.6476 3.63995 17.2093 3.63995C16.6595 3.63995 15.4959 3.38579 15.4959 3.38579C15.4959 3.38579 16.4768 5.86311 16.4011 6.57132C16.0384 9.32992 12.0219 12.1928 9.66024 13.6563C9.51745 13.742 9.29042 13.9147 9.04626 14.1018C8.76212 14.3145 8.43942 14.5587 8.26094 14.6601L7.77405 14.9414C5.40096 16.2964 2.44817 17.977 1.58718 22.4561C1.5729 22.5047 1.17881 24.0353 2.01411 26.9139C2.97933 30.2479 7.03299 31.473 12.1604 33.0222L12.4074 33.0965C13.8367 33.5262 19.5852 34.5671 25.3309 34.5671C27.1614 34.5671 28.8377 34.4586 30.3155 34.2487C36.2967 33.392 40.289 28.3503 41.0344 27.0481C43.049 22.3191 38.9468 16.1051 35.2144 13.4293ZM6.98445 24.9649C6.95446 25.0505 6.5204 25.2861 5.96639 25.2861C5.51376 25.2861 4.97118 25.1291 4.97118 24.388C4.97118 22.8202 5.52519 20.3758 10.3013 17.2959C13.5011 15.2298 15.6344 12.6511 16.4882 11.0676C16.4882 11.0719 16.4882 11.0719 16.4925 11.0719C16.4996 11.0719 16.5153 11.0676 16.5339 11.0676C16.6381 11.0676 16.7438 11.1233 16.7581 11.1576C16.1298 12.5797 13.9466 15.8066 11.268 18.0969C7.62412 21.2182 6.78169 22.5661 6.98445 24.9649ZM19.7323 11.1504C19.0469 13.6877 17.2064 17.6514 15.443 20.3758C14.3307 22.0935 13.474 23.7783 14.2608 26.9324C14.2679 26.9624 14.2679 26.9995 14.2308 27.0481C14.1408 27.1637 13.8752 27.288 13.5083 27.288C13.2984 27.288 12.603 27.2351 12.4074 26.5698C11.6478 23.9839 12.1076 22.172 14.1708 19.6418C15.7057 17.7628 18.5315 13.8405 19.411 11.0491C19.4181 11.0491 19.4753 11.0234 19.5638 11.0234C19.6466 11.0234 19.7094 11.0491 19.728 11.0719C19.7423 11.0905 19.7351 11.1276 19.7323 11.1504ZM22.3438 23.5913C22.0897 23.9325 21.5128 24.2195 21.0859 24.2195C20.8831 24.2195 20.7603 24.1524 20.7189 24.0253C19.7751 20.934 21.3372 15.3754 21.924 13.2808C22.0068 12.9852 22.0697 12.7639 22.0997 12.634C22.1225 12.5369 22.2567 12.5254 22.2938 12.5254C22.3909 12.5254 22.4552 12.5626 22.4666 12.5783C21.7741 16.3507 21.3743 19.3377 22.4623 23.1701C22.498 23.2986 22.4595 23.4413 22.3438 23.5913ZM30.4583 25.496C30.4511 25.6788 30.1213 25.8173 29.6944 25.8173C29.2375 25.8173 28.8105 25.6674 28.5978 25.4318C28.4779 25.3004 28.425 25.1476 28.445 24.9677C28.5792 23.6198 28.4936 21.3367 27.8168 19.3277C27.6069 18.7095 27.2556 17.9727 26.8472 17.116C26.1176 15.5896 25.2081 13.6877 24.587 11.3817C24.5798 11.3589 24.5755 11.3289 24.587 11.3146C24.6055 11.2889 24.6655 11.2661 24.7397 11.2661C24.8525 11.2661 24.9425 11.3146 24.9496 11.356C25.0996 12.0971 26.6859 15.4997 28.5807 18.6838C30.2855 21.558 30.5439 23.9725 30.4583 25.496ZM36.5066 24.9877C36.1325 24.9877 35.9198 24.685 35.9198 24.161C35.9198 21.9749 34.3592 19.2763 31.642 16.7576C29.8529 15.0956 28.2622 12.5026 28.0638 11.9443C28.0638 11.94 28.098 11.93 28.1537 11.93C28.2508 11.93 28.3179 11.9643 28.3294 11.9786C29.0476 13.2137 31.4321 15.5753 32.5929 16.6534C34.9917 18.8765 37.3305 21.2867 37.3305 24.161C37.3291 24.6465 36.895 24.9877 36.5066 24.9877Z" fill="white"/>
<path d="M25.2549 2.52351C25.1764 2.5278 25.1022 2.53065 25.0265 2.53065C24.2897 2.53065 23.503 2.75911 22.5335 2.36931C21.661 2.02091 20.7601 2.00663 19.6735 2.00663C19.1837 2.00663 18.6968 2.08088 18.1985 2.23509C17.8087 2.35503 17.446 2.415 17.1162 2.415C16.6079 2.415 15.4214 2.25793 15.8554 1.85671C17.259 0.56165 21.0728 0.677306 21.3312 0.693012C23.1389 0.801529 25.5976 0.453134 26.8998 1.2613C28.2677 2.11229 26.0788 2.48639 25.2549 2.52351Z" fill="white"/>
</svg>
