<svg width="153" height="119" viewBox="0 0 153 119" fill="none" xmlns="http://www.w3.org/2000/svg">
<path d="M76.5 119C118.75 119 153 112.948 153 105.483C153 98.0184 118.75 91.9668 76.5 91.9668C34.2502 91.9668 0 98.0184 0 105.483C0 112.948 34.2502 119 76.5 119Z" fill="#ECECEC"/>
<path fill-rule="evenodd" clip-rule="evenodd" d="M124.5 98.8547C124.5 98.8547 130.891 101.703 128.412 105.631C125.506 110.232 111.519 108.838 96.6704 106.806" fill="white"/>
<path d="M117.429 109.611C112.087 109.611 105.087 108.866 96.5441 107.694C96.0585 107.627 95.7189 107.177 95.786 106.687C95.8532 106.197 96.2953 105.854 96.7849 105.922C106.56 107.26 124.756 109.75 127.662 105.153C128.084 104.484 128.195 103.846 128.002 103.197C127.496 101.504 125.041 100.078 124.136 99.6753C123.69 99.4761 123.485 98.9463 123.686 98.4961C123.884 98.046 124.409 97.8388 124.855 98.038C125.017 98.1097 128.85 99.8466 129.699 102.679C130.047 103.842 129.865 104.997 129.158 106.117C127.583 108.611 123.615 109.611 117.429 109.611Z" fill="#01283F"/>
<path fill-rule="evenodd" clip-rule="evenodd" d="M59.0106 108.627C66.4644 109.599 74.3564 108.399 91.6604 107.846C91.6604 107.846 100.622 106.675 104.223 105.679C109.201 104.3 119.9 103.269 126.229 97.0381C131.124 92.2178 139.087 89.505 139.147 68.2123C138.878 67.3199 138.393 59.8068 133.102 53.7675C130.07 50.3814 117.22 39.5219 99.9235 29.2202C99.9235 29.2202 89.9351 22.189 89.5127 4.26652C89.4692 2.48981 88.0638 1.03577 86.299 0.932198C82.5563 0.689195 76.6344 1.54568 71.2414 4.40994C63.9929 8.25417 65.3037 3.24671 56.1088 6.03925C54.8297 6.42567 54.0125 7.68052 54.1151 9.01904C54.5296 13.9787 54.731 26.0851 47.6957 31.9689C36.2544 41.5417 15.8079 50.6204 11.1966 65.2763C6.25769 80.968 8.76466 94.0663 25.9344 102.277C33.1316 105.718 40.3011 106.862 46.1125 107.479L59.0106 108.627Z" fill="white"/>
<path fill-rule="evenodd" clip-rule="evenodd" d="M40.0286 106.551C40.0286 106.551 115.818 109.814 139.245 72.5266C139.245 72.5226 147.56 120.49 40.0286 106.551Z" fill="#F7F1E8"/>
<path d="M65.738 13.4408C59.283 13.4408 54.8297 9.33365 54.5968 9.11853C54.2375 8.77992 54.2178 8.21424 54.5534 7.85172C54.8889 7.48921 55.4496 7.46929 55.8049 7.8079C55.868 7.86766 62.2045 13.6679 70.294 10.8713C75.1737 9.18227 77.4279 7.91945 79.0743 6.99922C80.3495 6.28614 81.3562 5.72046 82.9077 5.35397C84.0369 5.08706 84.8778 4.97153 85.5529 4.87593C86.8439 4.69666 87.4361 4.61301 88.6086 3.67684C88.9916 3.3701 89.5522 3.43782 89.8562 3.82424C90.1602 4.21066 90.0931 4.77634 89.7101 5.08308C88.1586 6.322 87.2189 6.45346 85.7977 6.64866C85.1265 6.74028 84.3646 6.84784 83.3144 7.09483C82.0037 7.40555 81.1825 7.86367 79.9349 8.56082C78.2333 9.51291 75.9001 10.8196 70.8704 12.5604C69.0622 13.1898 67.3369 13.4408 65.738 13.4408Z" fill="#01283F"/>
<path d="M66.7565 112.025C57.5735 112.025 49.0932 109.041 47.9957 108.639C39.9063 107.774 33.3684 106.312 28.0149 104.177C11.0189 97.3926 4.07044 82.5654 9.88187 65.4835C13.7904 53.9946 25.4566 46.2424 35.753 39.4024C39.9339 36.6218 43.8858 34.0006 47.1311 31.2837C53.8466 25.6668 53.6373 13.899 53.2346 9.09872C53.1004 7.32997 54.2019 5.68472 55.8561 5.18676C60.5581 3.76061 62.7295 4.29442 64.4745 4.72067C66.1761 5.13896 67.4039 5.44171 70.8308 3.62118C76.5001 0.60953 82.5721 -0.203137 86.3582 0.0398663C88.569 0.167344 90.3456 2.01576 90.4009 4.24263C90.8036 21.4401 99.6037 27.8857 99.6945 27.9454C102.233 29.8735 105.51 31.9928 108.98 34.2356C121.985 42.6412 139.794 54.1539 140.098 69.7619C140.434 86.8837 133.201 97.6715 117.346 103.711C106.836 107.714 91.7195 109.678 75.8368 109.101C75.7894 109.148 75.7342 109.204 75.6828 109.256C74.8577 110.097 73.1443 111.849 67.9724 112.001C67.5618 112.021 67.1591 112.025 66.7565 112.025ZM61.1819 6.04723C59.9936 6.04723 58.4775 6.25837 56.3614 6.89973C55.5008 7.15867 54.9283 8.02313 54.9994 8.95132C55.4258 14.0225 55.6192 26.5033 48.2602 32.6581C44.9399 35.4387 40.9485 38.0878 36.7242 40.8963C26.6687 47.5769 15.2669 55.1539 11.5558 66.0651C6.001 82.3941 12.3967 96.0183 28.6664 102.512C33.8935 104.599 40.3129 106.025 48.2918 106.87C48.3668 106.878 48.4378 106.894 48.5089 106.922C48.6037 106.957 58.1854 110.503 67.9172 110.216C72.3784 110.085 73.7049 108.73 74.4155 108.001C74.759 107.651 75.1183 107.28 75.6868 107.308C91.4195 107.898 106.374 105.977 116.718 102.038C131.776 96.3011 138.641 86.0551 138.325 69.7978C138.037 55.1459 120.69 43.9319 108.025 35.7415C104.527 33.4787 101.222 31.3435 98.6522 29.3915C98.285 29.1365 89.0546 22.452 88.6243 4.28247C88.5927 2.97981 87.5465 1.90024 86.2476 1.82056C82.8563 1.60545 77.0054 2.35437 71.6559 5.19871C67.6369 7.32997 65.8958 6.90372 64.056 6.45357C63.2428 6.25837 62.3782 6.04723 61.1819 6.04723ZM117.03 102.878H117.034H117.03Z" fill="#01283F"/>
<path d="M52.3029 38.1475C52.0462 38.1475 51.7936 38.0121 51.6593 37.7691C51.458 37.4106 51.5843 36.9564 51.9397 36.7532C62.0544 30.9849 61.5806 17.3209 61.5727 17.1815C61.553 16.7712 61.8688 16.4206 62.2794 16.4047C62.6861 16.3848 63.0335 16.7035 63.0493 17.1178C63.0769 17.7153 63.5783 31.8294 52.6661 38.0559C52.5516 38.1157 52.4292 38.1475 52.3029 38.1475Z" fill="#ABAABF"/>
<path d="M77.8976 42.673C77.637 42.673 77.3844 42.5336 77.2501 42.2906C68.3632 26.1807 71.3163 16.3171 71.4466 15.9068C71.569 15.5124 71.9875 15.2973 72.3744 15.4208C72.7613 15.5443 72.9784 15.9666 72.856 16.357C72.8126 16.4924 70.0174 26.109 78.5411 41.5616C78.7385 41.9201 78.6122 42.3743 78.2529 42.5774C78.1424 42.6412 78.016 42.673 77.8976 42.673Z" fill="#ABAABF"/>
<path d="M93.1922 33.4708C93.1211 33.4708 93.0461 33.4589 92.975 33.439C82.2326 30.0927 82.0786 14.5086 82.0786 13.8473C82.0786 13.437 82.4063 13.1024 82.8169 13.0984C83.2235 13.0984 83.5552 13.433 83.5552 13.8433C83.5552 13.9947 83.7091 28.9892 93.4093 32.0128C93.8002 32.1363 94.0173 32.5506 93.8989 32.945C93.8002 33.2637 93.508 33.4708 93.1922 33.4708Z" fill="#ABAABF"/>
<path d="M24.1814 91.967C23.7787 91.967 23.3602 91.9032 22.9299 91.7718C16.8579 89.9473 17.1619 80.1674 18.2989 74.6739C18.3818 74.2716 18.7727 74.0126 19.1754 74.0963C19.5741 74.1799 19.8307 74.5743 19.7478 74.9806C18.6305 80.3825 18.67 88.9314 23.3563 90.3417C24.1103 90.5687 24.7578 90.501 25.3382 90.1305C26.6805 89.278 27.7346 86.7723 28.307 83.0754C28.6347 80.9482 28.6821 79.1874 28.686 79.1675C28.6979 78.7572 29.0335 78.4345 29.4441 78.4424C29.8507 78.4544 30.1744 78.797 30.1626 79.2073C30.1626 79.283 30.1113 81.0796 29.7678 83.3065C29.1124 87.5531 27.8886 90.2739 26.1278 91.3933C25.5237 91.7758 24.8762 91.967 24.1814 91.967Z" fill="#ABAABF"/>
<path fill-rule="evenodd" clip-rule="evenodd" d="M43.5383 72.0366C41.5525 80.9679 45.5557 88.2859 55.0111 83.8083C66.8906 78.1834 74.526 64.866 83.7327 63.7147C93.804 62.4559 102.565 70.9012 106.122 74.116C111.992 79.4183 127.129 77.0799 122.111 63.0136C119.336 55.2375 105.265 44.123 83.4919 46.7204C61.5371 49.3377 45.5202 63.1052 43.5383 72.0366Z" fill="#FFC0C9"/>
<path d="M53.2227 78.3468C48.2324 78.3468 44.2845 75.3869 44.0634 75.2156C43.7396 74.9686 43.6725 74.4986 43.9212 74.1719C44.166 73.8453 44.6319 73.7775 44.9556 74.0285C45.0227 74.0803 51.6435 79.024 58.1024 75.6618C61.5095 73.8891 62.6662 71.228 63.0374 69.3079C63.6138 66.336 62.6662 63.5913 61.474 62.1851C60.1909 60.6753 57.4944 59.5678 54.6045 59.3646C52.0817 59.1894 49.8906 59.7471 48.5956 60.9023C45.6939 63.4877 45.3188 66.4795 47.4863 69.7939C49.1405 72.3235 52.7529 74.1719 56.7759 72.2518C58.4419 71.455 59.4408 69.9333 59.4447 68.1765C59.4486 66.4117 58.4695 64.8382 56.8864 64.0773C55.0664 63.1969 53.424 63.5793 52.4923 64.2247C51.6711 64.7983 51.2408 65.6309 51.3119 66.5153C51.4106 67.7144 51.7935 68.5589 52.366 68.8418C52.9542 69.1326 53.6964 68.786 54.2176 68.4434C54.561 68.2203 55.019 68.3159 55.2401 68.6625C55.4612 69.0091 55.3664 69.4712 55.023 69.6943C53.499 70.6942 52.3818 70.5109 51.7146 70.1803C50.6486 69.6544 49.9853 68.3956 49.8393 66.6388C49.7208 65.2286 50.3999 63.8662 51.6514 62.9938C53.2701 61.8664 55.5204 61.7628 57.522 62.7268C59.6224 63.7387 60.9252 65.8261 60.9212 68.1765C60.9173 70.5229 59.6026 72.5466 57.4075 73.5983C52.5871 75.9008 48.2443 73.666 46.2505 70.6145C43.6883 66.6946 44.1739 62.8503 47.6126 59.7829C49.2036 58.3687 51.7856 57.6716 54.7032 57.8747C57.9682 58.1058 61.0634 59.4164 62.5952 61.2131C64.3047 63.2288 65.0666 66.595 64.4863 69.5907C64.052 71.8335 62.7097 74.9368 58.7775 76.9844C56.8746 77.9763 54.9835 78.3468 53.2227 78.3468Z" fill="#01283F"/>
<path d="M115.403 73.7656C112.668 73.7656 109.418 73.0565 106.643 70.4671C103.394 67.4395 102.916 64.0893 103.09 61.8106C103.319 58.7671 104.941 55.7236 107.121 54.2417C109.067 52.9151 112.399 52.4849 115.605 53.1382C118.471 53.7238 120.777 55.0862 121.937 56.8788C124.448 60.7589 123.9 64.5952 120.398 67.6865C117.67 70.0927 112.893 71.0806 108.858 67.571C107.018 65.9696 106.284 63.663 106.9 61.4043C107.515 59.1416 109.32 57.4764 111.613 57.0621C113.797 56.6677 115.936 57.3688 117.2 58.8946C118.179 60.0698 118.471 61.5676 117.989 62.8942C117.385 64.5514 116.41 65.5871 115.246 65.8062C114.515 65.9457 113.39 65.8222 112.186 64.4478C111.913 64.1411 111.945 63.667 112.249 63.3961C112.553 63.1212 113.023 63.1531 113.291 63.4599C113.702 63.9299 114.33 64.4597 114.969 64.3402C115.593 64.2207 116.185 63.5077 116.6 62.3803C116.904 61.5477 116.706 60.6275 116.067 59.8546C115.34 58.9822 113.856 58.1775 111.87 58.536C110.145 58.8468 108.787 60.0976 108.325 61.8026C107.867 63.4957 108.423 65.2286 109.821 66.4476C113.189 69.3796 117.16 68.5669 119.423 66.5711C122.383 63.9578 122.814 60.974 120.698 57.7035C119.754 56.2454 117.792 55.1181 115.309 54.6082C112.47 54.0265 109.58 54.3731 107.942 55.4846C106.422 56.5163 104.787 58.9105 104.558 61.9301C104.412 63.8781 104.827 66.7543 107.642 69.3756C112.995 74.3631 120.666 71.3595 120.741 71.3316C121.12 71.1762 121.55 71.3674 121.7 71.7499C121.851 72.1323 121.669 72.5665 121.286 72.7179C121.108 72.7896 118.613 73.7656 115.403 73.7656Z" fill="#01283F"/>
<path d="M70.8781 79.6971C70.6847 79.6971 70.4873 79.6214 70.3412 79.4661C70.0609 79.1673 70.0688 78.6972 70.3649 78.4104L75.6946 73.2834C75.971 73.0165 76.4013 73.0085 76.6895 73.2595L80.6336 76.7173L84.8816 72.3831C85.154 72.1042 85.5962 72.0843 85.8923 72.3433L89.5757 75.5541L92.6907 71.8931C92.9513 71.5864 93.4053 71.5465 93.7172 71.8015C94.7239 72.6261 97.4638 74.849 98.0442 75.2195C98.3876 75.4386 98.4942 75.9007 98.2771 76.2473C98.06 76.5938 97.602 76.7014 97.2585 76.4823C96.6545 76.0959 94.4239 74.2992 93.3461 73.4189L90.2153 77.0998C90.089 77.2511 89.9034 77.3428 89.71 77.3587C89.5126 77.3707 89.3191 77.3069 89.1731 77.1794L85.4501 73.9367L81.2021 78.2749C80.9297 78.5538 80.4875 78.5697 80.1914 78.3148L76.2355 74.845L71.3914 79.5059C71.2413 79.6294 71.0597 79.6971 70.8781 79.6971Z" fill="#01283F"/>
<path fill-rule="evenodd" clip-rule="evenodd" d="M68.0986 101.173C68.0986 101.173 76.184 103.041 75.58 107.26C74.9759 111.483 66.9339 113.291 48.1257 107.75" fill="white"/>
<path d="M67.0603 112.128C62.2793 112.128 55.8125 110.953 47.8732 108.615C47.4034 108.475 47.1309 107.977 47.2691 107.503C47.4073 107.029 47.9008 106.758 48.3706 106.894C65.9391 112.068 71.7071 110.12 73.3692 109.041C74.1549 108.531 74.5891 107.909 74.6997 107.137C75.1734 103.834 67.9723 102.065 67.9013 102.049C67.4236 101.938 67.1275 101.46 67.2341 100.978C67.3446 100.496 67.8184 100.197 68.2961 100.305C68.6593 100.388 77.1711 102.412 76.4565 107.396C76.2749 108.674 75.5367 109.766 74.3325 110.551C72.702 111.602 70.2582 112.128 67.0603 112.128Z" fill="#01283F"/>
</svg>
