<svg width="48" height="48" viewBox="0 0 54 54" fill="none" xmlns="http://www.w3.org/2000/svg">
<rect width="48" height="48" transform="translate(5 5)" fill="white"/>
<path d="M44.1037 21.0904L42.6306 19.6179C42.0577 19.0452 41.7304 18.268 41.7304 17.452V15.3433C41.7304 11.9482 38.9683 9.18922 35.572 9.18922H33.4646C32.6462 9.18922 31.8688 8.85994 31.2959 8.28728L29.8023 6.7963C27.3881 4.40338 23.4803 4.40338 21.0865 6.81471L19.6134 8.28728C19.0405 8.85994 18.2631 9.18922 17.4447 9.18922H15.3373C11.941 9.18922 9.17893 11.9482 9.17893 15.3433V17.4295C9.17893 18.268 8.85158 19.0452 8.2787 19.6179L6.78514 21.1129C4.39136 23.5242 4.41182 27.4327 6.8056 29.8236L8.2787 31.2757C8.85158 31.8688 9.17893 32.646 9.17893 33.4661V35.5707C9.17893 38.9657 11.941 41.7289 15.3373 41.7289H17.4447C18.2631 41.7289 19.0405 42.054 19.6134 42.6267L21.107 44.1218C22.3141 45.308 23.8895 45.8991 25.4649 45.8991C27.0403 45.8991 28.6157 45.308 29.8228 44.0993L31.2959 42.6267C31.8688 42.054 32.6462 41.7289 33.4646 41.7289H35.572C38.9683 41.7289 41.7304 38.9657 41.7304 35.5707V33.4661C41.7304 32.646 42.0577 31.8688 42.6306 31.2961L44.0832 29.844C44.1037 29.8236 44.1241 29.8052 44.1446 29.7827C45.2904 28.6189 45.9246 27.0625 45.9041 25.4263C45.9041 23.7901 45.2699 22.2358 44.1037 21.0904Z" fill="url(#paint0_linear_2719_82719)"/>
<g opacity="0.5" filter="url(#filter0_f_2719_82719)">
<path d="M-nan -nanL37.8012 22.5638L36.8259 21.5888C36.4466 21.2096 36.2298 20.6951 36.2298 20.1548V18.7587C36.2298 16.5108 34.4011 14.6841 32.1524 14.6841H30.7572C30.2154 14.6841 29.7006 14.4661 29.3213 14.087L28.3324 13.0998C26.734 11.5155 24.1467 11.5155 22.5618 13.112L21.5865 14.087C21.2072 14.4661 20.6924 14.6841 20.1506 14.6841H18.7553C16.5067 14.6841 14.6779 16.5108 14.6779 18.7587V20.1399C14.6779 20.6951 14.4612 21.2096 14.0819 21.5888L13.0931 22.5787C11.5082 24.1752 11.5217 26.7629 13.1066 28.3459L14.0819 29.3073C14.4612 29.7 14.6779 30.2145 14.6779 30.7575V32.1509C14.6779 34.3988 16.5067 36.2282 18.7553 36.2282H20.1506C20.6924 36.2282 21.2072 36.4435 21.5865 36.8227L22.5753 37.8125C23.3746 38.5979 24.4176 38.9893 25.4607 38.9893C26.5037 38.9893 27.5468 38.5979 28.346 37.7976L29.3213 36.8227C29.7006 36.4435 30.2154 36.2282 30.7572 36.2282H32.1524C34.4011 36.2282 36.2298 34.3988 36.2298 32.1509V30.7575C36.2298 30.2145 36.4466 29.7 36.8259 29.3208L37.7876 28.3594C37.8012 28.3459 37.8147 28.3337 37.8283 28.3188C38.5869 27.5483 39.0068 26.5178 38.9932 25.4345C38.9932 24.3512 38.5733 23.3221 37.8012 22.5638L-nan -nanZ" fill="#210001"/>
</g>
<g filter="url(#filter1_b_2719_82719)">
<mask id="path-3-outside-1_2719_82719" maskUnits="userSpaceOnUse" x="11.0947" y="11.1016" width="43" height="43" fill="black">
<rect fill="white" x="11.0947" y="11.1016" width="43" height="43"/>
<path d="M51.1984 28.1881L49.7253 26.7155C49.1524 26.1428 48.8251 25.3657 48.8251 24.5496V22.441C48.8251 19.0459 46.063 16.2869 42.6667 16.2869H40.5594C39.741 16.2869 38.9635 15.9576 38.3906 15.3849L36.8971 13.894C34.4828 11.501 30.575 11.501 28.1812 13.9124L26.7081 15.3849C26.1352 15.9576 25.3578 16.2869 24.5394 16.2869H22.432C19.0357 16.2869 16.2737 19.0459 16.2737 22.441V24.5271C16.2737 25.3657 15.9463 26.1428 15.3734 26.7155L13.8799 28.2106C11.4861 30.6219 11.5065 34.5303 13.9003 36.9212L15.3734 38.3733C15.9463 38.9664 16.2737 39.7436 16.2737 40.5638V42.6683C16.2737 46.0634 19.0357 48.8265 22.432 48.8265H24.5394C25.3578 48.8265 26.1352 49.1517 26.7081 49.7244L28.2017 51.2194C29.4088 52.4057 30.9842 52.9967 32.5596 52.9967C34.135 52.9967 35.7104 52.4057 36.9175 51.1969L38.3906 49.7244C38.9635 49.1517 39.741 48.8265 40.5594 48.8265H42.6667C46.063 48.8265 48.8251 46.0634 48.8251 42.6683V40.5638C48.8251 39.7436 49.1524 38.9664 49.7253 38.3938L51.178 36.9417C51.1984 36.9212 51.2189 36.9028 51.2393 36.8803C52.3851 35.7166 53.0193 34.1602 52.9989 32.524C52.9989 30.8878 52.3646 29.3334 51.1984 28.1881Z"/>
</mask>
<path d="M51.1984 28.1881L49.7253 26.7155C49.1524 26.1428 48.8251 25.3657 48.8251 24.5496V22.441C48.8251 19.0459 46.063 16.2869 42.6667 16.2869H40.5594C39.741 16.2869 38.9635 15.9576 38.3906 15.3849L36.8971 13.894C34.4828 11.501 30.575 11.501 28.1812 13.9124L26.7081 15.3849C26.1352 15.9576 25.3578 16.2869 24.5394 16.2869H22.432C19.0357 16.2869 16.2737 19.0459 16.2737 22.441V24.5271C16.2737 25.3657 15.9463 26.1428 15.3734 26.7155L13.8799 28.2106C11.4861 30.6219 11.5065 34.5303 13.9003 36.9212L15.3734 38.3733C15.9463 38.9664 16.2737 39.7436 16.2737 40.5638V42.6683C16.2737 46.0634 19.0357 48.8265 22.432 48.8265H24.5394C25.3578 48.8265 26.1352 49.1517 26.7081 49.7244L28.2017 51.2194C29.4088 52.4057 30.9842 52.9967 32.5596 52.9967C34.135 52.9967 35.7104 52.4057 36.9175 51.1969L38.3906 49.7244C38.9635 49.1517 39.741 48.8265 40.5594 48.8265H42.6667C46.063 48.8265 48.8251 46.0634 48.8251 42.6683V40.5638C48.8251 39.7436 49.1524 38.9664 49.7253 38.3938L51.178 36.9417C51.1984 36.9212 51.2189 36.9028 51.2393 36.8803C52.3851 35.7166 53.0193 34.1602 52.9989 32.524C52.9989 30.8878 52.3646 29.3334 51.1984 28.1881Z" fill="#FF757A" fill-opacity="0.28"/>
<path d="M51.1984 28.1881L49.7253 26.7155C49.1524 26.1428 48.8251 25.3657 48.8251 24.5496V22.441C48.8251 19.0459 46.063 16.2869 42.6667 16.2869H40.5594C39.741 16.2869 38.9635 15.9576 38.3906 15.3849L36.8971 13.894C34.4828 11.501 30.575 11.501 28.1812 13.9124L26.7081 15.3849C26.1352 15.9576 25.3578 16.2869 24.5394 16.2869H22.432C19.0357 16.2869 16.2737 19.0459 16.2737 22.441V24.5271C16.2737 25.3657 15.9463 26.1428 15.3734 26.7155L13.8799 28.2106C11.4861 30.6219 11.5065 34.5303 13.9003 36.9212L15.3734 38.3733C15.9463 38.9664 16.2737 39.7436 16.2737 40.5638V42.6683C16.2737 46.0634 19.0357 48.8265 22.432 48.8265H24.5394C25.3578 48.8265 26.1352 49.1517 26.7081 49.7244L28.2017 51.2194C29.4088 52.4057 30.9842 52.9967 32.5596 52.9967C34.135 52.9967 35.7104 52.4057 36.9175 51.1969L38.3906 49.7244C38.9635 49.1517 39.741 48.8265 40.5594 48.8265H42.6667C46.063 48.8265 48.8251 46.0634 48.8251 42.6683V40.5638C48.8251 39.7436 49.1524 38.9664 49.7253 38.3938L51.178 36.9417C51.1984 36.9212 51.2189 36.9028 51.2393 36.8803C52.3851 35.7166 53.0193 34.1602 52.9989 32.524C52.9989 30.8878 52.3646 29.3334 51.1984 28.1881Z" fill="#8D191D" style="mix-blend-mode:color"/>
<path d="M51.1984 28.1881L49.7253 26.7155C49.1524 26.1428 48.8251 25.3657 48.8251 24.5496V22.441C48.8251 19.0459 46.063 16.2869 42.6667 16.2869H40.5594C39.741 16.2869 38.9635 15.9576 38.3906 15.3849L36.8971 13.894C34.4828 11.501 30.575 11.501 28.1812 13.9124L26.7081 15.3849C26.1352 15.9576 25.3578 16.2869 24.5394 16.2869H22.432C19.0357 16.2869 16.2737 19.0459 16.2737 22.441V24.5271C16.2737 25.3657 15.9463 26.1428 15.3734 26.7155L13.8799 28.2106C11.4861 30.6219 11.5065 34.5303 13.9003 36.9212L15.3734 38.3733C15.9463 38.9664 16.2737 39.7436 16.2737 40.5638V42.6683C16.2737 46.0634 19.0357 48.8265 22.432 48.8265H24.5394C25.3578 48.8265 26.1352 49.1517 26.7081 49.7244L28.2017 51.2194C29.4088 52.4057 30.9842 52.9967 32.5596 52.9967C34.135 52.9967 35.7104 52.4057 36.9175 51.1969L38.3906 49.7244C38.9635 49.1517 39.741 48.8265 40.5594 48.8265H42.6667C46.063 48.8265 48.8251 46.0634 48.8251 42.6683V40.5638C48.8251 39.7436 49.1524 38.9664 49.7253 38.3938L51.178 36.9417C51.1984 36.9212 51.2189 36.9028 51.2393 36.8803C52.3851 35.7166 53.0193 34.1602 52.9989 32.524C52.9989 30.8878 52.3646 29.3334 51.1984 28.1881Z" fill="#8D191D" fill-opacity="0.49" style="mix-blend-mode:multiply"/>
<path d="M49.7253 26.7155L50.0097 26.431L49.7253 26.7155ZM38.3906 15.3849L38.675 15.1004L38.6748 15.1002L38.3906 15.3849ZM36.8971 13.894L37.1813 13.6093L37.1803 13.6082L36.8971 13.894ZM28.1812 13.9124L28.4656 14.1969L28.4667 14.1958L28.1812 13.9124ZM26.7081 15.3849L26.9925 15.6694L26.7081 15.3849ZM15.3734 26.7155L15.089 26.431L15.0888 26.4312L15.3734 26.7155ZM13.8799 28.2106L13.5953 27.9263L13.5944 27.9272L13.8799 28.2106ZM13.9003 36.9212L13.616 37.2058L13.6179 37.2077L13.9003 36.9212ZM15.3734 38.3733L15.6629 38.0938L15.6558 38.0868L15.3734 38.3733ZM26.7081 49.7244L26.9927 49.4401L26.9925 49.4399L26.7081 49.7244ZM28.2017 51.2194L27.9171 51.5037L27.9197 51.5063L28.2017 51.2194ZM36.9175 51.1969L36.6331 50.9124L36.6329 50.9127L36.9175 51.1969ZM38.3906 49.7244L38.675 50.0089L38.3906 49.7244ZM49.7253 38.3938L50.0097 38.6783V38.6783L49.7253 38.3938ZM51.178 36.9417L50.8936 36.6572V36.6572L51.178 36.9417ZM51.2393 36.8803L50.9527 36.5981C50.949 36.6019 50.9453 36.6057 50.9417 36.6097L51.2393 36.8803ZM52.9989 32.524H52.5966L52.5966 32.529L52.9989 32.524ZM51.4828 27.9036L50.0097 26.431L49.4409 27L50.914 28.4726L51.4828 27.9036ZM50.0097 26.431C49.5113 25.9328 49.2274 25.2576 49.2274 24.5496H48.4228C48.4228 25.4737 48.7936 26.3529 49.4409 27L50.0097 26.431ZM49.2274 24.5496V22.441H48.4228V24.5496H49.2274ZM49.2274 22.441C49.2274 18.8234 46.2849 15.8846 42.6667 15.8846V16.6892C45.8412 16.6892 48.4228 19.2684 48.4228 22.441H49.2274ZM42.6667 15.8846H40.5594V16.6892H42.6667V15.8846ZM40.5594 15.8846C39.8495 15.8846 39.1738 15.599 38.675 15.1004L38.1062 15.6694C38.7532 16.3162 39.6324 16.6892 40.5594 16.6892V15.8846ZM38.6748 15.1002L37.1813 13.6093L36.6129 14.1787L38.1064 15.6696L38.6748 15.1002ZM37.1803 13.6082C34.6097 11.0604 30.4473 11.0587 27.8957 13.629L28.4667 14.1958C30.7027 11.9434 34.3559 11.9417 36.6139 14.1797L37.1803 13.6082ZM27.8968 13.6279L26.4237 15.1004L26.9925 15.6694L28.4656 14.1969L27.8968 13.6279ZM26.4237 15.1004C25.925 15.599 25.2492 15.8846 24.5394 15.8846V16.6892C25.4663 16.6892 26.3455 16.3162 26.9925 15.6694L26.4237 15.1004ZM24.5394 15.8846H22.432V16.6892H24.5394V15.8846ZM22.432 15.8846C18.8139 15.8846 15.8714 18.8234 15.8714 22.441H16.6759C16.6759 19.2684 19.2576 16.6892 22.432 16.6892V15.8846ZM15.8714 22.441V24.5271H16.6759V22.441H15.8714ZM15.8714 24.5271C15.8714 25.2591 15.5863 25.9339 15.089 26.431L15.6578 27C16.3063 26.3518 16.6759 25.4722 16.6759 24.5271H15.8714ZM15.0888 26.4312L13.5953 27.9263L14.1645 28.4949L15.658 26.9998L15.0888 26.4312ZM13.5944 27.9272C11.0438 30.4964 11.066 34.6589 13.6161 37.2058L14.1846 36.6366C11.9471 34.4018 11.9283 30.7474 14.1654 28.494L13.5944 27.9272ZM13.6179 37.2077L15.091 38.6598L15.6558 38.0868L14.1827 36.6347L13.6179 37.2077ZM15.0841 38.6528C15.5879 39.1744 15.8714 39.8526 15.8714 40.5638H16.6759C16.6759 39.6347 16.3048 38.7585 15.6628 38.0939L15.0841 38.6528ZM15.8714 40.5638V42.6683H16.6759V40.5638H15.8714ZM15.8714 42.6683C15.8714 46.2855 18.8135 49.2288 22.432 49.2288V48.4242C19.2579 48.4242 16.6759 45.8413 16.6759 42.6683H15.8714ZM22.432 49.2288H24.5394V48.4242H22.432V49.2288ZM24.5394 49.2288C25.2506 49.2288 25.9259 49.5112 26.4237 50.0089L26.9925 49.4399C26.3446 48.7921 25.4649 48.4242 24.5394 48.4242V49.2288ZM26.4235 50.0087L27.9171 51.5037L28.4863 50.9351L26.9927 49.4401L26.4235 50.0087ZM27.9197 51.5063C29.2056 52.7699 30.8837 53.399 32.5596 53.399V52.5945C31.0847 52.5945 29.612 52.0414 28.4836 50.9325L27.9197 51.5063ZM32.5596 53.399C34.2359 53.399 35.9155 52.7695 37.2022 51.4812L36.6329 50.9127C35.5053 52.0418 34.0341 52.5945 32.5596 52.5945V53.399ZM37.2019 51.4814L38.675 50.0089L38.1062 49.4399L36.6331 50.9124L37.2019 51.4814ZM38.675 50.0089C39.1728 49.5112 39.8481 49.2288 40.5594 49.2288V48.4242C39.6338 48.4242 38.7542 48.7921 38.1062 49.4399L38.675 50.0089ZM40.5594 49.2288H42.6667V48.4242H40.5594V49.2288ZM42.6667 49.2288C46.2852 49.2288 49.2274 46.2855 49.2274 42.6683H48.4228C48.4228 45.8413 45.8408 48.4242 42.6667 48.4242V49.2288ZM49.2274 42.6683V40.5638H48.4228V42.6683H49.2274ZM49.2274 40.5638C49.2274 39.8514 49.5115 39.1763 50.0097 38.6783L49.4409 38.1093C48.7934 38.7566 48.4228 39.6358 48.4228 40.5638H49.2274ZM50.0097 38.6783L51.4624 37.2262L50.8936 36.6572L49.4409 38.1093L50.0097 38.6783ZM51.4624 37.2262C51.4629 37.2257 51.5091 37.1816 51.5369 37.151L50.9417 36.6097C50.9395 36.6121 50.9359 36.6159 50.9279 36.6237C50.9233 36.6281 50.9199 36.6314 50.9135 36.6376C50.9078 36.6431 50.9009 36.6498 50.8936 36.6572L51.4624 37.2262ZM51.526 37.1625C52.7462 35.9232 53.4229 34.2637 53.4011 32.5189L52.5966 32.529C52.6157 34.0566 52.024 35.51 50.9527 36.5981L51.526 37.1625ZM53.4011 32.524C53.4011 30.7829 52.7257 29.1242 51.4803 27.9011L50.9165 28.4751C52.0036 29.5426 52.5966 30.9927 52.5966 32.524H53.4011Z" fill="url(#paint1_linear_2719_82719)" mask="url(#path-3-outside-1_2719_82719)"/>
</g>
<g filter="url(#filter2_bd_2719_82719)">
<path fill-rule="evenodd" clip-rule="evenodd" d="M28.5496 39.0686C28.2223 39.4163 27.7722 39.6003 27.2811 39.6003C26.8105 39.6003 26.3604 39.4163 26.0331 39.0686C25.3374 38.3732 25.3374 37.2279 26.0331 36.5325L36.5494 26.02C37.245 25.3267 38.3703 25.3267 39.0659 26.02C39.7616 26.7154 39.7616 27.8628 39.0659 28.5581L28.5496 39.0686ZM37.8179 39.6004C36.8154 39.6004 36.0175 38.8028 36.0175 37.8006C36.0175 36.821 36.8154 36.0213 37.8179 36.0213C38.8 36.0213 39.5979 36.821 39.5979 37.8006C39.5979 38.8028 38.8 39.6004 37.8179 39.6004ZM29.0814 27.2881C29.0814 26.3064 28.2835 25.5087 27.3014 25.5087C26.3194 25.5087 25.501 26.3064 25.501 27.2881C25.501 28.2923 26.3194 29.0879 27.3014 29.0879C28.2835 29.0879 29.0814 28.2923 29.0814 27.2881Z" fill="white"/>
</g>
<defs>
<filter id="filter0_f_2719_82719" x="0.155999" y="0.157952" width="50.5923" height="50.5864" filterUnits="userSpaceOnUse" color-interpolation-filters="sRGB">
<feFlood flood-opacity="0" result="BackgroundImageFix"/>
<feBlend mode="normal" in="SourceGraphic" in2="BackgroundImageFix" result="shape"/>
<feGaussianBlur stdDeviation="5.87757" result="effect1_foregroundBlur_2719_82719"/>
</filter>
<filter id="filter1_b_2719_82719" x="1.69238" y="1.69922" width="61.709" height="61.6997" filterUnits="userSpaceOnUse" color-interpolation-filters="sRGB">
<feFlood flood-opacity="0" result="BackgroundImageFix"/>
<feGaussianBlur in="BackgroundImage" stdDeviation="5"/>
<feComposite in2="SourceAlpha" operator="in" result="effect1_backgroundBlur_2719_82719"/>
<feBlend mode="normal" in="SourceGraphic" in2="effect1_backgroundBlur_2719_82719" result="shape"/>
</filter>
<filter id="filter2_bd_2719_82719" x="17.1693" y="17.1683" width="30.7601" height="30.764" filterUnits="userSpaceOnUse" color-interpolation-filters="sRGB">
<feFlood flood-opacity="0" result="BackgroundImageFix"/>
<feGaussianBlur in="BackgroundImage" stdDeviation="4.16586"/>
<feComposite in2="SourceAlpha" operator="in" result="effect1_backgroundBlur_2719_82719"/>
<feColorMatrix in="SourceAlpha" type="matrix" values="0 0 0 0 0 0 0 0 0 0 0 0 0 0 0 0 0 0 127 0" result="hardAlpha"/>
<feOffset dx="2.77724" dy="2.77724"/>
<feGaussianBlur stdDeviation="2.77724"/>
<feColorMatrix type="matrix" values="0 0 0 0 0.825 0 0 0 0 0.120312 0 0 0 0 0.144612 0 0 0 0.5 0"/>
<feBlend mode="normal" in2="effect1_backgroundBlur_2719_82719" result="effect2_dropShadow_2719_82719"/>
<feBlend mode="normal" in="SourceGraphic" in2="effect2_dropShadow_2719_82719" result="shape"/>
</filter>
<linearGradient id="paint0_linear_2719_82719" x1="25.4523" y1="5.00391" x2="25.4523" y2="45.8991" gradientUnits="userSpaceOnUse">
<stop stop-color="#B8191E"/>
<stop offset="1" stop-color="#75151C"/>
</linearGradient>
<linearGradient id="paint1_linear_2719_82719" x1="18.6061" y1="16.8659" x2="44.6916" y2="49.1809" gradientUnits="userSpaceOnUse">
<stop stop-color="white" stop-opacity="0.49"/>
<stop offset="1" stop-color="white" stop-opacity="0"/>
</linearGradient>
</defs>
</svg>
